<svg width="129" height="60" viewBox="0 0 129 60" fill="none" xmlns="http://www.w3.org/2000/svg">
<path d="M70.4762 57.8618L70.5759 57.8538H70.5798C70.4905 57.8598 70.4664 57.8618 70.4762 57.8618Z" fill="#5A606C"/>
<path d="M66.8424 54.9547C68.1463 54.4521 69.2066 53.4454 69.7965 52.1501C70.5529 50.5822 70.9378 48.853 70.92 47.1034C70.9057 44.4294 70.086 41.0464 67.6452 39.613C67.1235 39.3039 66.5368 39.1289 65.935 39.1028C65.3333 39.0767 64.7343 39.2003 64.189 39.463C63.1203 40.0299 62.2623 40.9414 61.7469 42.0573C61.078 43.4521 60.6926 44.972 60.6141 46.5246C60.5356 48.0772 60.7658 49.6299 61.2904 51.0883C61.723 52.3954 62.5215 53.5426 63.5858 54.3863C64.0493 54.7323 64.5843 54.9637 65.1493 55.0623C65.7142 55.1609 66.2937 55.1241 66.8424 54.9547ZM66.8861 41.6382C66.8209 41.5927 66.8274 41.5887 66.8861 41.6382V41.6382ZM65.147 52.8672C65.1907 52.8859 65.1933 52.8913 65.147 52.8672V52.8672ZM65.9132 52.9923C65.8223 52.9964 65.7315 52.9964 65.6406 52.9923C65.6146 52.9959 65.5882 52.9938 65.563 52.9863C65.5387 52.9832 65.5145 52.9812 65.4906 52.9803H65.5513C65.4515 52.9542 65.3511 52.9334 65.2526 52.9006C65.2135 52.8879 65.1737 52.8725 65.1346 52.8571L65.1052 52.8424C65.0081 52.7881 64.9096 52.7366 64.8183 52.6763C64.7798 52.6502 64.669 52.5645 64.6494 52.5518C64.4922 52.417 64.3438 52.2716 64.2053 52.1166C64.1793 52.0858 64.0873 51.9714 64.0632 51.9446C63.998 51.8555 63.9367 51.7665 63.8773 51.6768C63.7281 51.4419 63.5929 51.198 63.4724 50.9463C63.4378 50.874 63.4072 50.8004 63.3713 50.7267L63.3478 50.6725C63.3022 50.5594 63.2598 50.4456 63.2174 50.3297C63.1154 50.0321 63.0283 49.7293 62.9566 49.4225C62.8842 49.1179 62.8261 48.8113 62.7798 48.5013L62.7759 48.4732V48.4471C62.7648 48.352 62.7544 48.2563 62.7466 48.1612C62.7303 47.9871 62.7192 47.8117 62.7114 47.637C62.6231 46.3596 62.7976 45.0774 63.2233 43.8737C63.2617 43.7639 63.3028 43.6541 63.3452 43.5463C63.3563 43.5255 63.4352 43.3454 63.4554 43.3006C63.5744 43.0469 63.7083 42.801 63.8565 42.5641C63.9217 42.4584 63.9967 42.3566 64.0677 42.2535L64.0749 42.2461C64.1206 42.1932 64.1636 42.1383 64.2093 42.0854C64.3511 41.9259 64.5036 41.7766 64.6657 41.6389C64.6918 41.6201 64.7805 41.5532 64.8235 41.5257C64.9061 41.4717 64.9909 41.422 65.0779 41.3764L65.0922 41.3691C65.1111 41.3565 65.1315 41.3464 65.1528 41.3389L65.2076 41.3122L65.162 41.3349L65.1913 41.3235C65.3041 41.2874 65.4156 41.2566 65.5298 41.2258L65.5689 41.2158H65.6021C65.7084 41.2158 65.8134 41.2077 65.9191 41.2158C65.9432 41.2158 65.9667 41.2158 65.9895 41.2218C66.1036 41.2519 66.2177 41.276 66.3299 41.3148C66.3742 41.3302 66.4179 41.3503 66.4603 41.3644C66.2079 41.2807 66.414 41.347 66.4747 41.3791C66.5835 41.4364 66.6891 41.5002 66.7909 41.5699C66.8255 41.5927 66.8561 41.6175 66.892 41.6416L66.9142 41.661C67.0133 41.75 67.1098 41.8404 67.2031 41.9368C67.2963 42.0332 67.3856 42.143 67.4769 42.2488L67.4848 42.2582C67.5291 42.3251 67.5774 42.3881 67.6211 42.455C67.7812 42.6987 67.9259 42.9527 68.054 43.2156C68.0823 43.2736 68.1095 43.3316 68.1356 43.3896C68.1479 43.4157 68.1877 43.5108 68.2008 43.545C68.2562 43.6862 68.3097 43.8288 68.3573 43.9728C68.4688 44.3077 68.5617 44.6488 68.6357 44.9944C68.7051 45.3035 68.7567 45.6165 68.7903 45.9318C68.8294 46.3214 68.847 46.7131 68.849 47.1061C68.849 47.4408 68.8346 47.7756 68.8066 48.1103C68.7988 48.2054 68.7883 48.3011 68.7785 48.3975L68.7688 48.4806C68.7446 48.656 68.7153 48.83 68.6807 49.0041C68.5723 49.5744 68.4114 50.1328 68.2001 50.6718C68.1943 50.6792 68.088 50.9209 68.0697 50.9537C68.0091 51.0823 67.9445 51.2074 67.8741 51.3313C67.7547 51.5468 67.6225 51.7545 67.4782 51.9533C67.4548 51.9801 67.3622 52.0952 67.3348 52.1267C67.263 52.2084 67.1894 52.2887 67.1118 52.3644C67.0342 52.44 66.952 52.5096 66.8724 52.5819C66.8072 52.6141 66.7511 52.6683 66.6905 52.7065C66.6077 52.7594 66.5216 52.8049 66.4362 52.8524C66.4238 52.8584 66.4068 52.8658 66.3905 52.8732L66.4557 52.8491L66.3873 52.8752C66.3468 52.8926 66.3116 52.9053 66.341 52.8926L66.324 52.9C66.2349 52.9305 66.1444 52.9565 66.0527 52.9776C66.0084 52.9877 65.9601 52.993 65.9151 53.0044L65.9673 52.991C65.9493 52.9927 65.9312 52.9932 65.9132 52.9923Z" fill="#5A606C"/>
<path d="M65.9697 52.9848C66.0421 52.9714 66.1041 52.9493 65.9697 52.9848V52.9848Z" fill="#5A606C"/>
<path d="M65.1461 41.34L65.0854 41.3701L65.1552 41.3359L65.1461 41.34Z" fill="#5A606C"/>
<path d="M65.5576 52.9846H65.5629L65.6281 52.9906H65.6378C65.6081 52.9856 65.578 52.9825 65.5479 52.9812L65.5576 52.9846Z" fill="#5A606C"/>
<path d="M66.388 52.8682H66.3932L66.3423 52.8874L66.388 52.8682Z" fill="#5A606C"/>
<path d="M12.0099 32.7091L11.9395 32.6843L12.0112 32.7091H12.0099Z" fill="#5A606C"/>
<path d="M15.8765 50.1047C15.9267 50.0625 15.9886 49.9989 15.8765 50.1047V50.1047Z" fill="#5A606C"/>
<path d="M12.0918 48.4562C12.6319 48.2321 13.1222 47.8979 13.5331 47.4739C13.944 47.0499 14.2669 46.5448 14.4824 45.9891C15.0758 44.6036 15.3759 43.1046 15.3627 41.5911C15.3503 39.3108 14.7876 36.4085 12.7863 35.0621C12.367 34.785 11.884 34.6264 11.386 34.6021C10.8879 34.5779 10.3925 34.689 9.94963 34.9242C9.06439 35.4479 8.37683 36.2625 7.99788 37.2366C6.95871 39.7057 6.83372 42.4794 7.6464 45.0364C8.25481 46.911 9.85116 49.2288 12.0918 48.4562ZM11.3295 46.4711C11.3456 46.4663 11.3622 46.4636 11.379 46.4631C11.3745 46.4698 11.3543 46.4718 11.3269 46.4718L11.3295 46.4711ZM11.2904 36.7057C11.2711 36.7072 11.2517 36.7054 11.233 36.7004H11.2454C11.2596 36.7015 11.2737 36.7032 11.2877 36.7057H11.2904ZM11.1828 36.7077C11.1501 36.7151 11.1215 36.7211 11.1221 36.7205C11.1392 36.7102 11.1591 36.7057 11.1788 36.7077H11.1828ZM10.7152 46.2509L10.6741 46.2227L10.7041 46.2415C10.6911 46.2314 10.6767 46.2194 10.6604 46.2053C10.5952 46.1451 10.53 46.0821 10.4726 46.0165C10.4537 45.9958 10.3676 45.892 10.3285 45.8465C10.2894 45.801 10.2287 45.7025 10.2137 45.6798C10.1583 45.5927 10.1055 45.5044 10.0553 45.412C10.0051 45.3196 9.95354 45.2245 9.90659 45.1281C9.88768 45.0899 9.80551 44.9072 9.79573 44.8898C9.6238 44.452 9.49003 43.9994 9.39599 43.5374C9.36991 43.4088 9.34578 43.2803 9.32361 43.1511C9.31839 43.1176 9.28709 42.8993 9.28318 42.8866C9.24992 42.5994 9.2284 42.3102 9.21797 42.0223C9.15308 40.9699 9.27664 39.9143 9.58249 38.9077C9.6477 38.6982 9.71683 38.4913 9.79638 38.2878L9.80747 38.265C9.82638 38.2215 9.84594 38.178 9.86616 38.1351C9.91833 38.0233 9.97506 37.9135 10.0337 37.8057C10.1185 37.6511 10.2137 37.5051 10.3115 37.3598C10.3115 37.3639 10.3813 37.2695 10.4224 37.2219C10.4876 37.1449 10.56 37.0719 10.6343 37.001C10.6487 36.9876 10.6995 36.9467 10.7322 36.918C10.7648 36.8892 10.8319 36.851 10.8482 36.841C10.8645 36.8309 10.918 36.8028 10.9584 36.7807C10.9989 36.7586 11.0889 36.7338 11.1149 36.7265C11.141 36.7191 11.1762 36.7138 11.2069 36.7057C11.259 36.7057 11.3177 36.7171 11.3419 36.7151H11.3569C11.4397 36.7392 11.5212 36.772 11.6034 36.7941C11.3953 36.7392 11.5381 36.768 11.6549 36.8376C11.7025 36.8657 11.8186 36.9628 11.8127 36.9528C11.9235 37.0565 12.0305 37.1623 12.1329 37.2782C12.14 37.2862 12.157 37.3069 12.1733 37.3277C12.1896 37.3485 12.2124 37.3813 12.2189 37.3906C12.2842 37.487 12.3455 37.5834 12.4035 37.6839C12.4615 37.7843 12.5215 37.8954 12.575 38.0039C12.603 38.0601 12.6304 38.1157 12.6565 38.1726L12.6989 38.267C12.7139 38.3032 12.7354 38.3561 12.74 38.3688C12.7635 38.4317 12.7863 38.4953 12.8084 38.5582C12.8541 38.6921 12.8952 38.8207 12.935 38.9533C13.0165 39.2318 13.0836 39.515 13.1391 39.8008C13.1671 39.9501 13.1925 40.0994 13.2147 40.2494V40.2668C13.2271 40.3612 13.2362 40.4556 13.244 40.5487C13.2767 40.8928 13.2897 41.2376 13.2917 41.5844C13.2917 41.8696 13.2819 42.1555 13.259 42.4394C13.2493 42.578 13.2356 42.7159 13.2206 42.8538L13.2167 42.8879C13.2043 42.9736 13.1912 43.0587 13.1775 43.145C13.0947 43.6432 12.9708 44.1333 12.8071 44.6099C12.7745 44.7043 12.7419 44.7974 12.7035 44.8884C12.6891 44.9152 12.6311 45.0471 12.6148 45.0799C12.518 45.2838 12.4091 45.4815 12.2887 45.6717C12.2424 45.7434 12.1929 45.8117 12.1453 45.8813C12.2802 45.6804 12.1211 45.9054 12.08 45.9483C12.0207 46.0152 11.9588 46.0822 11.8942 46.1431C11.8205 46.2154 11.6334 46.3379 11.829 46.21C11.7638 46.2549 11.6986 46.3031 11.6268 46.3439C11.5434 46.3928 11.351 46.437 11.6047 46.37C11.5434 46.3868 11.4834 46.4156 11.4208 46.4323C11.3843 46.4423 11.3471 46.4497 11.3106 46.4591C11.2558 46.4591 11.1886 46.4511 11.1645 46.4517H11.1462C11.0895 46.435 11.0315 46.4122 10.9728 46.3968C10.9402 46.3801 10.9076 46.3647 10.8789 46.3473C10.8371 46.3229 10.7966 46.2963 10.7576 46.2676C10.7417 46.2641 10.7264 46.2585 10.7119 46.2509H10.7152Z" fill="#5A606C"/>
<path d="M10.7017 46.2415L10.7126 46.2507L10.7526 46.2765C10.7369 46.263 10.7198 46.2512 10.7017 46.2415Z" fill="#5A606C"/>
<path d="M17.6939 1.90289C17.7383 1.89485 17.7826 1.88749 17.8243 1.88013C17.7661 1.88717 17.7082 1.89722 17.6509 1.91025C17.6678 1.90891 17.6815 1.90891 17.6939 1.90289Z" fill="#5A606C"/>
<path d="M74.7562 35.8765C74.7609 36.157 74.8715 36.4246 75.0647 36.623C75.2579 36.8213 75.5185 36.9349 75.7917 36.9397L91.7304 36.8727L96.2645 36.8553C96.538 36.8518 96.7994 36.7387 96.9927 36.54C97.1861 36.3414 97.2962 36.073 97.2994 35.7921C97.2883 35.5124 97.1784 35.2463 96.9903 35.0436C96.406 33.2042 95.4588 31.5081 94.2078 30.0612C94.0803 29.9307 93.9218 29.8369 93.7479 29.789C93.5741 29.7412 93.3911 29.7411 93.2172 29.7887L77.615 29.387C77.3561 29.3314 77.0864 29.3775 76.859 29.5162C76.6317 29.6549 76.4633 29.8762 76.3871 30.1362L74.764 35.3409C74.7148 35.5118 74.7134 35.6935 74.7601 35.8651L74.7562 35.8765ZM77.1037 34.8053C77.4459 33.7127 77.7874 32.6191 78.1282 31.5247C78.6381 31.5381 79.1483 31.5513 79.6587 31.5642L80.5064 34.7886H80.3297L77.1037 34.8053ZM82.6466 34.7825C82.371 33.7296 82.0947 32.6765 81.8178 31.6231C85.5565 31.7187 89.2952 31.8144 93.034 31.9104C93.0705 31.9552 93.1096 31.9987 93.1461 32.0443L93.2198 32.1387C93.2752 32.2163 93.332 32.2933 93.3861 32.3716C93.6365 32.7323 93.8677 33.1067 94.0786 33.4931C94.2906 33.8807 94.4803 34.2797 94.657 34.6861L94.6701 34.7163L94.6779 34.735C90.6666 34.7515 86.6557 34.7674 82.6453 34.7825H82.6466Z" fill="#5A606C"/>
<path d="M128.405 37.0119C128.398 36.763 128.31 36.5239 128.154 36.3333C127.998 36.1427 127.784 36.0119 127.546 35.9621C127.509 35.9373 127.471 35.9092 127.433 35.8864C127.101 35.7118 126.755 35.5665 126.399 35.4519L124.652 34.8012C123.698 32.7933 122.52 30.906 121.142 29.1773C121.089 29.0926 121.026 29.0152 120.953 28.947C120.81 28.7696 120.667 28.5928 120.519 28.4194C120.471 28.3641 120.415 28.3157 120.355 28.2755C118.093 26.1751 115.387 24.6424 112.45 23.7978C110.95 23.3198 109.413 22.9656 107.885 22.5927L102.547 21.2919L97.0526 19.9529C97.0363 19.9334 97.0233 19.9114 97.005 19.8926L89.8228 12.4156C88.6405 11.1844 87.4537 9.96853 86.1645 8.85246C84.784 7.65162 83.3275 6.54608 81.8045 5.5431C81.3159 5.22397 80.8192 4.91778 80.3144 4.62454C80.1969 4.48389 80.0357 4.38928 79.858 4.35674H79.8469C78.824 3.78348 77.7715 3.26787 76.694 2.81219C76.5819 2.69607 76.4366 2.61983 76.2792 2.5946L76.1097 2.56983L76.0986 2.56581C75.9944 2.52669 75.8831 2.51139 75.7726 2.52095C69.2346 1.54548 62.662 0.826434 56.0673 0.41268C50.6423 0.0725714 45.2113 -0.0573131 39.7745 0.0230275C35.7041 0.0899781 31.6343 0.285475 27.5802 0.642991C25.0161 0.867945 22.4566 1.15918 19.9108 1.54079C19.3052 1.63006 18.701 1.72759 18.098 1.83337L17.8287 1.88024C17.9663 1.85948 18.0686 1.8481 17.6572 1.90902H17.6409C17.4285 1.93818 17.2184 1.98292 17.0122 2.04292C16.1822 2.26563 15.4708 2.81466 15.0318 3.57141C14.7198 4.15578 14.5822 4.82143 14.636 5.48552C12.0406 8.31842 9.44545 11.1511 6.85051 13.9836C6.76839 14.0279 6.69267 14.0838 6.62554 14.1496C4.7527 16.0242 4.28644 18.7578 3.85149 21.2899L2.44295 29.502C2.43773 29.5328 2.43708 29.5649 2.43382 29.5971C2.39038 29.6462 2.35091 29.6988 2.31579 29.7544C1.06844 31.8365 0.47388 34.2616 0.612498 36.7019C0.734441 38.8684 1.52544 42.3733 4.0856 42.38C4.21304 42.4398 4.35249 42.4678 4.49251 42.4616C4.66708 42.4531 4.83726 42.4026 4.98941 42.3143C5.03267 43.9765 5.30693 45.6238 5.80389 47.2064C6.26608 48.8931 7.17302 50.416 8.42469 51.6071C9.202 52.2955 10.1801 52.6992 11.2053 52.7546C11.2216 52.7546 11.2352 52.76 11.2516 52.76C12.3217 52.76 13.3931 52.768 14.4632 52.76C16.4195 52.7446 17.9239 51.3346 18.8851 49.693C19.4006 48.7927 19.8029 47.829 20.0823 46.8248C21.4237 46.9587 22.7638 47.1147 24.1045 47.262C26.8655 47.5668 29.6261 47.8732 32.3862 48.1812L42.0856 49.2611C44.9487 49.5803 47.8117 49.898 50.6744 50.2145C52.1319 50.3765 53.59 50.5392 55.0487 50.6932C54.9409 51.7907 54.8322 52.8881 54.7227 53.9852C54.7227 54.2339 54.8074 54.4749 54.9623 54.6662C55.1171 54.8576 55.3322 54.9873 55.5704 55.0329C55.6637 55.0641 55.7602 55.0838 55.858 55.0919L59.5854 55.3456C60.2478 56.7022 61.2015 57.8869 62.3745 58.8103C63.3384 59.5458 64.4996 59.9584 65.7002 59.992C65.7243 59.992 65.7478 60 65.7719 60H69.9454C72.3216 60 74.2069 58.5987 75.5535 56.6732C76.3184 55.5437 76.9082 54.2993 77.3017 52.9842C77.69 53.0966 78.0864 53.1763 78.4873 53.2226C79.1457 53.2789 79.8066 53.2979 80.467 53.2795C83.3363 53.2795 86.2095 53.1757 89.0787 53.0786C92.9352 52.9492 96.7914 52.7961 100.647 52.6194C101.246 52.5926 101.844 52.5647 102.443 52.5357C103.746 54.5454 105.743 55.9732 108.031 56.5313C109.158 56.7779 110.322 56.7868 111.453 56.5573C112.583 56.3278 113.656 55.8648 114.607 55.1963C115.735 54.4079 116.689 53.3871 117.411 52.1989C117.509 52.0355 117.556 51.8459 117.548 51.6546C117.671 51.6399 117.793 51.6258 117.914 51.6037C118.06 51.5705 118.196 51.5009 118.31 51.4011C118.423 51.3012 118.511 51.1743 118.566 51.0313C118.833 50.7604 119.046 50.4386 119.193 50.084C119.25 49.9534 119.298 49.8192 119.338 49.6822C119.359 49.6007 119.376 49.518 119.388 49.4345L121.452 49.1513C122.406 49.0942 123.351 48.9344 124.273 48.6746C124.742 48.5078 125.165 48.2268 125.506 47.8558C125.846 47.4847 126.095 47.0345 126.229 46.5436C126.417 45.8079 126.448 45.0391 126.319 44.29C126.669 44.165 126.991 43.9696 127.267 43.7153C127.543 43.4611 127.767 43.153 127.925 42.8091C128.079 42.4107 128.154 41.9844 128.143 41.5558L128.349 38.237L128.406 37.3125C128.408 37.258 128.404 37.2035 128.396 37.1498C128.402 37.1041 128.405 37.058 128.405 37.0119ZM116.521 33.5612V33.5365C116.487 33.2017 116.47 32.8723 116.467 32.5382C116.464 32.2041 116.476 31.8687 116.504 31.5393C116.513 31.4222 116.523 31.303 116.537 31.1858L119.823 30.8658C120.269 31.4402 120.67 32.012 121.118 32.7116C121.289 32.9794 121.454 33.2472 121.615 33.5204C119.917 33.5347 118.219 33.5483 116.521 33.5612ZM84.4475 10.1379C86.9652 12.2803 89.1863 14.7803 91.481 17.1677L93.0376 18.7886C89.2582 17.9924 85.3946 17.6998 81.5424 17.9182C76.2296 18.0963 70.9296 18.5609 65.6643 19.3101C62.8781 19.702 60.1043 20.1742 57.3428 20.7268C55.0048 16.0255 52.6664 11.3245 50.3275 6.62368C57.7037 5.24611 65.2267 4.89257 72.6946 5.57256C74.8753 5.76203 77.0031 6.0305 79.1504 6.37596C81.0206 7.46734 82.7932 8.72622 84.4475 10.1379ZM25.1322 18.2744C22.5208 18.2101 19.9123 18.0678 17.307 17.8473C15.8824 17.7241 14.4599 17.5772 13.0396 17.4067C12.3693 17.3257 11.6702 17.2367 11.0181 17.1463C10.7103 17.1041 10.4006 17.0673 10.0967 17.003C9.97716 16.9778 9.85897 16.9463 9.74259 16.9086C9.7302 16.9046 9.66368 16.8765 9.62521 16.8611C9.58673 16.8457 9.52152 16.7988 9.48892 16.7794L9.4374 16.7305C9.41588 16.7098 9.40284 16.6997 9.39371 16.691C9.38458 16.6823 9.39371 16.6817 9.38132 16.6649C9.34556 16.6063 9.31291 16.5457 9.28351 16.4835C9.27998 16.475 9.27561 16.4669 9.27046 16.4594C9.27046 16.4426 9.26525 16.4219 9.25938 16.3924C9.24699 16.3255 9.22612 16.2538 9.21112 16.1849C9.21112 16.1702 9.21112 16.1561 9.20721 16.1427C9.1967 15.977 9.19932 15.8106 9.21504 15.6453L9.22417 15.6017C9.24569 15.5 9.26851 15.4009 9.2959 15.2978C9.33502 15.1565 9.41197 14.9309 9.44914 14.8405C9.56913 14.5526 9.77519 14.175 9.94278 13.861C9.98549 13.7786 10.0177 13.6908 10.0386 13.5999L15.2842 7.87432C15.4293 7.85842 15.5708 7.81768 15.7028 7.7538C17.9198 6.69318 20.2979 6.03189 22.7331 5.79885C24.772 5.62813 26.8194 5.59101 28.8629 5.68771C26.9862 9.65735 25.7272 13.9045 25.1316 18.2744H25.1322ZM9.20982 16.1869C9.22808 16.2719 9.21765 16.2378 9.20982 16.1869V16.1869ZM6.17233 34.9759C6.23754 34.7436 6.30274 34.5126 6.38361 34.2816C6.5292 33.826 6.71586 33.3854 6.94116 32.9654C7.05201 32.7498 7.17113 32.5391 7.29851 32.3334C7.36372 32.2236 7.43675 32.1144 7.50848 32.008C7.54957 31.947 7.59195 31.8875 7.63499 31.8279L7.68129 31.7656C7.98666 31.3722 8.33181 31.0131 8.71096 30.6944C8.69401 30.7091 8.6151 30.7681 8.71096 30.6944C8.76769 30.6509 8.82573 30.6087 8.88442 30.5679C8.97246 30.5056 9.0631 30.4467 9.15504 30.3898C9.26133 30.3228 9.37024 30.2626 9.48109 30.2043C9.52218 30.1836 9.76085 30.0778 9.7465 30.0798C9.95063 30.0001 10.1592 29.933 10.3712 29.879C10.4905 29.8488 10.6092 29.8241 10.7305 29.8033L10.7957 29.7939C10.8459 29.7939 10.9575 29.7812 10.9711 29.7805C11.195 29.7699 11.4193 29.7732 11.6428 29.7906H11.678C11.7276 29.7986 11.7771 29.8073 11.8254 29.8174C11.9604 29.8441 12.0941 29.8783 12.2251 29.9191C12.2747 29.9345 12.323 29.9513 12.3725 29.9687L12.5029 30.0175C12.5466 30.0403 12.6634 30.0972 12.6986 30.1173C12.8077 30.1762 12.9138 30.2405 13.0168 30.3101C13.0611 30.3402 13.1035 30.371 13.1472 30.4025L13.1661 30.4159H11.2476C11.1749 30.4165 11.1025 30.4255 11.0318 30.4427C10.4466 30.4783 9.87487 30.6378 9.35263 30.9113C7.98551 31.7457 6.92783 33.0235 6.34644 34.5434C6.28449 34.6893 6.22971 34.8333 6.17363 34.9766L6.17233 34.9759ZM9.91214 50.1288C9.85671 50.0799 9.79997 50.0337 9.74585 49.9849C9.51458 49.7698 9.30024 49.5363 9.10483 49.2866C9.07875 49.2511 9.03962 49.1995 9.02919 49.1841C8.97963 49.1172 8.93202 49.0442 8.88573 48.9726C8.78965 48.8253 8.69814 48.6751 8.61119 48.522C8.42093 48.1838 8.2498 47.8346 8.09864 47.4762L8.03343 47.3155C7.99821 47.2211 7.963 47.1267 7.92974 47.0323C7.86018 46.8373 7.79497 46.6411 7.73411 46.4439C7.59652 45.9953 7.48175 45.54 7.38589 45.0801C7.33959 44.8591 7.29785 44.6362 7.26068 44.4106C7.24177 44.2974 7.22417 44.1836 7.20721 44.0698L7.19287 43.9807L7.18178 43.8904C7.12005 43.3722 7.0794 42.8528 7.05984 42.3324C6.956 40.4408 7.18439 38.5453 7.73411 36.7367C7.79476 36.5399 7.85932 36.343 7.92974 36.1489C7.963 36.0538 7.99821 35.9594 8.03343 35.865C8.03734 35.8556 8.07973 35.7519 8.09864 35.7043C8.24979 35.3459 8.42092 34.9967 8.61119 34.6585C8.69814 34.505 8.78965 34.3548 8.88573 34.208C8.93202 34.1363 8.97963 34.066 9.02919 33.9964C9.03897 33.981 9.07875 33.9295 9.10483 33.894C9.29998 33.6442 9.51434 33.4109 9.74585 33.1964C9.80062 33.1468 9.85671 33.0999 9.91214 33.0511L9.82606 33.1281C9.85019 33.106 9.90496 33.0611 9.92909 33.0424C10.041 32.9605 10.1572 32.8852 10.2773 32.8167C10.3588 32.7699 10.7501 32.6199 10.4508 32.719C10.5949 32.6715 10.7344 32.6166 10.8831 32.5851C10.9131 32.5777 10.9601 32.5623 11.0024 32.553C11.0191 32.5546 11.036 32.5546 11.0527 32.553C11.1831 32.553 11.3089 32.553 11.4394 32.553C11.4558 32.5546 11.4724 32.5546 11.4889 32.553C11.5326 32.5623 11.5789 32.5777 11.6083 32.5851C11.7199 32.6132 11.83 32.6472 11.9382 32.6869C11.8574 32.6581 11.948 32.6869 12.0086 32.7116L12.0413 32.7217L12.0099 32.7116L12.036 32.7243C12.1149 32.7665 12.1958 32.8074 12.2734 32.8542C12.3924 32.9272 12.5075 33.0065 12.6184 33.0919C12.6457 33.114 12.677 33.1388 12.6907 33.1508C12.7657 33.2178 12.8381 33.2847 12.9085 33.3517C13.039 33.4802 13.1616 33.6141 13.2763 33.7534C13.3096 33.7935 13.3415 33.8351 13.3741 33.8766C13.3442 33.8404 13.4889 34.0319 13.5117 34.0654C13.6256 34.2332 13.7343 34.4048 13.8378 34.5802C14.047 34.943 14.2339 35.3189 14.3973 35.7057C14.4162 35.7545 14.4566 35.855 14.4625 35.8643C14.5108 35.9895 14.5577 36.1174 14.6021 36.2439C14.6816 36.4743 14.7546 36.7052 14.8231 36.9382C14.9653 37.4296 15.084 37.9277 15.1766 38.4305C15.3642 39.4721 15.4559 40.5294 15.4504 41.5886C15.4511 42.5333 15.3795 43.4766 15.2366 44.4099C15.091 45.3018 14.8672 46.1784 14.5681 47.029C14.5349 47.1234 14.4997 47.2178 14.4632 47.3122L14.3979 47.4742C14.3295 47.6349 14.2584 47.7936 14.1828 47.9489C14.0139 48.3017 13.8226 48.6428 13.6102 48.9699C13.5639 49.0415 13.515 49.1118 13.4667 49.1815C13.4557 49.1982 13.4133 49.2531 13.3872 49.2879C13.3024 49.3957 13.2163 49.5015 13.1263 49.6032C13.0242 49.7171 12.9175 49.8266 12.8062 49.932C12.7514 49.9829 12.6953 50.0297 12.6405 50.0799L12.6151 50.1007L12.5675 50.1368C12.4553 50.2178 12.3386 50.2935 12.218 50.3625C12.1371 50.408 11.7465 50.5593 12.0452 50.4589C11.9213 50.5004 11.8019 50.5479 11.6748 50.5814C11.6135 50.5968 11.5443 50.6055 11.4857 50.6229H11.4785H11.4433C11.3129 50.6229 11.1857 50.6229 11.0566 50.6229C11.0399 50.6218 11.0231 50.6218 11.0064 50.6229C10.964 50.6135 10.9177 50.5981 10.887 50.5908C10.7605 50.562 10.6405 50.5118 10.5153 50.4776H10.5101C10.4345 50.4361 10.3556 50.4006 10.2812 50.3585C10.1612 50.2915 10.0452 50.2132 9.933 50.1328C9.90887 50.1154 9.85344 50.0659 9.82932 50.0458L9.91214 50.1288ZM17.6624 47.4776C17.6787 47.4381 17.7191 47.3504 17.6624 47.4776V47.4776ZM17.8756 46.9065C17.8321 47.0297 17.7887 47.152 17.7452 47.2734C17.7198 47.3403 17.6937 47.4073 17.6656 47.4742L17.6467 47.5197C17.5339 47.7735 17.4178 48.0246 17.2874 48.2703C17.1805 48.4733 17.0657 48.672 16.9431 48.8661C16.8779 48.9726 16.8068 49.0777 16.7344 49.1815C16.707 49.221 16.6777 49.2605 16.6497 49.2993L16.6242 49.3301C16.4827 49.4948 16.3458 49.6595 16.1919 49.8128C16.1234 49.8798 16.0536 49.9467 15.9819 50.0137C15.9428 50.0498 15.8991 50.0806 15.86 50.1194L15.8782 50.1027L15.8521 50.1234C15.6975 50.2351 15.5359 50.3363 15.3683 50.4261C15.3402 50.4415 15.3096 50.4562 15.2796 50.4709C15.202 50.4977 15.1263 50.5258 15.0474 50.5506C15.3666 50.1232 15.6483 49.6678 15.8893 49.1895C16.7857 47.3309 17.3175 45.3095 17.4544 43.2403C17.5 42.7047 17.5196 42.1691 17.5228 41.6334C17.8271 42.7939 18.1108 43.9573 18.3738 45.1236C18.3738 45.1316 18.3679 45.1383 18.366 45.1477C18.2379 45.7434 18.0745 46.3305 17.8769 46.9058L17.8756 46.9065ZM51.5143 48.1846C48.7533 47.8797 45.9928 47.5733 43.2326 47.2653L33.5333 46.1854C30.6701 45.8672 27.8071 45.5494 24.9444 45.232C23.4328 45.064 21.9206 44.8973 20.4084 44.7353C19.8493 42.2737 19.2126 39.8329 18.4984 37.4129C18.1188 36.1328 17.7217 34.8581 17.292 33.5967C16.9485 32.4815 16.4749 31.413 15.8815 30.4146C15.2663 29.3837 14.3627 28.5671 13.2887 28.0713C12.1701 27.6052 10.9342 27.5251 9.76737 27.843C7.49088 28.4362 5.79671 30.369 4.86029 32.5047C3.9397 34.8234 3.47155 37.3052 3.4824 39.8091L3.4348 39.7421C3.37546 39.6444 3.3259 39.5413 3.27112 39.4428C3.22091 39.3237 3.20591 39.3029 3.23656 39.3799C3.21439 39.325 3.19417 39.2708 3.17526 39.2159C3.13483 39.1047 3.09831 38.9943 3.06506 38.8811C2.9279 38.4163 2.82223 37.9422 2.74879 37.4624C2.69191 37.0166 2.66186 36.5677 2.6588 36.1181C2.63742 34.2501 3.13702 32.4149 4.09864 30.829C4.15968 30.7264 4.20087 30.6128 4.21993 30.4942C4.33077 30.378 4.40525 30.2304 4.43382 30.0704C4.88812 27.4254 5.34198 24.78 5.79541 22.1341C5.97817 20.8577 6.2424 19.5949 6.58641 18.3541C6.74649 17.8188 6.96182 17.3026 7.22873 16.8142C7.2566 16.9312 7.29056 17.0465 7.33046 17.1597C7.46879 17.555 7.68983 17.9145 7.97802 18.2127C8.26621 18.5108 8.61456 18.7406 8.99854 18.8857C9.69744 19.1088 10.4199 19.2448 11.1505 19.2907C14.2771 19.7147 17.4157 20.0216 20.5662 20.2113C22.3543 20.3202 24.1438 20.3903 25.9349 20.4215C26.0838 20.4201 26.2307 20.3859 26.3657 20.3214C26.5007 20.2568 26.6206 20.1634 26.7175 20.0473C26.9284 19.8371 27.0586 19.5559 27.084 19.2552C27.6652 14.3546 29.1307 9.60805 31.4054 5.25856C31.5387 5.01366 31.5745 4.7253 31.5052 4.45393C31.4359 4.18257 31.2669 3.9493 31.0337 3.80305C31.0116 3.78966 30.9855 3.78096 30.962 3.76958C30.8104 3.68163 30.6404 3.63227 30.4664 3.62563C27.8028 3.45708 25.1309 3.48348 22.471 3.70464C20.4969 3.91073 18.5548 4.36423 16.6881 5.05503C16.7005 4.99477 16.7136 4.93452 16.7292 4.8756C16.7364 4.84882 16.7696 4.75308 16.7749 4.73166C16.797 4.68948 16.8205 4.64663 16.8401 4.60312C16.8512 4.57701 16.8583 4.56093 16.8642 4.54487L16.8805 4.52746C16.9059 4.49733 17.1348 4.27773 17.0311 4.35941C17.2417 4.18292 17.4973 4.07251 17.7674 4.0414C17.8371 4.02466 17.9076 4.01462 17.9773 3.99788L18.0836 3.98048C17.8228 4.01574 17.8584 4.0106 18.1906 3.96508H18.2069C18.3138 3.94767 18.4201 3.92758 18.5258 3.90884C19.064 3.81555 19.603 3.7274 20.143 3.64438C20.5721 3.57788 21.0018 3.51494 21.4322 3.45558L21.5626 3.43817C21.6969 3.41943 21.8313 3.40202 21.9663 3.38394C22.2397 3.34779 22.5136 3.31253 22.7879 3.27816C24.1569 3.10811 25.5289 2.96015 26.904 2.83428C30.739 2.47877 34.5864 2.27256 38.4358 2.18151C43.648 2.05698 48.8655 2.14938 54.0725 2.42722C57.2578 2.59728 60.444 2.83674 63.6311 3.1456C60.9072 3.19314 58.1847 3.37122 55.4732 3.69727C53.1505 3.97489 50.8414 4.35115 48.546 4.82606C48.3999 4.85843 48.2649 4.93006 48.1547 5.03361C47.9612 5.19451 47.8289 5.42021 47.7813 5.67116C47.7336 5.92211 47.7734 6.18229 47.8939 6.40609C50.5227 11.6921 53.1528 16.9774 55.7843 22.262C55.8613 22.4045 55.9714 22.5254 56.1046 22.614C56.2379 22.7027 56.3904 22.7563 56.5486 22.7701C56.7943 22.908 57.0797 22.9516 57.3539 22.8933C62.4327 21.8615 67.5604 21.1017 72.7162 20.617C75.3359 20.3715 77.9606 20.1961 80.5903 20.0908C83.0514 19.9669 85.5174 19.9893 87.976 20.1577C90.6983 20.345 93.3789 20.9425 95.9317 21.9312C96.0594 21.9813 96.1978 21.9956 96.3327 21.9728L106.402 24.4272C107.986 24.8128 109.579 25.1703 111.145 25.6323C111.848 25.8378 112.547 26.0648 113.231 26.3225C113.87 26.5547 114.494 26.8254 115.101 27.1333C116.104 27.63 117.052 28.236 117.928 28.941C117.146 29.0177 116.363 29.0941 115.581 29.1699C115.427 29.1634 115.273 29.1937 115.132 29.2584C114.992 29.3232 114.868 29.4206 114.77 29.543C114.672 29.6655 114.603 29.8096 114.569 29.9639C114.535 30.1183 114.536 30.2788 114.572 30.4326C114.327 31.9279 114.353 33.4569 114.649 34.9424C114.717 35.1891 114.869 35.4025 115.078 35.5438C115.286 35.685 115.537 35.7449 115.785 35.7123C118.105 35.6927 120.425 35.6737 122.745 35.6554C122.795 35.7572 122.847 35.8563 122.895 35.9601C122.922 36.0175 122.957 36.0714 122.997 36.1207C118.492 36.2792 113.987 36.4316 109.481 36.578C103.315 36.7793 97.1483 36.9802 90.9815 37.1806C87.7397 37.2904 84.4983 37.4044 81.2574 37.5227C81.2248 37.5227 81.1922 37.5307 81.1622 37.5354C78.5443 37.5588 75.9305 37.3179 73.3585 36.8164C73.1923 36.785 73.0217 36.7889 72.857 36.8277C72.4204 35.774 71.8756 34.771 71.232 33.8357C70.2986 32.4519 68.8976 31.4736 67.3011 31.0908C65.8817 30.7377 64.4031 30.7183 62.9754 31.0339C61.5477 31.3496 60.2079 31.9922 59.0559 32.9138C56.5746 35.0643 56.2356 38.5885 55.9317 41.6843L55.2502 48.607C54.006 48.4617 52.7605 48.3211 51.5163 48.1839L51.5143 48.1846ZM63.3872 34.7717C61.6731 35.6946 60.3065 37.1765 59.5026 38.9842C58.4394 41.219 57.8458 43.6583 57.7602 46.1439C57.6319 48.5207 57.9401 50.9011 58.6686 53.161C58.0738 53.1195 57.4791 53.0786 56.8844 53.0385C57.1922 49.9021 57.5004 46.7657 57.8091 43.6292C57.8908 42.8044 57.9719 41.9787 58.0523 41.1521C58.0888 40.7979 58.1247 40.4444 58.1671 40.0896C58.1632 40.1217 58.1853 39.9416 58.1932 39.8753L58.2134 39.7227C58.2438 39.5071 58.2771 39.292 58.3132 39.0773C58.4721 37.7309 58.9362 36.4416 59.6682 35.3127C59.6826 35.2919 59.7497 35.2035 59.7621 35.1861C59.7967 35.1446 59.8273 35.1024 59.8639 35.0616C59.966 34.9424 60.0721 34.827 60.1821 34.7155C60.291 34.6057 60.4044 34.5012 60.5205 34.3994L60.6346 34.303C60.649 34.2957 60.7892 34.1899 60.7925 34.1879C61.0405 34.0129 61.2995 33.8548 61.5678 33.7146C61.7973 33.5837 62.04 33.4791 62.2916 33.4026C62.5623 33.3075 62.8376 33.2273 63.1165 33.1622C63.2802 33.1227 63.4426 33.0886 63.6115 33.0598C63.6767 33.047 63.7419 33.037 63.8117 33.0263C63.605 33.0598 63.9245 33.0129 63.9369 33.0109C64.5495 32.9447 65.1666 32.9344 65.781 32.9801C66.0699 32.993 66.3572 33.0324 66.6392 33.0979C67.0108 33.1713 67.3742 33.2835 67.7236 33.4327L67.7993 33.4729C67.8678 33.509 67.9369 33.5398 68.0041 33.5806C68.1566 33.6666 68.3048 33.7605 68.4481 33.8618C68.4651 33.8746 68.561 33.9522 68.5786 33.9636C68.6242 34.0031 68.6705 34.0433 68.7149 34.0848C68.7592 34.1263 68.7924 34.1644 68.8322 34.2039H65.7673C65.689 34.2048 65.611 34.2156 65.5352 34.2361C64.7932 34.2727 64.0649 34.4543 63.3891 34.771L63.3872 34.7717ZM59.9558 49.535C59.948 49.4807 59.9506 49.5028 59.9558 49.535V49.535ZM70.3053 36.3296C70.3366 36.3899 70.366 36.4508 70.3973 36.5111C70.3425 36.4488 70.2864 36.3899 70.2297 36.3296H70.3053ZM64.4305 57.5985C64.3868 57.5764 64.3438 57.5583 64.3001 57.5362C64.1456 57.4592 63.9949 57.3735 63.8502 57.2825C63.7632 57.2285 63.6795 57.1724 63.5991 57.1144C63.5626 57.0883 63.4889 57.0327 63.453 57.0053C63.1591 56.7636 62.8839 56.4988 62.6301 56.2133C62.5564 56.1303 62.4827 56.0446 62.4123 55.9575C62.3953 55.9368 62.3216 55.8437 62.2819 55.7982C62.2421 55.7527 62.171 55.6449 62.1514 55.6201C62.0745 55.5103 62.0001 55.3992 61.9271 55.2853C61.6754 54.8928 61.4474 54.4847 61.2444 54.0635C61.1435 53.8551 61.0485 53.6439 60.9594 53.4301L60.8785 53.2293C60.8238 53.086 60.7716 52.9421 60.722 52.7968C60.5489 52.2967 60.4006 51.7879 60.2779 51.2723C60.1475 50.7314 60.0458 50.1837 59.9649 49.6334L59.9552 49.5631C59.946 49.4914 59.9369 49.4191 59.9291 49.3475C59.9141 49.2136 59.901 49.0797 59.888 48.9458C59.8597 48.6334 59.838 48.3209 59.8228 48.0085C59.7954 47.3885 59.7954 46.7688 59.8228 46.1493C59.8358 45.8754 59.8554 45.6009 59.8795 45.3271C59.8919 45.1932 59.9049 45.0593 59.9199 44.9254C59.9278 44.8498 59.9369 44.7728 59.946 44.6971C59.9512 44.6596 59.9512 44.6576 59.9499 44.661L59.9623 44.5833C60.1198 43.4892 60.3788 42.4131 60.7357 41.3697C60.7761 41.2565 60.8166 41.1447 60.8577 41.0349C60.8818 40.972 60.9072 40.9097 60.9313 40.8461L60.9535 40.7899L60.9979 40.6841L61.0768 40.504C61.1302 40.3862 61.185 40.2677 61.2411 40.1518C61.4504 39.7165 61.6868 39.2954 61.9486 38.8912C62.0497 38.7345 62.1553 38.5832 62.2656 38.4339L62.4051 38.2565C62.4755 38.1694 62.5492 38.0844 62.6229 38.0007C62.8743 37.7194 63.1459 37.4577 63.4354 37.2181L63.5919 37.1002C63.6637 37.0494 63.7373 37.0005 63.811 36.9529C63.9776 36.847 64.1496 36.7502 64.3262 36.663C64.3744 36.6389 64.4351 36.6142 64.4566 36.6041C64.5179 36.58 64.5786 36.5566 64.6412 36.5372C64.8093 36.4799 64.9804 36.4326 65.1537 36.3952C65.1994 36.3859 65.4928 36.3591 65.3291 36.3611C65.1655 36.3631 65.4217 36.3537 65.4732 36.3511C65.5685 36.3437 65.663 36.341 65.7582 36.341C65.8534 36.341 65.948 36.341 66.0432 36.3511C66.0947 36.3511 66.3458 36.3624 66.1873 36.3611C66.0288 36.3598 66.2799 36.3785 66.3288 36.3879C66.5139 36.4263 66.6966 36.4762 66.8759 36.5372C66.9659 36.568 67.0533 36.6041 67.1446 36.6389L67.0689 36.6122C67.0963 36.6222 67.1459 36.6423 67.1941 36.6664C67.3704 36.7534 67.542 36.8502 67.708 36.9563C67.783 37.0038 67.8554 37.0527 67.9278 37.1036L68.0582 37.198C68.0993 37.2335 68.2166 37.3319 68.2356 37.3459C68.3164 37.4129 68.394 37.4879 68.471 37.5615C68.6196 37.7028 68.7605 37.8507 68.8968 38.0041C68.962 38.0777 69.0272 38.152 69.0885 38.2277C69.1107 38.2545 69.2189 38.3964 69.2528 38.4339C69.5071 38.7816 69.7401 39.1452 69.9506 39.5225C70.1784 39.9317 70.3833 40.354 70.5642 40.7872C70.5792 40.8267 70.6522 41.0101 70.662 41.0383C70.7044 41.1501 70.7448 41.2619 70.784 41.373C70.8757 41.635 70.9609 41.8999 71.0396 42.1677C71.1909 42.689 71.3174 43.2173 71.4191 43.7524C71.4719 44.0283 71.5163 44.3061 71.5587 44.5846L71.573 44.6884L71.588 44.8129C71.6082 44.9863 71.6252 45.1584 71.6415 45.3311C71.6943 45.9243 71.7184 46.5182 71.7204 47.1127C71.7204 47.726 71.6923 48.3399 71.6369 48.9511C71.6239 49.085 71.6108 49.2189 71.5945 49.3528C71.5874 49.4198 71.5795 49.4868 71.5711 49.549L71.5671 49.5825C71.5248 49.8797 71.4765 50.1763 71.4198 50.4716C71.3152 51.0228 71.1835 51.5683 71.0252 52.1059C70.9566 52.3402 70.8822 52.5723 70.8022 52.8021C70.7579 52.9307 70.7116 53.0592 70.6627 53.1864C70.6496 53.2226 70.5812 53.394 70.5655 53.4362C70.3841 53.8696 70.1788 54.2921 69.9506 54.7015C69.8384 54.9028 69.7204 55.0997 69.5965 55.292C69.5397 55.3804 69.4824 55.4674 69.423 55.5531C69.3898 55.602 69.3578 55.6496 69.322 55.6984L69.2444 55.8042C69.2098 55.8457 69.1381 55.9381 69.1139 55.9635C69.0422 56.0506 68.9698 56.137 68.8948 56.2193C68.7585 56.3726 68.617 56.5212 68.469 56.6632C68.3386 56.7864 68.2082 56.9029 68.0693 57.0153C68.0393 57.0374 67.9904 57.0742 67.9584 57.0984C67.8658 57.1653 67.7719 57.2269 67.676 57.2878C67.53 57.3789 67.38 57.4652 67.2261 57.5416C67.1668 57.5717 66.8759 57.6802 67.1446 57.5851C67.0539 57.6172 66.9659 57.652 66.8759 57.6855C66.7079 57.7431 66.5368 57.7905 66.3634 57.8274C66.3171 57.8382 66.2708 57.8449 66.2238 57.8522C66.2369 57.8522 66.1201 57.8676 66.0432 57.873C65.8649 57.8839 65.6861 57.8839 65.5078 57.873C65.4263 57.8676 65.3435 57.8562 65.2607 57.8509C65.5593 57.8696 65.2404 57.8435 65.1524 57.8248C64.979 57.7879 64.8078 57.7405 64.6399 57.6828C64.5792 57.654 64.5062 57.6226 64.4325 57.5971L64.4305 57.5985ZM71.453 57.6065C71.4165 57.6219 71.3976 57.6286 71.453 57.6065V57.6065ZM73.6343 55.7794C73.603 55.8209 73.5463 55.8906 73.6343 55.7794V55.7794ZM74.9294 53.4616L74.8961 53.5406C74.8518 53.6384 74.8094 53.7368 74.7657 53.8352C74.7064 53.9624 74.6457 54.0903 74.5818 54.2168C74.4214 54.5368 74.2479 54.8502 74.0601 55.1541C73.9812 55.2793 73.9017 55.4038 73.8176 55.525C73.7628 55.6047 73.7067 55.6837 73.6513 55.7627L73.6389 55.7774C73.4509 56.0185 73.2511 56.2495 73.0402 56.4697C72.9372 56.5755 72.8316 56.6781 72.7233 56.7777C72.6868 56.8111 72.5042 56.9631 72.4833 56.9852C72.2828 57.1393 72.0729 57.2799 71.8547 57.4063C71.7497 57.4666 71.6415 57.5181 71.5345 57.5744C71.5163 57.5838 71.4863 57.5965 71.4609 57.6078C71.4354 57.6192 71.408 57.6286 71.382 57.638C71.127 57.7308 70.8654 57.8029 70.5994 57.8536H70.5831H70.6066H70.5792C70.5461 57.8583 70.5128 57.8609 70.4794 57.8616H70.452C70.3764 57.867 70.3014 57.8676 70.2271 57.8696C70.7773 57.282 71.2587 56.6304 71.6617 55.9281C72.8331 53.8006 73.5348 51.4347 73.7171 48.998C73.7295 48.8695 73.7341 48.7403 73.7445 48.6117C73.8606 49.7499 74.0191 50.8244 74.8896 51.6499C75.0543 51.8033 75.2286 51.9456 75.4113 52.0757C75.2757 52.5466 75.1157 53.0096 74.932 53.4629L74.9294 53.4616ZM114.289 52.764C114.198 52.8477 114.106 52.9307 114.013 53.0117C113.986 53.0345 113.857 53.1389 113.831 53.1617C113.436 53.4627 113.017 53.7271 112.577 53.9517C112.483 53.9994 112.388 54.0441 112.292 54.0856C112.273 54.0929 112.15 54.1445 112.121 54.1559C111.883 54.2489 111.641 54.3291 111.396 54.3962C111.183 54.4552 110.969 54.5038 110.753 54.5422L110.597 54.5683H110.579C110.444 54.5817 110.311 54.5944 110.176 54.6018C109.939 54.6142 109.701 54.6142 109.464 54.6018C109.345 54.5957 109.227 54.585 109.108 54.5737L109.051 54.5676C109.014 54.5616 108.938 54.5509 108.927 54.5489C108.005 54.4097 107.124 54.0671 106.343 53.5446C105.853 53.2247 105.402 52.8462 104.998 52.4172C107.12 52.3145 109.24 52.2054 111.36 52.0898C112.603 52.0228 113.853 51.9693 115.1 51.8843C115.017 51.988 114.925 52.0958 114.81 52.2244C114.646 52.4123 114.473 52.5919 114.292 52.7633L114.289 52.764ZM124.312 45.5896L124.308 45.6565C124.302 45.6732 124.298 45.6902 124.295 45.7074C124.276 45.8005 124.256 45.8928 124.23 45.9839C124.224 46.0047 124.174 46.1339 124.164 46.1754C124.155 46.2169 124.104 46.2818 124.099 46.2932C124.055 46.3829 123.99 46.4604 123.911 46.5188C123.831 46.5503 123.756 46.5914 123.686 46.6414C123.535 46.6978 123.379 46.7426 123.222 46.7753C122.851 46.8543 122.678 46.8663 122.336 46.9132L121.043 47.0906L118.387 47.4535C118.315 47.4639 118.243 47.4795 118.172 47.5003C118.151 47.5057 118.128 47.5057 118.107 47.5117C117.952 47.5628 117.808 47.6457 117.685 47.7554L117.63 47.8063C117.616 47.8217 117.602 47.8371 117.588 47.8538C117.457 47.9986 117.376 48.1843 117.359 48.3814C117.343 48.4925 117.345 48.6055 117.363 48.7162C117.369 48.8053 117.369 48.8948 117.363 48.984C117.344 49.0784 117.319 49.1714 117.288 49.2625C117.252 49.3339 117.212 49.4034 117.169 49.4707C117.132 49.5122 117.093 49.5517 117.053 49.5899H117.049L117 49.5952C116.631 49.6307 116.26 49.6581 115.892 49.6856C114.742 49.7706 113.592 49.8403 112.441 49.9065C109.064 50.1027 105.686 50.2681 102.307 50.4241C98.472 50.6004 94.6357 50.7586 90.7983 50.8987C87.7334 51.0085 84.6601 51.1143 81.5893 51.1518C80.7214 51.1619 79.8508 51.1746 78.9809 51.1384C78.8681 51.1331 78.754 51.127 78.6399 51.1177C78.5936 51.1083 78.5459 51.1023 78.4996 51.0929C78.1437 51.0224 77.7925 50.9283 77.4485 50.811C77.3376 50.7707 77.2288 50.7246 77.1224 50.6731C77.0882 50.6539 77.0527 50.6373 77.0161 50.6236C76.8646 50.5472 76.7197 50.4576 76.5831 50.3558C76.4273 50.2234 76.279 50.0819 76.139 49.932C76.1266 49.9193 76.1208 49.9152 76.113 49.9072L76.1019 49.8851C76.0849 49.8543 76.0653 49.8182 76.0471 49.792C75.9551 49.6461 75.9904 49.7505 76.0308 49.8115C75.9491 49.6111 75.9004 49.3982 75.8867 49.1815C75.8775 49.1252 75.8697 49.0683 75.8606 49.0127L75.8534 48.9692L75.8475 48.909C75.826 48.7155 75.8052 48.52 75.7862 48.3252C75.7862 48.295 75.7752 48.2642 75.77 48.2341C75.77 48.2288 75.77 48.2241 75.77 48.2187C75.5126 45.0735 74.8323 41.98 73.7484 39.0264C76.3146 39.4774 78.9156 39.6856 81.5189 39.6484C81.5908 39.647 81.6623 39.6374 81.7321 39.6196C87.4915 39.408 93.2517 39.2114 99.0128 39.0297C105.192 38.8276 111.371 38.6251 117.55 38.4225C120.461 38.3239 123.371 38.2217 126.282 38.1159C126.204 39.3772 126.125 40.6383 126.047 41.8992C126.026 41.9387 126.003 41.9769 125.982 42.0164C126.02 41.9495 125.913 42.1068 125.886 42.1356C125.876 42.1456 125.825 42.1918 125.79 42.224C125.756 42.2561 125.684 42.2943 125.684 42.2956L125.669 42.3056H125.66L125.579 42.3184C125.5 42.311 125.426 42.301 125.605 42.3358C125.402 42.291 125.19 42.3042 124.994 42.3739C124.797 42.4437 124.623 42.5673 124.49 42.7314C124.342 42.8674 124.232 43.0416 124.171 43.2362C124.11 43.4307 124.102 43.6383 124.146 43.8375C124.228 44.2182 124.285 44.6043 124.316 44.993C124.329 45.1915 124.328 45.3905 124.314 45.5889L124.312 45.5896Z" fill="#5A606C"/>
<path d="M53.5109 20.8295C53.6621 20.0048 53.6433 19.1568 53.4558 18.34C53.2682 17.5232 52.916 16.7559 52.4219 16.0874C52.3078 15.9341 52.1858 15.7928 52.0606 15.6542C50.4258 11.885 48.3965 8.30959 46.0085 4.99102C45.9487 4.86227 45.8615 4.74893 45.7534 4.65937C45.6453 4.5698 45.5189 4.50628 45.3837 4.47349C41.6325 3.61301 37.792 3.23273 33.9498 3.34135C33.7366 3.34958 33.5304 3.42166 33.3566 3.54871C33.1828 3.67576 33.0489 3.85223 32.9716 4.05639L32.9625 4.07179C30.7083 8.86925 29.3538 14.0594 28.9697 19.3713C28.9649 19.4532 28.9724 19.5354 28.9918 19.615C29.0153 19.8807 29.1326 20.1283 29.3217 20.3112C29.5108 20.4941 29.7586 20.5997 30.0182 20.6079C35.9219 21.2163 41.8315 21.7621 47.747 22.2455C49.4137 22.3794 51.0807 22.5104 52.7479 22.6385C53.0219 22.6364 53.2841 22.5237 53.4779 22.3248C53.6717 22.1259 53.7814 21.8567 53.7835 21.5753C53.7765 21.3115 53.6763 21.0593 53.5018 20.8657C53.5018 20.8503 53.5089 20.8389 53.5109 20.8295ZM45.1881 16.9397C45.19 16.9119 45.1932 16.8841 45.1979 16.8567C45.2077 16.8145 45.2201 16.7716 45.2331 16.7295C45.2422 16.7047 45.2585 16.6625 45.2657 16.6518C45.3009 16.5909 45.3342 16.5286 45.374 16.4704C45.284 16.6043 45.5748 16.2695 45.5318 16.3063C45.6375 16.2315 45.7482 16.1644 45.863 16.1055C45.8519 16.1128 45.9935 16.0526 46.0156 16.0432C46.0854 16.0191 46.1571 15.9963 46.2289 15.9763C46.3723 15.9361 46.5177 15.9026 46.6632 15.8745C46.6873 15.8691 46.7897 15.8517 46.8177 15.8457C46.8742 15.8386 46.9307 15.8323 46.9873 15.827C47.1692 15.8102 47.3524 15.8029 47.5363 15.8029C48.5666 15.7841 49.5658 16.165 50.3345 16.8694C50.3788 16.9732 50.4271 17.0756 50.4708 17.1794C50.5168 17.2801 50.5819 17.3705 50.6623 17.4452C50.7427 17.5199 50.8368 17.5775 50.939 17.6145C50.9533 17.6386 50.9703 17.6601 50.9846 17.6815C51.0733 17.8348 51.1522 17.9921 51.2292 18.1501L51.2507 18.1937C51.2898 18.2921 51.3244 18.3945 51.357 18.4929C51.4106 18.6632 51.4557 18.8361 51.492 19.0111C51.5031 19.064 51.5122 19.1169 51.522 19.1705C51.5096 19.1156 51.5435 19.3559 51.5442 19.3653C51.55 19.4443 51.5442 19.5226 51.5494 19.6016L47.8937 18.5452C47.2165 18.394 46.5543 18.1795 45.9152 17.9044C45.8435 17.8661 45.7739 17.8245 45.7065 17.7799C45.6941 17.7725 45.6165 17.713 45.5761 17.6855C45.537 17.636 45.3348 17.4244 45.4105 17.5235C45.3668 17.4666 45.3335 17.4003 45.2957 17.34C45.2885 17.3307 45.2611 17.2731 45.2494 17.253C45.2311 17.1988 45.2142 17.1452 45.1998 17.0903C45.1907 17.0548 45.1835 17.0354 45.1783 17.0234C45.1844 16.9948 45.1877 16.9656 45.1881 16.9363V16.9397ZM51.2527 18.199C51.2709 18.2412 51.3074 18.3128 51.2527 18.199V18.199ZM31.1066 18.5907C31.5336 14.0393 32.7169 9.59673 34.6051 5.45565C37.9266 5.40346 41.2432 5.73698 44.4917 6.44987C46.1522 8.79394 47.6347 11.2657 48.926 13.8432C48.6135 13.7697 48.2965 13.7187 47.9771 13.6906C46.3404 13.5567 44.2217 14.0139 43.432 15.671C43.213 16.115 43.11 16.6098 43.1328 17.107C43.1557 17.6042 43.3037 18.0867 43.5624 18.5077C43.9672 19.1292 44.5412 19.6147 45.2129 19.9036C41.8098 19.6152 38.4086 19.3071 35.0094 18.979C33.7074 18.8527 32.406 18.7221 31.1053 18.5873L31.1066 18.5907Z" fill="#5A606C"/>
<path d="M114.393 40.0294C114.301 39.9036 114.182 39.8017 114.045 39.7319C113.907 39.6622 113.756 39.6265 113.603 39.6277C108.951 39.7116 104.302 39.7949 99.655 39.8774C99.3815 39.8811 99.1201 39.9943 98.9267 40.1929C98.7333 40.3915 98.623 40.6598 98.6195 40.9406C98.6195 40.9768 98.6293 41.0123 98.6345 41.0484C98.6345 41.0638 98.6286 41.0772 98.6273 41.0933L98.0365 47.3866C98.0301 47.5396 98.0596 47.6919 98.1225 47.8308C98.1853 47.9697 98.2797 48.091 98.3978 48.1847C98.4887 48.3104 98.6077 48.4118 98.7448 48.4803C98.8819 48.5488 99.0331 48.5824 99.1855 48.5783L112.692 47.9865C112.885 48.0155 113.081 47.9938 113.264 47.9236C113.446 47.8533 113.609 47.7368 113.735 47.5848C113.898 47.4029 113.986 47.1625 113.978 46.9153C113.974 46.8547 113.966 46.7945 113.954 46.7352L114.749 41.1555C114.788 40.9522 114.775 40.7423 114.713 40.5453C114.65 40.3483 114.541 40.1708 114.393 40.0294ZM100.199 46.4111L100.614 41.9924C104.603 41.921 108.593 41.8498 112.584 41.7788L111.997 45.8976L100.199 46.4111Z" fill="#5A606C"/>
</svg>
