<svg width="109" height="81" viewBox="0 0 109 81" fill="none" xmlns="http://www.w3.org/2000/svg">
<path d="M106.913 46.4423C104.815 46.4041 102.716 46.4868 100.627 46.6902C99.2329 46.8276 97.7554 46.9487 96.6941 47.7193C95.8559 46.4382 94.7154 45.382 93.3727 44.6435L93.3621 44.6338C86.7431 39.7909 80.123 34.9478 73.5018 30.1045C70.3351 27.8009 67.1187 25.5754 63.7541 23.5669C60.3808 21.4879 56.8543 19.6673 53.205 18.1209C51.1221 17.3068 48.9289 16.8084 46.6981 16.6424C44.9674 16.4798 43.3131 16.4213 41.6622 16.1336C41.7627 15.502 41.8137 14.8637 41.8145 14.2242C41.8145 13.8048 41.6476 13.4026 41.3504 13.106C41.0532 12.8095 40.6502 12.6429 40.2299 12.6429C39.8097 12.6429 39.4066 12.8095 39.1095 13.106C38.8123 13.4026 38.6454 13.8048 38.6454 14.2242C38.6501 14.7626 38.6071 15.3004 38.5167 15.8312C38.3986 16.4438 38.2294 17.0455 38.0109 17.63C37.9457 17.8252 37.8662 18.0154 37.7731 18.1989C37.6517 18.4566 37.5206 18.7086 37.3805 18.9581C37.2404 19.2077 37.0921 19.4458 36.9358 19.6897C36.8543 19.8075 36.7729 19.9262 36.6914 20.0416C36.6613 20.0831 36.4699 20.3367 36.4568 20.3578C36.1047 20.7934 35.7237 21.2051 35.3166 21.5901C34.926 21.9723 34.5046 22.322 34.0566 22.6354C33.5682 22.9787 33.0599 23.293 32.5343 23.5766C32.2582 23.7246 31.9788 23.866 31.6946 23.9993C31.5911 24.0473 31.4869 24.0944 31.3835 24.1407C31.2051 24.222 31.1733 24.231 31.2882 24.1814C31.2067 24.2147 31.1253 24.2456 31.0495 24.2765C30.4912 24.4938 29.9219 24.6821 29.344 24.8406C29.0809 24.9121 28.8162 24.9804 28.5491 25.0373C28.4228 25.0649 28.2966 25.0893 28.1695 25.1121C28.0962 25.1259 28.0213 25.1389 27.9464 25.1503L27.895 25.1559C27.4188 25.2055 26.9391 25.2126 26.4616 25.1771C26.4298 25.1673 26.1985 25.1332 26.1749 25.1283C26.0777 25.1072 25.9816 25.0828 25.8865 25.0552C25.8654 25.0487 25.6634 24.9739 25.6202 24.9617C25.5208 24.9137 25.4215 24.865 25.3278 24.8072C25.2944 24.7869 25.0378 24.5699 25.1169 24.6496L24.9605 24.4984C24.9323 24.4692 24.902 24.4421 24.8701 24.4171C24.8543 24.3792 24.8358 24.3425 24.8147 24.3074C24.7626 24.2139 24.708 24.1228 24.6583 24.0286C24.6314 23.9782 24.6135 23.9473 24.6005 23.9278C24.5874 23.9083 24.5923 23.8692 24.5777 23.8083C24.5475 23.6766 24.5076 23.5474 24.4775 23.4157C24.4735 23.3918 24.4669 23.3683 24.4579 23.3458V23.271C24.3935 22.5219 24.5289 21.7692 24.8505 21.0894C25.1022 20.5334 25.3901 19.9944 25.7122 19.4759C27.2378 16.9561 29.133 14.69 30.0225 11.8353V11.8191C30.0363 11.7955 30.0542 11.7776 30.0673 11.7532C30.2456 11.411 30.4458 11.0805 30.6667 10.764L30.6903 10.7274C30.7376 10.6697 30.784 10.6128 30.8321 10.5567C30.9762 10.3893 31.1285 10.2316 31.2865 10.0764C31.4082 9.95823 31.5336 9.84388 31.6628 9.73334C31.7291 9.67915 31.7961 9.62496 31.864 9.57078L31.9153 9.53664C32.2411 9.31717 32.5669 9.10259 32.909 8.9132C33.2152 8.74413 33.5288 8.59457 33.8456 8.44663L33.9206 8.41168C34.002 8.37835 34.0835 8.34421 34.1649 8.31251C34.3807 8.23123 34.5966 8.14995 34.8165 8.06867C35.631 7.78011 36.465 7.54602 37.2982 7.31111C41.4032 6.15283 45.4992 4.94497 49.6205 3.83871C51.4662 3.28115 53.3979 3.06248 55.3218 3.19332C57.2572 3.4206 59.157 3.88638 60.9776 4.58001C62.8892 5.26034 64.7657 6.04798 66.6333 6.83642C68.392 7.56447 70.1115 8.38328 71.7849 9.28954C73.5147 10.2095 75.1211 11.344 76.5659 12.666C77.9729 13.9289 79.1227 15.4507 79.9525 17.148C80.1672 17.5071 80.5145 17.7678 80.9197 17.8742C81.325 17.9806 81.7559 17.9241 82.1198 17.7169C82.4767 17.4998 82.7354 17.1531 82.8417 16.7497C82.948 16.3463 82.8936 15.9175 82.69 15.5532C82.1287 14.4247 81.4442 13.3615 80.6489 12.3832C83.2386 12.772 85.8586 12.9238 88.476 12.8367C90.3445 12.8066 92.2121 12.7335 94.0821 12.7294C95.8959 12.705 97.7092 12.8027 99.5098 13.022C99.9144 13.1217 100.342 13.0628 100.704 12.8574C101.067 12.6521 101.336 12.316 101.458 11.9182C101.565 11.5141 101.509 11.0841 101.302 10.7207C101.095 10.3572 100.754 10.0891 100.351 9.97394C96.5359 9.56452 92.6938 9.46231 88.8621 9.66831C85.1245 9.7374 81.5945 9.66831 78.0662 8.49296C77.8473 8.43041 77.6171 8.41781 77.3926 8.45608C77.1682 8.49435 76.9552 8.58252 76.7695 8.71405C72.7476 5.72447 67.7467 3.80619 63.2223 2.05292C61.2497 1.24316 59.1978 0.64138 57.0998 0.257384C54.8863 -0.11532 52.6223 -0.0689963 50.426 0.393939C48.2644 0.849123 46.1426 1.5319 44.0169 2.13339L37.4692 3.96876C33.5679 5.06933 29.344 6.27069 27.3355 10.1463C27.2746 10.2675 27.2282 10.3955 27.197 10.5275C27.0976 10.6664 27.0207 10.82 26.969 10.9827C26.5288 12.2543 25.9163 13.4598 25.1486 14.5656C24.3667 15.7694 23.5197 16.9309 22.7956 18.1721C22.6742 18.381 22.5578 18.5924 22.4437 18.8078C17.9322 20.0651 13.2033 20.3442 8.57477 19.6263C8.17007 19.5267 7.74252 19.5857 7.38011 19.7912C7.0177 19.9967 6.74801 20.333 6.62654 20.7309C6.51996 21.135 6.576 21.5646 6.7827 21.9279C6.98939 22.2913 7.33033 22.5595 7.7326 22.6752C12.2386 23.4091 16.8423 23.2963 21.3067 22.3427C21.2953 22.4834 21.2815 22.624 21.2766 22.7662C21.2438 23.5377 21.3752 24.3074 21.662 25.0245C21.9488 25.7417 22.3845 26.3901 22.9406 26.9271C25.1054 28.8714 28.2852 28.4918 30.8467 27.6806C33.6305 26.844 36.1498 25.3021 38.1591 23.2052C39.2566 22.0206 40.1423 20.657 40.7777 19.1735C44.1659 19.7962 47.6356 19.5523 50.8976 20.6212C52.649 21.2434 54.3496 21.9999 55.984 22.8841C57.6949 23.7549 59.3812 24.6729 61.0427 25.638C67.9178 29.6298 74.2178 34.5222 80.6228 39.2122L91.4806 47.156C91.567 47.2398 91.6643 47.3117 91.7698 47.3698C92.7786 47.8937 93.6185 48.6913 94.1929 49.6709C94.3369 49.913 94.4669 50.1632 94.5822 50.4203C94.596 50.465 94.6856 50.6918 94.6881 50.6991C94.7394 50.8462 94.7858 50.9941 94.8282 51.1437C94.9034 51.4108 94.9622 51.6823 95.0041 51.9565C95.0041 52.0077 95.0293 52.2817 95.0293 52.2817C95.0429 52.505 95.0415 52.7291 95.0253 52.9523C95.0171 52.9482 94.9552 53.3261 94.9593 53.3001C94.9648 53.3529 94.9586 53.4063 94.9412 53.4565C94.9237 53.5066 94.8954 53.5523 94.8583 53.5903C94.8469 53.6115 94.7133 53.8065 94.706 53.8342C94.6335 53.9154 94.5553 53.9886 94.4796 54.065L94.4348 54.1016C94.3215 54.178 94.2051 54.2495 94.0862 54.3145C94.0666 54.3251 93.8785 54.404 93.8312 54.4275C93.6683 54.4828 93.512 54.5365 93.3491 54.5763C93.2391 54.6031 93.1275 54.6234 93.0159 54.6446C92.9809 54.6446 92.7512 54.6787 92.7268 54.6811C92.3714 54.7029 92.0149 54.7008 91.6598 54.6746C90.909 54.6017 90.1685 54.4463 89.4518 54.2113C87.9812 53.7089 86.5464 53.108 85.157 52.4125C83.7203 51.7482 82.2887 51.0749 80.8623 50.3927C77.9505 48.9954 75.0632 47.5478 72.2288 46.0034C68.9888 44.2436 65.8156 42.3627 62.7491 40.3136C62.3863 40.102 61.9541 40.0429 61.5477 40.1493C61.1412 40.2557 60.7938 40.5189 60.5817 40.8809C60.3697 41.243 60.3105 41.6743 60.4171 42.0799C60.5237 42.4855 60.7874 42.8323 61.1502 43.0439C67.1115 46.929 73.3447 50.3815 79.8018 53.3749C81.4069 54.1411 83.0188 54.8952 84.6374 55.637C85.2931 55.937 85.9544 56.2401 86.6255 56.523C86.6273 56.6519 86.6493 56.7797 86.6907 56.9018C87.2501 58.2188 87.5573 59.6287 87.5964 61.0586C87.5646 61.5243 87.4252 61.9764 87.1892 62.3794C87.1232 62.4924 87.0491 62.6022 86.9725 62.7046C86.9481 62.7346 86.9171 62.7737 86.9041 62.7858C86.7982 62.8948 86.6996 63.0086 86.5881 63.111C86.553 63.1443 86.2444 63.3938 86.268 63.3865C86.0547 63.5354 85.8325 63.6712 85.6025 63.7929C85.5162 63.8376 85.4291 63.8799 85.3411 63.9214C85.3199 63.9271 85.0691 64.0335 85.0585 64.036C84.4748 64.2452 83.862 64.3625 83.2422 64.3839C81.7763 64.395 80.3184 64.1683 78.9254 63.7125C73.6118 62.1892 68.7632 59.3834 64.1997 56.1304C61.5933 54.2739 59.2313 52.3743 56.726 50.3179C56.4234 50.0318 56.0225 49.8724 55.6057 49.8724C55.1889 49.8724 54.7879 50.0318 54.4854 50.3179C54.1913 50.616 54.0265 51.0176 54.0265 51.4359C54.0265 51.8542 54.1913 52.2558 54.4854 52.554C59.2786 56.4905 64.1923 60.3799 69.6868 63.3044C72.2511 64.6862 74.9474 65.8086 77.7355 66.6549C77.7355 66.685 77.7273 66.7134 77.7273 66.7443C77.7273 66.8004 77.6997 67.1605 77.7102 67.1678C77.6836 67.3223 77.6488 67.4754 77.606 67.6262C77.5913 67.6791 77.4887 67.9636 77.4985 67.9603C77.4097 68.1545 77.3082 68.3427 77.1947 68.5236C77.1694 68.5651 77.0122 68.7878 76.9959 68.8195C76.8749 68.9684 76.746 69.1109 76.6099 69.2462C76.4808 69.376 76.3448 69.4989 76.2026 69.6144L76.1481 69.6486C76.0332 69.7242 75.92 69.8006 75.8003 69.8713C74.3822 70.6309 72.7433 70.874 71.1651 70.5589C69.1788 70.1537 67.245 69.5246 65.401 68.6837C63.7574 67.9969 61.9492 67.1264 60.3056 66.2453C58.3282 65.1806 56.4103 64.0095 54.5603 62.7371L54.5489 62.7306C54.1314 61.5041 53.3622 60.427 52.3368 59.6329C51.5591 59.0475 50.6595 58.6439 49.7045 58.4522C48.7495 58.2604 47.7635 58.2853 46.8195 58.525C46.738 55.4411 45.2304 52.4288 42.0515 51.4363C39.3124 50.5796 36.3713 51.6119 34.2871 53.4863C33.7469 52.4401 32.9252 51.5649 31.9142 50.959C30.9032 50.3531 29.7429 50.0404 28.5637 50.0561C27.3454 50.1194 26.1579 50.4612 25.0929 51.0553C24.0279 51.6493 23.114 52.4797 22.4217 53.4822C19.9921 51.9939 15.875 50.7275 13.6555 52.6271C10.2135 50.8072 6.31459 50.1968 2.48735 49.6668C2.08253 49.5667 1.65466 49.6254 1.2919 49.8307C0.929138 50.0361 0.659124 50.3725 0.537486 50.7706C0.430502 51.1748 0.486472 51.6047 0.693392 51.9682C0.900312 52.3316 1.24171 52.5997 1.64436 52.7149C3.65235 52.9605 5.64658 53.3075 7.61939 53.7545C9.23329 54.1164 10.792 54.6904 12.2546 55.4614C12.1821 55.9849 12.1552 56.5181 12.121 57.0343C12.0289 58.076 12.0871 59.1255 12.2937 60.1507C12.7392 62.1462 14.2224 63.6962 15.8049 64.8943C17.4477 66.1364 19.3788 66.9431 21.4183 67.2393C21.589 67.2617 21.7616 67.265 21.933 67.2491C22.979 69.5422 24.5499 71.5582 26.5192 73.1346C28.4886 74.711 30.8014 75.8039 33.2714 76.3251C33.4393 76.358 33.6109 76.367 33.7813 76.352C34.0758 76.7187 34.3933 77.0664 34.7318 77.3932C36.2695 78.9029 38.2846 79.8331 40.4331 80.0251C42.2402 80.1773 44.0434 79.6917 45.5285 78.6531C46.8959 79.7563 48.5173 80.5019 50.246 80.8225C52.2217 81.1831 54.2572 81.0295 56.1561 80.3764C58.0549 79.7233 59.7531 78.5929 61.0867 77.0941C61.1258 77.0469 61.1584 76.9965 61.1926 76.9469C61.472 77.0014 61.7521 77.051 62.034 77.0908C65.2691 77.5509 70.0655 77.5403 71.8321 74.198C71.8953 74.0736 71.9431 73.942 71.9747 73.8062C73.8919 73.9823 75.8159 73.549 77.4716 72.5682C78.3941 72.0185 79.1787 71.2659 79.7657 70.3678C80.3527 69.4697 80.7266 68.4498 80.859 67.3857C83.309 67.7457 85.8526 67.5677 87.9206 66.0851C88.644 65.6012 89.2612 64.9754 89.7346 64.2458C90.2081 63.5162 90.5278 62.6981 90.6743 61.8413C90.8384 60.4343 90.6996 59.0085 90.2671 57.6593C91.761 57.9878 93.3157 57.9131 94.7711 57.4431C95.6005 57.1824 96.3455 56.7062 96.9297 56.0635C97.5139 55.4207 97.9164 54.6345 98.0959 53.7854C98.2606 52.818 98.2384 51.8281 98.0307 50.869C98.2379 50.7041 98.4069 50.4964 98.5259 50.2602C98.5145 50.2797 98.5609 50.2463 98.6163 50.2073C98.6603 50.1992 98.8916 50.0984 98.9543 50.0813C99.083 50.048 99.2133 50.0285 99.3428 50.0001L99.4544 49.9822L99.6849 49.9545C99.8739 49.9326 100.064 49.9123 100.255 49.892C100.698 49.8454 101.141 49.8042 101.585 49.7684C103.36 49.6262 105.141 49.575 106.921 49.6058C107.341 49.6058 107.744 49.4392 108.041 49.1427C108.338 48.8461 108.505 48.4439 108.505 48.0245C108.505 47.6051 108.338 47.2028 108.041 46.9063C107.744 46.6097 107.341 46.4431 106.921 46.4431L106.913 46.4423ZM47.331 61.6796C47.4124 61.6373 47.3652 61.6633 47.331 61.6796V61.6796ZM43.2749 56.5068C43.2675 56.4905 43.2692 56.4937 43.2749 56.5068V56.5068ZM15.6159 55.0957L15.6045 55.1152L15.6159 55.0957ZM18.4495 62.8842C17.291 62.2277 16.3202 61.2861 15.6298 60.149C15.3657 59.5906 15.2363 58.9781 15.2519 58.3608C15.2454 57.5695 15.2864 56.7786 15.3749 55.9922L15.3789 55.954C15.3887 55.8931 15.3985 55.8337 15.4099 55.7744C15.4408 55.6183 15.4824 55.4655 15.5264 55.3127L15.5394 55.2704C15.5646 55.2217 15.5907 55.1729 15.6208 55.1249C15.651 55.077 15.6518 55.0664 15.6559 55.0559C15.7064 55.0225 15.7569 54.9933 15.8082 54.9632L15.8228 54.9534L15.8407 54.9494C15.9132 54.9282 15.9865 54.9104 16.059 54.8884L16.1486 54.8713L16.248 54.8616C16.3294 54.8616 16.4044 54.8559 16.4826 54.8551C16.665 54.8551 16.845 54.8681 17.0266 54.8787L17.1537 54.89L17.3777 54.9242C17.5837 54.9591 17.7849 54.9998 17.991 55.0469C18.3969 55.1415 18.797 55.2599 19.1891 55.4013C19.8363 55.655 20.4545 55.9771 21.0331 56.3621C20.2864 58.8106 20.2021 61.4127 20.7887 63.9043C19.9651 63.6731 19.1778 63.3284 18.4495 62.8801V62.8842ZM31.6441 72.5374C31.6099 72.5227 31.5887 72.5154 31.5773 72.5105L31.4853 72.4683C31.3346 72.3984 31.1823 72.3285 31.0332 72.2553C30.0559 71.7765 29.1359 71.1889 28.2909 70.5037C26.534 69.0436 25.1941 67.1469 24.4066 65.0049C23.7788 63.3254 23.5078 61.5339 23.6109 59.7443C23.625 59.203 23.6944 58.6646 23.8178 58.1373C23.8878 57.8187 23.9717 57.5049 24.0702 57.1952C24.115 57.0546 24.1664 56.9172 24.2128 56.7782L24.2543 56.6547C24.2608 56.6433 24.2706 56.6205 24.2861 56.5848C24.4045 56.3161 24.5383 56.0545 24.6868 55.8012C24.7601 55.6744 24.8375 55.5492 24.9181 55.4265C24.9825 55.329 25.0492 55.2314 25.1185 55.1363C25.0588 55.2068 25.062 55.2024 25.1283 55.1233C25.7264 54.3395 26.5425 53.7487 27.4748 53.4245C27.7275 53.3418 27.9866 53.2796 28.2493 53.2384C28.2998 53.2384 28.5515 53.2213 28.5597 53.2213C28.7226 53.2172 28.8854 53.227 29.0483 53.2327H29.1298C29.151 53.24 29.1754 53.2473 29.2112 53.2571C29.353 53.2961 29.4971 53.3253 29.6388 53.3684C29.6584 53.3749 29.8588 53.4546 29.9035 53.4676C30.0062 53.5164 30.1072 53.5667 30.2057 53.622C30.3043 53.6773 30.4167 53.7488 30.5185 53.8179C30.5502 53.8382 30.5804 53.8602 30.6113 53.8829C30.6451 53.9164 30.681 53.9476 30.7188 53.9764C30.7881 54.0455 30.8614 54.1097 30.9298 54.1788C30.9778 54.2276 31.3159 54.6665 31.1464 54.417C31.201 54.4983 31.254 54.5795 31.3045 54.6608C31.3321 54.708 31.4731 55.0225 31.4845 55.0217C31.5659 55.267 31.6248 55.5192 31.6604 55.7752C31.7038 56.0436 31.8401 56.2884 32.0456 56.4669C30.5616 59.4622 30.4224 63.0768 30.5796 66.3428C30.6485 68.4562 31.026 70.5482 31.7003 72.5528C31.6816 72.5447 31.6628 72.5398 31.6449 72.5333L31.6441 72.5374ZM40.311 76.8567C40.0601 76.8348 40.2442 76.8462 40.311 76.8567V76.8567ZM42.8937 76.5487C42.8122 76.5787 42.7308 76.608 42.6493 76.6348C42.3383 76.7352 42.02 76.8112 41.6972 76.8624H41.6532C41.5775 76.8681 41.5009 76.8754 41.4235 76.8795C41.2199 76.8909 41.0163 76.8941 40.8094 76.8876C40.6547 76.8819 40.5016 76.8706 40.3476 76.8575L40.3085 76.8535C40.2328 76.8405 40.157 76.8283 40.0821 76.8128C39.705 76.7344 39.334 76.629 38.972 76.4975L38.8824 76.4674C38.8498 76.447 38.8161 76.4286 38.7814 76.4121C38.6185 76.3308 38.4507 76.2447 38.2927 76.152C38.1347 76.0593 37.975 75.9626 37.8211 75.8594C37.7551 75.8155 37.6908 75.77 37.6256 75.7245C37.6074 75.7101 37.5877 75.6976 37.567 75.6871L37.5051 75.6359C37.2397 75.4168 36.9863 75.1838 36.746 74.9376C36.6157 74.8043 36.4902 74.6686 36.3681 74.5272C36.3159 74.4678 36.2646 74.4061 36.2133 74.3451C36.1987 74.3272 36.1319 74.2329 36.0928 74.1882C35.676 73.6153 35.3125 73.0056 35.0071 72.3667C34.9851 72.3195 34.867 72.0505 34.858 72.0342C34.7855 71.853 34.7163 71.6701 34.652 71.4864C34.5037 71.0637 34.3775 70.6345 34.2683 70.2013C34.0681 69.4068 33.9276 68.5985 33.8481 67.7831C33.6796 66.0828 33.6496 64.3716 33.7585 62.6664C33.7904 61.9451 33.8816 61.2277 34.0313 60.5213C34.181 59.7837 34.3907 59.0595 34.6585 58.3559C34.9371 57.7225 35.2819 57.1201 35.6872 56.5588C35.71 56.5376 35.8623 56.3458 35.8997 56.3052C36.013 56.1792 36.1294 56.0613 36.2508 55.941C36.3721 55.8207 36.5 55.7094 36.6303 55.6004C36.6694 55.5663 36.7118 55.533 36.7517 55.5005C36.7696 55.4866 36.7957 55.4696 36.8331 55.4476C37.114 55.2549 37.4052 55.0778 37.7054 54.9169C37.8121 54.8608 37.9221 54.8096 38.0312 54.7543C37.9791 54.7827 38.3196 54.6413 38.3929 54.6169C38.7103 54.5128 39.0341 54.4286 39.3621 54.3649C39.3988 54.3576 39.4232 54.3511 39.4435 54.3471C39.4639 54.343 39.4753 54.3471 39.503 54.3471C39.6895 54.3333 39.8752 54.3202 40.0625 54.3219C40.2352 54.3219 40.4063 54.3381 40.5773 54.3463C40.6767 54.369 40.7769 54.3828 40.8746 54.4056C41.0538 54.4479 41.2273 54.508 41.404 54.5633C41.4097 54.5633 41.4276 54.5714 41.4488 54.5803C41.4944 54.6039 41.5824 54.6462 41.5978 54.6535C41.7607 54.7454 41.9236 54.8396 42.0825 54.9437L42.1134 54.964C42.19 55.0266 42.2657 55.0924 42.3398 55.1607C42.4815 55.2956 42.6159 55.4381 42.7422 55.5874C42.8074 55.6768 42.8692 55.7695 42.9287 55.863C43.0207 56.0085 43.1046 56.1589 43.1836 56.3125C43.2219 56.3889 43.2594 56.4677 43.2944 56.5466C43.3017 56.5669 43.3115 56.5905 43.3197 56.6165C43.4458 56.9973 43.5497 57.3852 43.6308 57.778L43.6414 57.8455C43.6471 57.9105 43.6699 58.117 43.6699 58.1105C43.6829 58.2868 43.6902 58.4649 43.6911 58.6429C43.6911 58.845 43.6851 59.0471 43.6731 59.2492C43.6674 59.3248 43.6601 59.4004 43.6536 59.476L43.6495 59.5354C43.6438 59.5606 43.6381 59.5971 43.6283 59.6524C43.5463 60.1154 43.6373 60.5923 43.8841 60.9928C43.4769 61.7243 43.1063 62.4786 42.7642 63.2378C41.8236 65.1641 41.2702 67.2556 41.1352 69.3941C41.0992 71.8826 41.8649 74.3168 43.3197 76.3381C43.2097 76.3991 43.0981 76.4576 42.9849 76.5137C42.9637 76.5186 42.9279 76.5332 42.8961 76.5446L42.8937 76.5487ZM53.4168 77.8077C53.3198 77.8224 53.3646 77.815 53.4168 77.8077V77.8077ZM57.7636 75.9464C57.7058 75.9951 57.6472 76.0439 57.5877 76.0919C57.574 76.1025 57.561 76.1139 57.5486 76.126C57.5283 76.139 57.5136 76.1496 57.4843 76.1699C56.9242 76.5661 56.3275 76.9079 55.7022 77.1908C55.6378 77.216 55.5735 77.242 55.5092 77.2656C55.3419 77.3284 55.1728 77.387 55.0017 77.4411C54.6607 77.549 54.3144 77.6394 53.9641 77.7118C53.7955 77.746 53.6253 77.776 53.4542 77.802L53.2498 77.8232C52.8691 77.8574 52.4868 77.8705 52.1046 77.8622C51.9523 77.8622 51.7984 77.8516 51.6461 77.8411C51.5451 77.8346 51.4433 77.824 51.3423 77.8159L51.2527 77.8053C51.1875 77.7939 50.9839 77.7606 50.9326 77.75C50.7322 77.7116 50.5335 77.6669 50.3364 77.6159C50.0106 77.5346 49.7011 77.4257 49.3892 77.3103C49.3696 77.3038 49.3126 77.2786 49.2751 77.2623C49.2377 77.2461 49.1815 77.2201 49.135 77.1973C48.9721 77.122 48.8133 77.0407 48.6586 76.9535C48.3463 76.7808 48.0439 76.5908 47.7529 76.3845C47.7138 76.3568 47.5631 76.2398 47.5354 76.2219C47.3945 76.1073 47.256 75.9902 47.1225 75.8683C46.877 75.6451 46.6435 75.4102 46.422 75.1636C46.3023 75.0303 46.1874 74.8946 46.0734 74.7572L46.018 74.6849L45.9056 74.5272C45.7134 74.2562 45.5353 73.9769 45.3713 73.6891C45.2288 73.4388 45.0032 72.9901 44.9274 72.8194L44.8745 72.6877L44.793 72.4723C44.7336 72.3049 44.6766 72.1358 44.6253 71.9659C44.5233 71.6248 44.4403 71.2783 44.3768 70.9279C44.363 70.8532 44.3516 70.7776 44.3394 70.7036V70.6695C44.3255 70.5175 44.3117 70.3663 44.3027 70.2127C44.2825 69.8142 44.2869 69.4149 44.3158 69.017C44.3925 68.2201 44.5564 67.4341 44.8045 66.6728C45.3124 65.0924 45.9999 63.5753 46.8537 62.151C46.8749 62.1145 47.0019 61.9129 47.0117 61.8909C47.0834 61.795 47.1184 61.7877 47.2878 61.704L47.3253 61.6861C47.4067 61.656 47.4882 61.6333 47.5655 61.6105C47.6429 61.5877 47.7162 61.569 47.7928 61.552C47.7928 61.552 48.0021 61.5187 48.064 61.5048L48.1455 61.4991C48.2497 61.4991 48.3523 61.4918 48.4582 61.4918C48.5869 61.4918 48.7172 61.5024 48.8467 61.5138C48.8614 61.5235 49.1391 61.5691 49.1978 61.5837C49.3745 61.6284 49.5488 61.6837 49.7215 61.7462C49.6588 61.7243 49.4845 61.6251 49.7744 61.769C49.8673 61.8145 49.9609 61.8617 50.0513 61.9129C50.1197 61.9511 50.1857 61.9942 50.2517 62.0324C50.2769 62.0486 50.4146 62.1429 50.4382 62.1518C50.5586 62.2505 50.6733 62.3558 50.7819 62.4672C50.8585 62.5485 50.9326 62.6298 51.0026 62.7111L51.0246 62.7379L51.0548 62.7826C51.1786 62.9629 51.2915 63.1505 51.3928 63.3443C51.4245 63.406 51.4555 63.4678 51.4856 63.5304C51.4995 63.5621 51.5223 63.6117 51.5312 63.6442C51.6727 64.037 51.7769 64.4422 51.8424 64.8545L51.8464 64.9236C51.8546 65.0341 51.8635 65.1447 51.8684 65.256C51.8782 65.4815 51.8782 65.7072 51.8684 65.9331C51.8543 66.3342 51.7997 66.7329 51.7055 67.1231C51.4713 68.1225 51.1461 69.0984 50.7339 70.0387C50.623 70.4431 50.6772 70.8748 50.8845 71.2395C51.0917 71.6041 51.4353 71.8721 51.8399 71.9846C51.9445 72.0076 52.0507 72.0223 52.1576 72.0285C52.2326 72.207 52.3435 72.3683 52.4834 72.5024C54.0366 73.9474 55.8343 75.106 57.793 75.9244L57.7636 75.9464ZM68.5775 73.264C68.5513 73.2757 68.5259 73.2893 68.5017 73.3047C68.3323 73.4038 68.1637 73.5006 67.9911 73.5957C67.952 73.6176 67.9283 73.6322 67.9096 73.6412C67.8909 73.6501 67.8591 73.655 67.8135 73.6696C67.6441 73.7249 67.4779 73.7834 67.3061 73.8322C67.019 73.9102 66.7281 73.9734 66.4346 74.0216C66.4517 74.0151 66.1145 74.063 66.0599 74.0687C65.8639 74.0877 65.6676 74.1026 65.4711 74.1134C65.1062 74.1338 64.738 74.1411 64.3756 74.1346C64.0131 74.1281 63.6426 74.111 63.2809 74.0801C63.0854 74.0639 62.8892 74.0435 62.6945 74.0191C62.5829 74.0053 62.5837 74.0053 62.6986 74.0191C62.587 74.0029 62.4754 73.985 62.3654 73.9671C59.5052 73.5136 56.8439 72.2237 54.7183 70.2606C54.5555 70.1104 54.3645 69.9939 54.1563 69.9176C54.5418 68.9099 54.8096 67.8612 54.9545 66.7923C58.0335 68.7261 61.2716 70.3954 64.6338 71.7822C65.9342 72.3367 67.2669 72.8122 68.6247 73.2063C68.6141 73.2291 68.5921 73.2494 68.5799 73.2632L68.5775 73.264ZM94.3997 54.1203C94.359 54.1487 94.3346 54.165 94.3997 54.1203V54.1203ZM98.6236 50.0423C98.6097 50.0775 98.5934 50.1117 98.5748 50.1447C98.587 50.1138 98.6082 50.0813 98.6236 50.0456V50.0423ZM98.521 50.2561L98.5251 50.2488C98.5463 50.2268 98.5756 50.1976 98.622 50.1529C98.5865 50.1866 98.5527 50.2221 98.521 50.2594V50.2561Z" fill="#5A606C"/>
</svg>
