<svg width="142" height="20" viewBox="0 0 142 20" fill="none" xmlns="http://www.w3.org/2000/svg">
<path d="M102.372 6.27514C102.372 3.96722 100.874 2 97.5367 2H90.6862V8.39623H88.9094V10.5576H90.6862V16.2028H93.038V10.5613H95.6683L99.9691 16.2065H102.9L98.5404 10.4953C101.189 10.1546 102.372 8.33761 102.372 6.27514ZM93.0417 8.3889V4.16505H97.4378C99.0423 4.16505 100.002 4.89772 100.002 6.28247C100.002 7.66722 99.0423 8.39989 97.4378 8.39989L93.0417 8.3889Z" fill="black"/>
<path d="M104.892 16.2028H114.685V14.0451H107.244V10.173H114.534V8.01524H107.244V4.16505H114.685V2.00367H104.892V16.2028Z" fill="black"/>
<path d="M118.18 16.2028H127.976V14.0451H120.532V10.173H127.826V8.01524H120.532V4.16505H127.976V2.00367H118.18V16.2028Z" fill="black"/>
<path d="M141.247 4.16505V2.00367H131.455V16.2028H133.807V10.173H141.097V8.01524H133.807V4.16505H141.247Z" fill="black"/>
<path d="M81.1688 7.56075L76 12.7224L76.2433 12.966L81.4121 7.80441L81.1688 7.56075Z" fill="black"/>
<path d="M76.2507 7.5606L76.0072 7.80409L81.1725 12.9693L81.416 12.7258L76.2507 7.5606Z" fill="black"/>
<path d="M14.0244 7.897V15.794H15.3549H16.6854V7.897V-2.98023e-07H15.3549H14.0244V7.897Z" fill="#FF5943"/>
<path d="M19.6038 11.9742V20H20.9772H22.3505V17.4249C22.3505 16.0086 22.3677 14.8498 22.3935 14.8498C22.4192 14.8498 22.6252 14.9442 22.8484 15.0472C23.5179 15.382 24.3076 15.5622 25.1402 15.5708C26.6596 15.5794 27.9128 15.0558 29.0115 13.9571C29.7411 13.2189 30.093 12.6695 30.4278 11.7597C30.7111 10.9614 30.7196 9.33047 30.445 8.45494C29.9986 7.06438 28.9256 5.79399 27.6553 5.1588C26.0415 4.3691 24.3162 4.35193 22.7797 5.12446C22.4278 5.30472 22.1102 5.45923 22.0759 5.47639C22.0501 5.49356 21.9986 5.42489 21.9729 5.33906C21.9385 5.24464 21.7153 4.96996 21.4836 4.72961C21.0287 4.27468 20.342 3.9485 19.8613 3.9485H19.6038V11.9742ZM26.445 7.56223C27.4321 8.03433 27.9643 8.92704 27.9643 10.0858C27.9643 10.6438 27.9299 10.8584 27.7497 11.2446C26.9085 13.03 24.548 13.4506 23.1574 12.0687C21.8956 10.7983 22.1531 8.58369 23.681 7.63949C24.4621 7.1588 25.5437 7.12446 26.445 7.56223Z" fill="#FF5943"/>
<path d="M67.4751 4.12017C66.9515 4.32618 66.385 4.78111 66.1704 5.18455C66.0759 5.35622 65.9815 5.48498 65.9558 5.46781C65.415 5.15879 64.488 4.78111 64.0244 4.67811C61.5437 4.1545 59.0373 5.37339 57.9472 7.64807C57.4665 8.64377 57.3377 9.2618 57.3892 10.3605C57.4922 12.3863 58.5738 14.0515 60.385 14.97C61.9644 15.7597 63.5008 15.8026 65.0888 15.0987C65.3892 14.9614 65.6468 14.8498 65.6639 14.8498C65.6811 14.8498 65.6983 15.0043 65.6983 15.1931V15.5365H67.0716H68.445V9.74249V3.94849H68.1704C68.0159 3.95708 67.6983 4.02575 67.4751 4.12017ZM63.5781 7.33905C63.8442 7.40772 64.2133 7.55365 64.3935 7.66523C65.8871 8.61802 66.1532 10.7983 64.9257 12.0257C64.2562 12.6953 63.9128 12.8326 62.9086 12.8326C62.1618 12.8326 61.9987 12.8069 61.6296 12.618C61.4064 12.4979 61.0545 12.2489 60.8656 12.0601C59.827 11.03 59.7927 9.27897 60.7884 8.14592C61.2347 7.6309 62.0931 7.25322 62.8656 7.21888C62.9858 7.2103 63.3034 7.27038 63.5781 7.33905Z" fill="#FF5943"/>
<path d="M10.2733 4.28326C9.67244 4.48927 9.19176 4.83262 8.90849 5.2618C8.77116 5.45923 8.65957 5.63948 8.6424 5.65665C8.63382 5.67382 8.34197 5.55365 7.99862 5.38197C5.22609 3.99142 1.91279 5.09013 0.556562 7.85408C-0.258889 9.51073 -0.173052 11.5021 0.779738 13.1245C1.20892 13.8455 2.24755 14.8155 2.97716 15.176C4.55656 15.9485 6.24755 15.9914 7.8012 15.2876L8.35914 15.03V15.4163V15.794H9.68961H11.0201V9.95708C11.0201 3.34764 11.1059 3.99142 10.2733 4.28326ZM6.77116 7.74249C7.35485 8.04292 7.82695 8.5236 8.09304 9.09013C8.39347 9.72532 8.41064 10.8155 8.12738 11.4249C7.29476 13.2704 4.85699 13.6996 3.4836 12.2403C2.05012 10.7296 2.65957 8.22318 4.61665 7.58798C5.18317 7.39914 6.25613 7.47639 6.77116 7.74249Z" fill="#FF5943"/>
<path d="M42.4622 4.28326C41.8356 4.49785 41.3635 4.83262 41.0888 5.2618C40.96 5.45923 40.8399 5.63948 40.8227 5.66524C40.8055 5.6824 40.6081 5.59657 40.3763 5.46781C38.5738 4.45494 36.3763 4.54077 34.6253 5.70815C32.7969 6.91845 31.8442 9.1588 32.2562 11.2532C32.9686 14.7897 36.6253 16.7468 39.8871 15.3219L40.548 15.0386V15.4163V15.794H41.8785H43.209V9.95708C43.209 3.34764 43.2948 3.99142 42.4622 4.28326ZM38.96 7.74249C41.0974 8.84979 41.0287 11.9056 38.8399 12.9013C38.239 13.176 37.1403 13.1588 36.5137 12.867C35.5266 12.3948 34.96 11.5451 34.9 10.4292C34.857 9.50215 35.0716 8.91845 35.6982 8.28326C36.3334 7.64807 36.8484 7.45923 37.8012 7.49356C38.3763 7.51931 38.6167 7.57082 38.96 7.74249Z" fill="#FF5943"/>
<path d="M50.196 4.58369C48.651 4.93562 47.2862 5.90558 46.3935 7.28755C45.3377 8.93562 45.2862 11.2446 46.2733 13.0472C46.7282 13.8712 47.8784 14.9785 48.711 15.3906C50.4535 16.2489 52.4793 16.2747 54.0844 15.4678C54.6424 15.1845 55.4836 14.5751 55.8613 14.1717L56.1102 13.9142L55.8441 13.588C55.6982 13.4077 55.2947 12.9785 54.9342 12.6266L54.2904 11.9914L53.9128 12.3348C53.0458 13.133 52.2904 13.4335 51.2862 13.3734C50.0844 13.3047 49.0286 12.618 48.5394 11.588C48.3677 11.2189 48.3162 10.9528 48.2904 10.3863C48.2475 9.35622 48.4535 8.80687 49.166 8.103C49.9728 7.30472 51.0201 6.98712 52.093 7.2103C52.7969 7.35622 53.2776 7.62232 53.9299 8.20601L54.4707 8.70386L55.3462 7.76824C55.8183 7.25322 56.2132 6.79828 56.2132 6.74678C56.2132 6.61803 54.9256 5.5279 54.4278 5.24463C53.5952 4.77253 52.711 4.53219 51.6638 4.49785C51.0544 4.48069 50.5308 4.50644 50.196 4.58369Z" fill="#FF5943"/>
</svg>
