<svg width="32" height="24" viewBox="0 0 32 24" fill="none" xmlns="http://www.w3.org/2000/svg">
<rect width="32" height="24" rx="4" fill="#030E1B"/>
<path fill-rule="evenodd" clip-rule="evenodd" d="M8.44921 8.34316C8.16382 8.69506 7.70721 8.97261 7.2506 8.93296C7.19353 8.45715 7.41707 7.95161 7.67867 7.63936C7.96406 7.27755 8.46348 7.01983 8.86777 7C8.91533 7.49563 8.72983 7.98135 8.44921 8.34316ZM8.86297 9.02712C8.46071 9.003 8.09366 9.15319 7.79718 9.2745C7.60639 9.35256 7.44483 9.41867 7.32191 9.41867C7.18397 9.41867 7.01574 9.34903 6.82685 9.27084L6.82685 9.27084C6.57935 9.16838 6.29638 9.05124 5.99964 9.05686C5.31948 9.06677 4.68688 9.46823 4.33967 10.1076C3.62621 11.3863 4.15417 13.2796 4.84384 14.3205C5.18155 14.8359 5.58584 15.4009 6.11855 15.3811C6.35291 15.3719 6.5215 15.2973 6.69597 15.2202C6.89683 15.1314 7.10549 15.0391 7.43131 15.0391C7.74582 15.0391 7.94536 15.129 8.1369 15.2152C8.31903 15.2973 8.49393 15.376 8.75358 15.3712C9.30532 15.3613 9.65253 14.8557 9.99023 14.3403C10.3547 13.7871 10.5148 13.2471 10.5391 13.1652L10.542 13.1557C10.5414 13.1551 10.5369 13.153 10.5289 13.1492C10.4071 13.0911 9.47596 12.6469 9.46703 11.4557C9.45807 10.4559 10.2056 9.94935 10.3233 9.86961L10.3233 9.8696C10.3304 9.86476 10.3353 9.86149 10.3374 9.85978C9.86181 9.12625 9.11982 9.04695 8.86297 9.02712ZM12.6824 15.3167V7.5898H15.4649C16.9013 7.5898 17.9049 8.62071 17.9049 10.1274C17.9049 11.6341 16.8822 12.675 15.4268 12.675H13.8334V15.3167H12.6824ZM13.8333 8.60088H15.1603C16.1592 8.60088 16.7299 9.15599 16.7299 10.1324C16.7299 11.1088 16.1592 11.6688 15.1556 11.6688H13.8333V8.60088ZM21.7053 14.3898C21.4009 14.9945 20.7302 15.3761 20.0072 15.3761C18.9371 15.3761 18.1903 14.712 18.1903 13.7108C18.1903 12.7196 18.9133 12.1496 20.2498 12.0653L21.6862 11.9761V11.5499C21.6862 10.9204 21.2915 10.5784 20.5875 10.5784C20.0072 10.5784 19.5839 10.8907 19.4983 11.3665H18.4614C18.4947 10.3653 19.3984 9.63675 20.6208 9.63675C21.9383 9.63675 22.7945 10.3554 22.7945 11.4706V15.3167H21.729V14.3898H21.7053ZM20.3163 14.4592C19.7027 14.4592 19.3127 14.1519 19.3127 13.6811C19.3127 13.1954 19.6885 12.9129 20.4067 12.8683L21.6861 12.784V13.2202C21.6861 13.9438 21.0964 14.4592 20.3163 14.4592ZM26.3284 15.619C25.867 16.9721 25.3391 17.4181 24.2166 17.4181C24.131 17.4181 23.8456 17.4082 23.779 17.3884V16.4616C23.8503 16.4715 24.0263 16.4814 24.1167 16.4814C24.6256 16.4814 24.911 16.2584 25.087 15.6785L25.1916 15.3365L23.2415 9.7111H24.4449L25.8004 14.2759H25.8242L27.1798 9.7111H28.3499L26.3284 15.619Z" fill="white"/>
</svg>
