<svg width="24" height="24" viewBox="0 0 24 24" fill="none" xmlns="http://www.w3.org/2000/svg">
<path d="M12.6976 1.89138V1.09461C12.6976 0.654562 12.3409 0.297852 11.9008 0.297852H0.796762C0.356711 0.297852 0 0.654562 0 1.09461V1.89138C0 2.33143 0.356711 2.68814 0.796762 2.68814H11.9008C12.3409 2.68814 12.6976 2.33143 12.6976 1.89138Z" fill="black"/>
<path d="M10.4046 5.31738H0.796763C0.356711 5.31738 0 5.67409 0 6.11414V6.9109C0 7.35095 0.356711 7.70766 0.796763 7.70766H10.4046C10.8447 7.70766 11.2014 7.35095 11.2014 6.9109V6.11414C11.2014 5.67409 10.8447 5.31738 10.4046 5.31738Z" fill="black"/>
<path d="M8.90821 10.3369H0.796763C0.356711 10.3369 0 10.6936 0 11.1337V11.9304C0 12.3705 0.356711 12.7272 0.796763 12.7272H8.90821C9.34826 12.7272 9.70497 12.3705 9.70497 11.9304V11.1337C9.70497 10.6936 9.34826 10.3369 8.90821 10.3369Z" fill="black"/>
<path d="M7.41188 15.9146H0.796762C0.356711 15.9146 0 16.2713 0 16.7113V17.5081C0 17.9481 0.356711 18.3048 0.796762 18.3048H7.41188C7.85186 18.3048 8.20865 17.9481 8.20865 17.5081V16.7113C8.20865 16.2713 7.85193 15.9146 7.41188 15.9146Z" fill="black"/>
<path d="M5.91548 20.9341H0.796762C0.35671 20.9341 0 21.2908 0 21.7308V22.5276C0 22.9677 0.35671 23.3244 0.796762 23.3244H5.91548C6.35545 23.3244 6.71224 22.9677 6.71224 22.5276V21.7308C6.71224 21.2908 6.35553 20.9341 5.91548 20.9341Z" fill="black"/>
<path d="M23.7664 17.2802L23.203 16.7168C23.0536 16.5674 22.8509 16.4834 22.6396 16.4834C22.4283 16.4834 22.2256 16.5674 22.0762 16.7168L19.3359 19.4571V1.49305C19.3359 1.053 18.9792 0.696289 18.5391 0.696289H17.7423C17.3023 0.696289 16.9456 1.053 16.9456 1.49305V19.457L14.2053 16.7167C14.0558 16.5673 13.8532 16.4833 13.6419 16.4833C13.4306 16.4833 13.2279 16.5673 13.0785 16.7167L12.515 17.2801C12.204 17.5912 12.204 18.0958 12.515 18.4069L17.5773 23.4692C17.7329 23.6248 17.9368 23.7026 18.1407 23.7026C18.3446 23.7026 18.5486 23.6248 18.7041 23.4692L23.7664 18.4069C24.0776 18.0958 24.0776 17.5912 23.7664 17.2802Z" fill="black"/>
</svg>
