<svg width="34" height="34" viewBox="0 0 48 48" fill="currentColor"
    xmlns="http://www.w3.org/2000/svg">
    <path d="M6.04688 27.4497C6.04688 27.086 6.32913 26.7847 6.69207 26.761L15.2479 26.2022C15.8072 26.1657 16.2809 26.6095 16.2809 27.17C16.2809 27.7057 15.8467 28.1399 15.3111 28.1399H6.73704C6.35587 28.1399 6.04688 27.8309 6.04688 27.4497Z" fill="currentColor"/>
    <path d="M10.1404 35.4548C10.1404 35.0951 10.4112 34.7932 10.7688 34.7543L15.2301 34.2687C15.791 34.2076 16.2808 34.647 16.2808 35.2113C16.2808 35.7349 15.8563 36.1594 15.3326 36.1594H10.845C10.4559 36.1594 10.1404 35.8439 10.1404 35.4548Z" fill="currentColor"/>
    <path d="M12.1873 13.3991C12.1873 13.0395 12.4581 12.7375 12.8156 12.6986L17.2769 12.213C17.8379 12.1519 18.3277 12.5913 18.3277 13.1556C18.3277 13.6792 17.9032 14.1037 17.3795 14.1037H12.8919C12.5027 14.1037 12.1873 13.7883 12.1873 13.3991Z" fill="currentColor"/>
    <path d="M4 19.4328C4 19.0681 4.2851 18.7671 4.64923 18.7473L15.2525 18.1702C15.8112 18.1398 16.2808 18.5846 16.2808 19.1441C16.2808 19.6827 15.8442 20.1194 15.3055 20.1194H4.68654C4.30738 20.1194 4 19.812 4 19.4328Z" fill="currentColor"/>
    <path d="M43.3333 16.6668H40V13.3335C40 13.1564 39.9297 12.9871 39.8047 12.8621L37.1388 10.1963C37.0576 10.1149 36.9513 10.0654 36.8369 10.0345C36.8078 10.0266 36.7823 10.0213 36.7525 10.0175C36.7231 10.0135 36.6971 10.0002 36.6666 10.0002H30C29.6315 10.0002 29.3333 10.2984 29.3333 10.6669V13.3336C29.3333 13.7021 29.6315 14.0002 30 14.0002H36V16.6669H28V10.6669C28 10.3974 27.8379 10.1539 27.5885 10.0511C27.3399 9.94756 27.0534 10.0042 26.862 10.1956L24.1953 12.8623C24.0703 12.9873 24 13.1566 24 13.3337V16.667H20.6667C20.2982 16.667 20 16.9652 20 17.3337V35.3336C20 36.8043 21.1959 38.0003 22.6667 38.0003H41.3333C42.804 38.0003 44 36.8043 44 35.3336V17.3337C43.9999 16.965 43.7018 16.6668 43.3333 16.6668Z" fill="currentColor"/>
</svg>
