<svg width="32" height="24" viewBox="0 0 32 24" fill="none" xmlns="http://www.w3.org/2000/svg">
<rect width="32" height="24" rx="4" fill="url(#paint0_linear)"/>
<path fill-rule="evenodd" clip-rule="evenodd" d="M5.93578 13.7666C5.74983 13.8728 5.55184 13.9258 5.34197 13.9258H5.18001C5.13794 13.9258 5.07786 13.9222 4.90434 13.8905L5.49102 11.3209C5.59894 11.2211 5.71537 11.1563 5.85035 11.1249C5.98532 11.0937 6.07225 11.0853 6.15632 11.0853C6.41411 11.0853 6.61359 11.1624 6.70963 11.3311C6.80552 11.4996 6.85358 11.7338 6.85358 12.0335C6.85358 12.2771 6.8145 12.5113 6.73661 12.7361C6.65858 12.9609 6.55215 13.1623 6.41724 13.3403C6.28226 13.5183 6.12166 13.6604 5.93578 13.7666ZM7.25851 10.0758C7.04843 9.96968 6.79961 9.91654 6.51164 9.91654C6.37361 9.91654 6.24468 9.93218 6.12479 9.96339C6.00469 9.99473 5.8916 10.0351 5.77171 10.0913L6.32277 7.67773L4.92806 7.90253L3.37146 14.7126C3.54538 14.8002 3.72977 14.8688 3.92483 14.9187C4.11969 14.9686 4.30414 15.0061 4.47813 15.0311C4.65206 15.056 4.80661 15.07 4.94159 15.0733C5.07656 15.0763 5.17104 15.078 5.225 15.078C5.64482 15.078 6.0348 14.9951 6.39468 14.8297C6.75462 14.6643 7.06644 14.4395 7.33049 14.1553C7.59439 13.8711 7.80284 13.537 7.95583 13.153C8.10882 12.7689 8.18528 12.3614 8.18528 11.9305C8.18528 11.6495 8.15218 11.3872 8.08626 11.1437C8.0202 10.9001 7.91825 10.6879 7.78035 10.5067C7.64231 10.3256 7.46839 10.182 7.25851 10.0758ZM10.9473 9.31541L11.1522 8.418H9.81615L9.61123 9.31541H10.9473ZM12.8806 13.8885C12.7084 13.8885 12.5731 13.8631 12.4749 13.8118C12.3764 13.7606 12.3073 13.6886 12.2674 13.5958C12.2273 13.5031 12.2121 13.3926 12.2213 13.2645C12.2305 13.1366 12.2535 12.9991 12.2904 12.8518L12.6962 11.0853H14.2177L14.4943 9.91408H12.9636L13.314 8.42599L11.8847 8.65645L10.981 12.6309C10.9072 12.9573 10.8641 13.2679 10.8519 13.5621C10.8395 13.8566 10.8825 14.1174 10.981 14.3446C11.0792 14.5718 11.2452 14.7511 11.4789 14.8822C11.7125 15.0133 12.0414 15.079 12.4657 15.079C12.7607 15.079 13.0158 15.0533 13.231 15.0022C13.2532 14.9969 13.287 14.9884 13.3089 14.9829L13.5871 13.7712C13.4937 13.8043 13.3998 13.8266 13.3094 13.8454C13.1711 13.8742 13.0281 13.8885 12.8806 13.8885ZM29.1143 9.91569H27.7783L27.0012 13.3194H27.0026L26.8958 13.7876C26.8212 13.8094 26.747 13.829 26.6734 13.8443C26.535 13.8731 26.3921 13.8875 26.2446 13.8875C26.0723 13.8875 25.9371 13.862 25.8388 13.8107C25.7404 13.7595 25.6713 13.6876 25.6313 13.5947C25.5913 13.502 25.576 13.3916 25.5852 13.2635C25.5945 13.1355 25.6175 12.998 25.6544 12.8507L26.0601 11.0842L26.3275 9.913L26.3276 9.91264H24.9627L24.3449 12.6299C24.2712 12.9563 24.2281 13.2668 24.2159 13.5611C24.2034 13.8556 24.2465 14.1164 24.3449 14.3435C24.4432 14.5708 24.6092 14.7501 24.8429 14.8812C25.0765 15.0122 25.4054 15.0779 25.8296 15.0779C26.1247 15.0779 26.3797 15.0523 26.595 15.0011C26.6037 14.9991 26.6121 14.9969 26.6205 14.9947L26.6199 14.9972C26.5601 15.2776 26.439 15.5049 26.2446 15.6824C26.05 15.86 25.7613 15.9487 25.3785 15.9487C25.215 15.9487 25.0665 15.9386 24.932 15.9192L24.669 17.071C24.8469 17.095 25.044 17.1074 25.2618 17.1074C25.6686 17.1074 26.0248 17.059 26.3299 16.9625C26.6351 16.8659 26.8968 16.7196 27.1152 16.5233C27.3336 16.3271 27.5161 16.0809 27.6627 15.7852C27.8093 15.4893 27.9274 15.139 28.0172 14.734L28.9417 10.6881L28.9384 10.6866L29.1143 9.91569ZM22.5613 11.0853C21.9383 11.0853 21.8194 11.0853 21.5641 11.2231C21.3829 11.3209 21.2329 11.468 21.1012 11.6395C20.9693 11.8111 20.866 12.009 20.7912 12.2335C20.7162 12.4582 20.6788 12.692 20.6788 12.9353C20.6788 13.2347 20.7267 13.4719 20.8227 13.6464C20.9184 13.8211 21.0952 13.9084 21.3529 13.9084C21.4906 13.9084 21.6149 13.8803 21.7259 13.8242C21.8366 13.768 21.955 13.6744 22.0808 13.5435C22.0928 13.3877 22.1123 13.2239 22.1393 13.0523C22.1639 12.8957 22.1945 12.7495 22.2225 12.6159L22.2226 12.6158L22.2226 12.6157L22.2226 12.6156L22.2226 12.6156L22.2226 12.6156L22.2304 12.5782L22.5613 11.0853ZM23.5099 12.823C23.4259 13.1786 23.4019 13.5357 23.4379 13.8943C23.4739 14.2531 23.6057 14.8028 23.7342 15.078H22.4413C22.3236 14.8707 22.2976 14.7455 22.2796 14.659L22.2796 14.659C22.2734 14.6294 22.2682 14.6043 22.2606 14.582C22.0928 14.7256 21.9071 14.844 21.7034 14.9376C21.4997 15.0311 21.272 15.078 21.0203 15.078C20.7207 15.078 20.4646 15.0233 20.252 14.9142C20.0392 14.8051 19.8655 14.6585 19.7307 14.4745C19.5958 14.2906 19.4984 14.0753 19.4386 13.8289C19.3786 13.5825 19.3487 13.3189 19.3487 13.0383C19.3487 12.6078 19.422 12.2024 19.5689 11.8219C19.7157 11.4415 19.9194 11.1093 20.1801 10.8254C20.4406 10.5416 21.0697 9.91577 22.1018 9.91577L24.1746 9.9157L23.5099 12.823ZM16.0729 13.9285C15.922 13.9285 15.7954 13.9159 15.6928 13.8907L16.3398 11.0853C16.3398 11.0853 16.6689 11.0853 16.8671 11.0861C17.1506 11.0873 17.3516 11.1874 17.4662 11.3758C17.5808 11.5642 17.6381 11.7935 17.6381 12.0635C17.6381 12.3398 17.6003 12.5925 17.525 12.8217C17.4495 13.051 17.3441 13.2471 17.2084 13.4104C17.0726 13.5738 16.9082 13.7009 16.7153 13.7919C16.5221 13.883 16.3081 13.9285 16.0729 13.9285ZM18.76 13.2173C18.9048 12.8375 18.9772 12.4183 18.9772 11.9598C18.9772 11.6773 18.9394 11.4121 18.8641 11.1639C18.7886 10.9159 18.6725 10.6993 18.5157 10.514C18.3588 10.3288 18.1584 10.1828 17.914 10.076C17.6698 9.96927 17.3787 9.91585 17.041 9.91585L16.576 9.91583L15.2567 9.91585L13.7023 16.726H15.0414L15.4486 15.0211C15.6535 15.0588 15.8587 15.0776 16.0638 15.0776C16.486 15.0776 16.8766 15.0006 17.2355 14.8469C17.5943 14.6931 17.9019 14.478 18.1584 14.2016C18.4147 13.9254 18.6153 13.5973 18.76 13.2173ZM8.29339 15.0789L9.47286 9.91272H10.8089L9.62945 15.0789H8.29339Z" fill="white"/>
<defs>
<linearGradient id="paint0_linear" x1="-6.62274e-08" y1="13" x2="32" y2="13" gradientUnits="userSpaceOnUse">
<stop stop-color="#09234E"/>
<stop offset="1" stop-color="#0D3574"/>
</linearGradient>
</defs>
</svg>
