<svg width="128" height="93" viewBox="0 0 128 93" fill="none" xmlns="http://www.w3.org/2000/svg">
<path d="M66.1646 56.3155C64.2171 56.3155 62.1384 56.2828 59.9578 56.2464C55.1889 56.1699 49.7718 56.1699 45.0031 56.2464C42.8226 56.2828 40.7439 56.3155 38.7963 56.3155C34.8611 56.3155 30.4235 56.1918 27.3112 55.2599C23.7874 54.2042 22 52.1437 22 49.1332C22 41.0625 35.389 34.7433 52.4768 34.7433C69.5721 34.736 82.9611 41.0592 82.9611 49.1304C82.9611 56.3164 72.8515 56.3164 66.165 56.3164L66.1646 56.3155ZM52.4802 53.123C55.083 53.123 57.6094 53.163 60.0047 53.2067C62.1671 53.2431 64.2312 53.2758 66.1606 53.2758C76.1863 53.2758 79.9177 52.1546 79.9177 49.1295C79.9177 43.6472 68.8949 37.7786 52.4808 37.7786C36.0705 37.7786 25.044 43.6469 25.044 49.1295C25.044 50.2544 25.4189 51.5176 28.1892 52.3439C30.9231 53.163 35.0876 53.2722 38.8011 53.2722C40.7304 53.2722 42.7946 53.2394 44.9569 53.203C47.3559 53.163 49.8786 53.1229 52.4815 53.1229L52.4802 53.123Z" fill="#5A606C"/>
<path d="M74.1838 62.2241H30.7914C28.3196 62.2241 26.3137 60.2183 26.3137 57.7538C26.3137 55.282 28.3195 53.2761 30.7914 53.2761H74.1838C76.6482 53.2761 78.6541 55.2819 78.6541 57.7538C78.6541 60.2146 76.6483 62.2241 74.1838 62.2241ZM30.7914 56.3159C29.9978 56.3159 29.3534 56.9602 29.3534 57.7538C29.3534 58.5438 29.9977 59.1845 30.7914 59.1845H74.1838C74.9737 59.1845 75.6144 58.5438 75.6144 57.7538C75.6144 56.9603 74.9737 56.3159 74.1838 56.3159H30.7914Z" fill="#5A606C"/>
<path d="M74.1838 77.0911H30.7914C28.3196 77.0911 26.3137 75.0853 26.3137 72.6171C26.3137 70.1526 28.3195 68.1467 30.7914 68.1467H74.1838C76.6482 68.1467 78.6541 70.1525 78.6541 72.6171C78.6541 75.0852 76.6483 77.0911 74.1838 77.0911ZM30.7914 71.1901C29.9978 71.1901 29.3534 71.8308 29.3534 72.6208C29.3534 73.4108 29.9977 74.0515 30.7914 74.0515H74.1838C74.9737 74.0515 75.6144 73.4108 75.6144 72.6208C75.6144 71.8309 74.9737 71.1901 74.1838 71.1901H30.7914Z" fill="#5A606C"/>
<path d="M73.7617 71.1903C72.1782 71.1903 70.6784 70.6224 69.5062 69.6177C67.1618 71.6308 63.3467 71.6308 60.9951 69.6177C58.6507 71.6308 54.8247 71.6308 52.4804 69.6177C50.1324 71.6308 46.3172 71.6234 43.9656 69.6177C41.6249 71.6308 37.8025 71.6234 35.4545 69.6177C34.2823 70.6224 32.7861 71.1903 31.199 71.1903C27.5732 71.1903 24.6208 68.2379 24.6208 64.6122C24.6208 62.0785 26.0333 59.8179 28.3121 58.704C29.0657 58.3399 29.9758 58.6457 30.3471 59.3993C30.7148 60.1528 30.4053 61.0629 29.6518 61.4342C28.425 62.0349 27.6642 63.2507 27.6642 64.6123C27.6642 66.5635 29.2477 68.1507 31.2026 68.1507C32.4076 68.1507 33.5179 67.5318 34.1731 66.5017C34.7337 65.6243 36.1789 65.6243 36.7395 66.5017C38.05 68.5657 41.3737 68.5657 42.6842 66.5017C42.9645 66.0612 43.4451 65.7991 43.9656 65.7991C44.4862 65.7991 44.9667 66.0648 45.2434 66.5017C46.5576 68.5657 49.8739 68.5621 51.199 66.5017C51.4793 66.0648 51.9598 65.7991 52.4767 65.7991H52.4804C52.9973 65.7991 53.4814 66.0648 53.7618 66.5017C55.0722 68.5657 58.3923 68.5657 59.7064 66.5017C59.9867 66.0612 60.4709 65.7991 60.9915 65.7991C61.512 65.7991 61.9925 66.0648 62.2692 66.5017C63.5834 68.5657 66.8998 68.5657 68.2212 66.5017C68.5015 66.0648 68.982 65.7991 69.4989 65.7991C70.0195 65.7991 70.5037 66.0648 70.784 66.5017C71.4392 67.5319 72.5495 68.1507 73.7545 68.1507C75.7058 68.1507 77.2929 66.5635 77.2929 64.6123C77.2929 63.6658 76.9253 62.7812 76.259 62.1077C75.6657 61.5143 75.6657 60.5496 76.2663 59.9563C76.8561 59.3665 77.8244 59.3629 78.4178 59.9635C79.6555 61.2049 80.3399 62.8576 80.3399 64.6086C80.3399 68.238 77.3875 71.1904 73.7618 71.1904L73.7617 71.1903Z" fill="#5A606C"/>
<path d="M75.7706 85.664H29.1892C25.9857 85.664 23.3828 83.0575 23.3828 79.8576C23.3828 76.6578 25.9857 74.0513 29.1892 74.0513H75.7706C78.9741 74.0513 81.577 76.6578 81.577 79.8576C81.5807 83.0575 78.9741 85.664 75.7706 85.664ZM29.1892 77.091C27.6639 77.091 26.4225 78.3324 26.4225 79.8577C26.4225 81.383 27.6638 82.6244 29.1892 82.6244H75.7706C77.2959 82.6244 78.5373 81.3831 78.5373 79.8577C78.5373 78.3324 77.296 77.091 75.7706 77.091H29.1892Z" fill="#5A606C"/>
<path d="M96.9395 85.6637H73.3468C72.5059 85.6637 71.8251 84.983 71.8251 84.1421C71.8251 83.3012 72.5059 82.6204 73.3468 82.6204H95.5276L98.9822 34.6373L67.3154 34.641L67.4755 36.8361C67.5338 37.6734 66.904 38.4015 66.0667 38.4634C65.2258 38.5216 64.5014 37.8955 64.4395 37.0546L64.1628 33.2286C64.1337 32.8063 64.2793 32.3913 64.5669 32.0818C64.8545 31.7724 65.2586 31.5977 65.6808 31.5977H100.613C101.035 31.5977 101.44 31.7724 101.727 32.0818C102.015 32.3912 102.16 32.8062 102.131 33.2286L98.4581 84.2516C98.3999 85.0488 97.7373 85.664 96.9401 85.664L96.9395 85.6637Z" fill="#5A606C"/>
<path d="M100.541 34.6409H66.0633C63.0272 34.6409 60.5627 32.1691 60.5627 29.1367C60.5627 26.1007 63.0309 23.6326 66.0633 23.6326H100.537C103.573 23.6326 106.041 26.1043 106.041 29.1367C106.045 32.1727 103.573 34.6409 100.541 34.6409H100.541ZM66.0633 26.6721C64.7054 26.6721 63.6024 27.7788 63.6024 29.1366C63.6024 30.4981 64.7091 31.6011 66.0633 31.6011H100.537C101.899 31.6011 103.002 30.4981 103.002 29.1366C103.002 27.7752 101.895 26.6721 100.537 26.6721H66.0633Z" fill="#5A606C"/>
<path d="M83.3 26.672C82.4591 26.672 81.7783 25.9912 81.7783 25.1503V17.0324C81.7783 16.4426 82.1205 15.9039 82.6556 15.6527L98.75 8.14263C99.5036 7.78951 100.414 8.1135 100.767 8.87797C101.124 9.63881 100.792 10.5416 100.031 10.8984L84.8187 17.9971V25.1467C84.8187 25.9913 84.1416 26.672 83.3007 26.672L83.3 26.672Z" fill="#5A606C"/>
</svg>
