<svg width="18" height="14" viewBox="0 0 18 14" fill="none" xmlns="http://www.w3.org/2000/svg">
<path d="M17.8968 4.57282C17.8088 4.46543 17.6775 4.40275 17.5396 4.40275H15.7878C15.3555 3.26248 14.7923 2.14526 14.1521 1.72354C11.9376 0.266633 6.06353 0.266633 3.84896 1.72354C3.20832 2.14572 2.64742 3.26433 2.2128 4.40275H0.460968C0.321779 4.40275 0.190887 4.46543 0.103779 4.57282C0.0162102 4.67975 -0.0188173 4.82125 0.00975777 4.95721L0.269238 6.21455C0.313483 6.42887 0.502448 6.58189 0.720448 6.58189H1.23941C0.738422 7.15986 0.495534 7.88762 0.492308 8.61584C0.489082 9.51552 0.8306 10.3285 1.4551 10.9037C1.46202 10.9097 1.46893 10.9139 1.47538 10.9199V12.6791C1.47538 13.0603 1.7851 13.3705 2.16672 13.3705H3.78259C4.16421 13.3705 4.47392 13.0603 4.47392 12.6791V11.9721H13.5262V12.6791C13.5262 13.0603 13.836 13.3705 14.2176 13.3705H15.8334C16.2141 13.3705 16.5248 13.0603 16.5248 12.6791V10.9544C17.1875 10.3474 17.5042 9.51229 17.5083 8.67852C17.5111 7.92541 17.2571 7.17092 16.7266 6.58097H17.2802C17.4991 6.58097 17.6881 6.42795 17.7314 6.21317L17.9913 4.95629C18.0181 4.82125 17.9844 4.68067 17.8968 4.57282ZM4.60804 2.87809C6.37324 1.71616 11.6269 1.71616 13.3912 2.87809C13.7341 3.10301 14.1752 4.01237 14.5794 5.1259H3.42079C3.82407 4.01283 4.26514 3.10393 4.60804 2.87809ZM2.5405 8.78914C2.5405 8.03787 3.14979 7.42948 3.90058 7.42948C4.65229 7.42948 5.26066 8.03787 5.26066 8.78914C5.26066 9.54041 4.65229 10.1493 3.90058 10.1493C3.14979 10.1493 2.5405 9.54041 2.5405 8.78914ZM14.1176 10.1493C13.3668 10.1493 12.7575 9.54041 12.7575 8.78914C12.7575 8.03787 13.3668 7.42948 14.1176 7.42948C14.8693 7.42948 15.4776 8.03787 15.4776 8.78914C15.4776 9.54041 14.8683 10.1493 14.1176 10.1493Z" fill="#4252AF"/>
</svg>
