<svg width="18" height="17" viewBox="0 0 18 17" fill="none" xmlns="http://www.w3.org/2000/svg">
<path opacity="0.4" fill-rule="evenodd" clip-rule="evenodd" d="M3.92542 15.1573C3.92542 14.4573 4.49208 13.8906 5.19208 13.8906C5.88375 13.8906 6.45041 14.4573 6.45041 15.1573C6.45041 15.849 5.88375 16.4156 5.19208 16.4156C4.49208 16.4156 3.92542 15.849 3.92542 15.1573ZM13.3004 15.1573C13.3004 14.4573 13.8671 13.8906 14.5671 13.8906C15.2587 13.8906 15.8254 14.4573 15.8254 15.1573C15.8254 15.849 15.2587 16.4156 14.5671 16.4156C13.8671 16.4156 13.3004 15.849 13.3004 15.1573Z" fill="#D6D7DA"/>
<path d="M17.0006 3.84912C16.6672 3.46578 16.3339 3.29078 15.8256 3.29078H4.57141C4.30474 3.29078 4.08808 3.09078 4.06308 2.82328L3.90474 0.956616C3.87974 0.673283 3.67141 0.440783 3.38808 0.38995L1.40058 0.0899499C1.05891 0.0399499 0.733911 0.26495 0.675578 0.606616C0.617244 0.93995 0.850578 1.26495 1.18391 1.32328L2.44224 1.53995L3.20891 10.6241C3.30058 11.7233 4.21724 12.5733 5.32558 12.5733H14.4172C15.4756 12.5733 16.3756 11.7991 16.5256 10.7483L17.3172 5.28162C17.3922 4.78245 17.3339 4.23245 17.0006 3.84912Z" fill="white"/>
</svg>
