<svg width="128" height="93" viewBox="0 0 128 93" fill="none" xmlns="http://www.w3.org/2000/svg">
<path d="M79.1992 15.0006C72 15.0006 65.3012 17.399 60.0002 21.5006H29.3982C28.5974 21.5006 27.8982 22.1998 27.8982 23.0006C27.8982 23.8014 28.5974 24.5006 29.3982 24.5006H56.5002C53.8986 27.1022 51.801 30.1022 50.301 33.399L19.5 33.4029C18.6992 33.4029 18 34.1021 18 34.9029C18 35.7037 18.6992 36.4029 19.5 36.4029H49.102C48.102 39.2037 47.5004 42.2037 47.4028 45.3013H29.3988C28.598 45.3013 27.8988 46.0005 27.8988 46.8013C27.8988 47.6021 28.598 48.3013 29.3988 48.3013H47.2968C47.3984 51.4029 47.996 54.4029 48.996 57.1997H19.5C18.6992 57.1997 18 57.8989 18 58.6997C18 59.5005 18.6992 60.1997 19.5 60.1997H50.301C51.9026 63.5005 54.0002 66.5005 56.5002 69.0981L29.3982 69.102C28.5974 69.102 27.8982 69.8012 27.8982 70.602C27.8982 71.4028 28.5974 72.102 29.3982 72.102H59.8982C65.199 76.2036 71.8982 78.602 79.0972 78.602C96.6992 78.602 110.898 64.301 110.898 46.801C110.898 29.301 96.6992 15 79.1992 15V15.0006ZM80.6992 75.6026V70.6026C80.6992 69.8018 80 69.1026 79.1992 69.1026C78.3984 69.1026 77.6992 69.8018 77.6992 70.6026V75.6026C63.0002 74.8018 51.1012 63.0006 50.3982 48.3016H55.3982C56.199 48.3016 56.8982 47.6024 56.8982 46.8016C56.8982 46.0008 56.199 45.3016 55.3982 45.3016H50.3982C51.1013 30.6026 63.0002 18.8016 77.6992 18.0006V23.0006C77.6992 23.8014 78.3984 24.5006 79.1992 24.5006C80 24.5006 80.6992 23.8014 80.6992 23.0006V18.0006C95.3982 18.8014 107.199 30.6026 108 45.3016H103C102.199 45.3016 101.5 46.0008 101.5 46.8016C101.5 47.6024 102.199 48.3016 103 48.3016H108C107.199 63.0006 95.3982 74.8016 80.6992 75.6026Z" fill="#5A606C"/>
<path d="M91.6022 45.3016H80.1022L70.3014 27.4036C69.9029 26.7043 69.0006 26.4036 68.3014 26.802C67.6022 27.2004 67.3014 28.1028 67.6998 28.802L77.8988 47.501C78.1996 48.001 78.6996 48.3018 79.1996 48.3018H91.6996C92.5004 48.3018 93.1996 47.6026 93.1996 46.8018C93.1996 46.001 92.3988 45.3018 91.6019 45.3018L91.6022 45.3016Z" fill="#5A606C"/>
</svg>
