<svg width="128" height="93" viewBox="0 0 128 93" fill="none" xmlns="http://www.w3.org/2000/svg">
<path d="M66.712 44.7359H66.0898V33.1585H66.712C69.2771 33.1585 71.5295 34.8675 72.2308 37.4326C72.5404 38.5983 73.785 39.2964 74.9506 38.9868C76.1163 38.6772 76.8144 37.4326 76.5048 36.267C75.3392 31.8381 71.2988 28.8055 66.7117 28.8055H66.0894V22.5886C66.0894 21.344 65.0786 20.4121 63.9129 20.4121C62.6683 20.4121 61.7364 21.423 61.7364 22.5886V28.8055H61.1141C58.3942 28.8055 55.8292 29.8922 53.9653 31.7591C52.0226 33.7019 51.0117 36.188 51.0117 38.9079C51.0117 44.5024 55.5954 49.0895 61.1934 49.0895H61.8157V60.5915H61.1934C58.6283 60.5915 56.3759 58.8825 55.6747 56.4722C55.4409 55.4614 54.588 54.6843 53.4982 54.6843C52.2535 54.6843 51.3216 55.6951 51.3216 56.8608C51.3216 57.0945 51.3216 57.2493 51.4006 57.4831C52.6452 61.912 56.6065 64.9445 61.1937 64.9445H61.8159V71.1614C61.8159 72.406 62.8268 73.3379 63.9925 73.3379C65.2371 73.3379 66.169 72.3271 66.169 71.1614V64.9445H66.7913C72.3858 64.9445 76.9729 60.3608 76.9729 54.7629C76.9729 52.043 75.8862 49.4779 74.0193 47.6141C71.9946 45.7473 69.4326 44.7364 66.7127 44.7364L66.712 44.7359ZM61.1145 44.7359C57.9271 44.7359 55.3651 42.1708 55.3651 38.9865C55.3651 37.4323 55.9874 35.9571 56.9983 34.9462C58.085 33.8595 59.5634 33.2372 61.0386 33.2372H61.6609V44.7391L61.1145 44.7359ZM66.712 60.6666H66.0898V49.0892H66.712C68.2663 49.0892 69.6657 49.7115 70.7524 50.7983C71.8391 51.885 72.3856 53.2844 72.3856 54.8386C72.4614 58.026 69.8964 60.6669 66.712 60.6669V60.6666Z" fill="#5A606C"/>
<path d="M63.9126 10C43.5532 10 27 26.5532 27 46.9126C27 67.272 43.5532 83.8252 63.9126 83.8252C84.272 83.8252 100.825 67.272 100.825 46.9126C100.825 26.5532 84.272 10 63.9126 10ZM31.4287 46.9126C31.4287 38.753 34.4582 31.2912 39.5091 25.5421L45.0278 31.0609C45.4953 31.5283 46.0387 31.6831 46.582 31.6831C47.1254 31.6831 47.6687 31.4494 48.1362 31.0609C48.9923 30.2048 48.9923 28.8085 48.1362 27.9524L42.6175 22.4337C48.3669 17.4615 55.8284 14.3534 63.988 14.3534C81.9407 14.3534 96.4718 28.9637 96.4718 46.8372C96.4718 54.9968 93.4424 62.4586 88.3915 68.2077L82.8728 62.689C82.0167 61.8329 80.6204 61.8329 79.7643 62.689C78.9083 63.545 78.9083 64.9413 79.7643 65.7974L85.283 71.3161C79.5337 76.2883 72.0722 79.3965 63.9126 79.3965C45.9599 79.3965 31.4287 64.8653 31.4287 46.9126Z" fill="#5A606C"/>
</svg>
