<svg width="45" height="27" viewBox="0 0 45 27" fill="none" xmlns="http://www.w3.org/2000/svg">
<path d="M34.0361 21.3284C34.0361 21.3284 41.3423 15.7257 41.9852 11.7744C42.0271 11.5349 42.0207 11.2895 41.9664 11.0526C41.9121 10.8157 41.811 10.5919 41.669 10.3946C41.2141 9.78116 40.2094 9.22375 38.0253 10.2579C37.6211 10.4526 37.239 10.6905 36.8858 10.9672C36.2524 11.4591 34.9106 12.2302 34.7672 10.0803C34.7454 9.68039 34.62 9.29295 34.4036 8.95596C34.0759 8.45647 33.5062 7.94749 32.6411 8.32639C32.3513 8.45806 32.1026 8.66574 31.9213 8.9274C31.7401 9.18906 31.6331 9.49493 31.6117 9.81251C31.4712 11.6082 31.1977 16.1416 31.6801 19.6818L34.0361 21.3284Z" fill="#E4A761"/>
<path d="M13.559 11.8281L10.2163 10.6254L9.57264 12.4142L12.9153 13.617L13.559 11.8281Z" fill="#ACC1C6"/>
<path d="M12.7755 12.1968L37.7164 21.1711C37.1943 22.6221 36.1171 23.8063 34.7219 24.4631C33.3267 25.1199 31.7277 25.1956 30.2767 24.6735L16.278 19.6364C14.827 19.1143 13.6428 18.0372 12.986 16.6419C12.3291 15.2467 12.2534 13.6478 12.7755 12.1968Z" fill="#152EBC"/>
<path d="M38.1306 20.0194L13.1898 11.0451L12.7753 12.1969L37.7162 21.1712L38.1306 20.0194Z" fill="#2A3342"/>
<path d="M9.86961 10.1752L2.71252 7.59992C2.05965 7.365 1.33996 7.70382 1.10504 8.35669L1.10471 8.3576C0.869788 9.01047 1.2086 9.73017 1.86147 9.96509L9.01857 12.5404C9.67144 12.7753 10.3911 12.4365 10.6261 11.7836L10.6264 11.7827C10.8613 11.1298 10.5225 10.4101 9.86961 10.1752Z" fill="#2A3342"/>
<path d="M22.9835 13.9814C22.9379 14.0192 22.8862 14.0491 22.8306 14.0697C22.6636 14.1386 22.4771 14.144 22.3064 14.0849C22.1356 14.0258 21.9925 13.9062 21.9038 13.7488L19.9172 10.2266C19.8405 10.0903 19.7936 9.93929 19.7797 9.78351C19.7657 9.62772 19.785 9.47076 19.8363 9.32298C19.8875 9.17521 19.9696 9.04003 20.077 8.92636C20.1845 8.81268 20.3148 8.7231 20.4595 8.66359L20.656 8.58482L20.7235 8.55537C20.8683 8.49608 21.0242 8.46827 21.1806 8.47377C21.337 8.47927 21.4905 8.51795 21.6309 8.58727C21.7712 8.65659 21.8952 8.75493 21.9947 8.87582C22.0941 8.9967 22.1667 9.13736 22.2077 9.28844L23.2665 13.1904C23.3064 13.3353 23.3006 13.489 23.25 13.6306C23.1993 13.7721 23.1063 13.8946 22.9835 13.9814V13.9814Z" fill="#D07C2C"/>
<path d="M22.9835 13.9815C22.9379 14.0193 22.8862 14.0491 22.8306 14.0698C22.6636 14.1387 22.4771 14.1441 22.3064 14.085C22.1356 14.0259 21.9925 13.9063 21.9038 13.7488L19.9172 10.2267C19.8405 10.0904 19.7936 9.93938 19.7797 9.78359C19.7657 9.6278 19.785 9.47084 19.8363 9.32307C19.8875 9.1753 19.9696 9.04012 20.077 8.92644C20.1845 8.81277 20.3148 8.72319 20.4595 8.66368L20.656 8.5849C20.921 9.80324 21.655 12.6093 22.9835 13.9815Z" fill="#AA6329"/>
<path d="M25.5998 13.6509C25.5667 13.6341 25.5366 13.6119 25.5106 13.5854C25.4293 13.5069 25.3796 13.4014 25.3707 13.2888C25.3617 13.1762 25.3943 13.0642 25.4621 12.9739L26.9815 10.9522C27.0402 10.8739 27.1149 10.8091 27.2006 10.7619C27.2863 10.7147 27.381 10.6862 27.4785 10.6784C27.576 10.6706 27.6741 10.6836 27.7662 10.7166C27.8583 10.7495 27.9423 10.8016 28.0128 10.8695L28.1077 10.9645L28.1419 10.9958C28.2122 11.0639 28.2672 11.1462 28.3033 11.2371C28.3394 11.3281 28.3558 11.4257 28.3514 11.5234C28.347 11.6212 28.3219 11.7168 28.2778 11.8042C28.2337 11.8915 28.1715 11.9685 28.0954 12.03L26.1259 13.6158C26.0525 13.6752 25.9626 13.7104 25.8684 13.7167C25.7742 13.723 25.6804 13.7 25.5998 13.6509V13.6509Z" fill="#D07C2C"/>
<path d="M25.5998 13.6509C25.5667 13.6341 25.5366 13.6119 25.5106 13.5854C25.4293 13.5069 25.3796 13.4014 25.3707 13.2888C25.3617 13.1762 25.3943 13.0642 25.4621 12.9739L26.9815 10.9522C27.0402 10.8739 27.1149 10.8091 27.2006 10.7619C27.2863 10.7147 27.381 10.6862 27.4785 10.6784C27.576 10.6706 27.6741 10.6836 27.7662 10.7166C27.8583 10.7495 27.9423 10.8016 28.0128 10.8695L28.1077 10.9645C27.4743 11.4203 26.0528 12.5456 25.5998 13.6509Z" fill="#AA6329"/>
<path d="M35.0122 9.96262L35.4794 9.63976L35.901 9.34821C36.0654 9.58179 36.1819 9.84564 36.2438 10.1245C36.3057 10.4033 36.3118 10.6917 36.2616 10.9729C36.2115 11.2541 36.1062 11.5226 35.9517 11.7629C35.7973 12.0032 35.5968 12.2105 35.3618 12.3729C35.1268 12.5353 34.862 12.6495 34.5826 12.709C34.3032 12.7685 34.0148 12.7721 33.7341 12.7195C33.4533 12.667 33.1857 12.5593 32.9468 12.4028C32.7078 12.2463 32.5022 12.0441 32.3419 11.8077L32.7654 11.5152L33.2326 11.1924L35.0122 9.96262Z" fill="#CF6B58"/>
<path d="M32.7653 11.5154L35.4792 9.63989C35.6024 9.81809 35.6892 10.0188 35.7348 10.2306C35.7804 10.4423 35.7838 10.661 35.7448 10.8741C35.7059 11.0871 35.6254 11.2905 35.5079 11.4725C35.3904 11.6544 35.2382 11.8115 35.06 11.9346C34.8818 12.0578 34.6811 12.1446 34.4693 12.1901C34.2575 12.2357 34.0389 12.2391 33.8258 12.2002C33.6127 12.1613 33.4094 12.0808 33.2274 11.9633C33.0454 11.8458 32.8884 11.6936 32.7653 11.5154V11.5154Z" fill="#D1C8C7"/>
<path d="M35.012 9.96289C35.1757 10.1989 35.2389 10.4902 35.1878 10.7728C35.1367 11.0555 34.9754 11.3062 34.7394 11.4699C34.5035 11.6336 34.2121 11.6969 33.9295 11.6457C33.6469 11.5946 33.3961 11.4334 33.2324 11.1974L35.012 9.96289Z" fill="#CF6B58"/>
<path d="M34.5652 10.2734C34.6439 10.3913 34.6731 10.5355 34.6466 10.6747C34.62 10.814 34.5397 10.9372 34.4231 11.0179C34.3064 11.0985 34.1628 11.13 34.0231 11.1057C33.8834 11.0813 33.7589 11.0031 33.6764 10.8878L34.5652 10.2734Z" fill="#D1C8C7"/>
<path d="M33.6763 16.1969C34.0728 16.1969 34.3942 15.8755 34.3942 15.479C34.3942 15.0825 34.0728 14.7611 33.6763 14.7611C33.2799 14.7611 32.9584 15.0825 32.9584 15.479C32.9584 15.8755 33.2799 16.1969 33.6763 16.1969Z" fill="#67AB65"/>
<path d="M27.5778 15.0291C27.9743 15.0291 28.2957 14.7077 28.2957 14.3112C28.2957 13.9147 27.9743 13.5933 27.5778 13.5933C27.1813 13.5933 26.8599 13.9147 26.8599 14.3112C26.8599 14.7077 27.1813 15.0291 27.5778 15.0291Z" fill="#67AB65"/>
<path d="M16.8582 9.30271C17.2547 9.30271 17.5761 8.98134 17.5761 8.58485C17.5761 8.18836 17.2547 7.86694 16.8582 7.86694C16.4617 7.86694 16.1403 8.18836 16.1403 8.58485C16.1403 8.98134 16.4617 9.30271 16.8582 9.30271Z" fill="#67AB65"/>
<path d="M28.2957 5.85451C28.6922 5.85451 29.0137 5.53309 29.0137 5.13661C29.0137 4.74012 28.6922 4.4187 28.2957 4.4187C27.8993 4.4187 27.5779 4.74012 27.5779 5.13661C27.5779 5.53309 27.8993 5.85451 28.2957 5.85451Z" fill="#67AB65"/>
<path d="M25.1073 11.0502C26.2485 11.0502 27.1736 10.125 27.1736 8.9838C27.1736 7.84259 26.2485 6.91748 25.1073 6.91748C23.9661 6.91748 23.041 7.84259 23.041 8.9838C23.041 10.125 23.9661 11.0502 25.1073 11.0502Z" fill="#DC565E"/>
<path d="M27.1608 9.22281C27.0963 9.76658 26.8187 10.2626 26.389 10.6019C25.9592 10.9412 25.4124 11.0962 24.8685 11.0328C24.6325 11.0052 24.4029 10.9377 24.1895 10.8333C24.6042 10.7365 24.979 10.5141 25.2625 10.1963C25.5461 9.87852 25.7246 9.48093 25.7738 9.05788C25.8229 8.63484 25.7402 8.20693 25.5371 7.83262C25.3339 7.45832 25.0202 7.15588 24.6386 6.96657C24.9614 6.89199 25.2974 6.89599 25.6183 6.97831C25.9391 7.06062 26.2356 7.21886 26.4826 7.43961C26.7296 7.66037 26.9199 7.93721 27.0376 8.24687C27.1553 8.55653 27.1969 8.88992 27.1589 9.21901L27.1608 9.22281Z" fill="#B14B5A"/>
<path d="M25.593 7.48691C25.7275 7.30267 25.4273 6.85445 24.9225 6.48576C24.4176 6.11707 23.8992 5.96752 23.7647 6.15176C23.6302 6.336 23.9304 6.78425 24.4352 7.15294C24.9401 7.52163 25.4584 7.67115 25.593 7.48691Z" fill="#67AB65"/>
<path d="M26.2987 6.439C26.5178 5.85348 26.5222 5.31403 26.3085 5.2341C26.0948 5.15417 25.744 5.56403 25.525 6.14955C25.3059 6.73507 25.3016 7.27452 25.5153 7.35445C25.729 7.43438 26.0797 7.02452 26.2987 6.439Z" fill="#67AB65"/>
<path d="M25.084 7.63359C25.7029 7.55232 26.1806 7.30334 26.1509 7.07748C26.1213 6.85163 25.5955 6.73441 24.9766 6.81568C24.3577 6.89695 23.8801 7.14593 23.9097 7.37179C23.9394 7.59764 24.4651 7.71486 25.084 7.63359Z" fill="#67AB65"/>
<path d="M30.8003 16.7868C31.9416 16.7868 32.8667 15.8617 32.8667 14.7205C32.8667 13.5793 31.9416 12.6541 30.8003 12.6541C29.6591 12.6541 28.734 13.5793 28.734 14.7205C28.734 15.8617 29.6591 16.7868 30.8003 16.7868Z" fill="#DC565E"/>
<path d="M32.3625 16.0722C32.0041 16.4865 31.496 16.7415 30.9497 16.7812C30.4034 16.8209 29.8636 16.642 29.4491 16.284C29.27 16.128 29.1182 15.9431 29 15.737C29.3973 15.8903 29.8322 15.9171 30.2454 15.814C30.6585 15.7108 31.0297 15.4826 31.3084 15.1606C31.587 14.8385 31.7594 14.4383 31.8021 14.0146C31.8448 13.5909 31.7556 13.1644 31.5468 12.7933C31.768 12.8799 31.9729 13.0035 32.1526 13.1589C32.5666 13.5175 32.8212 14.0258 32.8606 14.5721C32.8999 15.1184 32.7208 15.658 32.3625 16.0722V16.0722Z" fill="#B14B5A"/>
<path d="M32.0141 13.7758C32.229 13.6991 32.2329 13.1597 32.0229 12.5709C31.8129 11.9821 31.4684 11.5669 31.2536 11.6435C31.0387 11.7202 31.0348 12.2596 31.2448 12.8484C31.4548 13.4372 31.7992 13.8524 32.0141 13.7758Z" fill="#67AB65"/>
<path d="M33.1947 13.3147C33.7051 12.9538 34.0122 12.5103 33.8805 12.324C33.7488 12.1377 33.2282 12.2792 32.7178 12.6401C32.2073 13.001 31.9003 13.4446 32.032 13.6309C32.1637 13.8172 32.6842 13.6756 33.1947 13.3147Z" fill="#67AB65"/>
<path d="M33.8353 14.4929C33.9374 14.2889 33.5669 13.8967 33.0078 13.617C32.4487 13.3373 31.9128 13.2759 31.8107 13.4799C31.7086 13.684 32.0791 14.0761 32.6382 14.3558C33.1972 14.6356 33.7332 14.6969 33.8353 14.4929Z" fill="#67AB65"/>
<path d="M18.9809 2.97671C18.8877 2.7982 18.7597 2.6401 18.6046 2.51169C18.4494 2.38328 18.2702 2.28712 18.0774 2.22889C17.8847 2.17067 17.6822 2.15155 17.4819 2.1726C17.2816 2.19366 17.0875 2.25448 16.9111 2.35154C16.7346 2.44859 16.5793 2.57991 16.4543 2.73778C16.3292 2.89564 16.237 3.07687 16.1829 3.27086C16.1288 3.46486 16.114 3.66773 16.1394 3.86752C16.1647 4.0673 16.2297 4.25998 16.3306 4.43431C16.7332 5.16646 18.9809 6.1161 18.9809 6.1161C18.9809 6.1161 19.3816 3.70885 18.9809 2.97671Z" fill="#E4A761"/>
<path d="M44.1133 15.7678C44.3664 15.637 44.558 15.412 44.6466 15.1412C44.7353 14.8704 44.7139 14.5757 44.5871 14.3206C44.4604 14.0654 44.2384 13.8703 43.969 13.7774C43.6997 13.6845 43.4046 13.7012 43.1475 13.824C42.6101 14.0908 41.8627 15.6738 41.8627 15.6738C41.8627 15.6738 43.5758 16.0346 44.1133 15.7678Z" fill="#E4A761"/>
<path d="M25.4276 1.01361C25.371 0.734289 25.2069 0.4884 24.9706 0.329044C24.7344 0.169689 24.4449 0.109649 24.1647 0.16189C23.8846 0.214131 23.6362 0.374423 23.4733 0.608222C23.3103 0.842022 23.2459 1.13057 23.2938 1.41149C23.4039 2.00025 24.7182 3.15208 24.7182 3.15208C24.7182 3.15208 25.533 1.60237 25.4276 1.01361Z" fill="#E4A761"/>
<path d="M40.1103 6.64855C40.2117 6.54364 40.2909 6.41935 40.3432 6.28313C40.3955 6.14691 40.4197 6.00158 40.4146 5.85576C40.4094 5.70994 40.3749 5.56664 40.3131 5.43447C40.2513 5.30229 40.1635 5.18395 40.0549 5.08648C39.9463 4.98901 39.8192 4.91443 39.6811 4.86721C39.5431 4.81999 39.3969 4.80107 39.2514 4.81161C39.1059 4.82216 38.964 4.86196 38.8342 4.9286C38.7043 4.99524 38.5893 5.08733 38.4959 5.19943C38.0961 5.64575 37.9869 7.39303 37.9869 7.39303C37.9869 7.39303 39.7105 7.09487 40.1103 6.64855Z" fill="#E4A761"/>
</svg>
