<svg width="32" height="24" viewBox="0 0 32 24" fill="none" xmlns="http://www.w3.org/2000/svg">
<rect width="32" height="24" rx="4" fill="url(#paint0_linear)"/>
<path fill-rule="evenodd" clip-rule="evenodd" d="M6.81419 12.9314C6.598 13.1395 6.31706 13.2303 5.87241 13.2303H5.6877V10.7441H5.87241C6.31706 10.7441 6.58696 10.8289 6.81419 11.0482C7.0522 11.274 7.19533 11.624 7.19533 11.9841C7.19533 12.345 7.0522 12.7057 6.81419 12.9314ZM6.01022 10.1072H5V13.8666H6.0049C6.53925 13.8666 6.92515 13.7324 7.26375 13.4326C7.66628 13.0778 7.90429 12.5429 7.90429 11.9896C7.90429 10.88 7.12635 10.1072 6.01022 10.1072Z" fill="#212D34"/>
<path fill-rule="evenodd" clip-rule="evenodd" d="M8.22095 13.8668H8.90919V10.1072H8.22095V13.8668Z" fill="#212D34"/>
<path fill-rule="evenodd" clip-rule="evenodd" d="M10.5921 11.5498C10.1791 11.387 10.0579 11.2797 10.0579 11.0765C10.0579 10.8397 10.274 10.6597 10.5706 10.6597C10.7767 10.6597 10.9463 10.7501 11.1255 10.9642L11.4856 10.4618C11.1897 10.1859 10.8357 10.045 10.4488 10.045C9.82453 10.045 9.34839 10.5069 9.34839 11.1222C9.34839 11.6402 9.57004 11.9054 10.2164 12.1532C10.4859 12.2546 10.6231 12.322 10.6922 12.3673C10.8297 12.463 10.8985 12.5985 10.8985 12.7564C10.8985 13.061 10.6713 13.2867 10.3642 13.2867C10.036 13.2867 9.77151 13.1117 9.61311 12.7852L9.16846 13.2414C9.48552 13.7374 9.86638 13.9572 10.3901 13.9572C11.1052 13.9572 11.607 13.4504 11.607 12.7227C11.607 12.1253 11.375 11.855 10.5921 11.5498Z" fill="#212D34"/>
<path fill-rule="evenodd" clip-rule="evenodd" d="M11.824 11.9896C11.824 13.0947 12.6383 13.9515 13.6863 13.9515C13.9825 13.9515 14.2363 13.8895 14.5491 13.7324V12.8692C14.2741 13.1626 14.0303 13.281 13.7183 13.281C13.0252 13.281 12.5332 12.7455 12.5332 11.9841C12.5332 11.2623 13.0407 10.693 13.6863 10.693C14.0145 10.693 14.263 10.8177 14.5491 11.1159V10.2532C14.2471 10.0899 13.9987 10.0222 13.7025 10.0222C12.6598 10.0222 11.824 10.8965 11.824 11.9896Z" fill="#212D34"/>
<path fill-rule="evenodd" clip-rule="evenodd" d="M20.006 12.6325L19.0651 10.1072H18.3132L19.8105 13.9632H20.1809L21.7051 10.1072H20.9591L20.006 12.6325Z" fill="#212D34"/>
<path fill-rule="evenodd" clip-rule="evenodd" d="M22.0164 13.8668H23.9681V13.2303H22.7041V12.2155H23.9216V11.5787H22.7041V10.7442H23.9681V10.1072H22.0164V13.8668Z" fill="#212D34"/>
<path fill-rule="evenodd" clip-rule="evenodd" d="M25.3123 11.838H25.1113V10.6994H25.3232C25.7519 10.6994 25.9849 10.8907 25.9849 11.2565C25.9849 11.6345 25.7519 11.838 25.3123 11.838ZM26.693 11.217C26.693 10.5132 26.238 10.1071 25.4444 10.1071H24.4238V13.8667H25.1113V12.3564H25.2011L26.1536 13.8667H27L25.8892 12.2829C26.4076 12.1705 26.693 11.7927 26.693 11.217Z" fill="#212D34"/>
<g filter="url(#filter0_i)">
<path fill-rule="evenodd" clip-rule="evenodd" d="M18.5279 11.9999C18.5279 13.1045 17.6875 14 16.6508 14C15.6142 14 14.7739 13.1045 14.7739 11.9999C14.7739 10.8953 15.6142 10 16.6508 10C17.6875 10 18.5279 10.8953 18.5279 11.9999Z" fill="url(#paint1_linear)"/>
</g>
<defs>
<filter id="filter0_i" x="14.7739" y="10" width="3.75393" height="4" filterUnits="userSpaceOnUse" color-interpolation-filters="sRGB">
<feFlood flood-opacity="0" result="BackgroundImageFix"/>
<feBlend mode="normal" in="SourceGraphic" in2="BackgroundImageFix" result="shape"/>
<feColorMatrix in="SourceAlpha" type="matrix" values="0 0 0 0 0 0 0 0 0 0 0 0 0 0 0 0 0 0 127 0" result="hardAlpha"/>
<feOffset dx="1" dy="1"/>
<feComposite in2="hardAlpha" operator="arithmetic" k2="-1" k3="1"/>
<feColorMatrix type="matrix" values="0 0 0 0 0.314068 0 0 0 0 0.00146228 0 0 0 0 0.00146228 0 0 0 0.5 0"/>
<feBlend mode="normal" in2="shape" result="effect1_innerShadow"/>
</filter>
<linearGradient id="paint0_linear" x1="13.1765" y1="12" x2="32.5867" y2="22.9611" gradientUnits="userSpaceOnUse">
<stop stop-color="#EAECED"/>
<stop offset="1" stop-color="#CDD5DA"/>
</linearGradient>
<linearGradient id="paint1_linear" x1="18.9501" y1="12.3823" x2="16.5727" y2="9.72709" gradientUnits="userSpaceOnUse">
<stop stop-color="#FFA700"/>
<stop offset="1" stop-color="#E75A10"/>
</linearGradient>
</defs>
</svg>
