<svg width="97" height="113" viewBox="0 0 97 113" fill="none" xmlns="http://www.w3.org/2000/svg">
<path d="M96.4476 1.02814C96.3362 0.776162 96.1817 0.545371 95.9909 0.34608V0.34608L95.8767 0.232404C95.6485 0.0593309 95.3631 -0.0218384 95.0775 0.00504942L91.1956 0.118729L82.1758 0.34608L72.5851 0.573435L67.1048 0.687114C61.8528 0.800791 56.6007 1.02814 51.2345 1.02814C44.6124 1.02814 38.2758 1.02814 31.6536 0.778053C29.7241 0.778053 28.7422 0.70985 26.8012 0.687114L17.7815 0.459759L8.19081 0.232404L2.4821 0.118729H2.25375C1.86193 0.124596 1.48782 0.282173 1.21073 0.558053C0.933646 0.833933 0.775376 1.20642 0.769483 1.59653C0.770011 1.7893 0.810896 1.97984 0.889531 2.156C0.968165 2.33215 1.08282 2.49005 1.22618 2.61962L7.96247 9.32657L1.45453 15.9198L0.42696 17.0566C0.291637 17.1907 0.184258 17.3502 0.110989 17.5257C0.0377191 17.7013 0 17.8896 0 18.0797C0 18.2698 0.0377191 18.4581 0.110989 18.6336C0.184258 18.8092 0.291637 18.9686 0.42696 19.1028C0.541135 19.2165 0.655308 19.3301 0.769483 19.3301L0.883655 24.3319C0.99783 28.0833 1.112 31.7209 1.22618 35.4723C1.34035 38.2005 1.34035 40.8151 1.45453 43.5433C1.68288 51.2734 1.79705 59.0034 1.68288 66.7335C1.68288 71.3942 1.5687 76.055 1.45453 80.6021L1.22618 90.3783L0.997832 100.496V102.542C1.01319 104.596 1.6396 106.599 2.79793 108.298C3.95625 109.998 5.59452 111.318 7.50577 112.091C8.71825 112.512 9.98956 112.742 11.2735 112.773C12.872 112.886 13.8995 113 15.6121 113C17.8956 113 19.0374 112.886 20.75 112.886L26.5729 112.773C30.4548 112.659 34.4509 112.659 38.3328 112.545C46.0967 112.432 53.9747 112.432 61.7386 112.545C65.6205 112.545 69.5024 112.659 73.4985 112.773L79.3214 112.886H82.7467C85.1443 112.886 86.0577 112.773 87.6562 112.659C89.1102 112.489 90.512 112.016 91.7708 111.272C93.0297 110.528 94.1173 109.529 94.9633 108.339C96.1929 106.572 96.8321 104.464 96.7901 102.314C96.7901 101.405 96.6759 100.382 96.6759 99.4724L96.3334 88.5594C96.2192 86.2859 96.2192 84.126 96.1051 81.8525C95.8767 74.1225 95.7625 66.3924 95.7625 58.5487C95.7625 51.6144 95.8767 44.6801 96.1051 37.8595C96.2192 34.9039 96.3334 32.062 96.4476 29.1064C96.5618 26.4918 96.5389 24.4342 96.6531 21.706C96.7556 20.7272 96.7556 19.7405 96.6531 18.7618C96.8296 18.5405 96.9438 18.2765 96.9839 17.9968C97.0241 17.7171 96.9887 17.4319 96.8814 17.1703C95.5114 14.7831 94.1413 12.3958 92.657 9.89495L92.4286 9.55392L95.774 3.22211L96.3334 2.3127C96.4363 2.11658 96.4994 1.90217 96.519 1.68174C96.5386 1.46132 96.5143 1.23921 96.4476 1.02814V1.02814ZM10.1318 11.6001L11.1594 10.3497C11.2947 10.2155 11.402 10.0561 11.4753 9.88051C11.5486 9.70494 11.5863 9.51669 11.5863 9.32657C11.5863 9.13644 11.5486 8.94819 11.4753 8.77262C11.402 8.59705 11.2947 8.43761 11.1594 8.30347L8.30499 5.46154L6.82072 3.64271L15.3838 3.52904H19.3799L24.9744 3.64271L30.4548 3.75639C35.7068 3.87007 40.9588 4.09742 46.325 4.09742C53.0613 4.09742 59.6834 3.98374 66.4197 3.75639L70.7584 3.64271L79.7781 3.41536L89.3688 3.18801L92.794 3.07433L92.2231 3.98374L89.1404 8.30347L88.3412 9.44024C88.2847 9.52436 88.2546 9.62326 88.2546 9.72443C88.2546 9.8256 88.2847 9.9245 88.3412 10.0086C89.5971 12.0548 90.853 14.2147 92.109 16.2609L83.3175 16.6019L72.3568 17.0566L68.8174 17.1703L59.3409 17.3976C56.7149 17.5113 54.0889 17.5113 51.5771 17.625C47.6951 17.625 43.699 17.5113 39.7029 17.5113L31.3682 17.284L19.4941 17.0566L8.07664 16.7156H6.13568L10.1318 11.6001ZM35.136 39.451V38.8826C35.0218 35.6996 35.0218 31.8346 35.0218 28.6517C35.0218 26.1508 34.9076 23.7635 34.9076 21.2627V20.4669L37.9903 20.5806C40.5022 20.5806 42.8998 20.6943 45.4117 20.8079C49.5219 20.9216 53.6322 20.8079 57.7425 20.6943L62.4236 20.5806C62.3094 22.7405 62.1953 24.7866 62.1953 26.9465C62.0811 30.1295 61.8528 33.4261 61.7386 36.609C61.7799 39.665 61.4735 42.7159 60.8252 45.7032C60.5274 46.9865 60.0264 48.2144 59.3409 49.3409C59.0718 49.812 58.7543 50.2539 58.3933 50.6595C58.3424 50.7595 58.277 50.8514 58.1992 50.9323V50.9323L58.0279 51.1483L57.5141 51.7281C57.1626 52.1349 56.781 52.5149 56.3724 52.8649L56.1669 53.0354L55.9956 53.1604L55.7444 53.3309L55.5275 53.5015L55.2421 53.672C54.9075 53.8787 54.5606 54.0647 54.2031 54.229C53.8749 54.4291 53.5163 54.575 53.1413 54.661C49.6776 55.6724 45.9704 55.4718 42.6372 54.0926V54.0926L42.3746 53.9789L41.9522 53.7515L41.5069 53.4901C40.9588 53.1718 40.5707 52.9217 40.5707 52.9217L40.3994 52.8194L40.2852 52.7398L40.2053 52.6716L40.1254 52.6034L40.0112 52.5011C39.7829 52.2737 39.486 52.0123 39.212 51.7054C38.938 51.3984 38.7553 51.1938 38.5269 50.9096C37.8587 50.0807 37.2484 49.2071 36.7001 48.295L36.4718 47.8403L36.3462 47.5561C36.2112 47.282 36.1004 46.9968 36.0151 46.7036C35.8099 46.1506 35.657 45.5797 35.5584 44.9984C35.2267 43.1686 35.0852 41.3097 35.136 39.451V39.451ZM71.6718 109.817C64.0221 109.703 56.2582 109.59 48.6085 109.59C41.6439 109.59 34.7934 109.703 27.943 109.817H19.3799C17.0964 109.817 14.6988 109.76 14.6988 109.76C14.4704 109.76 14.0137 109.76 13.7854 109.76C3.50966 109.192 4.08054 98.8472 4.08054 98.8472C4.08054 97.5968 4.19471 96.3463 4.19471 95.2096C4.30889 91.5719 4.42306 87.9342 4.53723 84.1829L4.76558 76.9075C4.99393 69.2912 4.99393 61.6748 4.99393 53.9448C4.99393 49.0567 4.87976 44.1686 4.76558 39.2805L4.53723 29.8453C4.42306 26.5486 4.30889 23.252 4.30889 19.9554V19.8417H6.36402L16.7539 20.069L28.3997 20.1827L31.9391 20.2964V20.7511L32.0532 26.3213C32.1674 29.7316 32.1674 33.1419 32.2816 36.6659C32.2816 38.371 32.3958 40.1899 32.3958 41.895C32.4096 43.3901 32.6013 44.8783 32.9666 46.3284C33.6532 49.2356 35.1123 51.9055 37.1911 54.0585C40.4309 56.899 44.6364 58.4031 48.9511 58.2645C51.6939 58.3036 54.3897 57.5537 56.7149 56.1047C58.6845 54.7505 60.3552 53.0097 61.6244 50.9892C63.2125 48.3662 64.1517 45.4051 64.3646 42.3497C64.4788 40.9856 64.4788 39.6215 64.5929 38.2574L64.9355 29.5042C65.0496 26.776 65.1638 23.9341 65.278 21.2058V20.2964H65.963L77.8372 20.069L89.0262 19.8417L93.7074 19.728V21.6605L93.5932 24.7298C93.479 28.2538 93.3649 31.8914 93.2507 35.4154C93.1365 39.7352 93.0223 43.9412 92.9082 48.2609C92.794 55.8773 92.794 63.6073 92.9082 71.2237C92.9082 75.5434 93.0224 79.8632 93.1365 84.1829C93.1936 85.5015 93.2164 85.6379 93.2279 86.4564V87.7296C93.2279 88.9801 93.1251 90.2532 93.1251 91.5037C93.1251 93.0952 93.0109 94.6866 93.0109 96.2781V97.4149C92.9901 99.0219 92.7987 100.622 92.4401 102.189C92.2293 103.267 91.7808 104.284 91.1271 105.168L90.9558 105.395L90.853 105.509L90.7389 105.668L90.6133 105.827C90.3755 106.154 90.108 106.458 89.8141 106.736L89.3573 107.191L89.129 107.418V107.475L88.9577 107.623C88.252 108.203 87.453 108.661 86.5943 108.976L86.0235 109.203L85.2813 109.453C85.0644 109.521 84.8703 109.544 84.425 109.658C83.8989 109.775 83.3645 109.851 82.8266 109.885C79.1113 110.122 75.3839 110.099 71.6718 109.817V109.817Z" fill="black"/>
</svg>
