<svg width="47" height="27" viewBox="0 0 47 27" fill="none" xmlns="http://www.w3.org/2000/svg">
<path d="M22.8816 7.14715C22.8816 6.4787 22.316 5.91309 21.6475 5.91309H6.22171C5.55325 5.91309 4.98764 6.4787 4.98764 7.14715C4.98764 7.8156 5.55325 8.38122 6.22171 8.38122H21.6475C22.3674 8.38122 22.8816 7.8156 22.8816 7.14715Z" fill="white"/>
<path d="M20.8763 13.0607C20.8763 12.3923 20.3107 11.8267 19.6423 11.8267H11.518C10.8495 11.8267 10.2839 12.3923 10.2839 13.0607C10.2839 13.7292 10.8495 14.2948 11.518 14.2948H19.6423C20.3621 14.2948 20.8763 13.7292 20.8763 13.0607Z" fill="white"/>
<path d="M32.9598 0H1.23407C0.565613 0 0 0.565613 0 1.23407C0 1.90252 0.565613 2.46813 1.23407 2.46813H33.0112C39.0273 2.46813 43.8607 7.35297 43.8607 13.3176C43.8607 19.2823 38.9759 24.1671 33.0112 24.1671C28.9491 24.1671 25.2469 21.9047 23.3444 18.3053C23.1387 17.8939 22.7274 17.6369 22.2646 17.6369H15.94C15.2716 17.6369 14.7059 18.2025 14.7059 18.8709C14.7059 19.5394 15.2716 20.105 15.94 20.105H21.4933C23.8586 24.1671 28.2292 26.6867 32.9598 26.6867C40.3128 26.6352 46.2775 20.6706 46.2775 13.3176C46.2775 5.96465 40.3128 0 32.9598 0Z" fill="white"/>
<path d="M32.9601 4.62769C32.2402 4.62769 31.6232 5.24472 31.6232 5.96459V13.5747C31.6232 13.6775 31.6232 13.7289 31.6232 13.8318C31.6232 13.9346 31.6746 13.986 31.6746 14.0889C31.726 14.1403 31.726 14.2431 31.7774 14.2945C31.8288 14.346 31.8803 14.4488 31.9317 14.5002L35.3254 17.8939C35.5825 18.151 35.9424 18.3052 36.2509 18.3052C36.6109 18.3052 36.9194 18.151 37.1765 17.8939C37.6907 17.3797 37.6907 16.5056 37.1765 15.9914L34.1427 12.9576V5.96459C34.297 5.24472 33.7314 4.62769 32.9601 4.62769Z" fill="white"/>
</svg>
