<svg width="12" height="16" viewBox="0 0 12 16" fill="none" xmlns="http://www.w3.org/2000/svg">
<path fill-rule="evenodd" clip-rule="evenodd" d="M11.625 0.5C11.8321 0.5 12 0.667893 12 0.875V15.125C12 15.3321 11.8321 15.5 11.625 15.5H10.875C10.6678 15.5 10.5 15.3321 10.5 15.125V9.5H8.99995C8.58574 9.5 8.24995 9.16421 8.24995 8.75V3.5C8.24995 1.84315 9.5931 0.5 11.25 0.5H11.625ZM6 7.07004V0.875045C6 0.667938 5.83211 0.500045 5.625 0.500045H5.0625C4.85539 0.500045 4.6875 0.667938 4.6875 0.875045V6.12504C4.6875 6.33215 4.51961 6.50004 4.3125 6.50004H4.035C3.82789 6.50004 3.66 6.33215 3.66 6.12504V0.875045C3.66 0.667938 3.49211 0.500045 3.285 0.500045H2.715C2.50789 0.500045 2.34 0.667938 2.34 0.875045V6.12504C2.34 6.33215 2.17211 6.50004 1.965 6.50004H1.6875C1.48039 6.50004 1.3125 6.33215 1.3125 6.12504V0.875045C1.3125 0.667938 1.14461 0.500045 0.9375 0.500045H0.375C0.167893 0.500045 0 0.667938 0 0.875045V7.07004C0.000525156 7.66658 0.237923 8.23849 0.66 8.66004L1.2825 9.28255C1.4222 9.4211 1.61075 9.49922 1.8075 9.50004H2.25V15.125C2.25 15.3322 2.41789 15.5 2.625 15.5H3.375C3.58211 15.5 3.75 15.3322 3.75 15.125V9.50004H4.1925C4.38926 9.49922 4.5778 9.4211 4.7175 9.28255L5.34 8.66004C5.76208 8.23849 5.99948 7.66658 6 7.07004Z" fill="#4252AF"/>
</svg>
