<svg viewBox="0 0 1440 473.75601" height="473.75601" width="1440" xml:space="preserve" id="svg2" version="1.1" xmlns="http://www.w3.org/2000/svg"><metadata id="metadata8">image/svg+xml</metadata><defs id="defs6"><clipPath id="clipPath18" clipPathUnits="userSpaceOnUse"><path id="path16" d="M 0,355.317 H 1080 V 0 H 0 Z"></path></clipPath></defs><g transform="matrix(1.3333333,0,0,-1.3333333,0,473.756)" id="g10"><g id="g12"><g clip-path="url(#clipPath18)" id="g14"><g transform="translate(166.249,199.537)" id="g20"><path id="path22" style="fill:#ffffff;fill-opacity:1;fill-rule:nonzero;stroke:none" d="m 0,0 v -59.521 c 0,-33.215 -15.032,-45.688 -38.181,-45.688 -12.777,0 -24.651,6.461 -31.565,18.789 l 11.127,5.856 c 4.355,-7.965 12.623,-12.325 20.438,-12.325 15.482,0 25.101,8.718 25.101,32.465 v 1.354 c -4.658,-8.113 -14.877,-12.623 -24.948,-12.623 -19.238,0 -35.172,14.581 -35.172,36.674 0,22.243 15.78,36.52 35.019,36.52 10.522,0 20.443,-4.356 25.101,-12.474 l 0,10.973 z m -13.08,-34.87 c 0,15.18 -12.325,24.047 -23.897,24.047 -12.776,0 -22.996,-9.918 -22.996,-24.047 0,-13.976 10.22,-24.497 22.996,-24.497 12.623,0 23.897,9.465 23.897,24.497"></path></g><g transform="translate(254.9146,158.804)" id="g24"><path id="path26" style="fill:#ffffff;fill-opacity:1;fill-rule:nonzero;stroke:none" d="m 0,0 h -57.117 c 1.952,-12.474 10.971,-18.634 22.995,-18.634 8.569,0 16.532,3.609 20.443,10.669 l 11.425,-4.509 C -8.421,-24.65 -21.042,-30.96 -34.573,-30.96 c -19.987,0 -36.075,14.581 -36.075,36.823 0,22.242 16.088,36.372 36.075,36.372 19.992,0 34.871,-14.13 34.871,-36.372 C 0.298,3.911 0.148,1.958 0,0 M -12.776,11.274 C -14.431,23.298 -23,29.91 -34.573,29.91 c -11.874,0 -20.29,-6.012 -22.396,-18.636 z"></path></g><g transform="translate(305.5586,188.2621)" id="g28"><path id="path30" style="fill:#ffffff;fill-opacity:1;fill-rule:nonzero;stroke:none" d="M 0,0 H -15.18 V -58.915 H -28.253 V 0 h -12.628 v 11.274 h 12.628 V 37.878 H -15.18 V 11.274 H 0 Z"></path></g><g transform="translate(408.1763,186.1253)" id="g32"><path id="path34" style="fill:#ffffff;fill-opacity:1;fill-rule:nonzero;stroke:none" d="m 0,0 v 50.844 h 52.895 c 19.241,0 30.809,-8.992 30.809,-25.422 C 83.704,8.993 72.136,0 52.895,0 Z m 111.938,25.422 c 0,27.729 -17.976,51.349 -58.024,51.349 H -28.223 V -0.01 h -21.355 v -25.918 h 21.355 V -93.686 H 0 v 67.758 h 31.572 l 51.607,-67.758 h 35.176 l -52.368,68.542 c 31.829,4.089 45.951,25.926 45.951,50.566"></path></g><g transform="translate(550.4395,262.8963)" id="g36"><path id="path38" style="fill:#ffffff;fill-opacity:1;fill-rule:nonzero;stroke:none" d="m 0,0 v -170.476 h 117.592 v 25.928 H 28.233 v 46.474 h 87.557 v 25.928 H 28.233 v 46.219 h 89.359 V 0 Z"></path></g><g transform="translate(709.9775,262.8963)" id="g40"><path id="path42" style="fill:#ffffff;fill-opacity:1;fill-rule:nonzero;stroke:none" d="m 0,0 v -170.476 h 117.592 v 25.928 H 28.244 v 46.474 h 87.546 v 25.928 H 28.244 v 46.219 h 89.348 V 0 Z"></path></g><g transform="translate(869.3574,262.8963)" id="g44"><path id="path46" style="fill:#ffffff;fill-opacity:1;fill-rule:nonzero;stroke:none" d="m 0,0 v -170.476 h 28.234 v 72.402 h 87.557 v 25.928 H 28.234 v 46.219 h 89.36 V 0 Z"></path></g></g></g></g></svg>
