<svg width="24" height="24" viewBox="0 0 24 24" fill="none" xmlns="http://www.w3.org/2000/svg">
<path fill-rule="evenodd" clip-rule="evenodd" d="M16.188 2.5H7.81204C4.60219 2.5 2 5.16116 2 8.44374V11V12.5V15.5563C2 18.8388 4.60219 21.5 7.81204 21.5H16.188C19.3978 21.5 22 18.8388 22 15.5563V8.44374C22 5.16116 19.3978 2.5 16.188 2.5ZM3.45358 12.5V15.5563C3.45358 18.0179 5.40498 20.0135 7.81204 20.0135H8.59998V15.75C8.59998 15.3358 8.93576 15 9.34998 15C9.76419 15 10.1 15.3358 10.1 15.75V20.0135H16.188C18.595 20.0135 20.5464 18.0179 20.5464 15.5563V8.44374C20.5464 5.98214 18.595 3.98651 16.188 3.98651H10.1V7.25C10.1 7.66421 9.76419 8 9.34998 8C8.93576 8 8.59998 7.66421 8.59998 7.25V3.98651H7.81204C5.40498 3.98651 3.45358 5.98214 3.45358 8.44374V11H4.25C4.66421 11 5 11.3358 5 11.75C5 12.1642 4.66421 12.5 4.25 12.5H3.45358ZM13.6869 10.1873C13.6869 8.98124 12.6994 8 11.4856 8C10.6431 8 9.84822 8.65361 9.34344 9.18173C8.83863 8.65361 8.04378 8 7.20128 8C5.98749 8 5 8.98124 5 10.1873C5 11.3934 5.98749 12.3747 7.20128 12.3747C7.54163 12.3747 7.90133 12.2644 8.2768 12.0459C7.95716 12.9847 7.48948 13.6415 6.66438 13.7555C6.32247 13.8027 6.08358 14.1181 6.13079 14.46C6.17401 14.773 6.44187 14.9996 6.74909 14.9996C7.92151 15.0242 8.92575 13.928 9.35907 12.7329C9.80725 13.9304 10.7291 15.0232 11.9691 14.9996C12.2763 14.9996 12.5442 14.773 12.5873 14.46C12.6346 14.1181 12.3957 13.8027 12.0537 13.7555C11.2352 13.6424 10.7684 12.9951 10.4489 12.0682C11.8685 12.9516 13.7132 11.7915 13.6869 10.1873ZM7.20128 11.1248C5.93896 11.073 5.93959 9.30134 7.20128 9.24991C7.58732 9.24991 8.15481 9.72372 8.56581 10.1815C8.1424 10.6442 7.5676 11.1248 7.20128 11.1248ZM10.1211 10.1815C10.5321 9.72372 11.0996 9.24991 11.4856 9.24991C12.0102 9.24991 12.437 9.67044 12.437 10.1873C12.437 10.7042 12.0102 11.1248 11.4856 11.1248C11.1193 11.1248 10.5445 10.6442 10.1211 10.1815Z" fill="#030E1B"/>
</svg>
