<svg width="18" height="19" viewBox="0 0 18 19" fill="none" xmlns="http://www.w3.org/2000/svg">
<path d="M9.64295 0H8.35722C6.14153 0.00255215 4.01732 0.883862 2.45059 2.45059C0.883862 4.01732 0.00255215 6.14153 0 8.35722C0 8.52772 0.06773 8.69123 0.18829 8.81179C0.30885 8.93235 0.472365 9.00008 0.642863 9.00008H17.3573C17.5278 9.00008 17.6913 8.93235 17.8119 8.81179C17.9324 8.69123 18.0002 8.52772 18.0002 8.35722C17.9976 6.14153 17.1163 4.01732 15.5496 2.45059C13.9828 0.883862 11.8586 0.00255215 9.64295 0ZM1.31466 7.71436C1.47717 5.95824 2.28915 4.32597 3.59169 3.13697C4.89424 1.94797 6.5936 1.28783 8.35722 1.28573H9.64295C11.4066 1.28783 13.1059 1.94797 14.4085 3.13697C15.711 4.32597 16.523 5.95824 16.6855 7.71436H1.31466Z" fill="#212529"/>
<path d="M17.3573 12.8599H14.7859C14.6468 12.8599 14.5114 12.905 14.4001 12.9884L12.2144 14.6277L10.0287 12.9884C9.91739 12.905 9.78204 12.8599 9.64295 12.8599H0.642863C0.472365 12.8599 0.30885 12.9276 0.18829 13.0482C0.06773 13.1687 0 13.3322 0 13.5027V14.7885C0.00102078 15.6406 0.339999 16.4576 0.942579 17.0602C1.54516 17.6628 2.36214 18.0017 3.21432 18.0028H14.7859C15.638 18.0017 16.455 17.6628 17.0576 17.0602C17.6602 16.4576 17.9991 15.6406 18.0002 14.7885V13.5027C18.0002 13.3322 17.9324 13.1687 17.8119 13.0482C17.6913 12.9276 17.5278 12.8599 17.3573 12.8599ZM16.7144 14.7885C16.7144 15.2999 16.5113 15.7905 16.1496 16.1522C15.7879 16.5139 15.2973 16.717 14.7859 16.717H3.21432C2.70282 16.717 2.21228 16.5139 1.8506 16.1522C1.48892 15.7905 1.28573 15.2999 1.28573 14.7885V14.1456H9.42887L11.8287 15.9456C11.94 16.0291 12.0753 16.0742 12.2144 16.0742C12.3535 16.0742 12.4888 16.0291 12.6001 15.9456L14.9999 14.1456H16.7144V14.7885Z" fill="#212529"/>
<path d="M17.3573 10.2861H0.642863C0.472365 10.2861 0.30885 10.3539 0.18829 10.4744C0.06773 10.595 0 10.7585 0 10.929C0 11.0995 0.06773 11.263 0.18829 11.3836C0.30885 11.5041 0.472365 11.5719 0.642863 11.5719H17.3573C17.5278 11.5719 17.6913 11.5041 17.8119 11.3836C17.9324 11.263 18.0002 11.0995 18.0002 10.929C18.0002 10.7585 17.9324 10.595 17.8119 10.4744C17.6913 10.3539 17.5278 10.2861 17.3573 10.2861Z" fill="#212529"/>
<path d="M5.78593 3.854C5.61543 3.854 5.45192 3.92173 5.33136 4.04229C5.2108 4.16285 5.14307 4.32637 5.14307 4.49687V5.13973C5.14307 5.31023 5.2108 5.47374 5.33136 5.5943C5.45192 5.71486 5.61543 5.78259 5.78593 5.78259C5.95643 5.78259 6.11994 5.71486 6.2405 5.5943C6.36106 5.47374 6.42879 5.31023 6.42879 5.13973V4.49687C6.42879 4.32637 6.36106 4.16285 6.2405 4.04229C6.11994 3.92173 5.95643 3.854 5.78593 3.854Z" fill="#212529"/>
<path d="M9.00077 3.854C8.83028 3.854 8.66676 3.92173 8.5462 4.04229C8.42564 4.16285 8.35791 4.32637 8.35791 4.49687V5.13973C8.35791 5.31023 8.42564 5.47374 8.5462 5.5943C8.66676 5.71486 8.83028 5.78259 9.00077 5.78259C9.17127 5.78259 9.33479 5.71486 9.45535 5.5943C9.57591 5.47374 9.64364 5.31023 9.64364 5.13973V4.49687C9.64364 4.32637 9.57591 4.16285 9.45535 4.04229C9.33479 3.92173 9.17127 3.854 9.00077 3.854Z" fill="#212529"/>
<path d="M12.2146 3.854C12.0441 3.854 11.8806 3.92173 11.7601 4.04229C11.6395 4.16285 11.5718 4.32637 11.5718 4.49687V5.13973C11.5718 5.31023 11.6395 5.47374 11.7601 5.5943C11.8806 5.71486 12.0441 5.78259 12.2146 5.78259C12.3851 5.78259 12.5487 5.71486 12.6692 5.5943C12.7898 5.47374 12.8575 5.31023 12.8575 5.13973V4.49687C12.8575 4.32637 12.7898 4.16285 12.6692 4.04229C12.5487 3.92173 12.3851 3.854 12.2146 3.854Z" fill="#212529"/>
</svg>
