<svg width="30" height="30" viewBox="0 0 30 30" fill="none" xmlns="http://www.w3.org/2000/svg">
<path d="M21.2498 18.75H23.7498V21.25H21.2498V18.75ZM21.2498 13.75H23.7498V16.25H21.2498V13.75ZM21.2498 8.75H23.7498V11.25H21.2498V8.75ZM17.1748 8.75L18.7498 9.8V8.75H17.1748Z" fill="#212529"/>
<path d="M12.5 3.75V5.6375L15 7.3V6.25H26.25V23.75H21.25V26.25H28.75V3.75H12.5Z" fill="#212529"/>
<path d="M10.2125 7.125L18.75 12.8125V26.25H1.25V13.1L10.2125 7.125ZM12.5 23.75H16.25V13.95L10.2125 10.1125L3.75 14.225V23.75H7.5V16.25H12.5V23.75Z" fill="#212529"/>
</svg>
