<svg width="30" height="30" viewBox="0 0 30 30" fill="none" xmlns="http://www.w3.org/2000/svg">
<path d="M26.7625 14.475L15.5125 3.225C15.0625 2.775 14.4375 2.5 13.75 2.5H5C3.625 2.5 2.5 3.625 2.5 5V13.75C2.5 14.4375 2.775 15.0625 3.2375 15.525L14.4875 26.775C14.9375 27.225 15.5625 27.5 16.25 27.5C16.9375 27.5 17.5625 27.225 18.0125 26.7625L26.7625 18.0125C27.225 17.5625 27.5 16.9375 27.5 16.25C27.5 15.5625 27.2125 14.925 26.7625 14.475ZM16.25 25.0125L5 13.75V5H13.75V4.9875L25 16.2375L16.25 25.0125Z" fill="#212529"/>
<path d="M8.125 10C9.16053 10 10 9.16053 10 8.125C10 7.08947 9.16053 6.25 8.125 6.25C7.08947 6.25 6.25 7.08947 6.25 8.125C6.25 9.16053 7.08947 10 8.125 10Z" fill="#212529"/>
<path d="M11.125 15.6875C11.125 16.4 11.4125 17.025 11.875 17.5L16.25 21.875L20.625 17.5C21.0875 17.0375 21.375 16.3875 21.375 15.6875C21.375 14.275 20.225 13.125 18.8125 13.125C18.1 13.125 17.4625 13.4125 17 13.875L16.25 14.625L15.5 13.8875C15.0375 13.4125 14.3875 13.125 13.6875 13.125C12.275 13.125 11.125 14.275 11.125 15.6875Z" fill="#212529"/>
</svg>
