<svg width="24" height="24" viewBox="0 0 24 24" fill="none" xmlns="http://www.w3.org/2000/svg">
<path fill-rule="evenodd" clip-rule="evenodd" d="M1.50955 19.3804L6.17407 21.9079C6.30539 21.9793 6.44951 22.01 6.59323 21.9971C6.73695 21.9842 6.87568 21.9282 6.99675 21.8341C7.11781 21.74 7.21733 21.6109 7.28621 21.4586C7.35509 21.3062 7.39113 21.1355 7.39102 20.9621V5.5654C7.39091 5.36542 7.34275 5.16975 7.25234 5.00195C7.16194 4.83414 7.03314 4.70137 6.88147 4.61962L2.21695 2.09209C2.08563 2.02065 1.94152 1.98998 1.79779 2.00287C1.65407 2.01577 1.51534 2.07183 1.39427 2.16591C1.27321 2.26 1.17369 2.38912 1.10481 2.54145C1.03593 2.69378 0.999896 2.86446 1 3.03787V18.4313C0.999591 18.6319 1.0475 18.8282 1.13794 18.9967C1.22838 19.1651 1.35746 19.2984 1.50955 19.3804ZM10.0229 21.9047L14.6874 19.3772C14.839 19.2954 14.9678 19.1626 15.0582 18.9948C15.1487 18.827 15.1968 18.6313 15.1969 18.4314V3.04117C15.197 2.86775 15.161 2.69707 15.0921 2.54474C15.0232 2.39241 14.9237 2.2633 14.8027 2.16921C14.6816 2.07512 14.5429 2.01907 14.3991 2.00617C14.2554 1.99327 14.1113 2.02395 13.98 2.09538L9.31546 4.61965C9.16378 4.7014 9.03499 4.83418 8.94458 5.00198C8.85418 5.16978 8.80602 5.36546 8.80591 5.56544V20.9589C8.8058 21.1323 8.84184 21.303 8.91071 21.4553C8.97959 21.6077 9.07911 21.7368 9.20018 21.8309C9.32124 21.9249 9.45998 21.981 9.6037 21.9939C9.74742 22.0068 9.89153 21.9761 10.0229 21.9047ZM21.7831 21.9079L17.1185 19.3804C16.9669 19.2979 16.8384 19.1644 16.7485 18.996C16.6586 18.8276 16.6111 18.6315 16.6117 18.4313V3.03787C16.6116 2.86446 16.6476 2.69378 16.7165 2.54145C16.7854 2.38912 16.8849 2.26 17.006 2.16591C17.127 2.07183 17.2658 2.01577 17.4095 2.00287C17.5532 1.98998 17.6973 2.02065 17.8286 2.09209L22.4905 4.61962C22.6421 4.70137 22.7709 4.83414 22.8613 5.00195C22.9517 5.16975 22.9999 5.36542 23 5.5654V20.9621C23.0001 21.1355 22.9641 21.3062 22.8952 21.4586C22.8263 21.6109 22.7268 21.74 22.6057 21.8341C22.4847 21.9282 22.3459 21.9842 22.2022 21.9971C22.0585 22.01 21.9144 21.9793 21.7831 21.9079Z" fill="#D6D7DA"/>
<path fill-rule="evenodd" clip-rule="evenodd" d="M12.885 7.82656C14.8523 6.70642 17.2704 6.726 19.2192 7.87785C21.1488 9.05316 22.3216 11.1507 22.3107 13.4072C22.2658 15.6488 21.0082 17.7559 19.4363 19.3848C18.529 20.3292 17.514 21.1643 16.4121 21.873C16.2986 21.9373 16.1743 21.9803 16.0453 22C15.9212 21.9948 15.8003 21.9589 15.6935 21.8954C14.0112 20.8305 12.5354 19.4712 11.3369 17.8829C10.3341 16.5571 9.76436 14.9553 9.70508 13.2951C9.70378 11.0343 10.9177 8.94671 12.885 7.82656ZM14.0218 14.2307C14.3527 15.0301 15.1338 15.5516 16.0004 15.5516C16.5681 15.5556 17.1138 15.3328 17.516 14.9328C17.9181 14.5328 18.1433 13.9888 18.1413 13.4221C18.1443 12.5571 17.6246 11.7756 16.8249 11.4424C16.0251 11.1093 15.1031 11.2903 14.4893 11.9009C13.8754 12.5115 13.6909 13.4312 14.0218 14.2307Z" fill="#030E1B"/>
</svg>
