<svg width="25" height="42" viewBox="0 0 25 42" fill="none" xmlns="http://www.w3.org/2000/svg">
<path d="M22.8622 32.3069C22.6869 32.4223 22.5096 32.5343 22.3303 32.643C19.8943 34.1454 17.1483 35.0738 14.3004 35.3577C14.0556 35.3818 13.81 35.4017 13.5635 35.4174C13.1714 35.442 12.7793 35.454 12.3872 35.4535C12.0847 35.4535 11.7848 35.4459 11.4857 35.4325C11.2252 35.4199 10.9672 35.4031 10.7101 35.3795C7.71166 35.1206 4.81866 34.148 2.27269 32.543C2.07019 32.4153 1.86938 32.2842 1.67361 32.1481C1.7736 31.6044 1.93912 31.0197 1.98281 30.7197C2.53819 26.8858 3.77415 23.4308 7.5442 21.6386C7.59014 21.6168 7.64615 21.5941 7.71225 21.5706C7.76014 21.5538 7.81223 21.537 7.86937 21.5185C8.09119 21.4488 8.3735 21.3723 8.67177 21.2883C9.01374 21.1925 9.37252 21.0883 9.66911 20.9765C9.96571 20.8648 10.1867 20.7547 10.29 20.6363C10.5614 20.3212 10.5623 19.8355 10.5354 19.3675C10.5219 19.1499 10.5034 18.9348 10.5034 18.7441C10.5034 18.6601 10.5034 18.576 10.5034 18.4987C10.4808 17.0989 10.2942 17.5182 11.3798 17.1544C11.4203 17.1432 11.4616 17.1351 11.5033 17.13C12.0915 17.046 14.2617 16.9334 14.4995 17.1544C14.7205 17.3603 14.6936 17.8577 14.6255 18.3988C14.5709 18.8449 14.4878 19.323 14.4962 19.6835C14.4946 19.8108 14.5148 19.9376 14.5558 20.0582C14.6278 20.257 14.7394 20.4391 14.8838 20.5935C15.0282 20.7479 15.2025 20.8713 15.396 20.9564C15.6817 21.0959 16.0111 21.1908 16.3673 21.3278C16.4908 21.374 16.6194 21.4261 16.7479 21.4866C16.7597 21.4915 16.7712 21.4971 16.7824 21.5034C16.9277 21.5706 17.0706 21.642 17.2084 21.7143C21.4027 23.9047 22.2707 27.9218 22.8622 32.3069Z" fill="#FCC8BC"/>
<path d="M24.5343 34.1685V38.0049C20.9207 40.4884 16.6347 41.8088 12.2499 41.7891C7.86523 41.7694 3.59117 40.4107 1.5098e-08 37.8948V34.1685C-5.87826e-05 33.6866 0.171621 33.2206 0.484221 32.8539C0.796822 32.4873 1.22987 32.2441 1.70564 32.1679C1.81123 32.151 1.91799 32.1426 2.02492 32.1427H22.5128C22.6254 32.1424 22.7378 32.1517 22.8489 32.1704C23.3206 32.2506 23.7487 32.4953 24.0572 32.8611C24.3657 33.2268 24.5347 33.69 24.5343 34.1685V34.1685Z" fill="#152EBC"/>
<path d="M20.2461 7.80969H4.78612V10.0632H20.2461V7.80969Z" fill="#9E4830"/>
<path d="M19.3884 7.36272V12.0419C19.3884 15.5347 16.6081 16.653 14.5823 18.4275C14.0106 18.9376 13.2711 19.2195 12.5049 19.2195C11.7387 19.2195 10.9992 18.9376 10.4275 18.4275C8.40169 16.6513 5.62141 15.533 5.62141 12.0419V7.36272C5.62141 7.3476 5.62141 7.33163 5.62141 7.31567C5.63738 4.87232 6.94896 2.75581 8.86297 1.69966C8.92514 1.66521 8.98816 1.63244 9.05118 1.60051C9.7757 1.23237 10.5708 1.02406 11.3828 0.989677C11.4668 0.984635 11.5508 0.983795 11.6348 0.983795H13.3783C14.7868 0.987052 16.1457 1.50455 17.1996 2.43905C17.3604 2.57884 17.5136 2.72722 17.6584 2.88353C18.6967 4.01184 19.3057 5.46899 19.3791 7.00059V7.00059C19.385 7.12578 19.3884 7.24341 19.3884 7.36272Z" fill="#FCC8BC"/>
<path d="M8.36771 12.0419V7.36272C8.36771 4.0195 10.7909 1.27619 13.877 1.00648C13.709 0.990517 13.5409 0.983795 13.3729 0.983795H11.632C8.31142 0.983795 5.6202 3.84053 5.6202 7.36272V9.68088C5.26075 9.68976 4.919 9.83879 4.66791 10.0962C4.41682 10.3535 4.27627 10.6989 4.27627 11.0584C4.27627 11.418 4.41682 11.7633 4.66791 12.0207C4.919 12.278 5.26075 12.4271 5.6202 12.436H5.63365C5.83362 15.6237 8.47694 16.7211 10.4229 18.4326C10.8854 18.8465 11.4612 19.1126 12.0762 19.1964C12.6912 19.2803 13.3172 19.1781 13.8737 18.9031C13.6189 18.7786 13.382 18.6204 13.1696 18.4326C11.1463 16.6564 8.36771 15.5372 8.36771 12.0419Z" fill="#FAB3A7"/>
<path d="M19.3865 12.4352C20.147 12.4352 20.7636 11.8186 20.7636 11.0581C20.7636 10.2975 20.147 9.68097 19.3865 9.68097C18.6259 9.68097 18.0093 10.2975 18.0093 11.0581C18.0093 11.8186 18.6259 12.4352 19.3865 12.4352Z" fill="#FCC8BC"/>
<path d="M15.7578 11.7209C16.0757 11.7209 16.3333 11.35 16.3333 10.8925C16.3333 10.4349 16.0757 10.064 15.7578 10.064C15.4399 10.064 15.1822 10.4349 15.1822 10.8925C15.1822 11.35 15.4399 11.7209 15.7578 11.7209Z" fill="#27273D"/>
<path d="M13.138 12.4362H11.8323C11.6402 12.4362 11.4844 12.592 11.4844 12.7841V12.8471C11.4844 13.0392 11.6402 13.1949 11.8323 13.1949H13.138C13.3301 13.1949 13.4858 13.0392 13.4858 12.8471V12.7841C13.4858 12.592 13.3301 12.4362 13.138 12.4362Z" fill="#FAB3A7"/>
<path d="M9.09074 11.7209C9.40861 11.7209 9.66629 11.35 9.66629 10.8925C9.66629 10.4349 9.40861 10.064 9.09074 10.064C8.77287 10.064 8.51519 10.4349 8.51519 10.8925C8.51519 11.35 8.77287 11.7209 9.09074 11.7209Z" fill="#27273D"/>
<path d="M5.66108 10.5104C5.52363 10.5212 5.39531 10.5834 5.30172 10.6847C5.20812 10.7859 5.15614 10.9187 5.15614 11.0566C5.15614 11.1944 5.20812 11.3272 5.30172 11.4285C5.39531 11.5297 5.52363 11.5919 5.66108 11.6027V10.5104Z" fill="#F58D89"/>
<path d="M19.3888 11.6056C19.5262 11.5948 19.6545 11.5326 19.7481 11.4313C19.8417 11.3301 19.8937 11.1973 19.8937 11.0594C19.8937 10.9216 19.8417 10.7888 19.7481 10.6875C19.6545 10.5863 19.5262 10.5241 19.3888 10.5133V11.6056Z" fill="#FAB3A7"/>
<path d="M10.8858 14.4697C10.8671 14.4697 10.8487 14.4736 10.8316 14.4812C10.8145 14.4887 10.7992 14.4996 10.7866 14.5134C10.774 14.5271 10.7643 14.5433 10.7582 14.5609C10.7522 14.5786 10.7498 14.5973 10.7513 14.6159C10.8253 15.5225 11.5722 16.3627 12.4838 16.3627C13.3955 16.3627 14.1424 15.5225 14.2164 14.6159C14.2179 14.5973 14.2155 14.5786 14.2095 14.5609C14.2034 14.5433 14.1937 14.5271 14.1811 14.5134C14.1685 14.4996 14.1532 14.4887 14.1361 14.4812C14.119 14.4736 14.1006 14.4697 14.0819 14.4697H10.8858Z" fill="white"/>
<path d="M14.3007 23.407V35.3616C14.0559 35.3857 13.8103 35.4056 13.5639 35.4212C13.1718 35.4459 12.7797 35.4579 12.3876 35.4574C12.0851 35.4574 11.7851 35.4498 11.486 35.4364C11.2255 35.4238 10.9676 35.407 10.7105 35.3834V23.407C10.9577 23.5239 11.2181 23.6108 11.486 23.6658C12.1717 23.8154 12.8823 23.8079 13.5647 23.6439C13.8156 23.5835 14.0617 23.5043 14.3007 23.407Z" fill="white"/>
<path d="M11.4848 23.4052V35.4363C11.2244 35.4237 10.9664 35.4069 10.7093 35.3833C7.71083 35.1232 4.8181 34.1495 2.27269 32.5434C2.07019 32.4157 1.86938 32.2846 1.67361 32.1485C1.7736 31.6049 1.93912 31.0201 1.98281 30.7201C2.53819 26.8862 3.77415 23.4313 7.54421 21.6391C7.59014 21.6172 7.64615 21.5945 7.71225 21.571C7.76014 21.5542 7.81224 21.5374 7.86937 21.5189C8.09119 21.4492 8.3735 21.3727 8.67178 21.2887C9.01374 21.1929 9.37252 21.0887 9.66911 20.977L10.7505 22.5818L11.3689 23.1473C11.4053 23.1797 11.4344 23.2194 11.4544 23.2639C11.4744 23.3083 11.4847 23.3565 11.4848 23.4052V23.4052Z" fill="#152EBC"/>
<path d="M22.8607 32.3072C22.6853 32.4226 22.508 32.5346 22.3288 32.6433C19.8928 34.1457 17.1468 35.0741 14.2988 35.358C14.0541 35.3821 13.8084 35.402 13.562 35.4177V23.4026C13.562 23.3543 13.5721 23.3066 13.5916 23.2624C13.6111 23.2183 13.6397 23.1787 13.6754 23.1463L14.2938 22.5808L14.2997 22.5724L15.392 20.9508C15.6776 21.0903 16.007 21.1852 16.3633 21.3222C16.4868 21.3684 16.6153 21.4205 16.7439 21.481C16.7557 21.4859 16.7672 21.4915 16.7783 21.4978C16.9237 21.565 17.0665 21.6364 17.2043 21.7087C21.4012 23.905 22.2691 27.9221 22.8607 32.3072Z" fill="#152EBC"/>
<path d="M10.5278 19.2251L8.80533 20.7627C8.75504 20.8072 8.71469 20.8618 8.68689 20.9229C8.6591 20.984 8.64448 21.0503 8.64401 21.1174C8.64353 21.1845 8.6572 21.251 8.68413 21.3125C8.71106 21.374 8.75063 21.4292 8.80029 21.4744C9.09016 21.7373 9.65479 22.1129 10.7529 22.5834L10.5278 19.2251Z" fill="#2EB5E5"/>
<path d="M14.5234 19.2251L16.2458 20.7627C16.2961 20.8072 16.3365 20.8618 16.3642 20.9229C16.392 20.984 16.4067 21.0503 16.4071 21.1174C16.4076 21.1845 16.3939 21.251 16.367 21.3125C16.3401 21.374 16.3005 21.4292 16.2508 21.4744C15.961 21.7373 15.3964 22.1129 14.2982 22.5834L14.5234 19.2251Z" fill="#2EB5E5"/>
<path d="M19.1349 26.0136H15.6648C15.2926 26.0136 14.991 26.3153 14.991 26.6875V28.0553C14.991 28.4275 15.2926 28.7292 15.6648 28.7292H19.1349C19.5071 28.7292 19.8088 28.4275 19.8088 28.0553V26.6875C19.8088 26.3153 19.5071 26.0136 19.1349 26.0136Z" fill="white"/>
<path d="M19.922 7.80981H5.09974C5.09974 4.01708 8.25308 0 12.1441 0H12.8776C16.7678 0 19.922 4.01708 19.922 7.80981V7.80981Z" fill="#152EBC"/>
<path d="M13.2586 0.0268869C11.537 0.19493 9.99265 1.1469 8.83819 2.482C7.56274 3.96078 6.77462 5.91429 6.77462 7.80981H4.92026C4.92026 5.91429 5.70838 3.96078 6.98383 2.482C8.25928 1.00322 10.0195 0 11.9646 0H12.699C12.8872 0 13.0737 0.00896229 13.2586 0.0268869Z" fill="#152EBC"/>
<path d="M20.6635 8.36589H4.35744L4.37004 8.33984C4.61096 7.81304 4.97108 7.34948 5.42196 6.9858C5.87285 6.62212 6.40213 6.36828 6.96799 6.24434C10.5904 5.43605 14.2966 5.44585 18.0866 6.27375C18.6492 6.39803 19.1751 6.65186 19.6225 7.01505C20.0698 7.37823 20.4263 7.84077 20.6635 8.36589V8.36589Z" fill="#2A3342"/>
<path d="M12.5115 5.13511C13.9045 5.13511 15.0338 4.58439 15.0338 3.90503C15.0338 3.22568 13.9045 2.67496 12.5115 2.67496C11.1184 2.67496 9.98914 3.22568 9.98914 3.90503C9.98914 4.58439 11.1184 5.13511 12.5115 5.13511Z" fill="white"/>
<path d="M19.5321 25.1232H5.00395C4.60627 25.1232 4.28389 25.4456 4.28389 25.8433V39.291C4.28389 39.6886 4.60627 40.011 5.00395 40.011H19.5321C19.9298 40.011 20.2522 39.6886 20.2522 39.291V25.8433C20.2522 25.4456 19.9298 25.1232 19.5321 25.1232Z" fill="#2EB5E5"/>
<path d="M20.253 37.9699V39.2907C20.2528 39.4818 20.1768 39.6649 20.0416 39.7999C19.9064 39.935 19.7232 40.0108 19.5321 40.0108H5.00479C4.81374 40.0108 4.6305 39.935 4.49533 39.7999C4.36016 39.6649 4.28411 39.4818 4.28389 39.2907V25.8473C4.28411 25.6562 4.36016 25.4731 4.49533 25.338C4.6305 25.203 4.81374 25.1272 5.00479 25.1272H6.08531V37.2482C6.08531 37.4392 6.16115 37.6225 6.29616 37.7576C6.43118 37.8928 6.61433 37.9688 6.80538 37.9691L20.253 37.9699Z" fill="#2EB5E5"/>
<path d="M13.2418 30.1302H12.9663V30.0227C12.9663 29.8373 12.8926 29.6595 12.7615 29.5284C12.6304 29.3973 12.4526 29.3236 12.2672 29.3236C12.0818 29.3236 11.904 29.3973 11.7729 29.5284C11.6418 29.6595 11.5681 29.8373 11.5681 30.0227V30.1285H11.2925C10.1797 30.1285 9.1124 30.5706 8.32549 31.3575C7.53858 32.1444 7.0965 33.2117 7.0965 34.3246H17.4379C17.4374 33.212 16.9952 32.1452 16.2083 31.3586C15.4214 30.5721 14.3544 30.1302 13.2418 30.1302V30.1302Z" fill="white"/>
<path d="M17.5716 34.8985H6.96468C6.71317 34.8985 6.50928 35.1024 6.50928 35.3539V35.3547C6.50928 35.6062 6.71317 35.8101 6.96468 35.8101H17.5716C17.8231 35.8101 18.027 35.6062 18.027 35.3547V35.3539C18.027 35.1024 17.8231 34.8985 17.5716 34.8985Z" fill="white"/>
<path d="M4.34191 33.1387H4.28141V31.7599C4.28141 31.6993 4.26948 31.6394 4.2463 31.5834C4.22312 31.5274 4.18914 31.4766 4.1463 31.4337C4.10347 31.3909 4.05262 31.3569 3.99666 31.3338C3.94069 31.3106 3.88071 31.2986 3.82013 31.2986H3.73611C3.63313 31.2985 3.53114 31.3187 3.43598 31.3581C3.34083 31.3974 3.25436 31.4552 3.18155 31.528C3.10873 31.6008 3.05099 31.6873 3.01164 31.7824C2.97228 31.8776 2.95208 31.9796 2.95219 32.0826V33.1925C2.6732 33.2737 2.42803 33.443 2.25338 33.6752C2.07873 33.9075 1.98402 34.19 1.98342 34.4805V36.1324C1.98342 36.489 2.12505 36.8309 2.37717 37.083C2.62928 37.3351 2.97122 37.4768 3.32776 37.4768H4.34527C4.62994 37.4768 4.91183 37.4207 5.17483 37.3117C5.43784 37.2028 5.67681 37.0431 5.8781 36.8418C6.0794 36.6405 6.23908 36.4016 6.34802 36.1386C6.45696 35.8756 6.51303 35.5937 6.51303 35.309C6.51303 35.0243 6.45696 34.7424 6.34802 34.4794C6.23908 34.2164 6.0794 33.9775 5.8781 33.7762C5.67681 33.5749 5.43784 33.4152 5.17483 33.3063C4.91183 33.1973 4.62994 33.1412 4.34527 33.1412L4.34191 33.1387Z" fill="#FCC8BC"/>
<path d="M3.90982 37.4742H3.32167C2.96513 37.4742 2.62319 37.3326 2.37107 37.0805C2.11896 36.8284 1.97732 36.4864 1.97732 36.1299V34.4805C1.97792 34.19 2.07263 33.9075 2.24728 33.6752C2.42193 33.443 2.66711 33.2737 2.94609 33.1925V32.0826C2.94609 31.8747 3.02868 31.6753 3.1757 31.5283C3.32271 31.3812 3.5221 31.2986 3.73001 31.2986H3.81404C3.88881 31.2985 3.96244 31.317 4.02829 31.3524C3.8815 31.41 3.75546 31.5104 3.66659 31.6407C3.57771 31.7709 3.53013 31.9249 3.53004 32.0826V33.1925C3.25106 33.2737 3.00588 33.443 2.83123 33.6752C2.65659 33.9075 2.56187 34.19 2.56127 34.4805V36.1324C2.5616 36.3091 2.59676 36.484 2.66473 36.6471C2.7327 36.8102 2.83215 36.9582 2.9574 37.0829C3.08264 37.2075 3.23123 37.3062 3.39465 37.3734C3.55808 37.4405 3.73314 37.4748 3.90982 37.4742Z" fill="#FAB3A7"/>
<path d="M20.1554 33.1387H20.2134V31.7599C20.2134 31.6376 20.262 31.5203 20.3485 31.4337C20.435 31.3472 20.5523 31.2986 20.6746 31.2986H20.7637C20.8666 31.2986 20.9685 31.3189 21.0636 31.3583C21.1586 31.3977 21.245 31.4555 21.3177 31.5283C21.3904 31.6011 21.4481 31.6875 21.4874 31.7826C21.5267 31.8777 21.5469 31.9797 21.5468 32.0826V33.1925C21.8253 33.2741 22.0699 33.4437 22.2441 33.6759C22.4182 33.908 22.5126 34.1903 22.513 34.4805V36.1324C22.513 36.489 22.3714 36.8309 22.1193 37.083C21.8672 37.3351 21.5252 37.4768 21.1687 37.4768H20.1554C19.5805 37.4768 19.0291 37.2484 18.6225 36.8418C18.216 36.4353 17.9876 35.8839 17.9876 35.309C17.9876 34.7341 18.216 34.1827 18.6225 33.7762C19.0291 33.3696 19.5805 33.1412 20.1554 33.1412V33.1387Z" fill="#FCC8BC"/>
<path d="M20.5845 37.4742H21.1727C21.5292 37.4742 21.8712 37.3326 22.1233 37.0805C22.3754 36.8284 22.517 36.4864 22.517 36.1299V34.4805C22.5164 34.19 22.4217 33.9075 22.2471 33.6752C22.0724 33.443 21.8272 33.2737 21.5482 33.1925V32.0826C21.5482 31.8747 21.4657 31.6753 21.3186 31.5283C21.1716 31.3812 20.9722 31.2986 20.7643 31.2986H20.6761C20.6013 31.2985 20.5277 31.317 20.4618 31.3524C20.6086 31.41 20.7347 31.5104 20.8236 31.6407C20.9124 31.7709 20.96 31.9249 20.9601 32.0826V33.1925C21.2383 33.2744 21.4825 33.4441 21.6564 33.6763C21.8302 33.9084 21.9243 34.1905 21.9247 34.4805V36.1324C21.924 36.4878 21.7826 36.8285 21.5315 37.0799C21.2804 37.3313 20.9399 37.4731 20.5845 37.4742Z" fill="#FAB3A7"/>
</svg>
