<svg width="142" height="142" viewBox="0 0 142 142" fill="none" xmlns="http://www.w3.org/2000/svg">
<path opacity="0.4" fill-rule="evenodd" clip-rule="evenodd" d="M101.533 121.815C101.533 116.845 105.557 112.822 110.527 112.822C115.437 112.822 119.461 116.845 119.461 121.815C119.461 126.726 115.437 130.749 110.527 130.749C105.557 130.749 101.533 126.726 101.533 121.815ZM34.9707 121.815C34.9707 116.845 38.994 112.822 43.964 112.822C48.8749 112.822 52.8982 116.845 52.8982 121.815C52.8982 126.726 48.8749 130.749 43.964 130.749C38.994 130.749 34.9707 126.726 34.9707 121.815Z" fill="#D6D7DA"/>
<path d="M127.804 41.5289C125.438 38.8073 123.071 37.5648 119.462 37.5648H39.5572C37.6639 37.5648 36.1256 36.1448 35.9481 34.2455L34.8239 20.9922C34.6464 18.9805 33.1672 17.3298 31.1556 16.9688L17.0443 14.8388C14.6185 14.4838 12.311 16.0813 11.8968 18.5072C11.4826 20.8738 13.1393 23.1813 15.506 23.5955L24.4401 25.1338L29.8835 89.6314C30.5343 97.4355 37.0426 103.471 44.9118 103.471H109.463C116.977 103.471 123.367 97.9739 124.432 90.513L130.053 51.6997C130.585 48.1556 130.171 44.2506 127.804 41.5289Z" fill="#D6D7DA"/>
</svg>
