<svg width="38" height="26" viewBox="0 0 38 26" fill="none" xmlns="http://www.w3.org/2000/svg">
<path d="M29.6423 15.9329C29.6424 15.9682 29.6404 16.0034 29.6365 16.0384C29.6133 16.2785 29.5169 16.5057 29.3602 16.6891L29.1574 16.9249L28.849 17.2836L27.1173 19.2924L26.9524 19.4878L26.7685 19.7038L25.9703 20.6307C25.9257 20.6818 25.8804 20.7313 25.8326 20.7791C25.568 21.0446 25.2529 21.2544 24.9059 21.396C24.5589 21.5377 24.187 21.6083 23.8123 21.6037L21.9841 21.5947L13.9969 21.5567L11.6715 21.5452L2.56536 21.5015C2.21958 20.988 1.89523 20.4603 1.59232 19.9182C0.947182 18.7565 0.414007 17.5361 0 16.2735C3.86247 16.2611 9.82688 16.2009 10.9986 15.9972C11.0657 15.9904 11.1308 15.9711 11.1908 15.9403C11.6539 15.5708 12.1509 15.2458 12.6751 14.9697C12.881 14.8633 13.0924 14.7678 13.3084 14.6836C13.528 14.5979 13.7527 14.526 13.9813 14.4684C14.081 14.4436 14.1825 14.4214 14.2839 14.4024C14.5236 14.3562 14.7664 14.3287 15.0104 14.32C15.1514 14.315 15.2891 14.3134 15.4227 14.3158C15.4862 14.3158 15.5488 14.3158 15.6107 14.3224C16.1154 14.348 16.5656 14.4403 16.9589 14.6523C17.1243 14.7409 17.278 14.8498 17.4166 14.9763C17.7021 15.2412 18.0753 15.3915 18.4647 15.3985L19.2893 15.4084L19.9885 15.4175L20.5872 15.4249L21.2164 15.4324H21.3434L21.7829 15.4381H21.8052L22.2768 15.4439H22.37C22.4177 15.4447 22.4653 15.448 22.5127 15.4538C22.573 15.4612 22.6327 15.4725 22.6916 15.4876H22.7056C22.9401 15.5515 23.1533 15.6768 23.3233 15.8504C23.375 15.9036 23.4221 15.961 23.4643 16.022C23.5307 16.1164 23.5842 16.2193 23.6234 16.3279C23.6499 16.3982 23.6701 16.4708 23.6836 16.5448C23.6836 16.5612 23.6902 16.5769 23.6927 16.5934C23.7039 16.6662 23.7089 16.7399 23.7075 16.8136V16.8193C23.7075 16.8292 23.7075 16.8391 23.7075 16.8482C23.7075 16.8482 23.7075 16.8482 23.7075 16.8548C23.7037 17.1541 23.6008 17.4437 23.4149 17.6782C23.229 17.9128 22.9706 18.0791 22.6801 18.1511H22.6883L23.8213 18.1659C24.0776 18.1689 24.3254 18.0739 24.514 17.9004L26.9491 15.6575L27.2501 15.3804L27.6352 15.025C27.8373 14.8385 28.097 14.7265 28.3714 14.7076C28.6458 14.6887 28.9184 14.764 29.1442 14.9211L29.1648 14.9359C29.3292 15.0573 29.4589 15.2196 29.5408 15.4068C29.5762 15.486 29.6024 15.569 29.6192 15.6542C29.6375 15.7459 29.6453 15.8394 29.6423 15.9329V15.9329Z" fill="#FCC8BC"/>
<path d="M19.9613 3.09229C20.8152 3.09229 21.5075 2.40006 21.5075 1.54614C21.5075 0.692232 20.8152 0 19.9613 0C19.1074 0 18.4152 0.692232 18.4152 1.54614C18.4152 2.40006 19.1074 3.09229 19.9613 3.09229Z" fill="#2A3342"/>
<path d="M35.8337 17.4181C35.8337 8.65251 28.7273 1.54602 19.9616 1.54602C11.196 1.54602 4.08955 8.65416 4.08955 17.4181" fill="#DBDBDB"/>
<path d="M35.8546 17.4186H4.11127C4.11109 14.1228 5.13658 10.9086 7.04549 8.22186C8.95439 5.53515 11.6521 3.50908 14.7644 2.42468L14.6622 2.51209C9.85385 6.65493 12.7862 14.544 19.1324 14.544H35.5957C35.7687 15.4924 35.8554 16.4545 35.8546 17.4186V17.4186Z" fill="#C6C6C6"/>
<path d="M36.4816 17.4185H3.43863C2.75869 17.4185 2.20749 17.9697 2.20749 18.6496V18.7865C2.20749 19.4664 2.75869 20.0176 3.43863 20.0176H36.4816C37.1615 20.0176 37.7127 19.4664 37.7127 18.7865V18.6496C37.7127 17.9697 37.1615 17.4185 36.4816 17.4185Z" fill="#2A3342"/>
<path d="M37.7094 18.5636C37.5808 18.519 37.4456 18.4964 37.3095 18.4968H4.26242C4.10085 18.4968 3.94086 18.5286 3.7916 18.5904C3.64233 18.6523 3.5067 18.7429 3.39245 18.8571C3.27821 18.9714 3.18758 19.107 3.12575 19.2563C3.06392 19.4055 3.0321 19.5655 3.0321 19.7271V19.8689C3.03195 19.9089 3.03387 19.9488 3.03787 19.9885C2.79539 19.9052 2.58501 19.7481 2.43613 19.5394C2.28725 19.3306 2.20731 19.0806 2.20749 18.8241V18.6873C2.20738 18.5256 2.23912 18.3656 2.3009 18.2162C2.36269 18.0668 2.45329 17.9311 2.56755 17.8168C2.68181 17.7024 2.81747 17.6117 2.96679 17.5499C3.11612 17.488 3.27617 17.4561 3.43781 17.4561H36.4816C36.7872 17.4552 37.0823 17.5681 37.3093 17.7728C37.5363 17.9776 37.6789 18.2594 37.7094 18.5636Z" fill="#2A3342"/>
<path d="M29.9841 10.239C30.8166 10.239 31.4915 9.56414 31.4915 8.73163C31.4915 7.89912 30.8166 7.22424 29.9841 7.22424C29.1516 7.22424 28.4767 7.89912 28.4767 8.73163C28.4767 9.56414 29.1516 10.239 29.9841 10.239Z" fill="white"/>
<path d="M27.4813 7.49554C28.1803 7.49554 28.7471 6.92884 28.7471 6.22977C28.7471 5.5307 28.1803 4.96399 27.4813 4.96399C26.7822 4.96399 26.2155 5.5307 26.2155 6.22977C26.2155 6.92884 26.7822 7.49554 27.4813 7.49554Z" fill="white"/>
<path d="M33.6949 19.5636V19.5752C33.6949 19.5966 33.6949 19.6189 33.69 19.6411L33.685 19.684C33.6836 19.6987 33.6814 19.7133 33.6784 19.7277C33.6764 19.7421 33.6736 19.7565 33.6702 19.7706C33.6702 19.7846 33.6644 19.7995 33.6611 19.8135C33.6578 19.8275 33.657 19.8292 33.6545 19.8366L33.6446 19.8712L33.6372 19.8935C33.6318 19.9118 33.6252 19.9297 33.6174 19.9471C33.6132 19.9603 33.6082 19.9732 33.6026 19.9858C33.5983 19.9977 33.5934 20.0092 33.5877 20.0205C33.5877 20.0205 33.5877 20.0205 33.5877 20.0205C33.5795 20.0378 33.5704 20.0551 33.5613 20.0724C33.5523 20.0897 33.5424 20.1079 33.5316 20.126C33.4974 20.1843 33.4583 20.2394 33.4145 20.2909L32.9033 20.8847L30.0246 24.2284C29.7578 24.5385 29.4264 24.7863 29.0535 24.9544C28.6807 25.1226 28.2755 25.2069 27.8666 25.2015L5.63342 25.0968C5.40968 24.8873 5.18978 24.6735 4.97374 24.4552C4.08175 23.544 3.27366 22.5544 2.55928 21.4982C2.21789 20.9869 1.89574 20.4603 1.59283 19.9182C3.42677 19.9182 7.71309 19.9124 10.9992 19.8358C11.8584 19.8168 12.6484 19.7937 13.3081 19.7657C14.4032 19.7187 15.1412 19.6576 15.2418 19.5785C15.8594 19.0789 16.5435 18.6676 17.2744 18.3564C17.5211 18.256 17.7746 18.1733 18.0331 18.109C18.3699 18.0236 18.7149 17.9744 19.0622 17.9622C19.204 17.9573 19.3417 17.9556 19.4745 17.9622C20.0443 17.973 20.5465 18.0571 20.9844 18.283C21.1597 18.3738 21.3222 18.4875 21.4676 18.6211C21.7546 18.8874 22.13 19.0381 22.5214 19.0441L23.3461 19.054L24.0445 19.0631L24.644 19.0705L25.2732 19.0779L25.8611 19.0854L26.3336 19.0911H26.426C26.4737 19.0919 26.5213 19.0952 26.5686 19.101C26.7009 19.1164 26.8301 19.1514 26.9521 19.2049C27.1117 19.276 27.2566 19.3764 27.3792 19.501C27.5122 19.6369 27.6146 19.7997 27.6794 19.9784C27.7063 20.0486 27.7264 20.1212 27.7396 20.1953C27.7396 20.2118 27.7462 20.2274 27.7486 20.2439C27.7599 20.3168 27.7648 20.3904 27.7635 20.4641C27.7647 20.4756 27.7647 20.4872 27.7635 20.4987C27.7639 20.5015 27.7639 20.5042 27.7635 20.507C27.7545 20.7053 27.7012 20.8992 27.6076 21.0743V21.0743C27.4641 21.3451 27.2334 21.5595 26.9529 21.6829C26.7821 21.7576 26.5976 21.7961 26.4111 21.7958L26.741 21.8008H26.9496H27.0395L27.874 21.8115C28.1303 21.8147 28.3782 21.7197 28.5667 21.546L29.1843 20.977L29.844 20.3717L31.3052 19.026L31.4215 18.9188L31.6903 18.6714C31.8939 18.4803 32.1575 18.3657 32.4361 18.3472C32.7148 18.3287 32.9912 18.4074 33.2183 18.57C33.3827 18.6913 33.5124 18.8537 33.5943 19.0408C33.6304 19.1198 33.6567 19.2029 33.6726 19.2882C33.6914 19.3787 33.6989 19.4713 33.6949 19.5636Z" fill="#FCC8BC"/>
<path d="M27.763 20.5079C27.7612 20.6861 27.7242 20.8621 27.6542 21.026C27.5842 21.1898 27.4826 21.3383 27.3551 21.4627C27.2276 21.5872 27.0769 21.6853 26.9114 21.7514C26.7459 21.8175 26.5691 21.8503 26.3909 21.8479L21.8184 21.7902L21.872 21.7209C21.9834 21.5766 22.1268 21.4604 22.291 21.3813C22.4553 21.3023 22.6357 21.2627 22.8179 21.2657L26.3975 21.3111C26.6866 21.3151 26.9695 21.2264 27.2046 21.058C27.4396 20.8896 27.6145 20.6503 27.7037 20.3752C27.718 20.3313 27.7301 20.2867 27.74 20.2416C27.7563 20.3294 27.764 20.4186 27.763 20.5079V20.5079Z" fill="#FCC8BC"/>
<path d="M26.3829 19.6976L27.0467 19.7061C27.1083 19.7069 27.1672 19.7321 27.2102 19.7763C27.2533 19.8204 27.277 19.8799 27.2762 19.9416L27.2617 21.077C27.261 21.1386 27.2357 21.1974 27.1915 21.2405C27.1474 21.2836 27.0879 21.3073 27.0263 21.3065L26.3625 21.2981C26.2193 21.2962 26.0826 21.2376 25.9826 21.135C25.8826 21.0324 25.8275 20.8943 25.8293 20.7511L25.8359 20.2308C25.8368 20.1599 25.8517 20.0898 25.8797 20.0247C25.9077 19.9595 25.9482 19.9004 25.999 19.8509C26.0498 19.8014 26.1098 19.7624 26.1757 19.7361C26.2416 19.7098 26.312 19.6967 26.3829 19.6976V19.6976Z" fill="#FFF9F8"/>
<path d="M33.6948 19.5637V19.5752C33.6952 19.6105 33.6935 19.6457 33.6898 19.6808C33.6659 19.9206 33.5696 20.1476 33.4136 20.3314L32.9015 20.9259L30.0228 24.2689C29.756 24.5787 29.4247 24.8264 29.052 24.9946C28.6794 25.1628 28.2744 25.2475 27.8656 25.2428L5.67783 25.1364L5.63331 25.0968C5.40956 24.8873 5.18967 24.6735 4.97362 24.4552L27.873 24.569C28.2821 24.5746 28.6875 24.4904 29.0605 24.3222C29.4335 24.1541 29.7651 23.9062 30.0319 23.596L32.6665 20.5367C32.6627 20.5061 32.6613 20.4752 32.6624 20.4443V20.4386C32.662 20.4367 32.662 20.4347 32.6624 20.4328V20.4279C32.6692 20.3151 32.7116 20.2074 32.7836 20.1203C32.7954 20.1058 32.8081 20.092 32.8215 20.079L33.2932 19.6123C33.3204 19.5854 33.3538 19.5656 33.3905 19.5546C33.4272 19.5437 33.466 19.542 33.5035 19.5496C33.5109 19.5389 33.5175 19.5282 33.5241 19.5167C33.5772 19.432 33.619 19.3408 33.6486 19.2454C33.6569 19.275 33.6635 19.3039 33.6692 19.3336C33.685 19.4093 33.6936 19.4863 33.6948 19.5637V19.5637Z" fill="#FCC8BC"/>
<path d="M33.6901 19.6411C33.6669 19.8816 33.5702 20.1091 33.413 20.2926L32.9026 20.8871L32.8201 20.8047C32.7697 20.7544 32.7301 20.6943 32.7038 20.6282C32.6635 20.5294 32.6534 20.4209 32.6748 20.3163C32.6962 20.2118 32.7482 20.116 32.8242 20.0411L33.2959 19.5743C33.333 19.5359 33.3821 19.5114 33.4352 19.5049C33.4882 19.4985 33.5418 19.5105 33.587 19.5389C33.6013 19.5482 33.6145 19.559 33.6266 19.571L33.6901 19.6411Z" fill="#FFF9F8"/>
</svg>
