<svg width="32" height="24" viewBox="0 0 32 24" fill="none" xmlns="http://www.w3.org/2000/svg">
<rect width="32" height="24" rx="4" fill="url(#paint0_radial)"/>
<path d="M18.27 10.9738C18.27 12.4699 17.2211 13.5379 15.7554 13.5379H14.3744C14.3592 13.5379 14.3441 13.5409 14.33 13.5467C14.3159 13.5526 14.3032 13.5612 14.2924 13.572C14.2816 13.5828 14.2731 13.5956 14.2673 13.6097C14.2616 13.6238 14.2586 13.6389 14.2587 13.6542V15.6205C14.2587 15.6512 14.2465 15.6807 14.2248 15.7025C14.2032 15.7243 14.1737 15.7366 14.143 15.7368H13.1767C13.1537 15.7367 13.1313 15.7298 13.1122 15.717C13.0931 15.7042 13.0782 15.6861 13.0694 15.6649C13.0635 15.651 13.0605 15.6361 13.0604 15.6211V8.52541C13.0603 8.51017 13.0632 8.49506 13.069 8.48095C13.0748 8.46684 13.0833 8.45402 13.0941 8.44321C13.1048 8.43241 13.1176 8.42383 13.1317 8.41798C13.1458 8.41213 13.1608 8.40912 13.1761 8.40912H15.7615C17.2211 8.40743 18.27 9.47543 18.27 10.9738ZM17.0649 10.9738C17.0649 10.1136 16.4784 9.48498 15.6829 9.48498H14.3744C14.3592 9.48498 14.3441 9.48799 14.33 9.49384C14.3159 9.4997 14.3032 9.50827 14.2924 9.51908C14.2816 9.52988 14.2731 9.54271 14.2673 9.55682C14.2616 9.57092 14.2586 9.58603 14.2587 9.60128V12.3395C14.2587 12.3702 14.2709 12.3997 14.2926 12.4214C14.3143 12.4431 14.3437 12.4553 14.3744 12.4553H15.6829C16.4784 12.4609 17.0649 11.8317 17.0649 10.9738ZM18.5565 14.3755C18.5465 14.1461 18.594 13.9178 18.6947 13.7113C18.7953 13.5049 18.946 13.3269 19.133 13.1935C19.5099 12.9098 20.0993 12.7631 20.9645 12.7328L21.8858 12.7002V12.4283C21.8858 11.8833 21.5206 11.653 20.9341 11.653C20.3476 11.653 19.9757 11.8609 19.8903 12.2008C19.8833 12.2247 19.8686 12.2456 19.8485 12.2602C19.8283 12.2749 19.8039 12.2824 19.779 12.2817H18.8689C18.8521 12.2821 18.8355 12.2789 18.8201 12.2722C18.8048 12.2655 18.7911 12.2554 18.78 12.2428C18.769 12.2302 18.7608 12.2153 18.7562 12.1992C18.7516 12.1831 18.7505 12.1662 18.7532 12.1496C18.888 11.344 19.5582 10.7316 20.9757 10.7316C22.4836 10.7316 23.028 11.4339 23.028 12.7744V15.6205C23.0277 15.6515 23.0151 15.6812 22.993 15.703C22.9709 15.7248 22.941 15.7369 22.91 15.7368H21.9926C21.9619 15.7367 21.9324 15.7246 21.9105 15.7031C21.8998 15.6923 21.8913 15.6795 21.8855 15.6654C21.8797 15.6514 21.8768 15.6363 21.8768 15.6211V15.4081C21.8772 15.3905 21.8722 15.3733 21.8625 15.3586C21.8528 15.3439 21.8389 15.3325 21.8226 15.3258C21.8063 15.3192 21.7883 15.3177 21.7712 15.3214C21.754 15.3252 21.7383 15.3341 21.7263 15.3469C21.451 15.6463 21.0066 15.8626 20.2948 15.8626C19.2476 15.8626 18.5565 15.3177 18.5565 14.3755ZM21.8858 13.7587V13.5379L20.6925 13.6008C20.0639 13.6328 19.6981 13.8941 19.6981 14.334C19.6981 14.7317 20.0335 14.9519 20.6195 14.9519C21.4156 14.9519 21.8858 14.5222 21.8858 13.7587ZM23.9493 17.8874V17.0627C23.9495 17.0454 23.9535 17.0283 23.961 17.0127C23.9685 16.9971 23.9793 16.9834 23.9927 16.9725C24.0061 16.9615 24.0218 16.9537 24.0385 16.9495C24.0553 16.9452 24.0728 16.9448 24.0898 16.9481C24.2302 16.9745 24.3735 16.9879 24.5168 16.9885C24.7631 17.0005 25.0062 16.9295 25.2074 16.7869C25.4086 16.6443 25.5561 16.4383 25.6263 16.202L25.6859 16.0121C25.6945 15.9866 25.6945 15.9589 25.6859 15.9334L23.7741 11.0232C23.7671 11.0054 23.7647 10.9862 23.7668 10.9672C23.769 10.9483 23.7757 10.9301 23.7864 10.9143C23.7971 10.8985 23.8115 10.8855 23.8284 10.8765C23.8452 10.8675 23.864 10.8627 23.883 10.8625H24.81C24.8337 10.8628 24.8568 10.8701 24.8762 10.8837C24.8957 10.8972 24.9106 10.9163 24.919 10.9384L26.2174 14.4014C26.2255 14.4244 26.2406 14.4443 26.2605 14.4584C26.2804 14.4725 26.3042 14.48 26.3286 14.48C26.353 14.48 26.3768 14.4725 26.3967 14.4584C26.4166 14.4443 26.4317 14.4244 26.4398 14.4014L27.5674 10.9479C27.5752 10.9243 27.5903 10.9038 27.6105 10.8893C27.6306 10.8747 27.6549 10.867 27.6798 10.867H28.6388C28.658 10.8671 28.6769 10.8719 28.6938 10.8809C28.7108 10.8899 28.7254 10.9029 28.7362 10.9187C28.7471 10.9346 28.754 10.9528 28.7563 10.9719C28.7586 10.991 28.7562 11.0103 28.7494 11.0283L26.7045 16.4812C26.2337 17.7486 25.4263 18.0728 24.5376 18.0728C24.369 18.0773 24.2005 18.0571 24.0375 18.0127C24.0105 18.0055 23.9868 17.989 23.9706 17.9661C23.9545 17.9432 23.947 17.9153 23.9493 17.8874ZM6.85069 8.00012C5.63273 7.99144 4.45776 8.44985 3.56748 9.28105C3.5294 9.31591 3.50567 9.3637 3.50089 9.41511C3.49612 9.46651 3.51064 9.51785 3.54163 9.55914L4.09277 10.312C4.11063 10.337 4.13378 10.3579 4.16057 10.373C4.18736 10.3882 4.21714 10.3973 4.24783 10.3997C4.27851 10.4021 4.30936 10.3978 4.33818 10.387C4.36701 10.3762 4.39312 10.3592 4.41468 10.3372C4.73481 10.0172 5.11551 9.76418 5.53454 9.59296C5.95358 9.42174 6.40254 9.33575 6.85518 9.34004C8.74511 9.34004 9.73221 10.7625 9.73221 12.1671C9.73221 13.6941 8.69511 14.7682 7.20463 14.7896C6.05292 14.7896 5.18492 14.0261 5.18492 13.0176C5.18612 12.7629 5.24384 12.5115 5.35391 12.2818C5.46399 12.052 5.62367 11.8495 5.82145 11.689C5.86327 11.654 5.8897 11.6041 5.89505 11.5499C5.90041 11.4957 5.88427 11.4415 5.85011 11.3991L5.27088 10.6676C5.25336 10.6455 5.23159 10.6271 5.20685 10.6135C5.18211 10.5999 5.15491 10.5915 5.12684 10.5886C5.09877 10.5857 5.07041 10.5885 5.04343 10.5967C5.01645 10.605 4.9914 10.6186 4.96975 10.6367C4.61402 10.9233 4.32696 11.2859 4.12961 11.6979C3.93227 12.1099 3.82965 12.5608 3.82928 13.0176C3.82928 14.7536 5.30459 16.1155 7.19452 16.1267H7.2198C9.46366 16.0975 11.0862 14.4356 11.0862 12.1642C11.0862 10.1474 9.60074 8.00012 6.85125 8.00012H6.85069Z" fill="white"/>
<defs>
<radialGradient id="paint0_radial" cx="0" cy="0" r="1" gradientUnits="userSpaceOnUse" gradientTransform="translate(16 12) rotate(90) scale(19 25.3333)">
<stop stop-color="#36299E"/>
<stop offset="1" stop-color="#2C2181"/>
</radialGradient>
</defs>
</svg>
