<svg width="28" height="30" viewBox="0 0 28 30" fill="none" xmlns="http://www.w3.org/2000/svg">
<path d="M22.1123 17.5V7.5C22.1123 6.125 21.0649 5 19.7848 5H3.49165C2.21148 5 1.16406 6.125 1.16406 7.5V17.5C1.16406 18.875 2.21148 20 3.49165 20H19.7848C21.0649 20 22.1123 18.875 22.1123 17.5ZM19.7848 17.5H3.49165V7.5H19.7848V17.5ZM11.6382 8.75C9.7063 8.75 8.14682 10.425 8.14682 12.5C8.14682 14.575 9.7063 16.25 11.6382 16.25C13.5701 16.25 15.1296 14.575 15.1296 12.5C15.1296 10.425 13.5701 8.75 11.6382 8.75ZM26.7675 8.75V22.5C26.7675 23.875 25.7201 25 24.4399 25H4.65544C4.65544 23.75 4.65544 23.875 4.65544 22.5H24.4399V8.75C25.7201 8.75 25.6037 8.75 26.7675 8.75Z" fill="#212529"/>
</svg>
