<svg width="32" height="24" viewBox="0 0 32 24" fill="none" xmlns="http://www.w3.org/2000/svg">
<rect x="0.5" y="0.5" width="31" height="23" rx="3.5" fill="white" stroke="#D6D7DA"/>
<path fill-rule="evenodd" clip-rule="evenodd" d="M13.6142 18.4483L13.835 16.9992L13.3433 16.9873H10.9953L12.6271 6.2937C12.6321 6.26132 12.6486 6.23126 12.6726 6.20987C12.6967 6.18849 12.7274 6.17676 12.7596 6.17676H16.7186C18.033 6.17676 18.94 6.45939 19.4135 7.01734C19.6355 7.27908 19.7769 7.55267 19.8454 7.85364C19.9171 8.16951 19.9183 8.54685 19.8483 9.00715L19.8432 9.04063V9.33561L20.0653 9.46563C20.2522 9.56815 20.4008 9.68546 20.5148 9.81975C20.7046 10.0436 20.8275 10.3281 20.8794 10.6652C20.933 11.012 20.9153 11.4248 20.8275 11.892C20.7261 12.4295 20.5624 12.8976 20.3412 13.2805C20.1379 13.6334 19.8787 13.9262 19.571 14.153C19.2772 14.3686 18.9282 14.5322 18.5336 14.6369C18.1511 14.7398 17.7151 14.7917 17.2369 14.7917H16.9288C16.7085 14.7917 16.4945 14.8737 16.3265 15.0207C16.1581 15.1708 16.0467 15.3758 16.0125 15.6L15.9892 15.7305L15.5992 18.2848L15.5816 18.3785C15.5769 18.4082 15.5688 18.423 15.557 18.433C15.5465 18.4422 15.5314 18.4483 15.5166 18.4483H13.6142Z" fill="#28356A"/>
<path fill-rule="evenodd" clip-rule="evenodd" d="M20.2757 9.07471C20.264 9.15279 20.2504 9.23258 20.2353 9.31458C19.7132 12.0852 17.9269 13.0424 15.6457 13.0424H14.4841C14.2051 13.0424 13.97 13.2517 13.9266 13.5362L13.1634 18.5394C13.1352 18.7263 13.2744 18.8945 13.4567 18.8945H15.5169C15.7608 18.8945 15.9681 18.7113 16.0065 18.4627L16.0267 18.3545L16.4146 15.8103L16.4395 15.6708C16.4775 15.4213 16.6852 15.238 16.9291 15.238H17.2372C19.2332 15.238 20.7958 14.4004 21.2525 11.9766C21.4432 10.9641 21.3444 10.1186 20.8396 9.52402C20.6869 9.34476 20.4974 9.19592 20.2757 9.07471Z" fill="#298FC2"/>
<path fill-rule="evenodd" clip-rule="evenodd" d="M19.7293 8.84944C19.6495 8.82537 19.5672 8.80362 19.4828 8.78394C19.3979 8.76476 19.311 8.74777 19.2215 8.73287C18.9083 8.68057 18.5651 8.65576 18.1976 8.65576H15.0945C15.0181 8.65576 14.9455 8.6736 14.8806 8.70586C14.7374 8.77698 14.6311 8.91701 14.6053 9.08845L13.9452 13.41L13.9263 13.536C13.9696 13.2515 14.2048 13.0422 14.4838 13.0422H15.6454C17.9266 13.0422 19.7129 12.0845 20.2349 9.31439C20.2505 9.2324 20.2637 9.15261 20.2754 9.07452C20.1433 9.00206 20.0003 8.94011 19.8462 8.88732C19.8082 8.87425 19.7689 8.86166 19.7293 8.84944Z" fill="#22284F"/>
<path fill-rule="evenodd" clip-rule="evenodd" d="M14.6055 9.08862C14.6313 8.91718 14.7376 8.77715 14.8807 8.70652C14.9461 8.67414 15.0182 8.6563 15.0947 8.6563H18.1978C18.5653 8.6563 18.9085 8.68123 19.2217 8.73353C19.3112 8.74831 19.3981 8.76542 19.483 8.7846C19.5674 8.80415 19.6497 8.82603 19.7295 8.84998C19.7691 8.8622 19.8083 8.8749 19.8468 8.88749C20.0008 8.94028 20.144 9.00272 20.276 9.07469C20.4314 8.05082 20.2747 7.3537 19.7392 6.72245C19.1486 6.0274 18.083 5.72998 16.7192 5.72998H12.7601C12.4816 5.72998 12.244 5.9393 12.2009 6.22426L10.5519 17.0279C10.5194 17.2416 10.6789 17.4344 10.8875 17.4344H13.3316L14.6055 9.08862Z" fill="#28356A"/>
</svg>
