<svg width="16" height="24" viewBox="0 0 16 24" fill="none" xmlns="http://www.w3.org/2000/svg">
<path fill-rule="evenodd" clip-rule="evenodd" d="M13.4876 0H2.24793C1.00643 0 0 0.976833 0 2.18182V21.8182C0 23.0232 1.00643 24 2.24793 24H13.4876C14.7291 24 15.7355 23.0232 15.7355 21.8182V2.18182C15.7355 0.976833 14.7291 0 13.4876 0ZM5.50583 2.23777C5.59867 2.31923 5.69 2.39936 5.78067 2.47173C6.00202 2.64838 6.29178 2.75543 6.60893 2.75543H9.12661C9.44376 2.75543 9.73351 2.64838 9.95487 2.47173C10.0455 2.39936 10.1369 2.31923 10.2297 2.23778C10.5788 1.93144 10.9492 1.60648 11.3855 1.60648H13.162C13.7143 1.60648 14.162 2.0542 14.162 2.60648V21.2875C14.162 21.8398 13.7143 22.2875 13.162 22.2875H2.57355C2.02127 22.2875 1.57355 21.8398 1.57355 21.2875V2.60648C1.57355 2.0542 2.02127 1.60648 2.57355 1.60648H4.35008C4.78636 1.60648 5.15671 1.93144 5.50583 2.23777Z" fill="#030E1B"/>
</svg>
