<svg width="20" height="24" viewBox="0 0 20 24" fill="none" xmlns="http://www.w3.org/2000/svg">
<path d="M10.0001 12.0007C11.2834 12.0007 12.3334 10.9507 12.3334 9.66732C12.3334 8.38398 11.2834 7.33398 10.0001 7.33398C8.71675 7.33398 7.66675 8.38398 7.66675 9.66732C7.66675 10.9507 8.71675 12.0007 10.0001 12.0007ZM10.0001 0.333984C14.9001 0.333984 19.3334 4.09065 19.3334 9.90065C19.3334 13.6107 16.4751 17.974 10.7701 23.0023C10.3267 23.3873 9.66175 23.3873 9.21841 23.0023C3.52508 17.974 0.666748 13.6107 0.666748 9.90065C0.666748 4.09065 5.10008 0.333984 10.0001 0.333984Z" fill="#212529"/>
</svg>
