<svg width="142" height="142" viewBox="0 0 142 142" fill="none" xmlns="http://www.w3.org/2000/svg">
<path d="M86.2825 130.167H37.7028H26.3658C15.0721 130.167 5.91675 121.078 5.91675 109.866V58.379C6.0206 53.9638 8.12213 49.8299 11.6382 47.1243L50.2053 16.253C56.8658 10.5228 66.7026 10.3457 73.5681 15.8323L113.036 47.1243C116.393 49.9121 118.333 54.0338 118.333 58.379V109.919C118.333 115.298 116.177 120.456 112.341 124.255C108.504 128.054 103.303 130.181 97.8844 130.167H86.2825Z" fill="#F2F2F7"/>
<path fill-rule="evenodd" clip-rule="evenodd" d="M136.083 90.0172V90.0166C136.083 86.0346 136.083 82.6054 132.459 79.7025L105.454 61.8689C97.6257 58.204 97.6251 58.2043 89.4712 62.2536L89.4694 62.2545L63.0815 79.7025C59.2909 82.5135 59.2373 85.7577 59.1732 89.6341C59.1711 89.7611 59.169 89.8888 59.1667 90.0172H136.083ZM80.9151 130.167C83.4635 130.167 86.951 130.167 85.8319 130.167L122.092 130.167C125.799 130.179 129.358 128.23 131.983 124.748C134.608 121.267 136.083 116.54 136.083 111.61V90.0175H59.1667V111.562C59.1667 121.837 65.4309 130.167 73.1582 130.167H80.9151Z" fill="#D6D7DA"/>
</svg>
