<svg width="24" height="24" viewBox="0 0 24 24" fill="none" xmlns="http://www.w3.org/2000/svg">
<path d="M6.79022 3.78655C6.98881 3.9516 7.28719 3.95071 7.48473 3.78459L9.45706 2.12529C9.65513 1.95824 9.95507 1.95824 10.1531 2.12529L12.1234 3.78311C12.3219 3.94968 12.6215 3.94968 12.82 3.78311L14.7902 2.12529C14.9883 1.95824 15.2882 1.95824 15.4863 2.12529L17.4586 3.78459C17.6562 3.95071 17.9545 3.9516 18.1531 3.78655L19.6038 2.57886C19.8199 2.39922 20.15 2.41848 20.3409 2.62185C20.4251 2.71157 20.4716 2.82714 20.4717 2.94688V21.0532C20.4715 21.3245 20.2376 21.5444 19.9492 21.5443C19.822 21.5442 19.6991 21.5004 19.6038 21.4212L18.1531 20.2134C17.9545 20.0484 17.6562 20.0493 17.4586 20.2154L15.4863 21.8747C15.2882 22.0418 14.9883 22.0418 14.7902 21.8747L12.82 20.2169C12.6215 20.0503 12.3219 20.0503 12.1234 20.2169L10.1531 21.8747C9.95507 22.0418 9.65513 22.0418 9.45706 21.8747L7.48473 20.2154C7.28719 20.0493 6.98881 20.0484 6.79022 20.2134L5.33956 21.4212C5.12343 21.6008 4.7934 21.5816 4.60249 21.3782C4.51826 21.2885 4.47173 21.1729 4.47168 21.0532V2.94683C4.47184 2.67546 4.70573 2.45558 4.99413 2.45573C5.12139 2.45578 5.24421 2.49956 5.33956 2.57881L6.79022 3.78655Z" fill="#D6D7DA"/>
<path fill-rule="evenodd" clip-rule="evenodd" d="M8.29965 10.3874H16.6449C17.2749 10.3874 17.7869 10.0544 17.7869 9.64344C17.7869 9.23244 17.2749 8.89844 16.6449 8.89844H8.29965C7.66963 8.89844 7.15918 9.23244 7.15918 9.64344C7.15918 10.0544 7.66963 10.3874 8.29965 10.3874ZM8.29965 15.3816H16.6447C17.2747 15.3816 17.7867 15.0486 17.7867 14.6376C17.7867 14.2266 17.2747 13.8926 16.6447 13.8926H8.29965C7.66963 13.8926 7.15918 14.2266 7.15918 14.6376C7.15918 15.0486 7.66963 15.3816 8.29965 15.3816Z" fill="#030E1B"/>
</svg>
