<svg width="125" height="24" viewBox="0 0 125 24" fill="none" xmlns="http://www.w3.org/2000/svg">
<path d="M10.1667 8.79987V17.0667C10.1667 21.6799 8.07889 23.4122 4.86375 23.4122C3.08917 23.4122 1.44 22.5149 0.479721 20.8026L2.02514 19.9893C2.63 21.0956 3.77833 21.7011 4.86375 21.7011C7.01402 21.7011 8.35 20.4903 8.35 17.1921V17.004C7.70305 18.1308 6.28375 18.7572 4.885 18.7572C2.21305 18.7572 0 16.7321 0 13.6636C0 10.5743 2.19167 8.5914 4.86375 8.5914C6.32514 8.5914 7.70305 9.1964 8.35 10.3239V8.79987H10.1667ZM8.35 13.6429C8.35 11.5346 6.63819 10.3031 5.03097 10.3031C3.25653 10.3031 1.83708 11.6806 1.83708 13.6429C1.83708 15.584 3.25653 17.0453 5.03097 17.0453C6.78416 17.0453 8.35 15.7307 8.35 13.6429" fill="black"/>
<path d="M22.4813 14.4573H14.5484C14.8195 16.1898 16.0721 17.0454 17.7421 17.0454C18.9323 17.0454 20.0382 16.5441 20.5814 15.5636L22.1682 16.1898C21.3117 17.8809 19.5588 18.7573 17.6795 18.7573C14.9035 18.7573 12.6691 16.7322 12.6691 13.643C12.6691 10.5539 14.9035 8.59135 17.6795 8.59135C20.4561 8.59135 22.5227 10.5539 22.5227 13.643C22.5227 13.9141 22.5018 14.1854 22.4813 14.4573ZM20.7068 12.8915C20.477 11.2215 19.2868 10.3032 17.6795 10.3032C16.0303 10.3032 14.8614 11.1382 14.5689 12.8915H20.7068Z" fill="black"/>
<path d="M29.515 10.3659H27.4066V18.5486H25.5909V10.3659H23.837V8.80011H25.5909V5.10511H27.4066V8.80011H29.515V10.3659Z" fill="black"/>
<path d="M43.7677 10.6626V3.60095H51.1142C53.7866 3.60095 55.3932 4.84984 55.3932 7.13178C55.3932 9.41359 53.7866 10.6626 51.1142 10.6626H43.7677ZM59.3146 7.13178C59.3146 3.28053 56.8179 -2.40171e-05 51.2557 -2.40171e-05H39.8478V10.664H36.8818V14.2637H39.8478V23.6746H43.7677V14.2637H48.1527L55.3203 23.6746H60.2059L52.9325 14.1548C57.3532 13.5869 59.3146 10.554 59.3146 7.13178" fill="black"/>
<path d="M63.5262 2.5571e-05V23.6772H79.8585V20.0761H67.4475V13.6214H79.6082V10.0203H67.4475V3.601H79.8585V2.5571e-05H63.5262Z" fill="black"/>
<path d="M85.6842 2.5571e-05V23.6772H102.016V20.0761H89.607V13.6214H101.766V10.0203H89.607V3.601H102.016V2.5571e-05H85.6842Z" fill="black"/>
<path d="M107.821 2.5571e-05V23.6772H111.742V13.6214H123.903V10.0203H111.742V3.601H124.153V2.5571e-05H107.821Z" fill="black"/>
</svg>
