<svg width="24" height="24" viewBox="0 0 24 24" fill="none" xmlns="http://www.w3.org/2000/svg">
<path fill-rule="evenodd" clip-rule="evenodd" d="M19.5 2C19.7761 2 20 2.22386 20 2.5V21.5C20 21.7761 19.7761 22 19.5 22H18.5C18.2238 22 18 21.7761 18 21.5V14H16C15.4477 14 15 13.5523 15 13V6C15 3.79086 16.7908 2 19 2H19.5ZM12 10.76V2.50004C12 2.2239 11.7761 2.00004 11.5 2.00004H10.75C10.4739 2.00004 10.25 2.2239 10.25 2.50004V9.50004C10.25 9.77619 10.0261 10 9.75 10H9.38C9.10386 10 8.88 9.77619 8.88 9.50004V2.50004C8.88 2.2239 8.65614 2.00004 8.38 2.00004H7.62C7.34386 2.00004 7.12 2.2239 7.12 2.50004V9.50004C7.12 9.77619 6.89614 10 6.62 10H6.25C5.97386 10 5.75 9.77619 5.75 9.50004V2.50004C5.75 2.2239 5.52614 2.00004 5.25 2.00004H4.5C4.22386 2.00004 4 2.2239 4 2.50004V10.76C4.0007 11.5554 4.31723 12.318 4.88 12.88L5.71 13.71C5.89626 13.8948 6.14766 13.9989 6.41 14H7V21.5C7 21.7762 7.22386 22 7.5 22H8.5C8.77614 22 9 21.7762 9 21.5V14H9.59C9.85234 13.9989 10.1037 13.8948 10.29 13.71L11.12 12.88C11.6828 12.318 11.9993 11.5554 12 10.76Z" fill="#212529"/>
</svg>
