<svg width="26" height="26" viewBox="0 0 26 26" fill="none" xmlns="http://www.w3.org/2000/svg">
<path d="M11.1917 23.1406C11.1917 23.6153 10.8016 24 10.3203 24H6.48585C4.56369 24 3 22.458 3 20.5625V5.4375C3 3.54201 4.56369 2 6.48585 2H17.2001C19.122 2 20.6859 3.54201 20.6859 5.4375V13.6445C20.6859 14.1192 20.2956 14.5039 19.8144 14.5039C19.3331 14.5039 18.943 14.1192 18.943 13.6445V5.4375C18.943 4.48984 18.161 3.71875 17.2001 3.71875H6.48585C5.52486 3.71875 4.74292 4.48984 4.74292 5.4375V20.5625C4.74292 21.5102 5.52486 22.2812 6.48585 22.2812H10.3203C10.8016 22.2812 11.1917 22.666 11.1917 23.1406ZM16.3286 7.15625H7.35254C6.8712 7.15625 6.48108 7.54095 6.48108 8.01562C6.48108 8.4903 6.8712 8.875 7.35254 8.875H16.3286C16.8098 8.875 17.2001 8.4903 17.2001 8.01562C17.2001 7.54095 16.8098 7.15625 16.3286 7.15625ZM17.2001 11.4531C17.2001 10.9785 16.8098 10.5938 16.3286 10.5938H7.35254C6.8712 10.5938 6.48108 10.9785 6.48108 11.4531C6.48108 11.9278 6.8712 12.3125 7.35254 12.3125H16.3286C16.8098 12.3125 17.2001 11.9278 17.2001 11.4531ZM7.35254 14.0312C6.8712 14.0312 6.48108 14.416 6.48108 14.8906C6.48108 15.3653 6.8712 15.75 7.35254 15.75H11.9325C12.4138 15.75 12.8039 15.3653 12.8039 14.8906C12.8039 14.416 12.4138 14.0312 11.9325 14.0312H7.35254ZM22.8416 20.326C22.8109 20.3691 22.7059 20.5157 22.6407 20.5967C22.3488 20.9588 21.6656 21.8062 20.715 22.5543C19.4962 23.5136 18.2419 24 16.987 24C15.732 24 14.4778 23.5136 13.2589 22.5543C12.3083 21.8062 11.6251 20.9586 11.3334 20.5967C11.268 20.5157 11.163 20.369 11.1323 20.326C10.9211 20.0296 10.9211 19.6343 11.1323 19.3379C11.163 19.2949 11.268 19.1482 11.3334 19.0672C11.6251 18.7053 12.3083 17.8578 13.2589 17.1097C14.4778 16.1505 15.732 15.6641 16.987 15.6641C18.2419 15.6641 19.4962 16.1505 20.715 17.1097C21.6656 17.8578 22.3488 18.7054 22.6406 19.0673C22.7059 19.1484 22.8109 19.2951 22.8416 19.3381C23.0528 19.6345 23.0528 20.0296 22.8416 20.326ZM21.0238 19.832C19.6381 18.2064 18.2814 17.3828 16.987 17.3828C15.6927 17.3828 14.3358 18.2063 12.9502 19.832C14.3358 21.4576 15.6925 22.2812 16.987 22.2812C18.2814 22.2812 19.6381 21.4578 21.0238 19.832ZM17.0305 18.1992C16.116 18.1992 15.3748 18.9302 15.3748 19.832C15.3748 20.7339 16.116 21.4648 17.0305 21.4648C17.9451 21.4648 18.6863 20.7339 18.6863 19.832C18.6863 18.9302 17.9451 18.1992 17.0305 18.1992Z" fill="black"/>
</svg>
