<svg width="19" height="23" viewBox="0 0 19 23" fill="none" xmlns="http://www.w3.org/2000/svg">
<g clip-path="url(#clip0)">
<path d="M18.8911 8.39828C18.7982 8.26106 18.6595 8.18097 18.5141 8.18097H16.6649C16.2086 6.72396 15.6141 5.2964 14.9383 4.75753C12.6007 2.89593 6.40039 2.89593 4.06279 4.75753C3.38656 5.29699 2.7945 6.72632 2.33574 8.18097H0.486577C0.339656 8.18097 0.201492 8.26106 0.109545 8.39828C0.0171108 8.53491 -0.0198627 8.71571 0.0102999 8.88945L0.284196 10.496C0.330899 10.7699 0.530361 10.9654 0.760473 10.9654H1.30826C0.779446 11.7039 0.523064 12.6339 0.519658 13.5644C0.516253 14.7139 0.876745 15.7528 1.53594 16.4878C1.54324 16.4955 1.55054 16.5008 1.55735 16.5084V18.7563C1.55735 19.2434 1.88427 19.6397 2.28709 19.6397H3.99273C4.39555 19.6397 4.72247 19.2434 4.72247 18.7563V17.8529H14.2777V18.7563C14.2777 19.2434 14.6046 19.6397 15.0074 19.6397H16.7131C17.1149 19.6397 17.4428 19.2434 17.4428 18.7563V16.5526C18.1424 15.777 18.4766 14.7098 18.481 13.6445C18.4839 12.6821 18.2159 11.7181 17.6559 10.9642H18.2402C18.4713 10.9642 18.6707 10.7687 18.7165 10.4943L18.9908 8.88827C19.0191 8.71571 18.9835 8.53609 18.8911 8.39828ZM4.86404 6.23279C6.72731 4.74811 12.2729 4.74811 14.1351 6.23279C14.4971 6.52019 14.9627 7.68215 15.3893 9.105H3.61084C4.03652 7.68273 4.50209 6.52137 4.86404 6.23279ZM2.68163 13.7858C2.68163 12.8258 3.32478 12.0485 4.11728 12.0485C4.91075 12.0485 5.55292 12.8258 5.55292 13.7858C5.55292 14.7457 4.91075 15.5237 4.11728 15.5237C3.32478 15.5237 2.68163 14.7457 2.68163 13.7858ZM14.9019 15.5237C14.1094 15.5237 13.4662 14.7457 13.4662 13.7858C13.4662 12.8258 14.1094 12.0485 14.9019 12.0485C15.6953 12.0485 16.3375 12.8258 16.3375 13.7858C16.3375 14.7457 15.6944 15.5237 14.9019 15.5237Z" fill="#212529"/>
</g>
<defs>
<clipPath id="clip0">
<rect width="19" height="23" fill="white"/>
</clipPath>
</defs>
</svg>
