<svg width="18" height="18" viewBox="0 0 17 17" fill="none" xmlns="http://www.w3.org/2000/svg">
<path fill-rule="evenodd" clip-rule="evenodd" d="M0.994873 8.99914C0.994873 4.5781 4.57883 0.994141 8.99987 0.994141C13.4189 0.99892 17.0001 4.58008 17.0049 8.99914C17.0049 13.4202 13.4209 17.0041 8.99987 17.0041C4.57883 17.0041 0.994873 13.4202 0.994873 8.99914ZM11.5261 12.5233C11.7999 12.7664 12.2172 12.7481 12.4687 12.482V12.4826C12.5881 12.3518 12.6506 12.1788 12.6423 12.0019C12.634 11.8249 12.5557 11.6585 12.4247 11.5394L9.3334 8.70561V5.33016C9.3334 4.96174 9.03474 4.66308 8.66632 4.66308C8.2979 4.66308 7.99924 4.96174 7.99924 5.33016V8.99912C7.9999 9.18646 8.07931 9.36487 8.21804 9.49076L11.5261 12.5233Z" fill="#1C1C1E"/>
</svg>
