<svg width="142" height="142" viewBox="0 0 142 142" fill="none" xmlns="http://www.w3.org/2000/svg">
<path fill-rule="evenodd" clip-rule="evenodd" d="M130.146 49.5528H105.09C93.4307 49.5733 83.985 58.7829 83.964 70.1513C83.9482 81.5454 93.4044 90.796 105.09 90.8114H130.167V92.6215C130.167 112.497 118.118 124.25 97.7275 124.25H44.2776C23.8822 124.25 11.8333 112.497 11.8333 92.6215V49.3323C11.8333 29.4568 23.8822 17.75 44.2776 17.75H97.7064C118.097 17.75 130.146 29.4568 130.146 49.3323V49.5528ZM39.8756 49.5066H73.2456H73.2666H73.3087C75.8069 49.4963 77.8264 47.5118 77.8159 45.071C77.8054 42.6353 75.7648 40.6662 73.2666 40.6764H39.8756C37.3932 40.6867 35.3789 42.6506 35.3684 45.0761C35.3579 47.5118 37.3775 49.4963 39.8756 49.5066Z" fill="#D6D7DA"/>
<path d="M94.8878 72.7554C96.1251 78.3832 101.059 82.3428 106.693 82.2398H125.921C128.265 82.2398 130.167 80.2986 130.167 77.8992V62.9208C130.161 60.5265 128.265 58.5802 125.921 58.5751H106.24C99.8321 58.5957 94.6565 63.9146 94.6665 70.4692C94.6665 71.2364 94.742 72.0036 94.8878 72.7554Z" fill="#E5E5EA"/>
<ellipse cx="106.5" cy="70.4085" rx="5.91667" ry="5.91667" fill="#F2F2F7"/>
</svg>
