<svg width="134" height="16" viewBox="0 0 134 16" fill="none" xmlns="http://www.w3.org/2000/svg">
<path d="M6.31377 7.2688C6.72305 7.257 7.13249 7.28646 7.53587 7.35672C8.04874 7.44171 8.47369 8.15386 8.47369 8.50262C8.47911 8.72586 8.45346 8.94877 8.39749 9.16495C8.01337 10.0666 7.56275 10.9384 7.04937 11.7733C6.6127 11.0758 5.60161 9.10341 5.25286 8.32971C5.13577 8.10351 5.05939 7.85849 5.0272 7.60583C5.0272 7.34206 5.50197 7.2688 6.31377 7.2688V7.2688ZM0.552035 7.2688C0.976985 7.38016 1.23782 7.46808 1.58657 8.09232C2.83504 10.3753 4.08352 12.8957 5.29389 15.3663C5.46268 15.4907 5.67116 15.5491 5.88003 15.5304C6.0893 15.5538 6.29947 15.4949 6.46617 15.3663C7.0523 14.2819 8.56454 11.3483 9.22394 10.2141C9.98592 11.6238 11.3106 14.1823 11.8616 15.3663C12.0304 15.4907 12.2388 15.5491 12.4477 15.5304C12.657 15.5538 12.8671 15.4949 13.0338 15.3663C14.1065 13.0452 15.267 10.6362 16.4422 8.39125C16.8525 7.57945 17.0284 7.36844 17.8636 7.21897L18.2124 7.15743C18.4117 6.95814 18.3618 6.48337 18.1391 6.38373C17.5764 6.43355 16.9141 6.44527 16.1785 6.44527C15.5425 6.44527 14.9446 6.42183 14.0947 6.38373C13.8456 6.47165 13.8456 6.99624 13.9951 7.15743L14.4201 7.24535C14.8567 7.33327 15.056 7.44464 15.056 7.556C15.0239 7.85039 14.9437 8.13751 14.8186 8.4059C14.4142 9.41699 14.0127 10.516 13.4031 11.7645C12.8404 10.7036 12.1429 9.27925 11.6799 8.23006C11.5717 8.01986 11.5041 7.7912 11.4806 7.556C11.4806 7.44464 11.8293 7.33327 12.4155 7.21897L12.7906 7.15743C12.9782 7.06951 12.9899 6.4101 12.7173 6.38373C11.0937 6.43355 9.8218 6.44527 8.22165 6.44527H3.09294C2.03203 6.44527 1.22316 6.42183 0.162253 6.38373C-0.101509 6.49509 -0.101509 6.98452 0.0743328 7.15743L0.552035 7.2688Z" fill="black"/>
<path d="M21.7527 7.11933C22.6114 7.11933 23.1008 7.59117 23.1008 8.31505C23.1008 8.54072 23.051 8.75173 22.9249 8.8162C22.5947 8.96087 22.236 9.02899 21.8758 9.01549H20.9409C20.1291 9.01549 19.7686 9.01549 19.7686 8.69018C19.7686 7.99268 20.68 7.11933 21.7409 7.11933H21.7527ZM21.7146 15.4982C22.611 15.5208 23.497 15.301 24.279 14.8621C25.0609 14.4231 25.7099 13.7812 26.1575 13.0042C26.1519 12.9302 26.1318 12.858 26.0983 12.7919C26.0647 12.7257 26.0184 12.6668 25.9621 12.6186C25.9057 12.5704 25.8403 12.5338 25.7698 12.511C25.6992 12.4881 25.6248 12.4794 25.5508 12.4854H25.4952C24.8094 13.4965 23.8481 13.6196 23.1506 13.6196C20.8061 13.6196 19.5664 12.0224 19.5664 10.3753C19.5664 10.0266 19.6162 9.97675 20.2053 9.97675H25.0702C25.8703 9.97675 25.9817 9.6661 25.9817 9.25287C25.9817 7.56773 24.5603 6.11997 21.9256 6.11997C18.7575 6.11997 16.4481 8.26523 16.4481 11.0377C16.4481 13.432 18.3062 15.5158 21.7234 15.5158" fill="black"/>
<path d="M32.4965 7.2688C32.9058 7.257 33.3152 7.28646 33.7186 7.35672C34.2315 7.44171 34.6535 8.15386 34.6535 8.50262C34.6599 8.72572 34.6353 8.94864 34.5802 9.16495C34.1931 10.0652 33.7426 10.9368 33.2321 11.7733C32.7954 11.0758 31.7844 9.10341 31.4356 8.32971C31.3185 8.10351 31.2421 7.85849 31.2099 7.60583C31.2099 7.34206 31.6847 7.2688 32.4965 7.2688V7.2688ZM26.7436 7.2688C27.1802 7.38016 27.4293 7.46808 27.7781 8.09232C29.0149 10.3753 30.275 12.8957 31.4854 15.3663C31.6542 15.4907 31.8627 15.5491 32.0716 15.5304C32.2808 15.5538 32.491 15.4949 32.6577 15.3663C33.2438 14.2819 34.7678 11.3483 35.4272 10.2141C36.1892 11.6238 37.4992 14.1823 38.0355 15.3663C38.2036 15.4923 38.4126 15.5508 38.6216 15.5304C38.7254 15.5436 38.8307 15.5359 38.9313 15.5077C39.032 15.4795 39.126 15.4314 39.2078 15.3663C40.2804 13.0452 41.441 10.6362 42.6133 8.39125C43.0265 7.57945 43.1994 7.36844 44.0376 7.21897L44.398 7.15743C44.5973 6.95814 44.5475 6.48337 44.3248 6.38373C43.7621 6.43355 43.1144 6.44527 42.3641 6.44527C41.7282 6.44527 41.1303 6.42183 40.2804 6.38373C40.0196 6.47165 40.0196 6.99624 40.1808 7.15743L40.6175 7.24535C41.0541 7.33327 41.2534 7.44464 41.2534 7.556C41.224 7.84953 41.1478 8.13646 41.0277 8.4059C40.6174 9.41699 40.2189 10.5013 39.6064 11.7645C39.0437 10.7036 38.3462 9.27925 37.8831 8.23006C37.775 8.01986 37.7074 7.7912 37.6838 7.556C37.6838 7.44464 38.0326 7.33327 38.6216 7.21897L38.9938 7.15743C39.1697 7.06951 39.1931 6.4101 38.9206 6.38373C37.297 6.43355 36.0251 6.44527 34.4278 6.44527H29.2728C28.2118 6.44527 27.403 6.42183 26.3421 6.38373C26.093 6.49509 26.093 6.98452 26.2659 7.15743L26.7436 7.2688Z" fill="black"/>
<path d="M48.4337 7.11933C49.8697 7.11933 50.5819 8.95394 50.6171 11.0875C50.6434 13.0598 50.1569 14.4812 48.7092 14.4812C47.2614 14.4812 46.3998 12.7844 46.3998 10.4867C46.3998 8.11577 47.3112 7.11933 48.4337 7.11933V7.11933ZM48.4337 15.504C51.5549 15.504 54.2628 13.9947 54.2628 10.7886C54.2628 7.69375 51.5666 6.11997 48.5832 6.11997C45.5997 6.11997 42.7218 7.85493 42.7423 10.9878C42.7687 14.0065 45.4151 15.504 48.4337 15.504Z" fill="black"/>
<path d="M58.5943 7.9663C58.7438 7.9663 58.9811 7.99268 59.5526 8.40297C59.8236 8.65002 60.1738 8.79237 60.5403 8.80448C61.3521 8.80448 62.1609 8.39125 62.1609 7.38016C62.1525 7.02777 62.0045 6.69313 61.7496 6.44972C61.4946 6.2063 61.1535 6.074 60.8011 6.08187H60.7659C59.705 6.08187 58.9665 6.80575 58.2807 7.18088C58.0814 7.14278 58.0316 7.06951 58.0316 6.91711C58.0316 6.71783 58.0814 6.4189 58.1312 5.9705C58.0792 5.90417 58.0123 5.85103 57.936 5.81538C57.8596 5.77974 57.7759 5.7626 57.6916 5.76535C56.9033 6.21375 55.1566 6.79989 53.9843 7.08709C53.8994 7.17643 53.852 7.29499 53.852 7.41826C53.852 7.54153 53.8994 7.66009 53.9843 7.74943L54.3448 7.94872C54.8196 8.20955 54.8196 8.47331 54.8196 9.35838V12.6671C54.8196 14.1999 54.7199 14.4021 53.8847 14.4636L53.3982 14.5017C53.3003 14.6082 53.2479 14.7488 53.2523 14.8934C53.2567 15.0379 53.3175 15.1751 53.4216 15.2754C54.2598 15.2256 55.3823 15.211 56.4168 15.211C57.5891 15.211 58.6265 15.2373 59.8486 15.2754C59.9539 15.1759 60.0157 15.0388 60.0206 14.894C60.0255 14.7492 59.9732 14.6083 59.875 14.5017L59.0632 14.4373C58.228 14.364 58.1283 14.1882 58.1283 12.6525V9.28218C58.1137 8.45866 58.2397 7.97216 58.6031 7.97216" fill="black"/>
<path d="M68.544 14.4314L68.2216 14.5076C68.1773 14.5568 68.1432 14.6143 68.1211 14.6768C68.0991 14.7392 68.0896 14.8054 68.0931 14.8716C68.0966 14.9377 68.1132 15.0025 68.1418 15.0622C68.1704 15.122 68.2104 15.1755 68.2597 15.2198L68.3213 15.2666C69.0334 15.2315 69.9419 15.2051 71.4395 15.2051C72.9371 15.2051 73.8485 15.2315 74.6369 15.2666C74.6926 15.2299 74.7405 15.1826 74.7778 15.1274C74.8152 15.0722 74.8413 15.0101 74.8546 14.9448C74.868 14.8794 74.8683 14.8121 74.8556 14.7466C74.8428 14.6812 74.8173 14.6189 74.7805 14.5633L74.7366 14.5076L74.3614 14.4314C73.6991 14.32 73.2243 14.2057 72.8638 13.9332C72.2279 13.432 69.9918 10.4369 69.5434 9.73937C69.4442 9.63631 69.3787 9.50545 69.3558 9.36424C69.367 9.25122 69.4203 9.14658 69.5053 9.07117C70.0477 8.61071 70.6194 8.18585 71.2168 7.79925C71.723 7.42959 72.301 7.17003 72.9137 7.03727L73.7255 6.88781C73.913 6.71197 73.8866 6.22547 73.6258 6.12583C72.0368 6.3216 70.438 6.42825 68.8371 6.44527H68.2275C67.9784 6.53026 67.9344 7.03141 68.1777 7.20432L68.8136 7.29224C69.0393 7.30689 69.2884 7.39188 69.2884 7.50618C69.2884 7.62048 69.1624 7.87838 68.6759 8.38539L67.615 9.46974C67.4253 9.66628 67.1975 9.82198 66.9455 9.92731C66.6936 10.0326 66.4227 10.0854 66.1496 10.0823C65.8741 10.0823 65.7862 10.0207 65.7862 9.76867V2.89621C65.7862 1.50999 65.8243 0.586825 65.8741 -0.312897C65.7536 -0.417751 65.5969 -0.471385 65.4375 -0.462362C64.1703 0.0277698 62.8733 0.436936 61.5543 0.762666C61.4709 0.852181 61.4245 0.97 61.4245 1.09237C61.4245 1.21474 61.4709 1.33256 61.5543 1.42207L61.9793 1.64773C62.4921 1.90857 62.4921 2.14595 62.4921 3.03395V12.6642C62.4921 14.1999 62.3925 14.3757 61.4693 14.4636L60.9828 14.4988C60.8851 14.6007 60.8317 14.7372 60.8345 14.8784C60.8372 15.0196 60.8958 15.154 60.9975 15.252V15.252C61.8767 15.2139 62.9317 15.1904 64.0923 15.1904C65.2528 15.1904 66.3255 15.2139 67.1373 15.252C67.1891 15.2041 67.231 15.1465 67.2606 15.0824C67.2901 15.0183 67.3067 14.9491 67.3095 14.8786C67.3122 14.808 67.301 14.7377 67.2764 14.6715C67.2519 14.6053 67.2146 14.5447 67.1666 14.4929V14.4929L66.768 14.4578C65.8888 14.3699 65.7686 14.194 65.7686 12.6583V11.3952C65.7686 10.9703 65.8917 10.8706 66.0617 10.8706C66.1867 10.8661 66.3107 10.8936 66.422 10.9505C66.5333 11.0075 66.6282 11.0919 66.6977 11.1959L68.4942 13.5668C68.676 13.7778 68.8198 14.0188 68.9191 14.279C68.9572 14.3523 68.8078 14.3904 68.544 14.4402" fill="black"/>
<path d="M101.954 7.58531C101.954 5.73898 100.755 4.1652 98.0854 4.1652H92.605V9.28218H91.1836V11.0113H92.605V15.5275H94.4865V11.0142H96.5907L100.031 15.5304H102.376L98.8884 10.9615C101.007 10.6889 101.954 9.23529 101.954 7.58531ZM94.4894 9.27632V5.89723H98.0062C99.2899 5.89723 100.058 6.48337 100.058 7.59117C100.058 8.69897 99.2899 9.28511 98.0062 9.28511L94.4894 9.27632Z" fill="black"/>
<path d="M103.97 15.5275H111.804V13.8013H105.852V10.7036H111.684V8.97739H105.852V5.89724H111.804V4.16813H103.97V15.5275Z" fill="black"/>
<path d="M114.6 15.5275H122.437V13.8013H116.481V10.7036H122.316V8.97739H116.481V5.89724H122.437V4.16813H114.6V15.5275Z" fill="black"/>
<path d="M133.054 5.89724V4.16813H125.221V15.5275H127.102V10.7036H132.934V8.97739H127.102V5.89724H133.054Z" fill="black"/>
<path d="M84.991 8.61379L80.856 12.7431L81.0506 12.938L85.1857 8.80873L84.991 8.61379Z" fill="black"/>
<path d="M81.0569 8.61367L80.8621 8.80847L84.9942 12.9407L85.189 12.7459L81.0569 8.61367Z" fill="black"/>
</svg>
