<svg width="75" height="16" viewBox="0 0 75 16" fill="none" xmlns="http://www.w3.org/2000/svg">
<path d="M7.01359 7.74269C7.46576 7.74269 7.86042 7.75844 8.21018 7.82225C8.70804 7.90969 9.12948 8.6037 9.12948 8.94243C9.12948 9.11574 9.12948 9.30795 9.05386 9.58838C8.93097 10.0185 8.0865 11.5656 7.73517 12.1478C7.31215 11.4617 6.31643 9.52379 5.97218 8.76913C5.82251 8.45245 5.74689 8.18934 5.74689 8.06015C5.74689 7.82225 6.21954 7.74269 7.01359 7.74269ZM1.37094 7.74269C1.79318 7.84746 2.04053 7.9349 2.38714 8.55565C3.60736 10.7952 4.82916 13.264 6.01787 15.6926C6.16755 15.8187 6.34243 15.847 6.59529 15.847C6.8395 15.847 7.0128 15.8187 7.16878 15.6934C7.73517 14.6245 9.22953 11.7555 9.87391 10.6416C10.6238 12.0186 11.915 14.5315 12.4388 15.6934C12.5838 15.8195 12.7634 15.847 13.0084 15.847C13.2565 15.847 13.4353 15.8187 13.5795 15.6934C14.6342 13.3859 15.7461 11.105 16.914 8.85263C17.3126 8.06015 17.4851 7.84746 18.3068 7.69464L18.6549 7.63319C18.8535 7.43389 18.8023 6.96676 18.5817 6.87695C18.0342 6.92028 17.3882 6.94234 16.6627 6.94234C16.042 6.94234 15.4496 6.92028 14.6256 6.87695C14.3767 6.96676 14.3767 7.47958 14.5287 7.63319L14.9478 7.71433C15.3755 7.80177 15.5709 7.90969 15.5709 8.01919C15.5709 8.16965 15.4953 8.47057 15.3409 8.85263C14.9478 9.84755 14.5579 10.9023 13.9537 12.1478C13.4085 11.1127 12.7137 9.71836 12.2631 8.68484C12.1166 8.32168 12.0662 8.18855 12.0662 8.01919C12.0662 7.90969 12.4105 7.80177 12.9863 7.69464L13.3565 7.63319C13.5361 7.54575 13.5551 6.90295 13.2825 6.87695C11.8156 6.92024 10.3481 6.94204 8.88055 6.94234H3.85708C2.81252 6.94234 2.01847 6.92028 0.999126 6.87695C0.744683 6.98487 0.744683 7.45752 0.9172 7.63319L1.37094 7.74269Z" fill="white"/>
<path d="M22.1454 7.60408C22.9875 7.60408 23.4633 8.07279 23.4633 8.78413C23.4633 8.99997 23.4137 9.21739 23.29 9.27883C23.0119 9.43008 22.6149 9.47026 22.2675 9.47026H21.349C20.5486 9.47026 20.2052 9.4545 20.2052 9.14964C20.2052 8.45958 21.1008 7.60329 22.1462 7.60329L22.1454 7.60408ZM22.1194 15.8172C23.6106 15.8172 25.4563 15.1925 26.4733 13.3657C26.4733 12.9994 26.0959 12.8261 25.8257 12.8662C25.1538 13.8596 24.2053 13.9848 23.5113 13.9848C21.2001 13.9848 20.0027 12.418 20.0027 10.8055C20.0027 10.462 20.0547 10.4195 20.6282 10.4195H25.398C26.1747 10.4195 26.296 10.1186 26.296 9.71052C26.296 8.05231 24.9017 6.6123 22.3147 6.6123C19.211 6.6123 16.947 8.72111 16.947 11.4318C16.947 13.7753 18.7628 15.8172 22.1194 15.8172ZM32.6492 7.74194C33.1038 7.74194 33.4984 7.75769 33.8482 7.8215C34.346 7.90894 34.7683 8.60295 34.7683 8.94168C34.7683 9.11498 34.7683 9.30719 34.6942 9.58763C34.5666 10.0177 33.7229 11.5649 33.3763 12.147C32.9486 11.4609 31.9584 9.52304 31.6102 8.76837C31.4637 8.4517 31.3857 8.18859 31.3857 8.0594C31.3857 7.8215 31.8552 7.74194 32.6492 7.74194ZM27.0074 7.74194C27.4335 7.84671 27.6785 7.93415 28.0267 8.55489C29.243 10.7945 30.4679 13.2633 31.6582 15.6919C31.8095 15.8179 31.9828 15.8463 32.2317 15.8463C32.4783 15.8463 32.6492 15.8179 32.802 15.6927C33.3771 14.6237 34.8659 11.7547 35.5143 10.6409C36.2626 12.0178 37.5498 14.5308 38.0737 15.6927C38.2233 15.8187 38.3966 15.8463 38.644 15.8463C38.8953 15.8463 39.0702 15.8179 39.2175 15.6927C40.2735 13.3855 41.3858 11.1046 42.5536 8.85187C42.9514 8.0594 43.1231 7.84671 43.9432 7.69388L44.2945 7.63244C44.4907 7.43314 44.4387 6.966 44.2181 6.8762C43.6683 6.91953 43.0254 6.94158 42.3007 6.94158C41.6212 6.93834 40.9419 6.91653 40.2636 6.8762C40.0115 6.966 40.0115 7.47883 40.1643 7.63244L40.5866 7.71358C41.0104 7.80102 41.2073 7.90894 41.2073 8.01844C41.2073 8.1689 41.1325 8.46982 40.986 8.85187C40.5866 9.8468 40.188 10.9016 39.5893 12.147C39.0442 11.1119 38.3494 9.71761 37.9019 8.68408C37.7507 8.32093 37.7011 8.1878 37.7011 8.01844C37.7011 7.90894 38.0469 7.80102 38.6227 7.69388L38.993 7.63244C39.1678 7.545 39.1938 6.9022 38.9189 6.8762C37.3292 6.91953 36.0814 6.94158 34.517 6.94158H29.4927C28.5397 6.94171 27.5868 6.91991 26.6348 6.8762C26.3882 6.98412 26.3882 7.45677 26.5615 7.63244L27.0074 7.74194Z" fill="white"/>
<path d="M48.2995 7.60408C49.7119 7.60408 50.409 9.40645 50.4366 11.4956C50.4579 13.4318 49.9829 14.8285 48.5641 14.8285C47.1281 14.8285 46.3033 13.1695 46.3033 10.915C46.3033 8.5738 47.2037 7.60329 48.2995 7.60329V7.60408ZM48.2995 15.8172C51.3543 15.8172 54.0177 14.3346 54.0177 11.1907C54.0177 8.15944 51.3772 6.6123 48.4452 6.6123C45.5092 6.6123 42.6986 8.3099 42.7222 11.3876C42.7513 14.3527 45.3344 15.8172 48.2995 15.8172Z" fill="white"/>
<path d="M58.2552 8.43436C58.4088 8.43436 58.6293 8.45799 59.1989 8.86447C59.5179 9.12442 59.8173 9.25362 60.1678 9.25362C60.9619 9.25362 61.7614 8.84556 61.7614 7.85536C61.7614 7.04319 61.0651 6.58709 60.3884 6.58709C59.3478 6.58709 58.6293 7.29606 57.9535 7.66C57.7565 7.62061 57.7045 7.55523 57.7045 7.40319C57.7045 7.21098 57.7557 6.91243 57.8014 6.47838C57.7045 6.35076 57.5517 6.28223 57.3603 6.28223C56.5859 6.71864 54.871 7.29606 53.7232 7.57886C53.5499 7.7049 53.5499 8.09247 53.7232 8.22245L54.0777 8.41624C54.548 8.67462 54.548 8.93143 54.548 9.79322V13.0387C54.548 14.5433 54.448 14.7363 53.6264 14.8041L53.1529 14.8435C52.9528 14.9727 52.9528 15.4705 53.1789 15.5997C54.1568 15.5521 55.1358 15.53 56.1149 15.5335C57.2807 15.5335 58.278 15.5525 59.473 15.5989C59.6967 15.4705 59.6967 14.9727 59.4959 14.8435L58.7002 14.7836C57.8794 14.7151 57.7786 14.5426 57.7786 13.0387V9.72784C57.7786 8.91173 57.9046 8.43436 58.256 8.43436" fill="white"/>
<path d="M68.0137 14.773L67.6915 14.8399C67.4898 15.0329 67.5386 15.4819 67.7884 15.5883C68.4847 15.5457 69.3772 15.5253 70.8511 15.5253C72.2927 15.5253 73.2112 15.5457 73.9801 15.5883C74.2298 15.5056 74.281 14.9888 74.0785 14.8399L73.7091 14.7722C73.0639 14.6658 72.592 14.5548 72.2439 14.2798C71.6184 13.7859 69.4292 10.8594 68.9881 10.1717C68.8597 9.99999 68.8069 9.87238 68.8069 9.80542C68.8069 9.7424 68.8329 9.65732 68.955 9.52498C69.3048 9.228 69.6845 8.89951 70.6258 8.2764C71.2946 7.82896 71.8216 7.61469 72.2935 7.52646L73.086 7.37521C73.264 7.20742 73.2396 6.7269 72.9851 6.62291C71.5215 6.81827 69.456 6.92383 68.2854 6.92383H67.6915C67.4433 7.01364 67.4158 7.48313 67.6395 7.67613L68.2634 7.76594C68.4847 7.78327 68.7329 7.86834 68.7329 7.97863C68.7329 8.10782 68.6131 8.34257 68.1373 8.83412L67.0959 9.89443C66.5965 10.3868 66.0742 10.4947 65.6512 10.4947C65.381 10.4947 65.3006 10.4301 65.3006 10.193V3.44277C65.3006 2.08627 65.3322 1.18193 65.381 0.302016C65.2833 0.191731 65.1037 0.152344 64.9556 0.152344C63.6842 0.621054 62.1709 1.14254 61.1524 1.35209C60.9759 1.48443 60.9759 1.87279 61.1524 1.99489L61.5746 2.21546C62.0701 2.47463 62.0701 2.71016 62.0701 3.57511V13.0312C62.0701 14.5358 61.97 14.7084 61.0712 14.7974L60.5986 14.8399C60.4024 14.966 60.4024 15.4622 60.6238 15.5883C61.6351 15.5432 62.6474 15.5222 63.6598 15.5253C64.8052 15.5253 65.8481 15.5457 66.6477 15.5883C66.8683 15.4622 66.8683 14.966 66.6713 14.8399L66.2759 14.7974C65.4015 14.7084 65.3006 14.5351 65.3006 13.0312V11.7866C65.3006 11.3746 65.4267 11.2698 65.5984 11.2698C65.8481 11.2698 66.0482 11.3565 66.2255 11.5865L67.9884 13.9143C68.1877 14.1695 68.4099 14.513 68.4099 14.606C68.4099 14.6855 68.2634 14.7257 68.0137 14.7722" fill="white"/>
</svg>
