<?xml version="1.0" encoding="UTF-8"?> <svg xmlns="http://www.w3.org/2000/svg" xmlns:xlink="http://www.w3.org/1999/xlink" viewBox="0 0 137.61 55.99"><defs><style>.cls-1{fill:none;}.cls-2{isolation:isolate;}.cls-3{fill:#2f0c38;}.cls-4{fill:#f8a619;}.cls-5{opacity:0.1;mix-blend-mode:multiply;}.cls-6{clip-path:url(#clip-path);}.cls-7{fill:#403f41;}.cls-8{clip-path:url(#clip-path-2);}</style><clipPath id="clip-path"><rect class="cls-1" x="21.33" y="27.66" width="7.67" height="3.34"></rect></clipPath><clipPath id="clip-path-2"><rect class="cls-1" x="30.49" y="22.81" width="3.32" height="3.92"></rect></clipPath></defs><g class="cls-2"><g id="NAVIGATION_BAR_-_top" data-name="NAVIGATION BAR - top"><g id="Artwork_6" data-name="Artwork 6"><rect class="cls-3" x="5.8" y="7.46" width="38.16" height="38.16" rx="6.69"></rect><g id="Artwork_4" data-name="Artwork 4"><path class="cls-4" d="M39.06,28.64c-.07-1.05-.56-2.32-3.45-1.5-1.48.42-2.85.44-3.44-.14h0a2.34,2.34,0,0,1-.2-.27c-.22-.45-.12-1.13.44-2.09a1.44,1.44,0,0,1,1.4-.84c.46,0,1,.1,1.63.08,2,0,2.76-1.3,2.68-2.45,0-.35-.48-.24-1.35-.45s-1.57-.1-1.74-1.32a1.8,1.8,0,0,0-1.58-1.29c-.7-.11-2.2-.83-3.31.07l-1-.42c-.65-.16-.6.28-1.22.5s-1.63-.32-1.34.4a2,2,0,0,0,2.35,1c-.69,3.47-4,4.26-6.81,4.15a6.71,6.71,0,0,1-6.44-7c0-1.07-.31-1.38-.64-.82a2.57,2.57,0,0,0-.29.74,1.9,1.9,0,0,0-.09.36A7.18,7.18,0,0,0,17.33,24a3.76,3.76,0,0,0-1.15,2,4,4,0,0,0,0,1.65,1.71,1.71,0,0,0,.06.22C16.44,29,14.3,29.8,13.37,30l-.2,0h-.38l-.41,0c-.56-.05-1,0-1.33,1.43-.5,2-2,1.52-2.33,2.07C8.16,34.32,9,35,10.05,35a2.57,2.57,0,0,0,1.88-.64c1.82-1.64,1-2.37,2.76-2.25l.84.09c2,.26,3.42.68,5.39-1.45a2.48,2.48,0,0,1,.41-.45,1.22,1.22,0,0,1,.35-.2.79.79,0,0,1,.34,0h0c.77.18,2.48,1.12,4.42.8a5.76,5.76,0,0,0,2-1.27h0s.31-.27.51,0,.52.78.81,1.09c.69.75.71.44,2.17-.16l.48-.18c3.81-1.4,3.74-1.84,4.5-.32.13.27.62.3,1.09.11a1.52,1.52,0,0,0,1-1.54"></path><g class="cls-5"><g class="cls-6"><path class="cls-7" d="M27.15,29.33c-1,2-4.52.74-4.6.3s.25-1,0-.75-1,1.13-1.24,1.46a1.22,1.22,0,0,1,.35-.2.79.79,0,0,1,.34,0h0c.77.18,2.48,1.12,4.42.8a5.76,5.76,0,0,0,2-1.27h0s.31-.27.51,0c0,0-.81-1.37-1.15-1.92-.2-.33-.24.66-.7,1.61"></path></g></g><g class="cls-5"><g class="cls-8"><path class="cls-7" d="M31.88,23.12c-.33-.63-1.92-.18-1.2.34,1.89,1.37,0,1.43,1.29,3.27-.22-.45-.12-1.13.44-2.09a1.44,1.44,0,0,1,1.4-.84h0s-1.6-.05-1.93-.68"></path></g></g></g><path class="cls-3" d="M66.32,41.53a1.83,1.83,0,0,1-.36,1.1,2.11,2.11,0,0,1-.93.71l1.59,2.45H65.45L64,43.47H62.28v2.31h-1v-6.2h3a2,2,0,0,1,1,.25,1.94,1.94,0,0,1,.74.68A1.86,1.86,0,0,1,66.32,41.53Zm-2.17-1H62.28v2h2a1.09,1.09,0,0,0,.54-.14A.94.94,0,0,0,65.2,42a1,1,0,0,0,.13-.51.9.9,0,0,0-.16-.53,1.09,1.09,0,0,0-.43-.36A1.45,1.45,0,0,0,64.15,40.51Z"></path><path class="cls-3" d="M70.09,39.58h4.4v.93H71v1.63h3v.92H71v1.8h3.45v.92h-4.4Z"></path><path class="cls-3" d="M86.31,39.58l-2.21,6.2h-.66L81.8,41.94l-1.62,3.84H79.5l-2.1-6.2h1l1.23,3.78c.06.16.1.32.15.48s.08.31.11.45c0-.14.1-.3.16-.45a4.68,4.68,0,0,1,.18-.48l1.13-2.7h.88l1.1,2.7.18.48c0,.16.1.3.15.44,0-.14.08-.3.12-.45s.1-.33.16-.5l1.29-3.75Z"></path><path class="cls-3" d="M93.64,45.78,93,44.28H90l-.65,1.5h-1L91,39.58h1l2.63,6.2ZM91,41.87l-.64,1.49h2.23L92,41.83c-.08-.19-.16-.39-.23-.59l-.24-.64c-.08.23-.16.44-.23.66Z"></path><path class="cls-3" d="M102.8,41.53a1.83,1.83,0,0,1-.36,1.1,2.11,2.11,0,0,1-.93.71l1.59,2.45h-1.18l-1.47-2.31h-1.7v2.31h-1v-6.2h3a2.07,2.07,0,0,1,1.69.93A1.86,1.86,0,0,1,102.8,41.53Zm-2.18-1H98.75v2h2a1.1,1.1,0,0,0,.55-.14,1,1,0,0,0,.36-.38,1,1,0,0,0,.13-.51.9.9,0,0,0-.16-.53,1.17,1.17,0,0,0-.43-.36A1.46,1.46,0,0,0,100.62,40.51Z"></path><path class="cls-3" d="M109.27,39.58a3.55,3.55,0,0,1,1.36.25,2.63,2.63,0,0,1,1,.67,2.8,2.8,0,0,1,.6,1,3.62,3.62,0,0,1,.2,1.19,3.38,3.38,0,0,1-.36,1.56,2.63,2.63,0,0,1-1,1.12,3.31,3.31,0,0,1-1.73.42h-2.71v-6.2Zm0,5.28a2.34,2.34,0,0,0,1.25-.3,1.78,1.78,0,0,0,.71-.78,2.64,2.64,0,0,0,.23-1.1,2.58,2.58,0,0,0-.23-1.08,1.8,1.8,0,0,0-.71-.79,2.36,2.36,0,0,0-1.25-.3h-1.71v4.35Z"></path><path class="cls-3" d="M116,43.9a3.75,3.75,0,0,0,.89.82A2.24,2.24,0,0,0,118,45a2.37,2.37,0,0,0,.7-.1,1.45,1.45,0,0,0,.55-.3.66.66,0,0,0,.21-.5.68.68,0,0,0-.44-.65,4.64,4.64,0,0,0-1.24-.33,3.89,3.89,0,0,1-1.59-.6,1.48,1.48,0,0,1-.59-1.26,1.43,1.43,0,0,1,.33-1,2,2,0,0,1,.86-.61,3.59,3.59,0,0,1,2.6.07,2.3,2.3,0,0,1,.94.8l-.66.69a2,2,0,0,0-.71-.66,2.12,2.12,0,0,0-2,0,.73.73,0,0,0,0,1.31,4.29,4.29,0,0,0,1.1.32,6.11,6.11,0,0,1,.87.19,3.2,3.2,0,0,1,.75.32,1.79,1.79,0,0,1,.53.49,1.22,1.22,0,0,1,.19.7,1.82,1.82,0,0,1-.3,1,2.11,2.11,0,0,1-.88.68,3.36,3.36,0,0,1-1.33.24,3.69,3.69,0,0,1-1.48-.28,3.09,3.09,0,0,1-1.17-.92Z"></path><path class="cls-3" d="M112.09,9.73h4.22V19a10.71,10.71,0,0,1,.64-.88,5.36,5.36,0,0,1,3.22-1.76,7.52,7.52,0,0,1,4.25.39,5.75,5.75,0,0,1,3.32,3.78,10.5,10.5,0,0,1,.43,3.1c0,1.95,0,3.9,0,5.85a3.4,3.4,0,0,0,.11.84.87.87,0,0,0,.88.7c.26,0,.52,0,.8,0a1.38,1.38,0,0,1,0,.22c0,1,0,2,0,3.08,0,.1-.07.27-.14.28a5.82,5.82,0,0,1-4.12-.36A3.51,3.51,0,0,1,124,31.6a8.25,8.25,0,0,1-.13-1.49c0-2,0-4,0-5.94a5.24,5.24,0,0,0-.39-2.11,3.36,3.36,0,0,0-3.45-2,3.82,3.82,0,0,0-3.72,3.9c0,3.4,0,6.81,0,10.21v.42h-4.23Z"></path><path class="cls-3" d="M80.58,23a8.39,8.39,0,0,0-5.3-6.28,9.66,9.66,0,0,0-5.63-.36,8.51,8.51,0,0,0-6.34,5.09,10.79,10.79,0,0,0-.49,7.09,7.89,7.89,0,0,0,3.5,5,10.74,10.74,0,0,0,9.53.94,9.21,9.21,0,0,0,3.76-2.57l-2.54-2.45a18,18,0,0,1-1.63,1.21,6.63,6.63,0,0,1-5.12.57,4.56,4.56,0,0,1-3.08-2.43,4.7,4.7,0,0,1-.5-2.05h14A10.18,10.18,0,0,0,80.58,23Zm-4.13.69H66.86a3,3,0,0,1,.51-1.58,5,5,0,0,1,3.68-2.27,4.9,4.9,0,0,1,3.68.79,3.73,3.73,0,0,1,1.72,2.88Z"></path><path class="cls-3" d="M110,19.16l-.2.22-2.43,2.52a6,6,0,0,0-8.82-.06,6.07,6.07,0,0,0,.26,7.81,6,6,0,0,0,8.55-.35L110,32a9.2,9.2,0,0,1-5.06,2.9,10.08,10.08,0,0,1-8.28-1.79,9,9,0,0,1-3.63-6.5,9.43,9.43,0,0,1,7.66-10.39,10,10,0,0,1,6.71.89A9.66,9.66,0,0,1,110,19.16Z"></path><path class="cls-3" d="M91.54,31.13V35c-.37,0-.76.12-1.15.15a9,9,0,0,1-3.53-.3,4.46,4.46,0,0,1-3.11-3.61,12.42,12.42,0,0,1-.23-2.36c0-2.64,0-5.29,0-7.93v-.39H81.28v-3.9H83.5V9.73h4.3v6.88h4v3.9H87.84c0,.11,0,.19,0,.27,0,2.7,0,5.41,0,8.11a4.16,4.16,0,0,0,.12.93,1.75,1.75,0,0,0,1.75,1.42c.31,0,.61,0,.92,0S91.22,31.17,91.54,31.13Z"></path><path class="cls-3" d="M54.75,29.49a3.48,3.48,0,0,1-.12.84.85.85,0,0,1-.88.69H53a1.38,1.38,0,0,0,0,.22c0,1,0,2,0,3.08,0,.09.07.27.13.28a5.81,5.81,0,0,0,4.12-.37,3.55,3.55,0,0,0,1.7-2.68C59,31.07,59,30,59,30V20.51H62.4v-3.9H59c0-.57,0-1.1,0-1.62a2,2,0,0,1,2.27-2.11c.56,0,1.13,0,1.71.08V9.37l-.12,0a12.47,12.47,0,0,0-3.76,0,4.82,4.82,0,0,0-3.94,3.11,8.06,8.06,0,0,0-.46,2.84v1.31H51.82v3.91h2.93Z"></path><path class="cls-3" d="M131.87,18.31a1.18,1.18,0,1,1-1.16-1.14A1.15,1.15,0,0,1,131.87,18.31Zm-2.06,0a.9.9,0,0,0,.9.92.92.92,0,1,0-.9-.92Zm.71.6h-.27V17.76a4.13,4.13,0,0,1,.44,0,.56.56,0,0,1,.39.09.28.28,0,0,1-.12.51v0c.12,0,.17.12.21.28a1.1,1.1,0,0,0,.08.28H131a1.52,1.52,0,0,1-.09-.28c0-.12-.09-.18-.24-.18h-.12Zm0-.64h.13c.15,0,.27-.05.27-.17s-.08-.18-.25-.18l-.15,0Z"></path></g></g></g></svg> 