<svg width="10" height="22" viewBox="0 0 10 22" fill="none" xmlns="http://www.w3.org/2000/svg">
<path d="M6.34018 5.5C6.72922 5.5 7.04461 5.1922 7.04461 4.8125C7.04461 4.4328 6.72922 4.125 6.34018 4.125C5.95113 4.125 5.63574 4.4328 5.63574 4.8125C5.63574 5.1922 5.95113 5.5 6.34018 5.5Z" fill="#F49A13"/>
<path d="M9.86207 9.625V0.6875C9.86207 0.307313 9.54648 0 9.15764 0H0.704434C0.315586 0 0 0.307313 0 0.6875V9.625C0 12.0477 1.84632 14.0532 4.23787 14.3839C4.23576 14.4024 4.2266 14.4189 4.2266 14.4375V20.0069C3.77929 20.0894 3.41791 20.2324 3.115 20.3596C2.76067 20.5074 2.48101 20.625 2.1133 20.625C1.72445 20.625 1.40887 20.9323 1.40887 21.3125C1.40887 21.6927 1.72445 22 2.1133 22C2.77054 22 3.24885 21.7999 3.6708 21.6226C4.0681 21.4562 4.41116 21.3125 4.93103 21.3125C5.45091 21.3125 5.79397 21.4562 6.19127 21.6226C6.61322 21.7999 7.09153 22 7.74877 22C8.13762 22 8.4532 21.6927 8.4532 21.3125C8.4532 20.9323 8.13762 20.625 7.74877 20.625C7.38105 20.625 7.10139 20.5074 6.74706 20.3589C6.44416 20.2318 6.08278 20.0894 5.63547 20.0069V14.4375C5.63547 14.4189 5.62631 14.4024 5.6242 14.3839C8.01575 14.0532 9.86207 12.0477 9.86207 9.625ZM4.93103 13.0625C2.98891 13.0625 1.40887 11.5204 1.40887 9.625V5.5H4.2266C4.61545 5.5 4.93103 5.19269 4.93103 4.8125C4.93103 4.43231 4.61545 4.125 4.2266 4.125H1.40887V1.375H8.4532V9.625C8.4532 11.5204 6.87316 13.0625 4.93103 13.0625Z" fill="#F49A13"/>
</svg>
