<svg width="14" height="22" viewBox="0 0 14 22" fill="none" xmlns="http://www.w3.org/2000/svg">
<path d="M11.6686 6.15721C10.0026 3.33354 7.4518 0.352356 7.34392 0.226478C7.08447 -0.0754926 6.57034 -0.0754926 6.31089 0.226478C6.20369 0.351668 3.65284 3.33285 1.98687 6.15721C0.225998 9.14114 0 13.1864 0 16.3774C0 21.2626 1.53761 22 6.82775 22C12.1179 22 13.6555 21.2626 13.6555 16.3774C13.6555 13.1864 13.4295 9.14114 11.6686 6.15721ZM6.82775 20.6243C1.92679 20.6243 1.36555 20.1875 1.36555 16.3774C1.36555 13.5978 1.55126 9.58619 3.15988 6.85951C4.32538 4.88535 5.9934 2.76812 6.82775 1.74734C7.6621 2.76812 9.33011 4.88535 10.4956 6.8602C12.1042 9.58619 12.2899 13.5978 12.2899 16.3774C12.2899 20.1875 11.7287 20.6243 6.82775 20.6243Z" fill="#F49A13"/>
<path d="M7.84186 18.6462C6.3575 17.818 4.77961 15.3356 4.77961 12.3695C4.77961 11.9891 4.47373 11.6816 4.09684 11.6816C3.71995 11.6816 3.41406 11.9891 3.41406 12.3695C3.41406 15.9003 5.30808 18.8044 7.17956 19.85C7.28471 19.9084 7.39805 19.936 7.51003 19.936C7.75036 19.936 7.98319 19.808 8.10745 19.581C8.29112 19.2495 8.17164 18.8306 7.84186 18.6462Z" fill="#F49A13"/>
<path d="M6.82795 5.49108C6.82795 5.1107 6.52207 4.80322 6.14518 4.80322C5.76829 4.80322 5.4624 5.1107 5.4624 5.49108C5.4624 8.95721 6.45038 12.1867 8.3205 14.8322C8.45364 15.0207 8.66393 15.1211 8.87696 15.1211C9.0142 15.1211 9.15212 15.0792 9.27228 14.9932C9.57953 14.7731 9.65122 14.3438 9.43205 14.0336C7.70395 11.589 6.82795 8.71439 6.82795 5.49108Z" fill="#F49A13"/>
<path d="M4.09684 10.994C4.47373 10.994 4.77961 10.6865 4.77961 10.3061V8.24255C4.77961 7.86216 4.47373 7.55469 4.09684 7.55469C3.71995 7.55469 3.41406 7.86216 3.41406 8.24255V10.3061C3.41406 10.6865 3.71995 10.994 4.09684 10.994Z" fill="#F49A13"/>
<path d="M9.75882 15.3228C9.49185 15.5918 9.49185 16.0265 9.75882 16.2954L10.4416 16.9833C10.5747 17.1174 10.7495 17.1848 10.9243 17.1848C11.0991 17.1848 11.2739 17.1174 11.407 16.9833C11.674 16.7143 11.674 16.2796 11.407 16.0107L10.7243 15.3228C10.4573 15.0539 10.0258 15.0539 9.75882 15.3228Z" fill="#F49A13"/>
</svg>
