<svg width="29" height="22" viewBox="0 0 29 22" fill="none" xmlns="http://www.w3.org/2000/svg">
<path d="M23.5625 17.4168C24.063 17.4168 24.4688 17.0064 24.4688 16.5002C24.4688 15.9939 24.063 15.5835 23.5625 15.5835C23.062 15.5835 22.6562 15.9939 22.6562 16.5002C22.6562 17.0064 23.062 17.4168 23.5625 17.4168Z" fill="#F49A13"/>
<path d="M23.5624 14.6664C24.0626 14.6664 24.4686 14.2567 24.4686 13.7498C24.4686 12.0338 23.6793 10.4333 22.3036 9.35803C21.9085 9.04911 21.3393 9.12244 21.0321 9.52303C20.7267 9.92361 20.7992 10.4993 21.1953 10.8082C22.1242 11.5342 22.6561 12.6058 22.6561 13.7498C22.6561 14.2567 23.0621 14.6664 23.5624 14.6664Z" fill="#F49A13"/>
<path d="M28.0938 20.1667H27.5899C27.9016 19.6249 28.0938 19.0043 28.0938 18.3333V16.1801C28.0938 11.4501 26.3229 7.65967 23.2362 5.78233C20.2873 3.9875 16.5454 4.08008 12.6512 6.02708L12.0685 5.43767C11.262 4.62092 10.1899 4.17175 9.04891 4.17175C8.51422 4.17175 7.99675 4.279 7.51191 4.46875L6.98538 3.93617C7.15847 3.57133 7.25 3.168 7.25 2.75C7.25 1.23383 6.03019 0 4.53125 0C3.306 0 2.26834 0.823167 1.92941 1.95158C0.813812 2.29442 0 3.344 0 4.58333C0 6.0995 1.21981 7.33333 2.71875 7.33333C3.132 7.33333 3.53075 7.24075 3.89144 7.06567L4.57022 7.75225C4.47597 8.11342 4.40981 8.48283 4.40981 8.866C4.40981 10.0192 4.85387 11.1036 5.66044 11.9203L6.15253 12.419C5.09856 14.3422 4.53125 15.9564 4.53125 18.3333C4.53125 19.0043 4.72338 19.6249 5.03513 20.1667H0.90625C0.406 20.1667 0 20.5764 0 21.0833C0 21.5903 0.406 22 0.90625 22H8.15625H24.4688H28.0938C28.594 22 29 21.5903 29 21.0833C29 20.5764 28.594 20.1667 28.0938 20.1667ZM5.44656 6.04542L4.64091 5.23142C4.47144 5.06 4.24034 4.96283 4.00019 4.96283C3.76003 4.96283 3.52894 5.05908 3.35947 5.23142C3.18819 5.40467 2.96072 5.5 2.71875 5.5C2.21941 5.5 1.8125 5.08933 1.8125 4.58333C1.8125 4.07733 2.21941 3.66667 2.71875 3.66667C3.219 3.66667 3.625 3.25692 3.625 2.75C3.625 2.244 4.03191 1.83333 4.53125 1.83333C5.03059 1.83333 5.4375 2.244 5.4375 2.75C5.4375 2.99567 5.34325 3.22575 5.17288 3.39717C5.0025 3.5695 4.90644 3.80142 4.90644 4.04525C4.90644 4.28908 5.00159 4.52283 5.17197 4.69425L5.96856 5.5L5.66044 5.81167C5.58975 5.88317 5.53719 5.9675 5.47194 6.04358C5.46378 6.0445 5.45019 6.04083 5.44656 6.04542ZM8.15625 20.1667C7.15666 20.1667 6.34375 19.3444 6.34375 18.3333C6.34375 16.0985 6.89928 14.7455 8.06562 12.7279C8.27316 12.3677 8.21606 11.9112 7.92425 11.6169L6.94187 10.6242C6.47787 10.1539 6.22231 9.53058 6.22231 8.866C6.22231 8.20142 6.47787 7.57808 6.94187 7.10783L7.31072 6.73475C7.77563 6.2645 8.39278 6.006 9.04891 6.006C9.70503 6.006 10.3231 6.2645 10.7871 6.73475L14.1112 10.098C14.6106 10.6031 14.6106 11.4244 14.1112 11.9304C13.7578 12.2888 13.7578 12.8691 14.1121 13.2266C14.2888 13.4053 14.5208 13.4952 14.7528 13.4952C14.9848 13.4952 15.2168 13.4053 15.3945 13.2266C16.5998 12.0056 16.5998 10.021 15.3945 8.80183L14.0233 7.41492C17.1318 6.017 20.0408 5.97942 22.3028 7.35442C24.8303 8.89167 26.2812 12.1092 26.2812 16.1801V18.3333C26.2812 19.3444 25.4683 20.1667 24.4688 20.1667H8.15625Z" fill="#F49A13"/>
</svg>
