<svg width="14" height="22" viewBox="0 0 14 22" fill="none" xmlns="http://www.w3.org/2000/svg">
<path d="M8.19344 6.1875C8.19344 5.80731 7.88824 5.5 7.51068 5.5H6.14516C5.7676 5.5 5.4624 5.80731 5.4624 6.1875C5.4624 6.56769 5.7676 6.875 6.14516 6.875H7.51068C7.88824 6.875 8.19344 6.56769 8.19344 6.1875Z" fill="#F49A13"/>
<path d="M12.9724 6.1875H11.6069V4.8125C11.6069 2.15944 9.46235 0 6.82759 0C4.19282 0 2.04828 2.15944 2.04828 4.8125V6.1875H0.682759C0.305193 6.1875 0 6.49481 0 6.875V15.8125C0 19.2246 2.7563 22 6.14483 22H7.51034C10.8989 22 13.6552 19.2246 13.6552 15.8125V6.875C13.6552 6.49481 13.35 6.1875 12.9724 6.1875ZM3.41379 5.5C3.79068 5.5 4.09655 5.192 4.09655 4.8125C4.09655 4.45706 3.82481 4.1745 3.48139 4.13875C3.52986 3.894 3.60565 3.66025 3.70328 3.4375H6.14483C6.52239 3.4375 6.82759 3.13019 6.82759 2.75C6.82759 2.36981 6.52239 2.0625 6.14483 2.0625H4.80048C5.36921 1.63625 6.06563 1.375 6.82759 1.375C8.22383 1.375 9.42344 2.22544 9.95189 3.4375H8.1931C7.81554 3.4375 7.51034 3.74481 7.51034 4.125C7.51034 4.50519 7.81554 4.8125 8.1931 4.8125H10.2414V7.5625H9.55862C9.18106 7.5625 8.87586 7.86981 8.87586 8.25C8.87586 8.63019 9.18106 8.9375 9.55862 8.9375H10.2414V15.125C10.2414 16.5303 9.39544 17.7334 8.1931 18.2655V12.375C8.1931 12.1426 8.17808 11.9137 8.15282 11.6875H8.87586C9.25343 11.6875 9.55862 11.3802 9.55862 11C9.55862 10.6198 9.25343 10.3125 8.87586 10.3125H7.83466C7.13756 8.33525 5.47299 6.82 3.41379 6.347V5.5ZM1.36552 15.8125V7.5625H2.04828C4.68304 7.5625 6.82759 9.72194 6.82759 12.375V20.625H6.14483C3.51006 20.625 1.36552 18.4656 1.36552 15.8125ZM12.2897 15.8125C12.2897 18.2318 10.5049 20.2345 8.1931 20.57V19.7264C10.1635 19.1331 11.6069 17.2996 11.6069 15.125V7.5625H12.2897V15.8125Z" fill="#F49A13"/>
</svg>
