<svg width="22" height="22" viewBox="0 0 22 22" fill="none" xmlns="http://www.w3.org/2000/svg">
<path d="M14.4375 4.125H9.4985C9.21387 3.32681 8.45763 2.75 7.5625 2.75C6.66738 2.75 5.91113 3.32681 5.6265 4.125H2.75C1.99169 4.125 1.375 3.50831 1.375 2.75C1.375 1.99169 1.99169 1.375 2.75 1.375H12.375C12.7552 1.375 13.0625 1.067 13.0625 0.6875C13.0625 0.308 12.7552 0 12.375 0H2.75C1.23337 0 0 1.23337 0 2.75C0 4.26662 1.23337 5.5 2.75 5.5H5.6265C5.91113 6.29819 6.66738 6.875 7.5625 6.875C8.45763 6.875 9.21387 6.29819 9.4985 5.5H13.0625V10.3125H8.9375C7.86088 10.3125 7.04756 9.75838 6.45356 8.61987C5.62306 7.02831 4.34225 6.1875 2.75 6.1875C2.36981 6.1875 2.0625 6.4955 2.0625 6.875C2.0625 7.2545 2.36981 7.5625 2.75 7.5625C3.82731 7.5625 4.63994 8.11662 5.23394 9.25581C6.06444 10.846 7.34525 11.6875 8.9375 11.6875H13.75C14.8871 11.6875 15.8125 12.6129 15.8125 13.75C15.8125 14.8871 14.8871 15.8125 13.75 15.8125H8.9375C8.55731 15.8125 8.25 16.1198 8.25 16.5C8.25 19.3854 9.33075 21.2231 11.4627 21.9622C11.5356 21.9869 11.6119 22 11.6875 22C11.7934 22 11.8999 21.9753 11.9962 21.9271C12.1619 21.8439 12.287 21.6968 12.3427 21.5194C12.8789 19.8227 13.4076 19.25 14.4375 19.25C18.6072 19.25 22 15.8572 22 11.6875C22 7.51781 18.6072 4.125 14.4375 4.125ZM7.5625 5.5C7.183 5.5 6.875 5.19131 6.875 4.8125C6.875 4.43369 7.183 4.125 7.5625 4.125C7.942 4.125 8.25 4.43369 8.25 4.8125C8.25 5.19131 7.942 5.5 7.5625 5.5ZM14.4375 10.3819V5.5C17.1572 5.5 19.4673 7.2655 20.295 9.70887L16.4402 11.6359C15.9459 11.0082 15.2487 10.5476 14.4375 10.3819ZM11.2853 20.3775C10.2939 19.7979 9.76319 18.7619 9.64838 17.1875H13.75C14.8301 17.1875 15.7843 16.6767 16.4147 15.8943L17.8441 16.8472C16.8664 17.4955 15.6963 17.875 14.4375 17.875C12.6493 17.875 11.8195 19.0046 11.2853 20.3775ZM18.9358 15.9225L17.0479 14.6637C17.1298 14.3715 17.1875 14.069 17.1875 13.75C17.1875 13.442 17.1339 13.1491 17.0576 12.8652L20.5954 11.0962C20.6133 11.2908 20.625 11.4881 20.625 11.6875C20.625 13.3265 19.9801 14.8149 18.9358 15.9225Z" fill="#F49A13"/>
</svg>
