<svg width="16" height="22" viewBox="0 0 16 22" fill="none" xmlns="http://www.w3.org/2000/svg">
<path d="M15.8354 7.909L13.0345 3.25531V0.6875C13.0345 0.308 12.7101 0 12.3103 0H4.34483C3.9451 0 3.62069 0.308 3.62069 0.6875V3.2175L0.13469 7.85056C0.114414 7.87737 0.104276 7.909 0.0883448 7.93787C0.0753103 7.96125 0.0615517 7.98256 0.0514138 8.008C0.0202759 8.08569 0 8.16613 0 8.25V21.3125C0 21.6927 0.324414 22 0.724138 22H15.2069C15.6066 22 15.931 21.6927 15.931 21.3125V8.25C15.931 8.13037 15.8984 8.01281 15.8354 7.909ZM11.5862 1.375V2.75H5.06897V1.375H11.5862ZM1.44828 20.625V8.9375H5.7931C6.19283 8.9375 6.51724 8.6295 6.51724 8.25C6.51724 7.8705 6.19283 7.5625 5.7931 7.5625H2.13114L4.71776 4.125H11.0627L8.78524 7.909C8.72224 8.01281 8.68966 8.13037 8.68966 8.25V20.625H1.44828ZM14.4828 20.625H10.1379V8.43287L12.3103 4.8235L14.4828 8.43287V20.625Z" fill="#F49A13"/>
</svg>
