<svg width="15" height="22" viewBox="0 0 15 22" fill="none" xmlns="http://www.w3.org/2000/svg">
<path d="M14.91 7.909L12.2727 3.25531V0.6875C12.2727 0.308 11.9673 0 11.5909 0H4.09091C3.71455 0 3.40909 0.308 3.40909 0.6875V3.2175L0.126818 7.85056C0.107727 7.87737 0.0981818 7.909 0.0831818 7.93787C0.0709091 7.96125 0.0579545 7.98256 0.0484091 8.008C0.0190909 8.08569 0 8.16613 0 8.25V21.3125C0 21.6927 0.305455 22 0.681818 22H14.3182C14.6945 22 15 21.6927 15 21.3125V8.25C15 8.13037 14.9693 8.01281 14.91 7.909ZM10.9091 1.375V2.75H4.77273V1.375H10.9091ZM1.36364 20.625V8.9375H5.45455C5.83091 8.9375 6.13636 8.6295 6.13636 8.25C6.13636 7.8705 5.83091 7.5625 5.45455 7.5625H2.00659L4.44205 4.125H10.4161L8.27182 7.909C8.2125 8.01281 8.18182 8.13037 8.18182 8.25V20.625H1.36364ZM13.6364 20.625H9.54545V8.43287L11.5909 4.8235L13.6364 8.43287V20.625Z" fill="#F49A13"/>
</svg>
