<svg width="17" height="22" viewBox="0 0 17 22" fill="none" xmlns="http://www.w3.org/2000/svg">
<path d="M14.4226 4.78981C12.7579 1.70156 10.6 0 8.34483 0C6.08964 0 3.9318 1.70156 2.26701 4.78981C0.869253 7.38581 0 10.6872 0 13.4062C0 18.6271 3.27535 22 8.34483 22C13.4143 22 16.6897 18.6271 16.6897 13.4062C16.6897 10.6872 15.8204 7.38581 14.4226 4.78981ZM8.34483 20.625C3.21763 20.625 1.3908 16.896 1.3908 13.4062C1.3908 8.65494 4.50621 1.375 8.34483 1.375C12.1834 1.375 15.2989 8.65494 15.2989 13.4062C15.2989 16.896 13.472 20.625 8.34483 20.625Z" fill="#F49A13"/>
<path d="M8.34487 8.9375C5.66061 8.9375 3.47705 11.0969 3.47705 13.75C3.47705 16.4031 5.66061 18.5625 8.34487 18.5625C11.0291 18.5625 13.2127 16.4031 13.2127 13.75C13.2127 11.0969 11.0291 8.9375 8.34487 8.9375ZM8.34487 17.1875C6.42764 17.1875 4.86786 15.6454 4.86786 13.75C4.86786 11.8546 6.42764 10.3125 8.34487 10.3125C10.2621 10.3125 11.8219 11.8546 11.8219 13.75C11.8219 15.6454 10.2621 17.1875 8.34487 17.1875Z" fill="#F49A13"/>
</svg>
