<svg width="30" height="22" viewBox="0 0 30 22" fill="none" xmlns="http://www.w3.org/2000/svg">
<path d="M5.43799 12.8333C5.9385 12.8333 6.34424 12.4229 6.34424 11.9167C6.34424 11.4104 5.9385 11 5.43799 11C4.93748 11 4.53174 11.4104 4.53174 11.9167C4.53174 12.4229 4.93748 12.8333 5.43799 12.8333Z" fill="#F49A13"/>
<path d="M27.4419 11.2856C28.4805 10.1864 28.9908 8.59503 29.0017 6.42152C29.0026 6.17676 28.9074 5.94208 28.7361 5.76882C28.5648 5.59557 28.3355 5.45806 28.0899 5.50023C26.0154 5.51031 24.0696 6.54894 22.8915 8.29526C21.1206 6.33443 18.3618 5.08404 16.7822 4.48635C16.8384 3.46789 17.0233 2.28351 17.3051 1.13946C17.3731 0.865369 17.3124 0.573857 17.1393 0.351098C16.9671 0.129255 16.7042 0 16.426 0C16.4242 0 16.4233 0 16.4215 0C13.0682 0.0165007 10.6212 2.46135 9.94968 3.2103C9.29806 3.94091 8.641 4.44418 7.94407 4.74853C4.73581 6.15017 1.89006 8.58677 0.137303 11.4322C-0.0457675 11.7292 -0.0457675 12.1051 0.137303 12.403C1.03271 13.8569 2.11482 15.1568 3.351 16.2688C3.72439 16.6061 4.29716 16.5722 4.62977 16.1927C4.96238 15.815 4.92885 15.2356 4.55455 14.8992C3.58845 14.0293 2.72566 13.0291 1.98794 11.9199C3.56579 9.59057 5.97017 7.60865 8.66275 6.43252C9.58988 6.02825 10.4762 5.35814 11.2946 4.44143C12.2045 3.42573 13.651 2.34951 15.2714 1.97367C15.0648 3.09296 14.9506 4.19667 14.9506 5.12621C14.9506 5.51948 15.198 5.86874 15.5669 5.99433C16.7813 6.4096 19.7956 7.58573 21.5529 9.5319C21.9208 9.93891 22.4401 10.1488 22.9948 10.1149C23.5531 10.0764 24.057 9.78766 24.3769 9.32106C25.0367 8.3576 26.0254 7.6939 27.132 7.44364C27.006 8.58311 26.6716 9.44573 26.1314 10.0178C25.1073 11.1013 25.1073 12.7339 26.1314 13.8175C26.6725 14.3886 27.0069 15.2521 27.132 16.3916C26.0209 16.1413 25.0294 15.4731 24.3696 14.5041C24.0551 14.0412 23.5585 13.7552 23.0084 13.7167C22.4528 13.6827 21.9308 13.8927 21.5565 14.3061C20.0412 15.9846 17.1456 17.202 16.194 17.6026C15.9556 17.7025 15.7708 17.9005 15.6856 18.1471C15.6004 18.3937 15.6239 18.6641 15.7472 18.8924C15.9448 19.2536 16.0916 19.6404 16.1858 20.0419C15.2922 19.8237 14.4721 19.3324 13.8467 18.6229C13.6655 18.4166 13.4017 18.3075 13.1271 18.3176L13.0238 18.3231C11.4487 18.4065 9.76027 18.0133 8.12351 17.2625C9.94062 15.7215 10.9883 13.4756 10.9883 11.0005C10.9883 10.4935 10.5832 10.0838 10.082 10.0838C9.58082 10.0838 9.17571 10.4935 9.17571 11.0005C9.17571 13.3472 7.9631 15.4281 5.93211 16.5685C5.64844 16.728 5.4699 17.0287 5.46537 17.3569C5.46084 17.686 5.63122 17.9912 5.91126 18.159C8.07729 19.4516 10.4808 20.1648 12.6794 20.1666C12.7202 20.1666 12.761 20.1657 12.8027 20.1648C13.9808 21.3281 15.5659 21.9917 17.2145 22C17.2163 22 17.2172 22 17.219 22C17.4592 22 17.6903 21.9037 17.8598 21.7314C18.0301 21.5591 18.1262 21.3235 18.1253 21.0787C18.1217 20.3417 17.993 19.6111 17.7465 18.9217C19.4521 18.1553 21.5311 17.0489 22.877 15.5409C24.0597 17.279 26.0082 18.3222 28.0899 18.3323C28.3355 18.3341 28.5639 18.2369 28.7352 18.0637C28.9065 17.8904 29.0017 17.6557 29.0008 17.411C28.9899 15.2375 28.4805 13.647 27.441 12.5469C27.0948 12.183 27.0948 11.6513 27.4419 11.2856Z" fill="#F49A13"/>
</svg>
