<svg width="14" height="22" viewBox="0 0 14 22" fill="none" xmlns="http://www.w3.org/2000/svg">
<path d="M9.05695 5.5C9.05695 4.3615 8.55048 3.26769 7.66362 2.44544V0.6875C7.66362 0.308 7.35151 0 6.96695 0C6.58239 0 6.27029 0.308 6.27029 0.6875V2.44544C5.38343 3.26769 4.87695 4.36219 4.87695 5.5C4.87695 6.74575 5.47887 7.94269 6.52805 8.7835C6.65554 8.88594 6.8116 8.9375 6.96695 8.9375C7.12231 8.9375 7.27836 8.88594 7.40585 8.7835C8.45503 7.94269 9.05695 6.74575 9.05695 5.5ZM6.96695 7.29644C6.51412 6.776 6.27029 6.15519 6.27029 5.5C6.27029 4.84481 6.51412 4.22331 6.96695 3.70356C7.41979 4.224 7.66362 4.8455 7.66362 5.5C7.66362 6.15519 7.41979 6.776 6.96695 7.29644Z" fill="#F49A13"/>
<path d="M12.7445 16.7015L12.2443 17.1951C10.9819 17.1552 9.83034 17.5093 8.97066 18.216C8.00508 19.0108 7.53901 20.1637 7.69297 21.3778C7.73338 21.6996 7.99672 21.9498 8.32415 21.978C8.49901 21.9932 8.67248 22 8.84386 22C10.0324 22 11.1129 21.6425 11.9294 20.9708C12.8002 20.2545 13.26 19.2473 13.2308 18.1652L13.7296 17.6729C14.002 17.4041 14.002 16.9696 13.7296 16.7008C13.4572 16.432 13.0169 16.4327 12.7445 16.7015ZM11.0377 19.9155C10.534 20.3294 9.84149 20.5742 9.07864 20.6175C9.15388 20.0998 9.4221 19.635 9.86239 19.272C10.3661 18.8582 11.0586 18.6134 11.8214 18.5701C11.7469 19.0878 11.4787 19.5525 11.0377 19.9155Z" fill="#F49A13"/>
<path d="M12.7445 11.889L12.2443 12.3826C10.9819 12.342 9.83034 12.6975 8.97066 13.4035C8.00508 14.1983 7.53901 15.3512 7.69297 16.5653C7.73338 16.8871 7.99672 17.1373 8.32415 17.1655C8.49901 17.1807 8.67248 17.1875 8.84386 17.1875C10.0324 17.1875 11.1129 16.83 11.9294 16.1583C12.8002 15.442 13.26 14.4348 13.2308 13.3527L13.7296 12.8604C14.002 12.5916 14.002 12.1571 13.7296 11.8883C13.4572 11.6195 13.0169 11.6202 12.7445 11.889ZM11.0377 15.103C10.534 15.5169 9.84149 15.7617 9.07864 15.805C9.15388 15.2873 9.4221 14.8225 9.86239 14.4595C10.3661 14.0457 11.0586 13.8009 11.8214 13.7576C11.7469 14.2753 11.4787 14.74 11.0377 15.103Z" fill="#F49A13"/>
<path d="M4.96302 18.2162C4.10473 17.5101 2.95035 17.156 1.69008 17.1952L1.18987 16.7016C0.917476 16.4328 0.477182 16.4328 0.204786 16.7016C-0.0676109 16.9704 -0.0676109 17.4049 0.204786 17.6737L0.703599 18.166C0.673642 19.2481 1.13344 20.2553 2.00497 20.9717C2.82007 21.6427 3.9013 22.0002 5.08981 22.0002C5.26119 22.0002 5.43536 21.9926 5.61022 21.9775C5.93766 21.9493 6.20099 21.6997 6.2414 21.3773C6.39467 20.1639 5.9286 19.0109 4.96302 18.2162ZM2.89601 19.9157C2.45502 19.5534 2.1868 19.0879 2.11226 18.5702C2.87511 18.6135 3.5676 18.8583 4.07129 19.2722C4.51228 19.6352 4.78049 20.0999 4.85573 20.6176C4.09219 20.5743 3.3997 20.3295 2.89601 19.9157Z" fill="#F49A13"/>
<path d="M4.96323 13.4037C4.10493 12.6976 2.95056 12.3429 1.68959 12.3827L1.18938 11.8891C0.916988 11.6203 0.476694 11.6203 0.204298 11.8891C-0.0680992 12.1579 -0.0680992 12.5924 0.204298 12.8612L0.703111 13.3535C0.673154 14.4356 1.13295 15.4428 2.00448 16.1592C2.82028 16.8302 3.90151 17.1877 5.09002 17.1877C5.2614 17.1877 5.43557 17.1801 5.61043 17.165C5.93786 17.1368 6.2012 16.8872 6.24161 16.5648C6.39488 15.3514 5.92881 14.1984 4.96323 13.4037ZM2.89622 15.1032C2.45523 14.7409 2.18701 14.2754 2.11247 13.7577C2.87532 13.801 3.5678 14.0458 4.07149 14.4597C4.51248 14.8227 4.7807 15.2874 4.85594 15.8051C4.09239 15.7618 3.39991 15.517 2.89622 15.1032Z" fill="#F49A13"/>
<path d="M4.96305 8.591C4.11242 7.89113 2.97128 7.53775 1.72495 7.56869C1.51455 7.28612 1.39333 6.94375 1.39333 6.59106V2.0625C1.39333 1.683 1.08123 1.375 0.696667 1.375C0.312107 1.375 0 1.683 0 2.0625V6.59106C0 7.2875 0.261947 7.96263 0.705723 8.50025C0.663227 9.5975 1.12233 10.6212 2.00431 11.3458C2.82011 12.0175 3.90133 12.375 5.08985 12.375C5.26123 12.375 5.43539 12.3674 5.61026 12.3523C5.93769 12.3241 6.20103 12.0746 6.24144 11.7521C6.3947 10.5387 5.92863 9.38575 4.96305 8.591ZM2.89604 10.2905C2.45505 9.92819 2.18684 9.46275 2.11229 8.94506C2.87514 8.98837 3.56763 9.23312 4.07132 9.647C4.51231 10.01 4.78053 10.4748 4.85577 10.9924C4.09222 10.9491 3.39973 10.7044 2.89604 10.2905Z" fill="#F49A13"/>
<path d="M13.237 1.375C12.8525 1.375 12.5404 1.683 12.5404 2.0625V6.59106C12.5404 6.94306 12.4192 7.28612 12.2095 7.56869C10.961 7.53706 9.82199 7.89113 8.97066 8.591C8.00508 9.38575 7.53901 10.5387 7.69297 11.7528C7.73338 12.0746 7.99672 12.3248 8.32415 12.353C8.49901 12.3681 8.67248 12.375 8.84386 12.375C10.0324 12.375 11.1129 12.0175 11.9294 11.3458C12.8114 10.6212 13.2705 9.59681 13.228 8.50025C13.6718 7.96263 13.9337 7.28819 13.9337 6.59106V2.0625C13.9337 1.683 13.6216 1.375 13.237 1.375ZM11.0377 10.2905C10.534 10.7044 9.84149 10.9491 9.07864 10.9924C9.15388 10.4748 9.4221 10.01 9.86239 9.647C10.3661 9.23312 11.0586 8.98837 11.8214 8.94506C11.7469 9.46275 11.4787 9.9275 11.0377 10.2905Z" fill="#F49A13"/>
<path d="M10.4501 6.1875C10.8346 6.1875 11.1468 5.8795 11.1468 5.5V1.375C11.1468 0.9955 10.8346 0.6875 10.4501 0.6875C10.0655 0.6875 9.75342 0.9955 9.75342 1.375V5.5C9.75342 5.8795 10.0655 6.1875 10.4501 6.1875Z" fill="#F49A13"/>
<path d="M3.48378 6.1875C3.86834 6.1875 4.18044 5.8795 4.18044 5.5V1.375C4.18044 0.9955 3.86834 0.6875 3.48378 0.6875C3.09922 0.6875 2.78711 0.9955 2.78711 1.375V5.5C2.78711 5.8795 3.09922 6.1875 3.48378 6.1875Z" fill="#F49A13"/>
</svg>
