<svg width="19" height="22" viewBox="0 0 19 22" fill="none" xmlns="http://www.w3.org/2000/svg">
<path d="M17.3079 9.59888C16.2727 8.27063 14.2128 7.238 12.4417 6.54225V4.8125C12.4417 4.70181 12.4109 4.60075 12.3664 4.50794C12.149 3.54888 11.4569 2.76031 10.5376 2.35606C10.7007 1.79094 11.1957 1.375 11.7863 1.375C12.1484 1.375 12.441 1.06769 12.441 0.6875C12.441 0.307313 12.1484 0 11.7863 0C10.5658 0 9.54633 0.884125 9.25627 2.07144C9.22615 2.07006 9.19734 2.0625 9.16657 2.0625C9.13579 2.0625 9.10698 2.07006 9.07621 2.07144C8.78615 0.884125 7.76669 0 6.54621 0C6.18413 0 5.89145 0.307313 5.89145 0.6875C5.89145 1.06769 6.18413 1.375 6.54621 1.375C7.13746 1.375 7.63246 1.79094 7.79484 2.35606C6.87555 2.75962 6.18347 3.54888 5.96609 4.50794C5.92157 4.60075 5.89079 4.70181 5.89079 4.8125V6.54225C4.11966 7.238 2.05978 8.27063 1.02526 9.59888C-0.432898 11.4709 -0.322244 14.1646 1.27145 15.6028C1.9177 16.1879 2.73484 16.5 3.60109 16.5C3.71174 16.5 3.82371 16.4945 3.93567 16.4849C4.31085 16.4505 4.68014 16.3536 5.03502 16.2085C5.40168 18.1143 6.70335 19.7326 8.51115 20.4366V21.3125C8.51115 21.6927 8.80383 22 9.16591 22C9.52799 22 9.82067 21.6927 9.82067 21.3125V20.4366C11.6272 19.7326 12.9288 18.1143 13.2968 16.2085C13.6517 16.3536 14.0216 16.4505 14.3975 16.4849C14.5094 16.4945 14.6207 16.5 14.7314 16.5C15.5976 16.5 16.4141 16.1879 17.061 15.6028C18.6554 14.1646 18.766 11.4709 17.3079 9.59888ZM7.20097 5.15625C7.20097 4.20819 8.08294 3.4375 9.16657 3.4375C10.2502 3.4375 11.1315 4.20819 11.1315 5.15625V6.06444C10.1336 5.72894 9.40228 5.53988 9.31913 5.51856C9.29163 5.51169 9.26347 5.51169 9.23597 5.50894C9.21305 5.50619 9.19079 5.50138 9.16722 5.50069C9.13776 5.50069 9.1096 5.50688 9.08079 5.51031C9.05853 5.51375 9.03561 5.51306 9.01335 5.51856C8.9302 5.53988 8.19883 5.72825 7.20097 6.06444V5.15625ZM9.16657 9.27025C9.48085 10.4775 9.91038 11.8628 10.4597 13.0625H7.87341C8.42276 11.8628 8.85163 10.4775 9.16657 9.27025ZM3.82109 15.1147C3.18466 15.1752 2.5849 14.9758 2.12591 14.5606C1.06651 13.6029 1.02722 11.7679 2.03948 10.4686C3.29663 8.855 6.62936 7.66425 8.31472 7.14381C7.94936 8.89213 7.10669 12.3179 5.83841 13.9473C5.31395 14.6197 4.5793 15.0453 3.82109 15.1147ZM9.16657 19.2211C8.11567 18.8712 7.26776 18.1266 6.75442 17.1875H11.5767C11.0634 18.1273 10.2155 18.8719 9.16657 19.2211ZM12.058 15.8125H6.27448C6.2555 15.697 6.25549 15.5774 6.24567 15.4598C6.46436 15.2687 6.66799 15.0535 6.85264 14.817C6.9443 14.6994 7.03139 14.5681 7.11913 14.4368H11.214C11.3011 14.5681 11.3888 14.6994 11.4805 14.817C11.6645 15.0535 11.8681 15.268 12.0868 15.4591C12.077 15.5774 12.077 15.697 12.058 15.8125ZM16.2066 14.5613C15.7469 14.9765 15.1426 15.1738 14.5114 15.1154C13.7532 15.0452 13.0185 14.6197 12.4947 13.948C11.2251 12.3186 10.3825 8.888 10.0178 7.14175C11.9467 7.73712 15.1184 8.96156 16.293 10.4699C17.3059 11.7686 17.2666 13.6036 16.2066 14.5613Z" fill="#F49A13"/>
</svg>
