<svg width="20" height="22" viewBox="0 0 20 22" fill="none" xmlns="http://www.w3.org/2000/svg">
<path d="M18.8813 9.59888C17.752 8.27063 15.5049 7.238 13.5727 6.54225V4.8125C13.5727 4.70181 13.5392 4.60075 13.4906 4.50794C13.2535 3.54888 12.4985 2.76031 11.4956 2.35606C11.6735 1.79094 12.2135 1.375 12.8577 1.375C13.2527 1.375 13.572 1.06769 13.572 0.6875C13.572 0.307313 13.2527 0 12.8577 0C11.5263 0 10.4142 0.884125 10.0977 2.07144C10.0649 2.07006 10.0335 2.0625 9.99989 2.0625C9.96632 2.0625 9.93489 2.07006 9.90132 2.07144C9.58489 0.884125 8.47275 0 7.14132 0C6.74632 0 6.42703 0.307313 6.42703 0.6875C6.42703 1.06769 6.74632 1.375 7.14132 1.375C7.78632 1.375 8.32632 1.79094 8.50346 2.35606C7.5006 2.75962 6.7456 3.54888 6.50846 4.50794C6.45989 4.60075 6.42632 4.70181 6.42632 4.8125V6.54225C4.49418 7.238 2.24703 8.27063 1.11846 9.59888C-0.472253 11.4709 -0.351539 14.1646 1.38703 15.6028C2.09203 16.1879 2.98346 16.5 3.92846 16.5C4.04918 16.5 4.17132 16.4945 4.29346 16.4849C4.70275 16.4505 5.1056 16.3536 5.49275 16.2085C5.89275 18.1143 7.31275 19.7326 9.28489 20.4366V21.3125C9.28489 21.6927 9.60418 22 9.99918 22C10.3942 22 10.7135 21.6927 10.7135 21.3125V20.4366C12.6842 19.7326 14.1042 18.1143 14.5056 16.2085C14.8927 16.3536 15.2963 16.4505 15.7063 16.4849C15.8285 16.4945 15.9499 16.5 16.0706 16.5C17.0156 16.5 17.9063 16.1879 18.612 15.6028C20.3513 14.1646 20.472 11.4709 18.8813 9.59888ZM7.85561 5.15625C7.85561 4.20819 8.81775 3.4375 9.99989 3.4375C11.182 3.4375 12.1435 4.20819 12.1435 5.15625V6.06444C11.0549 5.72894 10.257 5.53988 10.1663 5.51856C10.1363 5.51169 10.1056 5.51169 10.0756 5.50894C10.0506 5.50619 10.0263 5.50138 10.0006 5.50069C9.96846 5.50069 9.93775 5.50688 9.90632 5.51031C9.88203 5.51375 9.85703 5.51306 9.83275 5.51856C9.74203 5.53988 8.94418 5.72825 7.85561 6.06444V5.15625ZM9.99989 9.27025C10.3427 10.4775 10.8113 11.8628 11.4106 13.0625H8.58918C9.18846 11.8628 9.65632 10.4775 9.99989 9.27025ZM4.16846 15.1147C3.47418 15.1752 2.81989 14.9758 2.31918 14.5606C1.16346 13.6029 1.1206 11.7679 2.22489 10.4686C3.59632 8.855 7.23203 7.66425 9.07061 7.14381C8.67203 8.89213 7.75275 12.3179 6.36918 13.9473C5.79703 14.6197 4.9956 15.0453 4.16846 15.1147ZM9.99989 19.2211C8.85346 18.8712 7.92846 18.1266 7.36846 17.1875H12.6292C12.0692 18.1273 11.1442 18.8719 9.99989 19.2211ZM13.1542 15.8125H6.84489C6.82418 15.697 6.82418 15.5774 6.81346 15.4598C7.05203 15.2687 7.27418 15.0535 7.4756 14.817C7.5756 14.6994 7.6706 14.5681 7.76632 14.4368H12.2335C12.3285 14.5681 12.4242 14.6994 12.5242 14.817C12.7249 15.0535 12.947 15.268 13.1856 15.4591C13.1749 15.5774 13.1749 15.697 13.1542 15.8125ZM17.6799 14.5613C17.1785 14.9765 16.5192 15.1738 15.8306 15.1154C15.0035 15.0452 14.202 14.6197 13.6306 13.948C12.2456 12.3186 11.3263 8.888 10.9285 7.14175C13.0327 7.73712 16.4927 8.96156 17.7742 10.4699C18.8792 11.7686 18.8363 13.6036 17.6799 14.5613Z" fill="#F49A13"/>
</svg>
