<svg width="20" height="22" viewBox="0 0 20 22" fill="none" xmlns="http://www.w3.org/2000/svg">
<path d="M16.0889 10.9869L18.9788 5.819C19.0987 5.60588 19.0966 5.34462 18.9741 5.13356C18.8522 4.92181 18.6275 4.79256 18.3857 4.79256H12.6249L10.1265 0.323813C9.8854 -0.107937 9.18198 -0.107937 8.9416 0.323813L6.44319 4.79256H0.68097C0.439232 4.79256 0.214518 4.9225 0.0933084 5.13425C-0.029263 5.34531 -0.0313059 5.60656 0.0885418 5.81969L2.9785 10.9876L0.0885418 16.1549C-0.0313059 16.368 -0.029263 16.6293 0.0933084 16.8403C0.214518 17.0521 0.439232 17.182 0.68097 17.182H6.44183L8.94024 21.6508C9.06145 21.8659 9.28821 22 9.53335 22C9.77849 22 10.0053 21.8659 10.1258 21.6508L12.6242 17.182H18.3857C18.6275 17.182 18.8522 17.0521 18.9734 16.8403C19.096 16.6293 19.098 16.368 18.9782 16.1549L16.0889 10.9869ZM17.2186 6.16894L15.3065 9.58856L13.3944 6.16894H17.2186ZM14.5247 10.9869L11.8309 15.8049H7.23718L4.54197 10.9869L7.23582 6.16894H11.8295L14.5247 10.9869ZM9.53335 2.06113L11.0607 4.79187H8.00666L9.53335 2.06113ZM1.84812 6.16894H5.67235L3.76024 9.58856L1.84812 6.16894ZM1.84812 15.8049L3.76024 12.3853L5.67235 15.8049H1.84812ZM9.53335 19.9128L8.00598 17.182H11.06L9.53335 19.9128ZM13.3944 15.8049L15.3065 12.3853L17.2186 15.8049H13.3944Z" fill="#F49A13"/>
</svg>
