<svg width="20" height="22" viewBox="0 0 20 22" fill="none" xmlns="http://www.w3.org/2000/svg">
<path d="M3.40459 7.5625C3.78066 7.5625 4.08554 7.2547 4.08554 6.875C4.08554 6.4953 3.78066 6.1875 3.40459 6.1875C3.02851 6.1875 2.72363 6.4953 2.72363 6.875C2.72363 7.2547 3.02851 7.5625 3.40459 7.5625Z" fill="#F49A13"/>
<path d="M9.53333 0C4.27638 0 0 3.18725 0 7.10394C0 8.4095 0.768114 9.592 1.95774 10.1166C2.99891 10.5751 4.39419 10.8054 6.11019 10.9141C6.06661 12.2286 5.89977 13.3114 5.74247 14.2684C5.49801 15.7554 5.28691 17.0397 5.60969 18.6752L5.62671 18.7626C5.99647 20.6388 7.63961 22 9.53402 22C11.4284 22 13.0716 20.6388 13.4413 18.7639L13.459 18.6739C13.7539 17.1765 13.5503 16.1074 13.3153 14.8693C13.1798 14.1577 13.0266 13.3506 12.9347 12.3138C12.9013 11.9357 12.569 11.6524 12.1959 11.6902C11.8213 11.7239 11.5442 12.0581 11.5782 12.4362C11.6763 13.5417 11.8363 14.3846 11.978 15.1284C12.2033 16.3151 12.3661 17.1724 12.1237 18.4044L12.106 18.4937C11.8629 19.7285 10.7808 20.625 9.53402 20.625C8.28719 20.625 7.20584 19.7285 6.96206 18.4924L6.94503 18.4051C6.67129 17.0163 6.85447 15.9026 7.08599 14.4932C7.2501 13.4949 7.42442 12.3647 7.47073 10.9718C8.12308 10.9911 8.80608 11 9.53333 11C12.8768 11 15.444 10.8494 17.1096 10.1159C18.2986 9.592 19.0667 8.4095 19.0667 7.10394C19.0667 3.18725 14.7903 0 9.53333 0ZM16.5648 8.85569C15.03 9.5315 12.2783 9.625 9.53333 9.625C6.78841 9.625 4.03669 9.5315 2.5025 8.85637C1.80929 8.55112 1.3619 7.86294 1.3619 7.10394C1.3619 3.94488 5.02747 1.375 9.53333 1.375C14.0392 1.375 17.7048 3.94488 17.7048 7.10394C17.7048 7.86294 17.2574 8.55112 16.5648 8.85569Z" fill="#F49A13"/>
<path d="M9.53337 2.75C7.22835 2.75 5.3033 3.44781 4.25327 4.664C4.00608 4.95 4.03536 5.3845 4.31864 5.63406C4.44802 5.7475 4.60736 5.80319 4.76603 5.80319C4.95601 5.80319 5.14532 5.72344 5.27946 5.56737C6.07141 4.65094 7.62194 4.125 9.53337 4.125C9.90926 4.125 10.2143 3.81769 10.2143 3.4375C10.2143 3.05731 9.90926 2.75 9.53337 2.75Z" fill="#F49A13"/>
</svg>
