<svg width="14" height="22" viewBox="0 0 14 22" fill="none" xmlns="http://www.w3.org/2000/svg">
<g clip-path="url(#clip0)">
<path d="M6.99977 4.12318C7.38635 4.12318 7.69973 3.81534 7.69973 3.43561C7.69973 3.05588 7.38635 2.74805 6.99977 2.74805C6.61319 2.74805 6.2998 3.05588 6.2998 3.43561C6.2998 3.81534 6.61319 4.12318 6.99977 4.12318Z" fill="#F49A13"/>
<path d="M9.09987 6.87366C9.48645 6.87366 9.79983 6.56583 9.79983 6.1861C9.79983 5.80637 9.48645 5.49854 9.09987 5.49854C8.71329 5.49854 8.3999 5.80637 8.3999 6.1861C8.3999 6.56583 8.71329 6.87366 9.09987 6.87366Z" fill="#F49A13"/>
<path d="M5.59987 7.56116C5.98645 7.56116 6.29983 7.25333 6.29983 6.8736C6.29983 6.49387 5.98645 6.18604 5.59987 6.18604C5.21329 6.18604 4.8999 6.49387 4.8999 6.8736C4.8999 7.25333 5.21329 7.56116 5.59987 7.56116Z" fill="#F49A13"/>
<path d="M3.50026 15.8117C3.88684 15.8117 4.20022 15.5038 4.20022 15.1241C4.20022 14.7444 3.88684 14.4365 3.50026 14.4365C3.11368 14.4365 2.80029 14.7444 2.80029 15.1241C2.80029 15.5038 3.11368 15.8117 3.50026 15.8117Z" fill="#F49A13"/>
<path d="M7.35041 17.8746C6.40686 17.8746 5.5214 17.4641 4.92013 16.7491C4.67374 16.4568 4.23346 16.4149 3.93458 16.6569C3.63639 16.899 3.5944 17.3321 3.84008 17.625C4.70804 18.6577 5.98758 19.2497 7.35041 19.2497C7.73749 19.2497 8.05037 18.9417 8.05037 18.5622C8.05037 18.1826 7.73679 17.8746 7.35041 17.8746Z" fill="#F49A13"/>
<path d="M12.1986 10.5272C11.5812 9.85546 11.4412 8.93963 11.8493 8.24794C12.5185 7.11277 12.7467 5.81671 12.5087 4.50002C12.1125 2.29707 10.3472 0.531401 8.11709 0.105112C6.44347 -0.214606 4.73695 0.202746 3.44062 1.25197C2.14428 2.30188 1.40092 3.84959 1.40092 5.49837C1.40092 6.42864 1.64241 7.34792 2.09879 8.15718C2.53906 8.93756 2.47397 9.83346 1.93709 10.3849C0.710756 11.6445 0.0233906 13.2967 0.000991716 15.039C-0.044506 18.7656 2.99964 21.8872 6.78855 21.9972C6.85995 21.9992 6.93134 21.9999 7.00274 21.9999C8.83455 21.9999 10.5579 21.3151 11.8759 20.0582C13.2457 18.7519 14.0003 16.9993 14.0003 15.1243C14.0003 13.4225 13.3605 11.7903 12.1986 10.5272ZM10.9008 19.0716C9.8054 20.116 8.37257 20.6654 6.82985 20.6227C3.8508 20.5361 1.36452 17.9866 1.40092 15.0555C1.41842 13.6639 1.96859 12.3424 2.94854 11.3351C3.9117 10.3457 4.06219 8.80074 3.32373 7.49093C2.98144 6.88518 2.80085 6.19624 2.80085 5.49905C2.80085 4.26281 3.35872 3.10152 4.33168 2.31426C5.08764 1.70026 6.03329 1.37504 7.01184 1.37504C7.28973 1.37504 7.57041 1.40117 7.8504 1.4548C9.51562 1.77314 10.8343 3.09258 11.1311 4.73998C11.3103 5.73283 11.1402 6.70779 10.6384 7.559C9.92369 8.7698 10.1337 10.3333 11.1598 11.4499C12.0887 12.46 12.6004 13.765 12.6004 15.125C12.6004 16.6238 11.9963 18.0265 10.9008 19.0716Z" fill="#F49A13"/>
</g>
<defs>
<clipPath id="clip0">
<rect width="14" height="22" fill="white"/>
</clipPath>
</defs>
</svg>
