<svg width="14" height="22" viewBox="0 0 14 22" fill="none" xmlns="http://www.w3.org/2000/svg">
<path d="M6.82677 4.12318C7.20383 4.12318 7.5095 3.81535 7.5095 3.43561C7.5095 3.05588 7.20383 2.74805 6.82677 2.74805C6.44971 2.74805 6.14404 3.05588 6.14404 3.43561C6.14404 3.81535 6.44971 4.12318 6.82677 4.12318Z" fill="#F49A13"/>
<path d="M8.87511 6.87367C9.25217 6.87367 9.55784 6.56583 9.55784 6.1861C9.55784 5.80637 9.25217 5.49854 8.87511 5.49854C8.49805 5.49854 8.19238 5.80637 8.19238 6.1861C8.19238 6.56583 8.49805 6.87367 8.87511 6.87367Z" fill="#F49A13"/>
<path d="M5.46154 7.56117C5.8386 7.56117 6.14426 7.25333 6.14426 6.8736C6.14426 6.49387 5.8386 6.18604 5.46154 6.18604C5.08448 6.18604 4.77881 6.49387 4.77881 6.8736C4.77881 7.25333 5.08448 7.56117 5.46154 7.56117Z" fill="#F49A13"/>
<path d="M3.41368 15.8121C3.79074 15.8121 4.09641 15.5043 4.09641 15.1246C4.09641 14.7448 3.79074 14.437 3.41368 14.437C3.03662 14.437 2.73096 14.7448 2.73096 15.1246C2.73096 15.5043 3.03662 15.8121 3.41368 15.8121Z" fill="#F49A13"/>
<path d="M7.1692 17.8746C6.24889 17.8746 5.38524 17.4641 4.79877 16.7491C4.55845 16.4568 4.12902 16.4149 3.83749 16.6569C3.54665 16.899 3.50569 17.3321 3.74533 17.625C4.59191 18.6578 5.83993 19.2497 7.1692 19.2497C7.54675 19.2497 7.85193 18.9417 7.85193 18.5622C7.85193 18.1826 7.54607 17.8746 7.1692 17.8746Z" fill="#F49A13"/>
<path d="M11.8977 10.5273C11.2955 9.8555 11.159 8.93966 11.557 8.24797C12.2097 7.1128 12.4323 5.81673 12.2001 4.50004C11.8137 2.29708 10.0919 0.531404 7.91671 0.105112C6.28431 -0.214607 4.61982 0.202746 3.35541 1.25197C2.091 2.30189 1.36595 3.8496 1.36595 5.49839C1.36595 6.42867 1.60149 7.34794 2.04662 8.15721C2.47606 8.9376 2.41257 9.8335 1.88891 10.3849C0.692776 11.6446 0.0223383 13.2968 0.000491037 15.0391C-0.0438862 18.7657 2.92529 21.8872 6.6209 21.9972C6.69053 21.9993 6.76017 22 6.82981 22C8.61651 22 10.2974 21.3152 11.583 20.0583C12.9191 18.7519 13.655 16.9993 13.655 15.1243C13.655 13.4226 13.031 11.7903 11.8977 10.5273ZM10.6319 19.0717C9.56345 20.1161 8.16591 20.6654 6.66118 20.6228C3.75549 20.5362 1.33044 17.9867 1.36595 15.0556C1.38301 13.6639 1.91964 12.3424 2.87545 11.3351C3.81489 10.3457 3.96167 8.80077 3.2414 7.49096C2.90754 6.88521 2.7314 6.19627 2.7314 5.49908C2.7314 4.26283 3.27553 3.10153 4.22452 2.31427C4.96187 1.70027 5.88423 1.37505 6.83869 1.37505C7.10973 1.37505 7.3835 1.40118 7.65659 1.45481C9.2808 1.77315 10.5671 3.09259 10.8565 4.74C11.0313 5.73285 10.8654 6.70782 10.3759 7.55903C9.67883 8.76983 9.88365 10.3334 10.8845 11.45C11.7905 12.46 12.2896 13.765 12.2896 15.125C12.2896 16.6239 11.7004 18.0266 10.6319 19.0717Z" fill="#F49A13"/>
</svg>
