<svg width="17" height="22" viewBox="0 0 17 22" fill="none" xmlns="http://www.w3.org/2000/svg">
<path d="M15.3121 6.53331C14.1334 5.98881 12.7329 6.47006 12.1939 7.60787L11.9777 8.06437C11.8692 8.29262 11.6856 8.49613 11.4443 8.65081C11.2009 8.80825 10.9617 8.97806 10.7239 9.15269C10.3219 7.51506 9.6293 5.89119 8.66825 4.39381C8.45685 4.06519 8.34489 3.70631 8.34489 3.35775V2.75C8.34489 1.3365 6.99302 0 5.56328 0C4.13353 0 2.78167 1.3365 2.78167 2.75V3.35775C2.78167 3.70631 2.6704 4.06519 2.45831 4.39381C0.864444 6.87844 -0.00828553 9.71231 5.92936e-05 12.3764C0.0125765 16.2498 2.09183 18.5618 5.56328 18.5618C5.57997 18.5618 5.59596 18.5597 5.61265 18.5597C5.94644 19.8289 6.84212 20.8319 8.24336 21.4802C8.99439 21.8274 9.73013 22 10.436 22C11.3198 22 12.1557 21.7284 12.9144 21.1867C15.6188 19.2555 16.5889 14.5124 16.1487 10.8247C16.1146 10.5421 16.1543 10.2719 16.262 10.0437L16.4776 9.58788C17.0159 8.45006 16.4936 7.07987 15.3121 6.53331ZM1.39086 12.3729C1.38321 9.96806 2.17945 7.39613 3.63284 5.1315C3.98611 4.5815 4.17247 3.96756 4.17247 3.35775V2.75C4.17247 2.14981 4.84701 1.375 5.56328 1.375C6.27954 1.375 6.95408 2.14981 6.95408 2.75V3.35775C6.95408 3.96825 7.14115 4.5815 7.49371 5.1315C8.94711 7.39613 9.74334 9.96806 9.73569 12.3729C9.72874 14.5688 8.99926 17.1875 5.56328 17.1875C2.12729 17.1875 1.39782 14.5688 1.39086 12.3729ZM15.2175 9.00556L15.002 9.46138C14.7843 9.92269 14.703 10.4493 14.7669 10.9862C15.2099 14.6974 14.0381 18.689 12.0994 20.0723C11.1557 20.746 10.057 20.801 8.83236 20.2338C7.89218 19.7986 7.28857 19.1833 7.01945 18.403C9.60565 17.8296 11.1161 15.6709 11.1265 12.3764C11.1286 11.8174 11.0827 11.2496 11.0083 10.6803C11.397 10.3647 11.7962 10.0664 12.2051 9.80237C12.6626 9.50675 13.0194 9.10731 13.2377 8.64669L13.454 8.19019C13.6675 7.7385 14.2377 7.55288 14.7238 7.77838C15.2099 8.00319 15.4317 8.55387 15.2175 9.00556Z" fill="#F49A13"/>
<path d="M3.47665 11C3.86071 11 4.17205 10.6922 4.17205 10.3125C4.17205 9.9328 3.86071 9.625 3.47665 9.625C3.09259 9.625 2.78125 9.9328 2.78125 10.3125C2.78125 10.6922 3.09259 11 3.47665 11Z" fill="#F49A13"/>
<path d="M6.25826 15.124C6.25826 14.7438 5.94672 14.4365 5.56286 14.4365C4.80904 14.4365 4.17205 13.4919 4.17205 12.374C4.17205 11.9938 3.86051 11.6865 3.47665 11.6865C3.09279 11.6865 2.78125 11.9938 2.78125 12.374C2.78125 14.2695 4.0288 15.8115 5.56286 15.8115C5.94742 15.8115 6.25826 15.5042 6.25826 15.124Z" fill="#F49A13"/>
<path d="M12.6196 16.5321C12.2538 16.4187 11.8623 16.6146 11.7447 16.9756C11.4534 17.8686 10.4256 18.5616 9.73642 18.5616C9.35256 18.5616 9.04102 18.869 9.04102 19.2491C9.04102 19.6293 9.35256 19.9366 9.73642 19.9366C10.9457 19.9366 12.5737 18.9164 13.0688 17.3977C13.1856 17.0361 12.9853 16.649 12.6196 16.5321Z" fill="#F49A13"/>
</svg>
