<svg width="22" height="22" viewBox="0 0 22 22" fill="none" xmlns="http://www.w3.org/2000/svg">
<path d="M11 8.25C9.48337 8.25 8.25 9.48337 8.25 11C8.25 12.5166 9.48337 13.75 11 13.75C12.5166 13.75 13.75 12.5166 13.75 11C13.75 9.48337 12.5166 8.25 11 8.25ZM11 12.375C10.2417 12.375 9.625 11.7583 9.625 11C9.625 10.2417 10.2417 9.625 11 9.625C11.7583 9.625 12.375 10.2417 12.375 11C12.375 11.7583 11.7583 12.375 11 12.375Z" fill="#F49A13"/>
<path d="M13.75 5.5C13.75 7.01662 14.9834 8.25 16.5 8.25C18.0166 8.25 19.25 7.01662 19.25 5.5C19.25 3.98337 18.0166 2.75 16.5 2.75C14.9834 2.75 13.75 3.98337 13.75 5.5ZM17.875 5.5C17.875 6.25831 17.2583 6.875 16.5 6.875C15.7417 6.875 15.125 6.25831 15.125 5.5C15.125 4.74169 15.7417 4.125 16.5 4.125C17.2583 4.125 17.875 4.74169 17.875 5.5Z" fill="#F49A13"/>
<path d="M5.5 13.75C3.98337 13.75 2.75 14.9834 2.75 16.5C2.75 18.0166 3.98337 19.25 5.5 19.25C7.01662 19.25 8.25 18.0166 8.25 16.5C8.25 14.9834 7.01662 13.75 5.5 13.75ZM5.5 17.875C4.74169 17.875 4.125 17.2583 4.125 16.5C4.125 15.7417 4.74169 15.125 5.5 15.125C6.25831 15.125 6.875 15.7417 6.875 16.5C6.875 17.2583 6.25831 17.875 5.5 17.875Z" fill="#F49A13"/>
<path d="M21.3125 0H16.5C13.8731 0 11.6029 1.86862 11.1018 4.44263C10.9856 5.038 10.5518 5.489 9.99831 5.59144C7.77219 6.00119 6.00119 7.77219 5.59144 9.99763C5.48969 10.5524 5.038 10.9863 4.44263 11.1018C1.86862 11.6029 0 13.8731 0 16.5V21.3125C0 21.6927 0.307313 22 0.6875 22H5.5C8.12625 22 10.3971 20.1314 10.8983 17.5574C11.0144 16.962 11.4483 16.511 12.0017 16.4086C14.2278 15.9988 15.9988 14.2278 16.4086 12.0024C16.511 11.4476 16.962 11.0138 17.5574 10.8989C20.1314 10.3964 22 8.12625 22 5.5V0.6875C22 0.308 21.6927 0 21.3125 0ZM20.625 5.5C20.625 7.46969 19.2246 9.17262 17.2941 9.54869C16.1404 9.7735 15.2618 10.6384 15.0562 11.7535C14.7489 13.4221 13.4214 14.7489 11.7521 15.0569C10.6384 15.2625 9.77281 16.1411 9.548 17.2948C9.17262 19.2246 7.47038 20.625 5.5 20.625H1.375V16.5C1.375 14.5296 2.77544 12.8274 4.70594 12.4513C5.85956 12.2265 6.73819 11.3609 6.94375 10.2465C7.25106 8.57794 8.57862 7.25037 10.2479 6.94306C11.3616 6.73819 12.2265 5.85956 12.452 4.70525C12.8274 2.77544 14.5296 1.375 16.5 1.375H20.625V5.5Z" fill="#F49A13"/>
</svg>
