<svg width="16" height="22" viewBox="0 0 16 22" fill="none" xmlns="http://www.w3.org/2000/svg">
<path d="M5.79299 6.875C6.19292 6.875 6.51712 6.5672 6.51712 6.1875C6.51712 5.8078 6.19292 5.5 5.79299 5.5C5.39306 5.5 5.06885 5.8078 5.06885 6.1875C5.06885 6.5672 5.39306 6.875 5.79299 6.875Z" fill="#F49A13"/>
<path d="M7.96535 5.5C8.36528 5.5 8.68949 5.1922 8.68949 4.8125C8.68949 4.4328 8.36528 4.125 7.96535 4.125C7.56542 4.125 7.24121 4.4328 7.24121 4.8125C7.24121 5.1922 7.56542 5.5 7.96535 5.5Z" fill="#F49A13"/>
<path d="M10.1382 6.875C10.5381 6.875 10.8623 6.5672 10.8623 6.1875C10.8623 5.8078 10.5381 5.5 10.1382 5.5C9.73827 5.5 9.41406 5.8078 9.41406 6.1875C9.41406 6.5672 9.73827 6.875 10.1382 6.875Z" fill="#F49A13"/>
<path d="M12.3106 6.1875C12.7105 6.1875 13.0347 5.8797 13.0347 5.5C13.0347 5.1203 12.7105 4.8125 12.3106 4.8125C11.9106 4.8125 11.5864 5.1203 11.5864 5.5C11.5864 5.8797 11.9106 6.1875 12.3106 6.1875Z" fill="#F49A13"/>
<path d="M3.62062 6.1875C4.02055 6.1875 4.34476 5.8797 4.34476 5.5C4.34476 5.1203 4.02055 4.8125 3.62062 4.8125C3.22069 4.8125 2.89648 5.1203 2.89648 5.5C2.89648 5.8797 3.22069 6.1875 3.62062 6.1875Z" fill="#F49A13"/>
<path d="M7.96535 19.25C8.36528 19.25 8.68949 18.9422 8.68949 18.5625C8.68949 18.1828 8.36528 17.875 7.96535 17.875C7.56542 17.875 7.24121 18.1828 7.24121 18.5625C7.24121 18.9422 7.56542 19.25 7.96535 19.25Z" fill="#F49A13"/>
<path d="M4.54251 13.75C4.54251 13.3698 4.2181 13.0625 3.81838 13.0625C3.41865 13.0625 3.09424 13.3698 3.09424 13.75C3.09424 15.2921 3.86762 16.7145 5.3311 17.8626C5.46651 17.9685 5.62945 18.0201 5.79238 18.0201C6.00093 18.0201 6.20803 17.9348 6.35069 17.7705C6.60558 17.4776 6.56213 17.0445 6.25365 16.8032C5.1182 15.9122 4.54251 14.8844 4.54251 13.75Z" fill="#F49A13"/>
<path d="M15.931 7.5625C15.931 4.52994 13.3321 2.0625 10.1379 2.0625H8.68966V0.6875C8.68966 0.307313 8.36524 0 7.96552 0C7.56579 0 7.24138 0.307313 7.24138 0.6875V2.0625H5.7931C2.59893 2.0625 0 4.52994 0 7.5625C0 8.06919 0.293276 8.50781 0.724138 8.74638V13.75C0.724138 19.4129 7.42676 21.8556 7.71207 21.9567C7.7939 21.9856 7.87934 22 7.96552 22C8.05169 22 8.13714 21.9856 8.21897 21.9567C8.50428 21.8556 15.2069 19.4129 15.2069 13.75V8.74638C15.6378 8.50781 15.931 8.06919 15.931 7.5625ZM5.7931 3.4375H10.1379C12.5341 3.4375 14.4828 5.28756 14.4835 7.5625H1.44828C1.44828 5.28756 3.39693 3.4375 5.7931 3.4375ZM7.96552 20.5679C6.81631 20.0881 2.17241 17.8922 2.17241 13.75V8.9375H13.7586V13.75C13.7586 17.8922 9.11472 20.0881 7.96552 20.5679Z" fill="#F49A13"/>
</svg>
