<svg width="10" height="22" viewBox="0 0 10 22" fill="none" xmlns="http://www.w3.org/2000/svg">
<path d="M8.8593 10.3034H7.49633C7.08744 10.3034 6.81485 10.5786 6.81485 10.9914V18.5598C6.81485 19.7295 5.92892 20.6239 4.77039 20.6239C3.61187 20.6239 2.72594 19.7295 2.72594 18.5598V11.6794H4.08891V15.8077C4.08891 16.2205 4.3615 16.4957 4.77039 16.4957C5.17928 16.4957 5.45188 16.2205 5.45188 15.8077V9.54652C7.15559 9.27131 8.17782 8.03284 8.17782 6.10633C8.17782 4.04222 5.58818 0.602033 5.31558 0.258014C5.04299 -0.0860047 4.4978 -0.0860047 4.22521 0.258014C3.95261 0.602033 1.36297 4.04222 1.36297 6.10633C1.36297 8.17045 2.65779 9.27131 4.08891 9.54652V10.3034H0.681485C0.272594 10.3034 0 10.5786 0 10.9914C0 11.4042 0.272594 11.6794 0.681485 11.6794H1.36297V18.5598C1.36297 20.4863 2.86224 22 4.77039 22C6.67855 22 8.17782 20.4863 8.17782 18.5598V11.6794H8.8593C9.26819 11.6794 9.54079 11.4042 9.54079 10.9914C9.54079 10.5786 9.26819 10.3034 8.8593 10.3034ZM2.72594 6.10633C2.72594 5.07428 3.81631 3.14777 4.77039 1.8405C5.72447 3.21658 6.81485 5.14308 6.81485 6.10633C6.81485 7.82643 5.72447 8.23925 4.77039 8.23925C4.42965 8.23925 2.72594 8.10164 2.72594 6.10633Z" fill="#F49A13"/>
</svg>
