<svg width="27" height="22" viewBox="0 0 27 22" fill="none" xmlns="http://www.w3.org/2000/svg">
<path d="M11.6302 0C5.23359 0 0 5.33077 0 11.8462C0 17.4308 4.48594 22 9.96875 22C14.5378 22 18.276 18.1923 18.276 13.5385C18.276 9.81538 15.2854 6.76923 11.6302 6.76923C8.8888 6.76923 6.64583 9.05385 6.64583 11.8462C6.64583 14.2154 8.47344 16.0769 10.7995 16.0769C12.6271 16.0769 14.1224 14.5538 14.1224 12.6923C14.1224 12.1846 13.7901 11.8462 13.2917 11.8462C12.7932 11.8462 12.4609 12.1846 12.4609 12.6923C12.4609 13.6231 11.7133 14.3846 10.7995 14.3846C9.38724 14.3846 8.30729 13.2846 8.30729 11.8462C8.30729 9.98462 9.8026 8.46154 11.6302 8.46154C14.3716 8.46154 16.6146 10.7462 16.6146 13.5385C16.6146 17.2615 13.624 20.3077 9.96875 20.3077C5.39974 20.3077 1.66146 16.5 1.66146 11.8462C1.66146 6.26154 6.1474 1.69231 11.6302 1.69231C18.9406 1.69231 24.9219 7.78462 24.9219 15.2308V16.9231C24.9219 17.8538 24.1742 18.6154 23.2604 18.6154H19.1068C18.6083 18.6154 18.276 18.9538 18.276 19.4615C18.276 19.9692 18.6083 20.3077 19.1068 20.3077H23.2604C25.088 20.3077 26.5833 18.7846 26.5833 16.9231V15.2308C26.5833 6.85385 19.8544 0 11.6302 0Z" fill="#F49A13"/>
</svg>
