<svg width="107" height="107" viewBox="0 0 107 107" fill="none" xmlns="http://www.w3.org/2000/svg">
<g filter="url(#filter0_d)">
<circle cx="53.5" cy="43.5" r="32.5" fill="white"/>
<circle cx="53.5" cy="43.5" r="33" stroke="#E9ECEF"/>
</g>
<path fill-rule="evenodd" clip-rule="evenodd" d="M66.3979 29.5857L72.127 37.6065L72.3332 38.2252C72.3562 40.769 70.2937 42.8544 67.75 42.8544C66.375 42.8544 65.1604 42.2585 64.3125 41.296C63.4646 42.2585 62.25 42.8544 60.875 42.8544C59.5 42.8544 58.2855 42.2585 57.4376 41.296C56.5896 42.2585 55.3751 42.8544 54.0001 42.8544C52.6251 42.8544 51.4105 42.2585 50.5626 41.296C49.7147 42.2585 48.5001 42.8544 47.1252 42.8544C45.7502 42.8544 44.5356 42.2585 43.6877 41.296C42.8398 42.2585 41.6252 42.8544 40.2502 42.8544C37.7065 42.8544 35.644 40.769 35.6669 38.2252L35.8732 37.6065L41.6023 29.5857C41.8315 29.2878 42.1752 29.1045 42.5419 29.1045H65.4583C65.825 29.1045 66.1687 29.2878 66.3979 29.5857ZM64.3124 44.2201C65.3483 44.8205 66.5331 45.1459 67.7499 45.1459C68.5451 45.1459 69.3128 44.9855 70.0416 44.7265V56.6041C70.0416 57.8691 69.0149 58.8957 67.7499 58.8957H65.4583V49.1042C65.4583 48.1837 64.7121 47.4375 63.7916 47.4375H60.25C59.3295 47.4375 58.5833 48.1837 58.5833 49.1042V58.8957H40.2502C38.9852 58.8957 37.9585 57.8691 37.9585 56.6041V44.699C39.8354 45.3475 41.9666 45.2192 43.6876 44.2201C45.757 45.4186 48.4932 45.4186 50.5626 44.2201C52.6319 45.4186 55.3659 45.4186 57.4375 44.2201C59.5092 45.4186 62.2408 45.4186 64.3124 44.2201ZM50.0417 54.3125C50.9622 54.3125 51.7084 53.5663 51.7084 52.6458V49.1042C51.7084 48.1837 50.9622 47.4375 50.0417 47.4375H44.2085C43.288 47.4375 42.5418 48.1837 42.5418 49.1042V52.6458C42.5418 53.5663 43.288 54.3125 44.2085 54.3125H50.0417Z" fill="#030E1B"/>
<defs>
<filter id="filter0_d" x="0" y="0" width="107" height="107" filterUnits="userSpaceOnUse" color-interpolation-filters="sRGB">
<feFlood flood-opacity="0" result="BackgroundImageFix"/>
<feColorMatrix in="SourceAlpha" type="matrix" values="0 0 0 0 0 0 0 0 0 0 0 0 0 0 0 0 0 0 127 0"/>
<feOffset dy="10"/>
<feGaussianBlur stdDeviation="10"/>
<feColorMatrix type="matrix" values="0 0 0 0 0 0 0 0 0 0 0 0 0 0 0 0 0 0 0.1 0"/>
<feBlend mode="normal" in2="BackgroundImageFix" result="effect1_dropShadow"/>
<feBlend mode="normal" in="SourceGraphic" in2="effect1_dropShadow" result="shape"/>
</filter>
</defs>
</svg>
