<svg width="106" height="106" viewBox="0 0 106 106" fill="none" xmlns="http://www.w3.org/2000/svg">
<g filter="url(#filter0_d)">
<circle cx="53" cy="43" r="32" fill="#1C1C1E"/>
<circle cx="53" cy="43" r="32.5" stroke="#E9ECEF"/>
</g>
<path d="M30.0469 46.4497C30.0469 46.086 30.3291 45.7847 30.6921 45.761L39.2479 45.2022C39.8072 45.1657 40.2809 45.6095 40.2809 46.17V46.17C40.2809 46.7057 39.8467 47.1399 39.3111 47.1399H30.737C30.3559 47.1399 30.0469 46.8309 30.0469 46.4497V46.4497Z" fill="white"/>
<path d="M34.1404 54.4548C34.1404 54.0951 34.4112 53.7932 34.7688 53.7543L39.2301 53.2687C39.791 53.2076 40.2808 53.647 40.2808 54.2113V54.2113C40.2808 54.7349 39.8563 55.1594 39.3326 55.1594H34.845C34.4559 55.1594 34.1404 54.8439 34.1404 54.4548V54.4548Z" fill="white"/>
<path d="M36.1873 32.3991C36.1873 32.0395 36.4581 31.7375 36.8156 31.6986L41.2769 31.213C41.8379 31.1519 42.3277 31.5913 42.3277 32.1556V32.1556C42.3277 32.6792 41.9032 33.1037 41.3795 33.1037H36.8919C36.5027 33.1037 36.1873 32.7883 36.1873 32.3991V32.3991Z" fill="white"/>
<path d="M28 38.4328C28 38.0681 28.2851 37.7671 28.6492 37.7473L39.2525 37.1702C39.8112 37.1398 40.2808 37.5846 40.2808 38.1441V38.1441C40.2808 38.6827 39.8442 39.1194 39.3055 39.1194H28.6865C28.3074 39.1194 28 38.812 28 38.4328V38.4328Z" fill="white"/>
<path d="M67.3333 35.6668H64V32.3335C64 32.1564 63.9297 31.9871 63.8047 31.8621L61.1388 29.1963C61.0576 29.1149 60.9513 29.0654 60.8369 29.0345C60.8078 29.0266 60.7823 29.0213 60.7525 29.0175C60.7231 29.0135 60.6971 29.0002 60.6666 29.0002H54C53.6315 29.0002 53.3333 29.2984 53.3333 29.6669V32.3336C53.3333 32.7021 53.6315 33.0002 54 33.0002H60V35.6669H52V29.6669C52 29.3974 51.8379 29.1539 51.5885 29.0511C51.3399 28.9476 51.0534 29.0042 50.862 29.1956L48.1953 31.8623C48.0703 31.9873 48 32.1566 48 32.3337V35.667H44.6667C44.2982 35.667 44 35.9652 44 36.3337V54.3336C44 55.8043 45.1959 57.0003 46.6667 57.0003H65.3333C66.804 57.0003 68 55.8043 68 54.3336V36.3337C67.9999 35.965 67.7018 35.6668 67.3333 35.6668Z" fill="#FCFCFC"/>
<defs>
<filter id="filter0_d" x="0" y="0" width="106" height="106" filterUnits="userSpaceOnUse" color-interpolation-filters="sRGB">
<feFlood flood-opacity="0" result="BackgroundImageFix"/>
<feColorMatrix in="SourceAlpha" type="matrix" values="0 0 0 0 0 0 0 0 0 0 0 0 0 0 0 0 0 0 127 0"/>
<feOffset dy="10"/>
<feGaussianBlur stdDeviation="10"/>
<feColorMatrix type="matrix" values="0 0 0 0 0 0 0 0 0 0 0 0 0 0 0 0 0 0 0.1 0"/>
<feBlend mode="normal" in2="BackgroundImageFix" result="effect1_dropShadow"/>
<feBlend mode="normal" in="SourceGraphic" in2="effect1_dropShadow" result="shape"/>
</filter>
</defs>
</svg>
