<svg width="31" height="31" viewBox="0 0 31 31" fill="none" xmlns="http://www.w3.org/2000/svg">
<g clip-path="url(#clip0)">
<path d="M15.5011 2.42773C8.28093 2.42773 2.42871 8.27995 2.42871 15.5002C2.42871 20.7025 5.47545 25.1811 9.87457 27.2851L10.2837 19.3789C10.2837 19.3789 9.5141 19.1263 9.34564 19.0441C7.71324 18.325 6.52737 16.2078 6.52737 13.46C6.52737 10.4616 8.85277 7.87886 11.101 7.85752C11.1038 7.85752 11.1038 7.85752 11.1057 7.85752C11.1067 7.85752 11.1086 7.85752 11.1095 7.85752C13.3582 7.87878 15.6836 10.4615 15.6836 13.46C15.6836 16.2078 14.4963 18.3241 12.8672 19.0441C12.8545 19.0497 11.9217 19.3884 11.9217 19.3884L12.3786 28.1791C13.3814 28.4259 14.4239 28.5708 15.5029 28.5708C16.9579 28.5708 18.3514 28.3229 19.6589 27.8848L20.0638 20.0507C18.9967 19.816 18.0866 19.1367 17.5161 18.2844C16.8094 17.2258 18.0601 7.85663 18.0601 7.85663H18.8737V16.6487H19.6817V7.85761H20.5653V16.6506H21.3694V7.85761H22.2862V16.6506H23.0931V7.85761H23.7175C23.7175 7.85761 24.9681 17.2268 24.2606 18.2854C23.6957 19.1293 22.7941 19.8066 21.7403 20.0469C21.7214 20.0536 21.7043 20.0601 21.7043 20.0601L22.0562 26.7989C25.9502 24.535 28.5745 20.3289 28.5745 15.5003C28.5726 8.28003 22.7203 2.42773 15.5011 2.42773Z" fill="#2E7CF6"/>
<path d="M8.44135 12.1309C8.48817 11.9403 8.55111 11.7591 8.55396 11.7559C8.57432 11.6845 8.53646 11.6116 8.45886 11.5653C8.38509 11.5255 8.2952 11.5459 8.25359 11.6097C8.25359 11.6097 8.16418 11.7521 8.03456 11.9626C7.92911 12.1438 7.77302 12.4333 7.66652 12.7937C7.57426 13.1097 7.4641 13.5297 7.41443 13.9999C7.39318 14.2468 7.38837 14.4696 7.39594 14.699C7.41443 14.9605 7.45408 15.1843 7.52981 15.4402C7.78662 16.1701 7.9844 16.8768 8.69817 17.574C8.92379 17.8058 9.15561 17.9638 9.32302 18.0801L9.38213 18.1217C9.41812 18.1454 9.45264 18.1673 9.48668 18.1871C9.62722 18.2609 9.72126 18.2874 9.73836 18.2911C9.80831 18.31 9.88028 18.276 9.91 18.2192C9.93793 18.1596 9.91758 18.0849 9.85944 18.0376C9.85944 18.0376 9.77802 17.9667 9.67355 17.8342C9.60214 17.7538 9.52454 17.6374 9.43424 17.506C9.37041 17.4133 9.29517 17.3082 9.22514 17.206C8.87746 16.6753 8.67699 15.9346 8.39974 15.1758C8.34535 15.0112 8.3009 14.7978 8.28428 14.6167C8.26214 14.4076 8.25172 14.2061 8.25172 14.0192C8.24365 13.585 8.26303 13.2122 8.3009 12.91C8.34438 12.569 8.37841 12.3131 8.44135 12.1309Z" fill="#2E7CF6"/>
<path d="M15.5009 0C6.95486 0 0 6.9534 0 15.5C0 24.0446 6.95486 31 15.5009 31C24.0466 31 31.0001 24.0446 31.0001 15.5C31 6.9534 24.0466 0 15.5009 0ZM15.5009 29.8439C7.59103 29.8439 1.15557 23.409 1.15557 15.5C1.15557 7.59006 7.59103 1.1546 15.5009 1.1546C23.4099 1.1546 29.8459 7.59006 29.8459 15.5C29.8458 23.409 23.4098 29.8439 15.5009 29.8439Z" fill="#2E7CF6"/>
</g>
<defs>
<clipPath id="clip0">
<rect width="31" height="31" fill="white"/>
</clipPath>
</defs>
</svg>
