<svg width="24" height="17" viewBox="0 0 24 17" fill="none" xmlns="http://www.w3.org/2000/svg">
<path d="M22 0H2C0.89543 0 0 0.89543 0 2V14.4571C0 15.5617 0.89543 16.4571 2 16.4571H22C23.1046 16.4571 24 15.5617 24 14.4571V2C24 0.89543 23.1046 0 22 0Z" fill="#1F72CD"/>
<path fill-rule="evenodd" clip-rule="evenodd" d="M4.24549 6L2 10.9692H4.68817L5.02142 10.1769H5.78317L6.11642 10.9692H9.07534V10.3645L9.33899 10.9692H10.8696L11.1332 10.3517V10.9692H17.287L18.0353 10.1975L18.7359 10.9692L21.8966 10.9756L19.644 8.49848L21.8966 6H18.7849L18.0565 6.75745L17.378 6H10.6835L10.1086 7.28259L9.52027 6H6.83772V6.58414L6.5393 6H4.24549ZM4.76563 6.7058H6.07597L7.5654 10.0754V6.7058H9.00083L10.1512 9.12181L11.2115 6.7058H12.6398V10.2715H11.7707L11.7636 7.47744L10.4966 10.2715H9.71916L8.44507 7.47744V10.2715H6.65722L6.31827 9.47214H4.48709L4.14885 10.2708H3.19094L4.76563 6.7058ZM16.9686 6.7058H13.4348V10.2694H16.9139L18.0352 9.08838L19.116 10.2694H20.2459L18.6037 8.49794L20.2459 6.7058H19.1651L18.0494 7.87328L16.9686 6.7058ZM5.40304 7.30905L4.79974 8.73309H6.00564L5.40304 7.30905ZM14.3075 8.09489V7.44396V7.44335H16.5125L17.4746 8.48433L16.4699 9.53101H14.3075V8.82039H16.2353V8.09489H14.3075Z" fill="white"/>
</svg>
