<svg width="24" height="18" viewBox="0 0 24 18" fill="none" xmlns="http://www.w3.org/2000/svg">
<rect width="24" height="18" rx="4" fill="#030E1B"/>
<path fill-rule="evenodd" clip-rule="evenodd" d="M6.33692 6.25737C6.12288 6.52129 5.78042 6.72946 5.43796 6.69972C5.39515 6.34286 5.56282 5.96371 5.75902 5.72952C5.97305 5.45816 6.34762 5.26487 6.65084 5.25C6.68651 5.62172 6.54739 5.98601 6.33692 6.25737ZM6.64723 6.77035C6.34553 6.75225 6.07024 6.86489 5.84788 6.95588C5.70479 7.01443 5.58362 7.06401 5.49143 7.06401C5.38798 7.06401 5.26181 7.01177 5.12014 6.95313C4.93451 6.87629 4.72228 6.78843 4.49973 6.79265C3.98961 6.80008 3.51516 7.10118 3.25475 7.5807C2.71966 8.53974 3.11563 9.95972 3.63288 10.7403C3.88616 11.1269 4.18938 11.5507 4.58891 11.5358C4.76468 11.5289 4.89112 11.473 5.02198 11.4151C5.17262 11.3485 5.32912 11.2793 5.57348 11.2793C5.80937 11.2793 5.95902 11.3467 6.10268 11.4114C6.23927 11.4729 6.37045 11.532 6.56518 11.5284C6.97899 11.521 7.2394 11.1418 7.49267 10.7552C7.766 10.3403 7.88611 9.93535 7.90434 9.8739L7.90648 9.86679C7.90604 9.86634 7.90266 9.86473 7.89671 9.86188C7.80534 9.8183 7.10697 9.48515 7.10027 8.59179C7.09355 7.84194 7.6542 7.46202 7.74245 7.40221C7.74783 7.39857 7.75145 7.39612 7.75309 7.39484C7.39636 6.84469 6.83986 6.78521 6.64723 6.77035ZM9.51178 11.4875V5.69235H11.5986C12.676 5.69235 13.4287 6.46553 13.4287 7.59557C13.4287 8.72561 12.6617 9.50622 11.5701 9.50622H10.3751V11.4875H9.51178ZM10.375 6.45066H11.3702C12.1194 6.45066 12.5474 6.86699 12.5474 7.59928C12.5474 8.33157 12.1194 8.75162 11.3667 8.75162H10.375V6.45066ZM16.2789 10.7924C16.0506 11.2459 15.5477 11.5321 15.0054 11.5321C14.2028 11.5321 13.6427 11.034 13.6427 10.2831C13.6427 9.53967 14.185 9.11219 15.1874 9.049L16.2647 8.98209V8.66241C16.2647 8.19032 15.9686 7.93383 15.4406 7.93383C15.0054 7.93383 14.6879 8.16802 14.6237 8.52487H13.8461C13.871 7.77399 14.5488 7.22756 15.4656 7.22756C16.4537 7.22756 17.0958 7.76656 17.0958 8.60293V11.4875H16.2968V10.7924H16.2789ZM15.2372 10.8444C14.7771 10.8444 14.4845 10.614 14.4845 10.2608C14.4845 9.89653 14.7664 9.68465 15.305 9.6512L16.2646 9.58801V9.91512C16.2646 10.4578 15.8223 10.8444 15.2372 10.8444ZM19.7463 11.7143C19.4003 12.7291 19.0043 13.0636 18.1624 13.0636C18.0982 13.0636 17.8842 13.0562 17.8342 13.0413V12.3462C17.8877 12.3536 18.0197 12.361 18.0875 12.361C18.4692 12.361 18.6832 12.1938 18.8152 11.7589L18.8937 11.5024L17.4311 7.28332H18.3336L19.3503 10.7069H19.3682L20.3848 7.28332H21.2624L19.7463 11.7143Z" fill="white"/>
</svg>
