<svg width="24" height="18" viewBox="0 0 24 18" fill="none" xmlns="http://www.w3.org/2000/svg">
<path d="M0 4C0 1.79086 1.79086 0 4 0H20C22.2091 0 24 1.79086 24 4V14C24 16.2091 22.2091 18 20 18H4C1.79086 18 0 16.2091 0 14V4Z" fill="#CDD5DA"/>
<path fill-rule="evenodd" clip-rule="evenodd" d="M5.11064 9.69855C4.94849 9.85465 4.73779 9.92274 4.4043 9.92274H4.26577V8.05807H4.4043C4.73779 8.05807 4.94021 8.12169 5.11064 8.28619C5.28914 8.45547 5.39648 8.71801 5.39648 8.98806C5.39648 9.25877 5.28914 9.52926 5.11064 9.69855M4.50766 7.58038H3.75V10.4H4.50368C4.90444 10.4 5.19386 10.2993 5.44781 10.0745C5.74971 9.80835 5.92822 9.40714 5.92822 8.9922C5.92822 8.16003 5.34476 7.58038 4.50766 7.58038" fill="#212D34"/>
<path fill-rule="evenodd" clip-rule="evenodd" d="M6.16577 10.4001H6.68196V7.58038H6.16577V10.4001Z" fill="#212D34"/>
<path fill-rule="evenodd" clip-rule="evenodd" d="M7.94396 8.66239C7.63419 8.54028 7.5433 8.45977 7.5433 8.30737C7.5433 8.1298 7.70535 7.99483 7.92781 7.99483C8.08239 7.99483 8.20957 8.06259 8.34401 8.22316L8.61411 7.84635C8.39216 7.63948 8.12666 7.53381 7.83651 7.53381C7.36828 7.53381 7.01117 7.88023 7.01117 8.34169C7.01117 8.73015 7.1774 8.92907 7.6622 9.11492C7.86432 9.19095 7.96717 9.2415 8.019 9.27549C8.12216 9.34728 8.17379 9.44892 8.17379 9.56733C8.17379 9.79577 8.00336 9.96506 7.77302 9.96506C7.52684 9.96506 7.32851 9.83379 7.20971 9.5889L6.87622 9.93107C7.11402 10.3031 7.39966 10.4679 7.79245 10.4679C8.32877 10.4679 8.7051 10.0878 8.7051 9.54206C8.7051 9.094 8.5311 8.89127 7.94396 8.66239" fill="#212D34"/>
<path fill-rule="evenodd" clip-rule="evenodd" d="M8.86804 8.99214C8.86804 9.82093 9.47879 10.4635 10.2648 10.4635C10.4869 10.4635 10.6773 10.417 10.9119 10.2993V9.65186C10.7056 9.87192 10.5228 9.9607 10.2888 9.9607C9.76894 9.9607 9.39997 9.55905 9.39997 8.98801C9.39997 8.4467 9.78059 8.01967 10.2648 8.01967C10.511 8.01967 10.6973 8.11325 10.9119 8.33689V7.68981C10.6854 7.56737 10.4991 7.5166 10.2769 7.5166C9.49495 7.5166 8.86804 8.17229 8.86804 8.99214" fill="#212D34"/>
<path fill-rule="evenodd" clip-rule="evenodd" d="M15.0044 9.47435L14.2988 7.58038H13.7349L14.8578 10.4724H15.1356L16.2788 7.58038H15.7192L15.0044 9.47435Z" fill="#212D34"/>
<path fill-rule="evenodd" clip-rule="evenodd" d="M16.5122 10.4H17.976V9.92267H17.028V9.16153H17.9411V8.68396H17.028V8.05812H17.976V7.58032H16.5122V10.4Z" fill="#212D34"/>
<path fill-rule="evenodd" clip-rule="evenodd" d="M18.9842 8.8785H18.8334V8.02455H18.9924C19.3139 8.02455 19.4887 8.16802 19.4887 8.44243C19.4887 8.72588 19.3139 8.8785 18.9842 8.8785M20.0198 8.41281C20.0198 7.88491 19.6785 7.58032 19.0833 7.58032H18.3179V10.4H18.8334V9.26731H18.9008L19.6152 10.4H20.25L19.4169 9.21219C19.8057 9.12787 20.0198 8.84453 20.0198 8.41281" fill="#212D34"/>
<g filter="url(#filter0_i)">
<path fill-rule="evenodd" clip-rule="evenodd" d="M13.8959 8.99995C13.8959 9.82841 13.2656 10.5 12.4881 10.5C11.7106 10.5 11.0804 9.82841 11.0804 8.99995C11.0804 8.17148 11.7106 7.5 12.4881 7.5C13.2656 7.5 13.8959 8.17148 13.8959 8.99995" fill="url(#paint1_linear)"/>
</g>
<defs>
<filter id="filter0_i" x="11.0804" y="7.5" width="2.81544" height="3" filterUnits="userSpaceOnUse" color-interpolation-filters="sRGB">
<feFlood flood-opacity="0" result="BackgroundImageFix"/>
<feBlend mode="normal" in="SourceGraphic" in2="BackgroundImageFix" result="shape"/>
<feColorMatrix in="SourceAlpha" type="matrix" values="0 0 0 0 0 0 0 0 0 0 0 0 0 0 0 0 0 0 127 0" result="hardAlpha"/>
<feOffset dx="1" dy="1"/>
<feComposite in2="hardAlpha" operator="arithmetic" k2="-1" k3="1"/>
<feColorMatrix type="matrix" values="0 0 0 0 0.314068 0 0 0 0 0.00146228 0 0 0 0 0.00146228 0 0 0 0.5 0"/>
<feBlend mode="normal" in2="shape" result="effect1_innerShadow"/>
</filter>
<linearGradient id="paint0_linear" x1="6.88235" y1="6" x2="21.44" y2="14.2208" gradientUnits="userSpaceOnUse">
<stop stop-color="#EAECED"/>
<stop offset="1" stop-color="#CDD5DA"/>
</linearGradient>
<linearGradient id="paint1_linear" x1="14.2126" y1="9.28669" x2="12.4295" y2="7.29532" gradientUnits="userSpaceOnUse">
<stop stop-color="#FFA700"/>
<stop offset="1" stop-color="#E75A10"/>
</linearGradient>
</defs>
</svg>
