<svg width="26" height="20" viewBox="0 0 26 20" fill="none" xmlns="http://www.w3.org/2000/svg">
<rect x="1" y="1" width="24" height="18" rx="4" fill="#F5F4F4" stroke="black" stroke-width="0.1"/>
<path fill-rule="evenodd" clip-rule="evenodd" d="M20.6222 7.03134H17.3139C15.7743 7.03394 14.5271 8.20136 14.5243 9.64242C14.5222 11.0867 15.7708 12.2594 17.3139 12.2613H20.625V12.4908C20.625 15.0102 19.034 16.5 16.3417 16.5H9.28403C6.59097 16.5 5 15.0102 5 12.4908V7.00339C5 4.48397 6.59097 3 9.28403 3H16.3389C19.0313 3 20.6222 4.48397 20.6222 7.00339V7.03134ZM8.70277 7.0255H13.109H13.1118H13.1174C13.4472 7.0242 13.7139 6.77265 13.7125 6.46324C13.7111 6.15449 13.4417 5.90489 13.1118 5.90619H8.70277C8.37499 5.90749 8.10902 6.15644 8.10763 6.46389C8.10624 6.77265 8.37291 7.0242 8.70277 7.0255Z" fill="#B0B9C8"/>
<path d="M15.9667 9.97249C16.1301 10.6859 16.7816 11.1878 17.5255 11.1747H20.0645C20.374 11.1747 20.625 10.9287 20.625 10.6245V8.72586C20.6243 8.42236 20.374 8.17564 20.0645 8.17499H17.4657C16.6196 8.1776 15.9362 8.85182 15.9375 9.6827C15.9375 9.77995 15.9475 9.8772 15.9667 9.97249Z" fill="#B0B9C8"/>
<ellipse cx="17.5" cy="9.67499" rx="0.78125" ry="0.75" fill="white"/>
<defs>
<linearGradient id="paint0_linear" x1="13" y1="1" x2="13" y2="19" gradientUnits="userSpaceOnUse">
<stop stop-color="#F5F4F4"/>
<stop offset="1" stop-color="#F6F6F6"/>
</linearGradient>
</defs>
</svg>
