<svg width="24" height="18" viewBox="0 0 24 18" fill="none" xmlns="http://www.w3.org/2000/svg">
<rect x="0.5" y="0.5" width="23" height="17" rx="3.5" fill="white" stroke="#D6D7DA"/>
<path fill-rule="evenodd" clip-rule="evenodd" d="M11.2402 11.5407V9.46195H12.4728C12.9779 9.46195 13.4042 9.31464 13.7517 9.02411L13.8352 8.95046C14.47 8.34894 14.4283 7.41189 13.7517 6.85538C13.4135 6.56076 12.9501 6.40117 12.4728 6.40936H10.4941V11.5407H11.2402ZM11.2403 8.83175V7.03948H12.4916C12.7604 7.03948 13.0153 7.1295 13.2053 7.29318C13.6086 7.6369 13.6178 8.20977 13.2285 8.56577C13.0385 8.74173 12.7697 8.83993 12.4916 8.83175H11.2403ZM17.3152 8.30392C16.9955 8.04612 16.5599 7.91518 16.0084 7.91518C15.2995 7.91518 14.7666 8.14433 14.4144 8.59854L15.0724 8.96272C15.3134 8.65173 15.6424 8.49624 16.0594 8.49624C16.3235 8.49624 16.5784 8.58217 16.7777 8.73766C16.9723 8.88497 17.0835 9.09775 17.0835 9.32281V9.47421C16.7962 9.33509 16.4348 9.26143 15.9899 9.26143C15.4709 9.26143 15.0539 9.36782 14.7434 9.5847C14.4329 9.80157 14.2754 10.088 14.2754 10.4522C14.2661 10.7836 14.4283 11.0987 14.7156 11.3115C15.0075 11.5406 15.3782 11.6552 15.8138 11.6552C16.3282 11.6552 16.736 11.4547 17.0464 11.0537H17.0789V11.5406H17.7925V9.37601C17.7925 8.9218 17.6349 8.56171 17.3152 8.30392ZM15.2903 10.8941C15.1374 10.7959 15.0447 10.6363 15.0447 10.4645C15.0447 10.2722 15.1466 10.1126 15.3459 9.98573C15.5499 9.85888 15.8048 9.79341 16.106 9.79341C16.5231 9.78931 16.8475 9.87115 17.0793 10.0348C17.0793 10.3131 16.9541 10.5545 16.7085 10.7591C16.486 10.9555 16.1848 11.066 15.8696 11.066C15.6611 11.0701 15.4572 11.0087 15.2903 10.8941ZM19.3958 13.0833L21.8888 8.02975H21.0779L19.9241 10.5504H19.9102L18.7285 8.02975H17.9176L19.5534 11.3156L18.6266 13.0833H19.3958Z" fill="#3C4043"/>
<path d="M8.66452 9.01185C8.66452 8.81135 8.64599 8.61084 8.60891 8.41443H5.46252V9.5479H7.2651C7.19095 9.91208 6.94999 10.2394 6.59782 10.444V11.1806H7.67288C8.30308 10.6691 8.66452 9.91208 8.66452 9.01185Z" fill="#4285F4"/>
<path d="M5.4626 11.8926C6.36157 11.8926 7.12152 11.6307 7.67295 11.1806L6.5979 10.4441C6.2967 10.6241 5.91209 10.7264 5.4626 10.7264C4.59144 10.7264 3.85465 10.2067 3.59052 9.51111H2.48303V10.2722C3.04836 11.2666 4.20219 11.8926 5.4626 11.8926Z" fill="#34A853"/>
<path d="M3.59069 9.51109C3.45165 9.1469 3.45165 8.74998 3.59069 8.38171V7.62469H2.48302C2.00566 8.45536 2.00566 9.43743 2.48302 10.2681L3.59069 9.51109Z" fill="#FBBC04"/>
<path d="M5.4626 7.16638C5.93989 7.1582 6.39864 7.31779 6.74155 7.60832L7.69612 6.76537C7.08909 6.26615 6.29206 5.99199 5.4626 6.00018C4.20219 6.00018 3.04836 6.63034 2.48303 7.62468L3.59052 8.38579C3.85465 7.68606 4.59144 7.16638 5.4626 7.16638Z" fill="#EA4335"/>
</svg>
