<svg width="24" height="18" viewBox="0 0 24 18" fill="none" xmlns="http://www.w3.org/2000/svg">
<rect width="24" height="18" rx="4" fill="#606060"/>
<path fill-rule="evenodd" clip-rule="evenodd" d="M8.88889 13.7778C11.5889 13.7778 13.7778 11.5889 13.7778 8.88889C13.7778 6.18883 11.5889 4 8.88889 4C6.18883 4 4 6.18883 4 8.88889C4 11.5889 6.18883 13.7778 8.88889 13.7778Z" fill="#D8232A"/>
<path fill-rule="evenodd" clip-rule="evenodd" d="M12 12.6603C12.8453 13.3584 13.9292 13.7778 15.1111 13.7778C17.8112 13.7778 20 11.5889 20 8.88889C20 6.18883 17.8112 4 15.1111 4C13.9292 4 12.8453 4.41939 12 5.11748C13.0858 6.01418 13.7778 7.37072 13.7778 8.88889C13.7778 10.4071 13.0858 11.7636 12 12.6603Z" fill="#ED9F2D"/>
<path fill-rule="evenodd" clip-rule="evenodd" d="M11.9999 5.11743C10.9142 6.01414 10.2222 7.37068 10.2222 8.88884C10.2222 10.407 10.9142 11.7636 11.9999 12.6603C13.0857 11.7636 13.7777 10.407 13.7777 8.88884C13.7777 7.37068 13.0857 6.01414 11.9999 5.11743Z" fill="#D8232A"/>
<mask id="mask0" style="mask-type:alpha" maskUnits="userSpaceOnUse" x="10" y="5" width="4" height="8">
<path fill-rule="evenodd" clip-rule="evenodd" d="M11.9999 5.11743C10.9142 6.01414 10.2222 7.37068 10.2222 8.88884C10.2222 10.407 10.9142 11.7636 11.9999 12.6603C13.0857 11.7636 13.7777 10.407 13.7777 8.88884C13.7777 7.37068 13.0857 6.01414 11.9999 5.11743Z" fill="white"/>
</mask>
<g mask="url(#mask0)">
<path fill-rule="evenodd" clip-rule="evenodd" d="M9.33341 5.77777H14.6667V6.66666H9.33341V5.77777ZM9.33337 7.55556H14.6667V8.44444H9.33337V7.55556ZM14.6667 9.33333H9.33337V10.2222H14.6667V9.33333ZM9.33337 11.1111H14.6667V12H9.33337V11.1111ZM14.6667 12.8889H9.33337V13.7778H14.6667V12.8889Z" fill="#ED9F2D"/>
</g>
<defs>
<linearGradient id="paint0_linear" x1="-4.96705e-08" y1="9.75" x2="24" y2="9.75" gradientUnits="userSpaceOnUse">
<stop stop-color="#050505"/>
<stop offset="1" stop-color="#606060"/>
</linearGradient>
</defs>
</svg>
