<svg width="24" height="18" viewBox="0 0 24 18" fill="none" xmlns="http://www.w3.org/2000/svg">
<rect width="24" height="18" rx="4" fill="#5383CF"/>
<path fill-rule="evenodd" clip-rule="evenodd" d="M7.46269 11.8187H5.91788L4.75947 7.26929C4.70448 7.06002 4.58774 6.87501 4.41601 6.78781C3.98744 6.56868 3.51519 6.39429 3 6.30633V6.13118H5.48856C5.83202 6.13118 6.08961 6.39429 6.13254 6.69985L6.73359 9.98149L8.27765 6.13118H9.77952L7.46269 11.8187ZM10.6382 11.8187H9.17922L10.3806 6.13118H11.8395L10.6382 11.8187ZM13.727 7.70679C13.77 7.40046 14.0276 7.22531 14.3281 7.22531C14.8003 7.18133 15.3148 7.26928 15.7441 7.48766L16.0017 6.26311C15.5724 6.08796 15.1001 6 14.6715 6C13.2555 6 12.2252 6.78781 12.2252 7.88118C12.2252 8.71296 12.955 9.1497 13.4702 9.41281C14.0276 9.67516 14.2422 9.85031 14.1993 10.1127C14.1993 10.5062 13.77 10.6813 13.3414 10.6813C12.8262 10.6813 12.311 10.5502 11.8395 10.331L11.5819 11.5563C12.0971 11.7747 12.6545 11.8627 13.1697 11.8627C14.7574 11.9059 15.7441 11.1188 15.7441 9.93751C15.7441 8.44985 13.727 8.36266 13.727 7.70679V7.70679ZM20.85 11.8187L19.6916 6.13118H18.4473C18.1897 6.13118 17.9321 6.30633 17.8463 6.56868L15.7012 11.8187H17.203L17.5028 10.9877H19.3481L19.5199 11.8187H20.85ZM18.662 7.66281L19.0905 9.80633H17.8892L18.662 7.66281Z" fill="white"/>
<defs>
<linearGradient id="paint0_linear" x1="0" y1="9" x2="24" y2="9" gradientUnits="userSpaceOnUse">
<stop stop-color="#5383CF"/>
<stop offset="1" stop-color="#23539F"/>
</linearGradient>
</defs>
</svg>
