<svg id="Layer_1" data-name="Layer 1" xmlns="http://www.w3.org/2000/svg" viewBox="0 0 259.67 299.27"><defs><style>.cls-1{fill:#fff;}</style></defs><path class="cls-1" d="M57.37,85.06C46,95.27,37.84,108.84,32.63,123.14c-5.29,14.53-7.52,30.46-5.45,45.83a71.06,71.06,0,0,0,6.35,21.52A99.66,99.66,0,0,0,47,211.17a118,118,0,0,0,38.35,29.75,136.92,136.92,0,0,0,51.28,13.79,120.21,120.21,0,0,0,56.92-9.56,111.29,111.29,0,0,0,38.35-28.44,112.9,112.9,0,0,0,23.52-42.33,110.84,110.84,0,0,0,2.39-50.82,111.8,111.8,0,0,0-28.13-56.47,4.26,4.26,0,0,0-6,6A103.34,103.34,0,0,1,246.77,114a111.89,111.89,0,0,1,2.81,11.84q.28,1.53.51,3.06c.07.44.13.88.19,1.32s0,.06,0,0c.05.37.09.73.14,1.1q.35,3,.54,6a104.36,104.36,0,0,1,.08,12.38q-.15,3-.47,5.95l-.18,1.54c-.09.76,0-.14-.08.62q-.21,1.53-.48,3.06a100.65,100.65,0,0,1-2.75,11.75c-.54,1.81-1.13,3.59-1.76,5.36-.31.86-.63,1.7-1,2.55-.17.45-.35.9-.54,1.36-.07.19-.15.38-.23.57-.28.69,0-.07-.14.34a106.07,106.07,0,0,1-26,36.67c-1.39,1.28-2.81,2.51-4.25,3.71-.76.63-1.52,1.24-2.28,1.84l-.47.36-1.34,1a107.26,107.26,0,0,1-9.6,6.31,105.62,105.62,0,0,1-10.22,5.22l-1,.45-.84.35c-1,.39-2,.77-2.93,1.13-2.11.78-4.25,1.5-6.41,2.14a109,109,0,0,1-27.23,4.53,127.28,127.28,0,0,1-51.21-8.46c-.87-.33-1.73-.67-2.59-1l-.79-.33c.09,0,.49.21,0,0l-1.57-.68q-2.64-1.17-5.23-2.46-5.26-2.61-10.26-5.71a107.45,107.45,0,0,1-26-22.45c-.58-.7-1.16-1.4-1.73-2.12-.1-.13-.73-.95-.37-.47l-1-1.35q-1.76-2.37-3.36-4.85A92.47,92.47,0,0,1,41,186.39c-.37-.77-.72-1.54-1.07-2.32s.15.41-.15-.35c-.19-.47-.37-.93-.55-1.39-.62-1.64-1.17-3.31-1.66-5s-.87-3.3-1.22-5c-.17-.81-.32-1.62-.46-2.44-.08-.44-.15-.88-.22-1.32,0-.19,0-.38-.08-.58-.18-1.22.06.51,0-.2a81.5,81.5,0,0,1-.62-10.7,95.05,95.05,0,0,1,.73-10.92c.06-.5,0,.07,0,.14,0-.26.07-.53.11-.8l.18-1.19c.15-.93.31-1.85.48-2.78q.52-2.78,1.2-5.53a104.5,104.5,0,0,1,3.24-10.65c.3-.83.61-1.64.93-2.46.17-.44.35-.88.53-1.31.07-.19.15-.38.23-.56-.17.41-.08.17,0-.1.75-1.72,1.53-3.43,2.37-5.11a93.43,93.43,0,0,1,5.41-9.48c1-1.53,2-3,3.12-4.5l.7-.93c.3-.39,0,0-.07.1l.48-.61q.84-1.05,1.71-2.07a75.28,75.28,0,0,1,7.11-7.29,4.26,4.26,0,1,0-6-6"/><path class="cls-1" d="M148.69,56a43.8,43.8,0,0,1-4-10.67A43.65,43.65,0,0,1,143.43,34a47,47,0,0,1,5.45-21.91,4.26,4.26,0,0,0-7.35-4.3,56.43,56.43,0,0,0-.19,52.47,4.26,4.26,0,0,0,7.35-4.3"/><path class="cls-1" d="M113.21,9.32A204.9,204.9,0,0,0,128.06,58.9c.92,2.1,4,2.59,5.82,1.53,2.17-1.27,2.46-3.72,1.53-5.83a197.92,197.92,0,0,1-14-47.54c-.37-2.27-3.19-3.54-5.24-3-2.41.67-3.34,3-3,5.24"/><path class="cls-1" d="M134.45,54.17c-7.24-3.67-15.23-2.28-22.33,1-6.25,2.89-11.55,7.47-17.8,10.37a23.37,23.37,0,0,1-16.69,1A22.58,22.58,0,0,1,70,62.67c.61.46-.5-.42-.49-.41l-.65-.58c-.63-.58-1.23-1.18-1.8-1.82l-.56-.65c-.89-1,.41.62-.38-.48-.5-.69-1-1.4-1.41-2.13s-.85-1.49-1.22-2.25c0,0-.57-1.29-.26-.55-.16-.39-.31-.79-.46-1.19a32.54,32.54,0,0,1-1.28-5c-.25-1.35.05.81-.08-.56,0-.42-.08-.85-.1-1.28,0-.85-.06-1.7,0-2.55,0-.43,0-.86.08-1.28,0-.14.14-1.3,0-.56a24.55,24.55,0,0,1,.6-2.93,4.26,4.26,0,0,0-8.22-2.26c-3.56,13.87,2.77,29.39,15.59,36.1a33.36,33.36,0,0,0,20.93,3.3c7.44-1.23,13.66-5.69,19.9-9.61a37,37,0,0,1,10.18-4.9,14.88,14.88,0,0,1,5.34-.69,10.44,10.44,0,0,1,4.46,1.09A4.37,4.37,0,0,0,136,60a4.3,4.3,0,0,0-1.53-5.83"/><path class="cls-1" d="M52,35.16C49,46.06,45.8,57.54,47.23,69c1.13,9,5,18.18,12.21,24a27.71,27.71,0,0,0,14.37,5.94,36.49,36.49,0,0,0,15.67-2c10.17-3.42,18.59-10.1,27.9-15.2A41.67,41.67,0,0,1,132,76.45c.75-.09,2.4-.2,3.53-.2.67,0,1.35,0,2,.07l.89.08c.43,0-.29-.08.42,0a25.56,25.56,0,0,1,3.87,1l.63.23c.27.11.28.11,0,0l.4.19c.68.34,1.33.69,2,1.08a4.26,4.26,0,1,0,4.3-7.35c-8.62-5.26-19.53-4.63-28.68-1.15-9.67,3.67-17.79,10.12-26.84,15A43.19,43.19,0,0,1,81.29,90.2a30.68,30.68,0,0,1-6.77.23s-.74-.08-.38,0-.54-.09-.61-.11c-.55-.1-1.09-.21-1.63-.35s-1.24-.34-1.84-.55l-.68-.25c-.52-.2.37.2-.33-.15a25.92,25.92,0,0,1-2.48-1.36c-.46-.28-.9-.59-1.33-.9.58.42-.53-.45-.7-.59A27,27,0,0,1,62.39,84c-.31-.35-.62-.71-.91-1.08-.08-.09-.48-.64-.09-.1l-.47-.66a30.72,30.72,0,0,1-1.63-2.61c-.23-.42-.45-.85-.67-1.28l-.36-.74c0-.09-.47-1.05-.29-.63.07.17-.3-.76-.4-1-.19-.52-.38-1-.54-1.58-.32-1-.59-2-.82-3-.14-.6-.26-1.21-.37-1.83,0-.2-.06-.4-.1-.61-.08-.48,0,.5,0-.3-.16-1.43-.26-2.87-.28-4.32A55.18,55.18,0,0,1,56,55.69a148.81,148.81,0,0,1,4.27-18.26,4.3,4.3,0,0,0-3-5.24,4.35,4.35,0,0,0-5.24,3"/><path class="cls-1" d="M147.89,61.49a17.29,17.29,0,0,1,2.17-1.43c.38-.21.76-.4,1.15-.59,1.17-.56-.68.17.56-.22.68-.22,1.35-.45,2-.62q.63-.15,1.26-.27c.29-.06.57-.1.86-.14-.41.05-.36.05.16,0a30.92,30.92,0,0,1,9.49.64c7.46,1.64,14.31,5.21,21.62,7.34a39.72,39.72,0,0,0,21.38.58,41.86,41.86,0,0,0,17.11-9.38,38.29,38.29,0,0,0,11.53-18.88A4.26,4.26,0,1,0,229,36.25a33.55,33.55,0,0,1-1.33,4.16c.32-.83-.17.37-.2.44L227,41.92c-.36.7-.74,1.4-1.15,2.08s-.76,1.23-1.18,1.83c-.18.27-.38.54-.57.81-.73,1.06.52-.6-.3.4a38,38,0,0,1-3.21,3.51,27.88,27.88,0,0,1-6.46,4.81c-.69.39-1.4.77-2.11,1.12l-1.08.51c-.12.06-.75.32-.08,0a32.31,32.31,0,0,1-4.51,1.52c-.7.19-1.41.35-2.12.49-.32.07-.65.13-1,.18-.11,0-1.4.18-.44.07a34.19,34.19,0,0,1-4.74.22,35.53,35.53,0,0,1-9.54-1.82c-7.24-2.24-14.08-5.76-21.54-7.24-7.86-1.55-16.72-1.32-23.38,3.68-1.84,1.38-2.79,3.68-1.53,5.83,1.06,1.81,4,2.91,5.83,1.53"/><path class="cls-1" d="M231.37,36.63a52.61,52.61,0,0,1-2.59,10c-.16.46-.33.91-.51,1.36l-.24.57c0-.08.23-.51,0-.06-.36.83-.73,1.64-1.13,2.45-.77,1.55-1.6,3.07-2.51,4.54s-1.89,2.9-2.91,4.29a3.1,3.1,0,0,1-.35.46l-.78,1c-.58.69-1.17,1.37-1.78,2q-1.82,2-3.83,3.81c-.61.55-1.24,1.1-1.88,1.62l-1,.79c-.38.3,0,0,0,0l-.66.49a52.6,52.6,0,0,1-8.9,5.29q-.66.32-1.32.6c-.45.2,0,0,.06,0l-.59.24c-.88.35-1.76.68-2.66,1-1.72.6-3.48,1.12-5.25,1.58s-3.58.83-5.39,1.14L186,80a4.63,4.63,0,0,1-.62.09c-1,.11-1.9.2-2.85.28a60.31,60.31,0,0,1-11.16-.2l-.65-.08c-.72-.09.57.09-.15,0l-1.5-.25c-1-.18-2-.38-3-.62a49.69,49.69,0,0,1-5.76-1.75l-.6-.24c-.2-.07-.91-.36-.38-.13L158,76.42c-.91-.43-1.8-.88-2.68-1.37a44,44,0,0,1-5.22-3.44c-1.83-1.4-4.77-.29-5.83,1.53-1.28,2.19-.31,4.42,1.53,5.82,13,9.93,30.49,11.8,46.14,8.56a61.06,61.06,0,0,0,38.18-25.09,57.51,57.51,0,0,0,9.5-23.53c.35-2.19-.56-4.69-3-5.24-2-.46-4.87.62-5.24,3"/><path class="cls-1" d="M133.1,52.9c-.8-9.94-8.11-19-18-21.24-5.84-1.33-11.69.31-17.22.69a15,15,0,0,1-7.05-.87c.63.24-.8-.39-.92-.46-.5-.27-1-.57-1.46-.88-.24-.16-.47-.32-.7-.5.17.14.44.41-.13-.14s-.93-.86-1.37-1.34c-.19-.21-.38-.42-.55-.64s-.18-.22,0,0l-.24-.35c-.39-.61-.76-1.22-1.1-1.87A6.55,6.55,0,0,1,83.88,24a16.2,16.2,0,0,1-.49-2c0-.08-.09-.83,0-.26,0-.38-.06-.77-.06-1.15a16.16,16.16,0,0,1,.07-2.09c-.06.57,0-.18,0-.25.09-.46.18-.91.3-1.36.09-.3.17-.6.27-.89,0-.11.49-1.22.26-.71.94-2.1.6-4.58-1.53-5.83-1.82-1.06-4.87-.58-5.82,1.53a21.57,21.57,0,0,0-.23,17.84A21,21,0,0,0,88.58,39.69c5.67,2.16,11.87.79,17.35.15a33.88,33.88,0,0,1,4.15-.26c.65,0,1.3.05,2,.11-.85-.08.8.18,1,.23a17.41,17.41,0,0,1,1.7.51q.38.12.75.27c-.18-.07-.66-.33.07,0a24.22,24.22,0,0,1,2.9,1.71c.08.06.73.56.36.26s.42.37.49.43c.49.44,1,.91,1.42,1.39.18.2.36.39.53.6,0,0,.79,1,.32.38.35.49.68,1,1,1.49s.56,1,.84,1.57c.38.71.13.25.06.07.15.36.28.74.41,1.11a15.82,15.82,0,0,1,.51,1.91q.09.39.15.78c-.13-.76,0,.2,0,.45.18,2.21,1.84,4.36,4.26,4.25,2.16-.09,4.45-1.88,4.26-4.25"/><path class="cls-1" d="M75.13,9.33C68.71,21,64.9,35.38,70.1,48.21A31.45,31.45,0,0,0,81.42,62.74c4.43,3,9.7,3.8,15,3.9,5.41.09,11.43-.33,16.48-2.41,2.13-.87,3.64-2.83,3-5.24-.56-2-3.1-3.85-5.24-3A27.12,27.12,0,0,1,105,57.54c-.25,0-1.83.27-.87.15l-1.52.17c-1.29.13-2.59.21-3.9.25a44.7,44.7,0,0,1-6.84-.3c1,.13-.5-.1-.76-.15-.48-.1-.95-.2-1.42-.33s-.78-.22-1.16-.35c-.09,0-1-.38-.29-.09s-.28-.15-.41-.22a16.51,16.51,0,0,1-5.48-4.29,12.27,12.27,0,0,1-1.76-2.26,28,28,0,0,1-2-3.46l-.36-.76c.27.59,0,0-.06-.15-.25-.66-.49-1.31-.71-2a30.49,30.49,0,0,1-.93-3.68c-.07-.34-.13-.69-.18-1-.12-.79.08,1,0-.33-.05-.61-.11-1.23-.14-1.84a35.87,35.87,0,0,1,.08-4.75c.51-6.24,3-12.8,6.18-18.5a4.26,4.26,0,1,0-7.36-4.3"/><path class="cls-1" d="M147.55,53.38a35.37,35.37,0,0,1-.26-4.6c0-.76.05-1.53.12-2.29,0-.31.05-.62.09-.92q.09-.8,0-.24c0-.23.07-.46.11-.68a30.72,30.72,0,0,1,2.67-8.36,27.18,27.18,0,0,1,4.84-7,25.67,25.67,0,0,1,6.49-5.09,29.05,29.05,0,0,1,16.83-3.88c7,.37,14,2.06,21,.36,6.51-1.59,13-6.19,14.33-13.11.43-2.18-.62-4.7-3-5.24-2.12-.48-4.78.64-5.24,3a11.43,11.43,0,0,1-.51,1.82c.31-.81-.44.7-.58,1-.54,1,.33-.34-.1.18-.2.24-.4.48-.62.7s-.44.44-.68.65l-.43.38,0,0c-.54.36-1.08.71-1.65,1l-.7.37c.05,0-1.12.49-.57.27s-.66.23-.6.21c-.31.11-.63.21-1,.3-.7.21-1.4.38-2.12.52-.11,0-1.39.17-.42.07l-.77.08c-.91.06-1.82.08-2.74.07-2,0-4-.2-6-.41a83.32,83.32,0,0,0-10.93-.78A37.35,37.35,0,0,0,139,53.38c.27,2.2,1.76,4.37,4.26,4.26,2.07-.09,4.54-1.89,4.25-4.26"/><path class="cls-1" d="M205.61,6.8a36.11,36.11,0,0,1,.32,6.06c0,1-.12,2-.24,3,.09-.72-.09.61-.12.8-.1.57-.21,1.14-.34,1.7a37.06,37.06,0,0,1-1.77,5.81c0,.08-.37.9-.19.49s-.14.29-.14.29c-.22.46-.43.92-.66,1.37-.48,1-1,1.92-1.58,2.84a26.64,26.64,0,0,1-3.21,4.35,33.18,33.18,0,0,1-4.45,4.18c-.3.23-1.56,1.1-2.25,1.55-1,.64-2,1.24-3.07,1.8s-2,1-3,1.48l-1,.46-1.49.6a144.4,144.4,0,0,1-15,4.61,4.26,4.26,0,1,0,2.26,8.21c9.52-2.55,19.46-5.26,27.53-11.15A41.75,41.75,0,0,0,213,22.34a40,40,0,0,0,1.1-15.54c-.3-2.19-1.75-4.37-4.26-4.25-2.05.09-4.57,1.89-4.26,4.25"/><path class="cls-1" d="M28.16,148.59c-5.17-1.59-10.44-2.92-15.87-2a15.41,15.41,0,0,0-10.82,7.66A11.69,11.69,0,0,0,2.89,167.6c2.84,3.36,7.42,5,11.59,5.94a45.94,45.94,0,0,0,17.87.37c2.2-.37,3.63-3.2,3-5.23a4.38,4.38,0,0,0-5.24-3A37.12,37.12,0,0,1,16,165.16c-1.11-.27-2.2-.6-3.28-1s.69.37-.42-.17c-.47-.23-.93-.46-1.37-.72-.15-.09-1.41-1-.71-.42a14.82,14.82,0,0,1-1.08-1c-.31-.37-.32-.37,0,0-.13-.2-.27-.41-.38-.62-.22-.44-.23-.44,0,0a5.6,5.6,0,0,1-.17-.54,3.53,3.53,0,0,1-.13-.54c.06.52.07.54,0,0,0-.24,0-.48,0-.72-.08.54-.08.56,0,.07.07-.2.61-1.54.18-.69.23-.45.48-.87.75-1.29-.47.73.4-.45.54-.59a10.44,10.44,0,0,1,.86-.78c-.66.54.57-.35.72-.44s1.56-.69.72-.39a9,9,0,0,1,2.91-.61c.5,0,1,0,1.5,0q.5,0,1,.06c.54.06.67.07.37,0a44.54,44.54,0,0,1,7.88,2,4.29,4.29,0,0,0,5.24-3,4.34,4.34,0,0,0-3-5.24"/><path class="cls-1" d="M118.16,8.88a45.85,45.85,0,0,1,24.6,3.57c2,.93,4.68.65,5.83-1.53,1-1.86.63-4.83-1.53-5.82A54.14,54.14,0,0,0,118.16.36c-2.2.26-4.37,1.77-4.26,4.26.09,2.08,1.89,4.54,4.26,4.26"/><path class="cls-1" d="M61.35,187.34a310.78,310.78,0,0,0,12.1,62.57,4.26,4.26,0,0,0,8.21-2.27,299.6,299.6,0,0,1-11.79-60.3c-.2-2.21-1.82-4.37-4.26-4.26-2.14.1-4.47,1.88-4.26,4.26"/><path class="cls-1" d="M112.11,248.57c3.2,15.53,7.85,30.72,11.06,46.25a4.29,4.29,0,0,0,5.24,3,4.34,4.34,0,0,0,3-5.24c-3.2-15.52-7.86-30.72-11.06-46.24a4.26,4.26,0,1,0-8.21,2.26"/><path class="cls-1" d="M129.34,290.86l-18.06-6.68a4.28,4.28,0,0,0-5.24,3,4.38,4.38,0,0,0,3,5.24l18,6.69a4.29,4.29,0,0,0,5.24-3,4.37,4.37,0,0,0-3-5.24"/><path class="cls-1" d="M146.05,252.17q2.25,19.07,4.51,38.14c.26,2.2,1.77,4.37,4.26,4.25,2.08-.09,4.53-1.88,4.25-4.25l-4.5-38.14c-.26-2.21-1.77-4.37-4.26-4.26-2.08.09-4.54,1.89-4.26,4.26"/><path class="cls-1" d="M156.63,288l-12-12.71a4.26,4.26,0,1,0-6,6l12,12.71a4.26,4.26,0,1,0,6-6"/></svg>