<svg id="Layer_1" data-name="Layer 1" xmlns="http://www.w3.org/2000/svg" viewBox="0 0 297.71 369.81"><path d="M10.09,89.85A224,224,0,0,1,27.06,72q4.44-4.2,9.1-8.15c3.05-2.59,6.46-5.32,9.19-7.39A240.14,240.14,0,0,1,87.3,31q2.81-1.34,5.66-2.59l2.65-1.16.82-.34c-.09,0-.44.18,0,0l1.64-.68c3.77-1.55,7.59-3,11.43-4.35a237.67,237.67,0,0,1,23.66-7q5.94-1.44,12-2.56,3.06-.57,6.13-1.06l3.07-.47,1.32-.19.88-.12c-.46.06,0,0,.19,0a234.93,234.93,0,0,1,24.58-1.88,215.53,215.53,0,0,1,25.28.88,111.51,111.51,0,0,1,13.21,2,82.14,82.14,0,0,1,13.32,3.94A61.79,61.79,0,0,1,239,18.11a4.26,4.26,0,0,0,4.3-7.35C226.51,1.85,206.84.16,188.18,0A237.19,237.19,0,0,0,137.84,5.1,246.54,246.54,0,0,0,89.48,20.71,239.76,239.76,0,0,0,46.07,45.38,233.49,233.49,0,0,0,8.16,79.14c-1.39,1.54-2.75,3.11-4.1,4.69a4.38,4.38,0,0,0,0,6c1.53,1.53,4.53,1.76,6,0"/><path d="M238.22,18.61a27.21,27.21,0,0,1,2.34,1.49l.52.38c-.31-.23-.26-.18.14.14s.64.55,1,.84c.62.59,1.22,1.2,1.79,1.84.28.32.56.65.82,1-.43-.54.28.41.36.52a25.88,25.88,0,0,1,1.47,2.36c.24.43.47.88.68,1.33.06.12.53,1.22.26.55A25.24,25.24,0,0,1,249,34.17q.08.45,0-.06c0,.22.06.44.08.66,0,.52.08,1,.09,1.55a26.18,26.18,0,0,1-.05,2.66s-.14,1.38,0,.63c-.05.44-.13.88-.22,1.32a24.79,24.79,0,0,1-.71,2.79,17.73,17.73,0,0,1-2,4.45,17.13,17.13,0,0,1-3.11,4,4.26,4.26,0,1,0,6,6,30.51,30.51,0,0,0,8.22-25.91,30.12,30.12,0,0,0-14.78-21.07,4.26,4.26,0,1,0-4.29,7.35"/><path d="M6.29,94.45a69,69,0,0,1,13.85-.16,23.07,23.07,0,0,1,9.37,3.13,15.16,15.16,0,0,1,3.62,3.09c.89.95-.31-.55.42.52.25.36.49.72.72,1.1s.44.76.64,1.15c.06.12.55,1.21.29.59a16.54,16.54,0,0,1,.8,2.5c.1.43.19.86.26,1.29-.14-.82.05.59.06.61a25.62,25.62,0,0,1,0,2.63c0,1.32.19-.66-.06.6-.11.56-.23,1.12-.39,1.67-1.6,5.71-6.93,10.37-13.31,10-1.22-.08.46.21-.72-.12-.45-.13-.9-.25-1.35-.39-1.26-.4.47.36-.53-.24-.34-.2-.7-.37-1-.59-.06,0-1.11-.8-.42-.26-.31-.24-.61-.51-.9-.78s-.56-.56-.83-.86c-.1-.1-1.07-1.31-.61-.69a26.38,26.38,0,0,1-2.37-3.87c-.39-.74-.75-1.5-1.1-2.26l-.51-1.15c.3.68-.31-.77-.36-.91C10.17,107,8.31,102.6,8.49,98.42c0-.1.15-1.39,0-.46a13.52,13.52,0,0,1,.34-1.56c.11-.39.24-.77.38-1.15-.29.77.34-.63.42-.78.19-.33.41-.67.64-1-.51.68.51-.47.62-.58.72-.77-.57.22.36-.28a15.08,15.08,0,0,1,1.38-.72c2.12-.9,2.59-4,1.53-5.82-1.28-2.19-3.7-2.44-5.82-1.53-4.14,1.77-7,6.07-7.91,10.36-1.11,5.06,0,10.15,1.81,14.92C5.3,118,8.9,127.1,17.59,130.59c9.35,3.76,20.19-2.15,24.63-10.58A22.71,22.71,0,0,0,38.4,93.68c-8.39-8.52-21-8.63-32.11-7.75C4.08,86.1,1.93,87.76,2,90.19c.09,2.15,1.88,4.44,4.25,4.26"/><path d="M35,127.77c12.52-7,23.64-16.19,34.55-25.43,5.34-4.52,10.65-9.08,16.12-13.45,2.8-2.25,4.71-3.72,7.73-5.91,2.79-2,5.63-4,8.54-5.78s5.87-3.51,8.92-5q2.1-1.07,4.24-2l1.18-.51.57-.24c.93-.37,1.86-.74,2.8-1.08a93.34,93.34,0,0,1,23.21-5.14c16.75-1.58,33.55.11,50.3.67,18.71.63,37.67-.35,55.11-7.78,2.12-.9,2.58-4,1.53-5.82-1.28-2.19-3.7-2.43-5.83-1.53a88.31,88.31,0,0,1-22.48,5.76,171.78,171.78,0,0,1-24.74,1C180,55,163.26,53.22,146.51,54.34a109.48,109.48,0,0,0-25.27,4.42,99.2,99.2,0,0,0-19.58,8.67c-12.22,7-23.08,16.13-33.79,25.2-12.14,10.3-23.25,20-37.18,27.79a4.26,4.26,0,1,0,4.3,7.35"/><path d="M136.9,63.36a70.13,70.13,0,0,0,50-19.32,4.26,4.26,0,1,0-6-6,55,55,0,0,1-9.3,7.28,63.11,63.11,0,0,1-10.74,5.44,65.88,65.88,0,0,1-12,3.31,45.66,45.66,0,0,1-5.51.67c-2.15.15-4.31.19-6.46.13a4.29,4.29,0,0,0-4.26,4.25,4.34,4.34,0,0,0,4.26,4.26"/><path d="M31.92,131.69c.45,0,.91.09,1.36.15-.79-.1.67.11.66.1.89.15,1.78.31,2.67.5A55.53,55.53,0,0,1,42.27,134c.86.27,1.71.57,2.56.89l1.26.48s1.32.55.66.26c1.8.78,3.57,1.64,5.29,2.58a71.24,71.24,0,0,1,17.28,13.06c11.11,11.2,18.87,25.37,25.43,39.85,7.22,15.93,13,32.59,21.06,48.25a178.85,178.85,0,0,0,66,71,4.26,4.26,0,1,0,4.3-7.36,170.4,170.4,0,0,1-61.42-65.12c-16-29.94-23.53-64.78-47.11-90.36-12-13-27.88-22.49-45.62-24.34-2.22-.23-4.35,2.12-4.25,4.26a4.38,4.38,0,0,0,4.25,4.26"/><path d="M239.72,57.43q1.86,44.58-.59,89.2c-1.62,29.32-4.52,58.68-9,87.64-2.06,13.33-7.57,25.72-10.2,38.91-.44,2.18.62,4.7,3,5.24,2.12.48,4.77-.64,5.24-3,2.33-11.68,7.08-22.66,9.4-34.32,1.44-7.28,2.29-14.71,3.26-22.07s1.86-14.62,2.66-21.95q4.89-44.49,5.5-89.3.33-25.2-.74-50.38a4.26,4.26,0,1,0-8.51,0"/><path d="M208.71,319c.79.1,0,0-.09,0-.94-1.14,2.66,5.46,2.66,3.71a4.54,4.54,0,0,0-.7-2.41c-1-1.63-2.66-2.11-4.24-2.93a57.7,57.7,0,0,1-8.22-5.75c-2.83-2.17-5.64-4.36-8.49-6.5-2.08-1.55-4.51-2.45-6.59-4-1.84-1.38-4.76-.3-5.83,1.52-1.27,2.18-.32,4.45,1.53,5.83,2.15,1.61,4.66,2.54,6.81,4.17,3,2.31,6.08,4.65,9.12,7a44.36,44.36,0,0,0,8.43,5.62c.38.17.76.36,1.14.51l.23.14a2.65,2.65,0,0,1-1.44-2.15c-.64-2.38.08.85.36,1.35,1.11,2,3.32,2.21,5.32,2.46,2.21.29,4.35-2.16,4.25-4.26-.11-2.55-1.88-3.95-4.25-4.25"/><path d="M44.45,120c7,3.57,14.08,7.14,20.86,11.17a113,113,0,0,1,18,12.81,68.47,68.47,0,0,1,13.4,15.74,45.65,45.65,0,0,0,2.85,3.78c1,1.43,2,2.92,2.92,4.44a86.57,86.57,0,0,1,4.52,8.78c1.28,2.83,2.22,5.17,3.51,8.4s2.52,6.31,3.88,9.44a61.44,61.44,0,0,0,9.55,16.07c4.69,5.42,10.24,10.24,13.9,16.1,3.78,6.07,5.45,12.79,7.92,19.68a66,66,0,0,0,12.52,21.47c5.3,6.1,11.5,11.34,17.68,16.53a4.38,4.38,0,0,0,6,0c1.52-1.52,1.77-4.54,0-6a172.05,172.05,0,0,1-16.11-14.78,56.78,56.78,0,0,1-6-7.6,52.69,52.69,0,0,1-4.82-9.13c-2.76-7-4.55-14.32-7.92-21.06s-8.73-12.21-13.88-17.67c-1.18-1.26-2.37-2.51-3.48-3.83-.25-.29-.5-.59-.74-.89.57.7-.22-.3-.27-.36-.45-.63-.9-1.27-1.32-1.92a63.94,63.94,0,0,1-4.3-7.88c-.61-1.31-1.2-2.64-1.76-4l-.22-.53-.48-1.17-1-2.36c-1.31-3.28-2.62-6.57-4-9.82a79.87,79.87,0,0,0-9.55-17.29c-1.31-1.73-1.91-2.53-2.93-4.12s-2.13-3.14-3.28-4.64A82.16,82.16,0,0,0,92.58,141c-12.51-12.39-28.3-20.53-43.83-28.41a4.37,4.37,0,0,0-5.83,1.52A4.3,4.3,0,0,0,44.45,120"/><path d="M176.54,285.06c2.36,3,5.86,4.72,9.17,6.48.85.46,1.7.92,2.51,1.44.35.23.69.45,1,.7-.61-.45.3.25.41.36a14.28,14.28,0,0,1,1.21,1.25c.52.58-.05-.18.4.54s1,1.62,1.47,2.48c1.89,3.62,3.26,7.35,5.87,10.57s6.82,5.84,11.25,5.6a4.26,4.26,0,1,0,0-8.51,7.1,7.1,0,0,1-1.22,0c.87.1-.44-.16-.63-.23s-.26-.08.08.06l-.54-.28c-.14-.08-1-.64-.77-.46-.24-.18-1.24-1.18-1.73-1.7s.1.23-.4-.49c-.24-.36-.48-.71-.71-1.08-1.91-3.09-3-6.62-5-9.7a22.5,22.5,0,0,0-8.61-7.7c-1.46-.78-3-1.51-4.37-2.37-.35-.21-.7-.42-1-.65-.12-.08-1-.75-.43-.29a13,13,0,0,1-2-2c-1.42-1.81-4.53-1.49-6,0-1.79,1.79-1.43,4.21,0,6"/><path d="M205.75,311.36a10.59,10.59,0,0,1,.6,1.91c0,.17.06.34.1.5.14.63,0-.33,0-.36.14.12.09,1,.1,1.18a37.35,37.35,0,0,1-.08,4.49c-.16,2.9-.48,6,.39,8.82,1.21,3.93,4.33,6.09,8.32,6.58,2.42.3,5.39.18,7.23-1.52a14.18,14.18,0,0,0,2.79-3.81c3.63-6.84,5-15,5.92-22.59a46.94,46.94,0,0,0,.15-11.05c-.35-3.05-.89-6.07-1.49-9.09-.28-1.41-.58-2.82-.86-4.23-.14-.7-.28-1.41-.41-2.12-.06-.32-.12-.65-.17-1,.08.57,0-.27,0-.46a21.57,21.57,0,0,1,.61-7.47,68,68,0,0,1,2.64-8.35c2-5.51,4.39-10.95,5.39-16.77.37-2.19-.58-4.69-3-5.24-2.07-.47-4.84.63-5.24,3-1.16,6.77-4.15,13-6.37,19.47a50.06,50.06,0,0,0-2.43,10.17,33.19,33.19,0,0,0,.67,10.51c1.25,6.39,2.8,12.4,2.37,18.89-.06.94-.15,1.88-.26,2.82,0,.52-.12,1-.19,1.56.12-1,.06-.38,0-.16-.06.44-.12.89-.19,1.33-.39,2.46-.86,4.91-1.44,7.34a70.77,70.77,0,0,1-2.4,7.79c.4-1.11-.27.57-.42.86-.23.48-.49.95-.77,1.41-.08.14-.18.28-.26.42-.49.82.14-.09.05,0-.34.28-.6.67-.94,1l3-1.24a20.65,20.65,0,0,1-2.36.18l-.93,0c-1.07,0,.6.25-.1,0a5.56,5.56,0,0,0-.7-.19c-.74-.17.88.43.2.07s.12-.16.19.22a4.07,4.07,0,0,0-.43-.4c-.55-.42.46.85.2.25a2.11,2.11,0,0,0-.29-.51c.48.22.32,1,.14.27-.06-.24-.12-.47-.19-.71s-.14-1-.05-.19,0-.18,0-.34c0-.49,0-1,0-1.46,0-4.6,1-9.53-.8-13.94-.88-2.11-2.82-3.63-5.24-3-2,.55-3.86,3.1-3,5.24"/><path d="M133.73,238.73c-4.37,7.83-4.36,16.88-3.52,25.56a116.36,116.36,0,0,1,.94,14.2,25.15,25.15,0,0,1-.61,5.49,26.6,26.6,0,0,1-.73,2.65c-.13.4-.28.79-.42,1.19s0,0,0,0c-.11.25-.23.51-.35.76a23.34,23.34,0,0,1-1.41,2.55l-.35.52c0,.06-.5.7-.27.4s-.17.2-.18.22l-.54.61c-.37.4-.75.79-1.15,1.15l-.46.4c-.52.45.45-.31-.1.09a17.23,17.23,0,0,1-2.67,1.53c-2.09,1-2.61,4-1.53,5.83a4.37,4.37,0,0,0,5.83,1.53c7.27-3.37,11.68-11.3,12.87-19,1.49-9.63-.94-19.07-.86-28.7a31.65,31.65,0,0,1,.61-6.55,20.11,20.11,0,0,1,2.22-6.11,4.26,4.26,0,1,0-7.35-4.3"/><path d="M189.92,317.77c0,1.12-.1,2.24-.22,3.35,0,.16-.16,1.29,0,.54-.08.55-.17,1.11-.27,1.66a46.16,46.16,0,0,1-1.54,6.1,41.87,41.87,0,0,1-5,10.33,41.4,41.4,0,0,1-7.48,8.73c-.82.75-1.68,1.48-2.56,2.16.55-.43-.41.29-.48.34l-1.38,1a46.19,46.19,0,0,1-5.47,3.12c-2.07,1-2.62,3.95-1.53,5.83a4.36,4.36,0,0,0,5.83,1.53c16.82-8.18,28.08-26,28.67-44.66a4.3,4.3,0,0,0-4.26-4.26,4.35,4.35,0,0,0-4.26,4.26"/><path d="M164.58,361.87a27.9,27.9,0,0,0,25.4,7.32,4.28,4.28,0,0,0,3-5.24,4.36,4.36,0,0,0-5.23-3c-.43.09-.85.17-1.28.24-.73.13.15-.05.17,0l-.81.08a20.52,20.52,0,0,1-2.6.05c-.49,0-1-.06-1.46-.1-.72-.05.14-.05.17,0a4,4,0,0,0-.65-.1,24.44,24.44,0,0,1-2.69-.63c-.42-.12-.83-.25-1.24-.4l-.61-.22c-.1,0-.77-.32-.24-.09s-.14-.07-.24-.12l-.59-.28c-.43-.22-.86-.44-1.28-.69s-.75-.45-1.11-.68-.94-.49-1.06-.75l.35.27c-.13-.1-.26-.2-.38-.31s-.34-.28-.5-.42c-.36-.32-.72-.66-1.06-1a4.26,4.26,0,0,0-6,6"/><path d="M203,328.36c.12.78,0-.13,0,.34,0,.28.06.56.08.84.05.63.07,1.26.08,1.89a30,30,0,0,1-.21,3.79c.09-.74,0,.19-.06.33l-.15.83c-.13.62-.27,1.24-.43,1.85s-.38,1.36-.61,2c-.09.27-.19.53-.28.8,0,.09-.42,1.07-.25.67s-.18.39-.21.46l-.45.95q-.43.86-.9,1.68a33.15,33.15,0,0,1-1.9,2.89l-.32.4c-.23.27-.45.54-.69.8-.42.47-.85.93-1.3,1.38s-.92.87-1.4,1.28l-.64.55c-1.05.86.62-.45-.48.36a4.38,4.38,0,0,0-1.53,5.82c1.07,1.83,3.95,2.89,5.82,1.53a34.94,34.94,0,0,0,14-33.72c-.35-2.27-3.21-3.53-5.24-3-2.43.66-3.33,2.95-3,5.23"/><path d="M192.15,359.77a24.85,24.85,0,0,0,21.35.36,4.24,4.24,0,0,0,2-2.54,4.41,4.41,0,0,0-.43-3.28,4.32,4.32,0,0,0-2.55-2,5,5,0,0,0-3.28.43c1.16-.49-.09,0-.33.1l-.82.26q-1,.28-2,.48l-.57.1c-.47.08-.38.07.28,0,0,.08-.72.08-.86.09-.72.06-1.44.08-2.16.07s-1.35-.08-2-.14l.42.05-.57-.09c-.33-.06-.66-.13-1-.21a18,18,0,0,1-1.94-.55c-.32-.1-.63-.23-.95-.34l.22.09-.52-.24c-2-1-4.69-.63-5.83,1.53-1,1.89-.62,4.8,1.53,5.82"/><path d="M153.42,127.25a19.29,19.29,0,0,0-4.75-17,4.3,4.3,0,0,0-6,0,4.35,4.35,0,0,0,0,6c.32.35.62.71.91,1.08l-.66-.87a15.5,15.5,0,0,1,1.82,3.13l-.43-1a15.65,15.65,0,0,1,1.07,3.87l-.15-1.13a15.67,15.67,0,0,1,0,3.81l.15-1.13c0,.33-.1.66-.17,1a4.56,4.56,0,0,0,.43,3.28,4.32,4.32,0,0,0,2.55,2c2.11.48,4.77-.64,5.23-3"/><path d="M196.22,123.73a24.87,24.87,0,0,0-5.32-20.55c-1.42-1.73-4.57-1.58-6,0a4.38,4.38,0,0,0,0,6l.33.41c-.4-.52-.47-.6-.2-.24s.4.57.59.86c.37.59.72,1.2,1,1.82a5.78,5.78,0,0,0,.44.94c-.25-.62-.3-.71-.13-.29.07.16.13.32.19.49.22.61.41,1.24.58,1.87s.28,1.27.39,1.91c.07.47.06.35,0-.35,0,.17,0,.34.05.52,0,.34.06.69.07,1a20.82,20.82,0,0,1,0,2.09,6.1,6.1,0,0,0-.1,1c.1-.71.11-.82,0-.36l-.09.51a4.56,4.56,0,0,0,.43,3.28,4.33,4.33,0,0,0,2.54,2c2.09.48,4.81-.63,5.24-3"/><path d="M177.19,138.59a14,14,0,0,1,5.4-1.92c-.62.1.73-.06.9-.07.53,0,1.06,0,1.59,0,.17,0,1.24.13.65,0a13,13,0,0,1,1.75.4,7.09,7.09,0,0,1,2.19,1c.23.14.87.68.35.22a13.38,13.38,0,0,1,1.08,1,6.68,6.68,0,0,1,.49.57c0-.06-.36-.5-.1-.1a11.59,11.59,0,0,1,.69,1.12c.13.24.49,1,.22.35a11.75,11.75,0,0,1,.46,1.42c.06.24.25,1.32.2.89s0,.75,0,.9c0,.34-.09,1.09,0,.33a13.35,13.35,0,0,1-.34,1.42c0,.18-.31.73,0,0a4.74,4.74,0,0,1-.26.5c-.1.18-.77,1.19-.31.6a10.61,10.61,0,0,1-.78.86l-.57.52c.32-.28.23-.15,0,0a17.09,17.09,0,0,1-2.4,1.34c.62-.28-.27.09-.48.17q-.76.27-1.56.48c-.93.26-1.87.46-2.82.63-.4.08-.81.14-1.22.2-.86.14-.26,0-.08,0l-.8.09a159,159,0,0,1-17.58,1,4.26,4.26,0,0,0,0,8.52,153.44,153.44,0,0,0,18.18-1.07c5.21-.64,10.37-1.76,14.53-5.15,8.69-7.08,5-21.06-4.57-25.28-6.21-2.73-13.34-1.8-19.13,1.54a4.26,4.26,0,1,0,4.29,7.35"/><path d="M237.42,225.32a107.62,107.62,0,0,0,51.41-42.38,105.4,105.4,0,0,0,8.67-17c.84-2.07-.91-4.77-3-5.24-2.47-.56-4.34.76-5.24,3-.14.34-.27.67-.41,1-.28.67.22-.49-.07.17s-.52,1.18-.79,1.77c-.56,1.24-1.15,2.46-1.77,3.68-1.19,2.36-2.48,4.68-3.87,6.94s-2.77,4.35-4.28,6.44-2.61,3.5-4.51,5.73a102.67,102.67,0,0,1-11,11.12c-1,.85-2,1.67-3,2.48-.19.15-1.29,1-.83.66-.56.44-1.14.87-1.72,1.29-2.13,1.57-4.33,3.06-6.58,4.46q-3.74,2.32-7.67,4.31c-1.28.65-2.58,1.27-3.88,1.86-1.68.76-2,.89-3.74,1.57-2.14.83-3.63,2.85-3,5.24.56,2,3.08,3.81,5.24,3"/><path d="M96.3,94.43q0,.85-.09,1.71c0,.31,0,.62-.08.94s-.07.4,0,0c-.19,1.12-.4,2.24-.69,3.34a33,33,0,0,1-1,3.24c-.09.24-.18.47-.28.71.23-.57,0-.11-.1.2-.23.51-.49,1-.75,1.53a31.9,31.9,0,0,1-1.63,2.77c-.31.48-.64.94-1,1.4-.7,1,.3-.33-.14.19l-.48.59a32.33,32.33,0,0,1-2.34,2.48q-.61.58-1.26,1.14l-.58.49c-1,.79.66-.49-.34.25-1.79,1.32-2.87,3.75-1.53,5.83,1.14,1.77,3.91,2.94,5.82,1.53a36.58,36.58,0,0,0,15-28.33,4.29,4.29,0,0,0-4.26-4.25,4.33,4.33,0,0,0-4.26,4.25"/><path d="M154.7,93.41a13.41,13.41,0,0,0,2.08.78,13,13,0,0,0,2.24.31,11.21,11.21,0,0,0,6.59-1.86,11.91,11.91,0,0,0,3.1-3.11,4.25,4.25,0,0,0-4.81-6.25l-1,.42a4.31,4.31,0,0,0-1.53,1.53c-.07.09-.13.19-.2.27l.66-.86a6.42,6.42,0,0,1-1.1,1.11l.86-.67A7,7,0,0,1,160,86l1-.43a7.33,7.33,0,0,1-1.83.51l1.13-.15a7.55,7.55,0,0,1-1.9,0l1.14.15a6.62,6.62,0,0,1-1.51-.41l1,.43-.1,0a3.24,3.24,0,0,0-1.58-.51,3.28,3.28,0,0,0-1.7.08,4.36,4.36,0,0,0-2.55,2,4.27,4.27,0,0,0-.42,3.28,4.07,4.07,0,0,0,1.95,2.54"/><path d="M210.79,96.78q.06,7.62.11,15.24a4.26,4.26,0,0,0,8.52,0q-.06-7.62-.11-15.24a4.26,4.26,0,1,0-8.52,0"/><path d="M171.32,184c-.72.73-1.47,1.43-2.24,2.11L168,187c-.14.11-.82.63-.14.12l-.58.43a41.49,41.49,0,0,1-5.22,3.27c-.86.45-1.73.86-2.61,1.26s.32-.11-.15.07l-.68.26c-.45.18-.9.34-1.36.5a41.85,41.85,0,0,1-6.13,1.6,4.29,4.29,0,0,0-3,5.24,4.38,4.38,0,0,0,5.24,3,45.89,45.89,0,0,0,24-12.75,4.26,4.26,0,0,0-6-6"/><path d="M167.47,220.25l14.63,10a4.28,4.28,0,0,0,5.83-1.53,4.36,4.36,0,0,0-1.53-5.82l-14.63-10a4.29,4.29,0,0,0-5.83,1.53,4.37,4.37,0,0,0,1.53,5.82"/><path d="M199.84,214.22a15.06,15.06,0,0,0,13.94.12,14.62,14.62,0,0,0,7.39-9.75,4.34,4.34,0,0,0-3-5.24c-2.13-.48-4.75.65-5.24,3a9.81,9.81,0,0,1-.39,1.41c-.33.93.42-.8.05-.09-.11.2-.2.41-.31.6-.22.4-.49.76-.73,1.14.64-1,.34-.42.11-.16s-.35.39-.54.58l-.49.46c-.75.65.73-.48.06,0a12.08,12.08,0,0,1-1.14.71c-.21.11-.43.2-.63.3,1.07-.55.4-.18.09-.08a10.92,10.92,0,0,1-1.69.4l1.13-.15a11.81,11.81,0,0,1-3,0l1.13.15a10.84,10.84,0,0,1-1.69-.37c-.23-.07-.47-.18-.7-.24.63.27.74.32.33.13l-.44-.23a4.26,4.26,0,0,0-4.3,7.36"/><path d="M201.84,253.33a19.73,19.73,0,0,1-.77,2.24c.15-.34.29-.68.43-1a19.69,19.69,0,0,1-2.56,4.39l.66-.87a19.65,19.65,0,0,1-3.47,3.47l.87-.67a19.85,19.85,0,0,1-3.41,2.09,4.3,4.3,0,0,0-2,2.54,4.36,4.36,0,0,0,.43,3.28,4.28,4.28,0,0,0,2.55,2,4.74,4.74,0,0,0,3.28-.43,23.42,23.42,0,0,0,12.16-14.72,4.26,4.26,0,0,0-8.21-2.26"/><path d="M176.94,242.54c1.17-.51,0,0-.28.09l-.8.28c-.63.19-1.27.36-1.91.5l-1.1.21c-.92.17.87-.07,0,0-.7,0-1.4.11-2.11.12s-1.31,0-2-.07l-.42,0c-.47-.06-.37,0,.3.05-.11-.13-.8-.13-1-.17a20.92,20.92,0,0,1-3.91-1.15,4.27,4.27,0,0,0-3.29.43,4.32,4.32,0,0,0-2,2.54,4.27,4.27,0,0,0,.43,3.28,5,5,0,0,0,2.54,2,24.59,24.59,0,0,0,9.52,1.68,26.83,26.83,0,0,0,10.21-2.36,4.27,4.27,0,0,0,2-2.54,4.4,4.4,0,0,0-.43-3.29,4.31,4.31,0,0,0-2.54-1.95,5,5,0,0,0-3.29.43"/><path d="M220.46,184.74c7.27-5.16,10.92-14.84,8-23.45a4.35,4.35,0,0,0-5.24-3c-2.09.68-3.74,3-3,5.24a16.68,16.68,0,0,1,.61,2.41c.06.35,0,.86,0-.22a4.55,4.55,0,0,0,0,.52c0,.39.05.78.05,1.17s0,.88-.05,1.31c0,.18,0,.35,0,.52,0,.55.18-1,0-.22a20.43,20.43,0,0,1-.58,2.43c-.11.37-.25.74-.39,1.11-.2.54,0-.14.13-.29a4.53,4.53,0,0,0-.28.59,16,16,0,0,1-1.27,2.15c-.09.14-.22.28-.3.42.49-.87.31-.39.1-.14s-.51.59-.79.88-.62.61-1,.9c-.13.11-.28.21-.4.33.69-.74.34-.25,0,0-1.81,1.29-2.85,3.77-1.53,5.82,1.16,1.8,3.89,2.91,5.83,1.53"/><path d="M133.34,170.58q-1.56-7-3.11-14a4.3,4.3,0,0,0-5.24-3,4.37,4.37,0,0,0-3,5.24l3.12,14a4.29,4.29,0,0,0,5.24,3,4.36,4.36,0,0,0,3-5.24"/><path d="M200.23,90.38a10.82,10.82,0,0,0,3.53-.66,15.26,15.26,0,0,0,2.06-.93,14.45,14.45,0,0,0,1.86-1.35,11.79,11.79,0,0,0,2.3-2.63,8.56,8.56,0,0,0,.63-1.15,13.72,13.72,0,0,0,.82-2.16,4.47,4.47,0,0,0-.43-3.28,4.34,4.34,0,0,0-2.55-2,4.27,4.27,0,0,0-3.28.43,4.38,4.38,0,0,0-2,2.54,6.43,6.43,0,0,1-.34,1.05c.14-.34.28-.68.43-1a8,8,0,0,1-1,1.65l.67-.87a8.36,8.36,0,0,1-1.42,1.43l.86-.66a7.88,7.88,0,0,1-1.82,1.06l1-.43a7.28,7.28,0,0,1-1.84.51l1.14-.15c-.24,0-.47,0-.71.06a4.42,4.42,0,0,0-3,1.25,4.25,4.25,0,0,0,3,7.26"/><path d="M67.05,96.27l-8.33,12.41-1,1.46a5.32,5.32,0,0,1-.85,1.22l.3-.4-.28.35c-.16.19-.32.37-.49.55s-.37.33-.53.5c-.34.36.71-.43,0,0a5.42,5.42,0,0,0-.71.4c.14-.12.9-.27.35-.17a2.25,2.25,0,0,1-.35.09c-.33.07-.16,0,.54,0a2.41,2.41,0,0,0-.6,0c-.62,0-.15-.29.31.06-.08-.06-.87-.35-.15,0s0-.09-.1-.09c.17.13.34.25.51.39-.31-.32-.24-.21.21.34-.22,1.72-.45,3.44-.67,5.16l5.53-5.75a4.26,4.26,0,0,0-6-6l-5.53,5.75c-1.19,1.24-1.79,3.65-.66,5.16a7.92,7.92,0,0,0,4.28,3.19,9.23,9.23,0,0,0,4.61,0c3.14-.76,5.31-3.15,7.1-5.68,3.38-4.79,6.55-9.74,9.82-14.6a4.29,4.29,0,0,0-1.53-5.83,4.37,4.37,0,0,0-5.83,1.53"/><path d="M172.72,56.24l11.72,5.3a4.67,4.67,0,0,0,3.28.43,4.37,4.37,0,0,0,2.54-2,4.32,4.32,0,0,0,.43-3.28,4.12,4.12,0,0,0-2-2.54L177,48.88a4.67,4.67,0,0,0-3.28-.43,4.4,4.4,0,0,0-2.55,2,4.28,4.28,0,0,0-.42,3.28,4.15,4.15,0,0,0,1.95,2.55"/></svg>