<svg id="Layer_1" data-name="Layer 1" xmlns="http://www.w3.org/2000/svg" viewBox="0 0 226.32 207.9"><defs><style>.cls-1{fill:#fff;}</style></defs><path class="cls-1" d="M69.93,61.35A63.33,63.33,0,0,0,29.22,83.91a60.12,60.12,0,0,0-13.64,44.88c1.83,16,9.42,31.56,22,41.9,14.07,11.56,32.05,15.95,49.72,18.37s36,4.52,53.94,3.12c17.38-1.35,34.71-6.32,48.2-17.77,11.28-9.57,19-23.25,22.36-37.6a69.33,69.33,0,0,0-4-44.26C201.63,79,190.25,68,177.09,61.27A72.29,72.29,0,0,0,133.16,54a60,60,0,0,0-10.25,2.56,4.36,4.36,0,0,0-3,5.24,4.29,4.29,0,0,0,5.23,3,60.23,60.23,0,0,1,10.06-2.53l1.14-.17c-.83.12.31,0,.58-.06.82-.09,1.65-.17,2.47-.22,1.72-.12,3.45-.17,5.17-.15s3.46.11,5.17.27l1.34.13.77.09c-.43-.05.8.12.95.14l1.33.22A69.79,69.79,0,0,1,164.22,65c.79.27,1.58.55,2.36.84l1.08.42.54.21.38.16.9.4c.36.15.71.32,1.06.48.81.38,1.62.77,2.42,1.19a68.58,68.58,0,0,1,8.85,5.43l.93.68.61.47c-.06,0-.48-.38-.11-.08.71.56,1.4,1.13,2.08,1.71,1.31,1.13,2.57,2.3,3.79,3.53s2.29,2.4,3.36,3.67c.29.34.57.69.85,1,.11.14.72.91.5.62s.11.15.13.18l.46.62.78,1.09a59,59,0,0,1,5.16,9c.16.36.31.71.47,1.06s0-.06-.06-.13c.1.24.2.47.29.71.34.84.65,1.68.94,2.52.55,1.57,1,3.17,1.43,4.78s.78,3.36,1.06,5.06c.08.44.14.88.21,1.32.13.84-.05-.46.05.39s.19,1.78.27,2.67a67.6,67.6,0,0,1,0,10.36q-.09,1.25-.24,2.49l-.09.77c.07-.5,0,.14,0,.2,0,.25-.07.51-.11.76-.27,1.71-.6,3.42-1,5.11a70.4,70.4,0,0,1-3.11,9.92l-.3.74c.14-.33-.31.71-.39.91-.37.81-.75,1.63-1.15,2.43-.76,1.56-1.59,3.08-2.47,4.57s-1.75,2.83-2.71,4.19c-.47.68-1,1.35-1.46,2,.46-.62-.26.32-.4.5-.28.35-.56.7-.85,1a60.72,60.72,0,0,1-7.28,7.33c-.29.25-.58.5-.88.74l-.6.48-.18.14-.64.48-1.25.9q-2.42,1.66-5,3.1c-1.74,1-3.53,1.89-5.36,2.73-1.11.5-1.11.5-2.16.92s-2,.77-3,1.12a85.74,85.74,0,0,1-12,3.21c-1,.19-2,.36-3,.53l-1.38.21-.69.1c-.3,0-.3,0,0,0l-.46.06q-3,.38-6.07.6c-4.25.32-8.51.42-12.78.37-8.5-.09-17-.78-25.45-1.68-8.67-.93-16.22-1.78-24.74-3.48a118.21,118.21,0,0,1-12.17-3,71,71,0,0,1-11.15-4.37q-2.82-1.39-5.5-3c-.86-.54-1.71-1.1-2.54-1.67L45.28,166l-.57-.42c-.09-.07-.84-.65-.32-.23a56.12,56.12,0,0,1-7.86-7.63l-.91-1.11c-.12-.14-.73-1-.36-.45-.58-.77-1.14-1.55-1.69-2.35-1-1.54-2-3.13-2.92-4.76s-1.71-3.32-2.47-5a3.22,3.22,0,0,1-.21-.51c-.15-.39-.31-.77-.45-1.16-.35-.9-.67-1.81-1-2.74q-.87-2.66-1.49-5.39-.3-1.32-.54-2.64c-.09-.48-.17-1-.24-1.43,0-.22-.2-1.45-.11-.71a58.53,58.53,0,0,1-.32-11.15c.06-.9.15-1.79.25-2.68,0-.21,0-.41.08-.62,0,.09-.09.61,0,.11s.15-.95.23-1.43a50.84,50.84,0,0,1,1.26-5.43c.5-1.76,1.12-3.49,1.78-5.19l.1-.25.18-.42.51-1.11c.4-.86.82-1.71,1.26-2.54.86-1.62,1.8-3.19,2.8-4.72.49-.74,1-1.46,1.51-2.17.24-.33.48-.66.73-1s0,0-.05,0c.21-.26.42-.53.64-.79a61.64,61.64,0,0,1,7.51-7.73c.67-.57,1.35-1.13,2-1.68.38-.3,0,0-.06,0l.65-.49,1.16-.83c1.49-1.06,3-2,4.62-3s3.22-1.75,4.88-2.52l1.12-.49c.45-.2,0,0-.09,0l.76-.3c.88-.35,1.77-.68,2.67-1,1.6-.54,3.23-1,4.87-1.41.86-.2,1.72-.39,2.59-.55l1.4-.25.68-.1c2.21-.29,4.38-1.76,4.26-4.26-.09-2.07-1.89-4.57-4.26-4.26"/><path class="cls-1" d="M52.28,74A35.86,35.86,0,0,0,65.64,44.17c-.41-6.46-3.06-12.32-4.31-18.6-.08-.43-.16-.85-.23-1.27-.13-.89,0,.81,0-.42,0-.52-.08-1-.09-1.57s.05-1.32.07-2c0-.15.09-.84,0-.05q.09-.59.21-1.17a17.09,17.09,0,0,1,.46-1.7c.1-.31.21-.61.33-.91-.07.18-.34.65,0,0,.28-.5.55-1,.87-1.46s-.67.64.14-.17l.79-.8c.12-.12.63-.45,0,0,.32-.22.65-.41,1-.61.7-.41.39-.19.19-.11a9.24,9.24,0,0,1,1.27-.37c.86-.2.36-.05.17,0a11.63,11.63,0,0,1,1.32,0c1.31,0-.34-.11.4.06a9.53,9.53,0,0,1,1.26.37c.64.25-.62-.48.38.21.12.09,1.07.76.52.31a8.22,8.22,0,0,1,.61.57s.79,1,.41.44c.16.23.31.47.45.71s.52,1.16.28.51a8.41,8.41,0,0,1,.3,1c.06.2.1.41.14.61-.06-.43-.07-.39,0,.13A4.33,4.33,0,0,0,76.8,22c2.2-.09,4.4-1.87,4.26-4.25C80.63,10.32,74.62,4.1,66.94,4.33c-7,.21-12.25,5.52-13.83,12.12-1.63,6.83.42,13.34,2.35,19.86.48,1.66.95,3.33,1.29,5l.18,1c.26,1.35,0-.8.08.56.07.71.13,1.41.15,2.12A33.55,33.55,0,0,1,57,49.27c-.12,1.35.09-.45,0,.34,0,.35-.11.7-.17,1q-.24,1.26-.57,2.49c-.21.75-.44,1.5-.7,2.24-.12.33-.24.66-.37,1-.45,1.26.34-.66-.22.55a36,36,0,0,1-2.45,4.48c-.39.59-.8,1.18-1.23,1.74.48-.62-.4.47-.4.47-.27.32-.55.64-.84.95A30.56,30.56,0,0,1,46.26,68c-1.82,1.41-1.49,4.54,0,6,1.79,1.8,4.19,1.42,6,0"/><path class="cls-1" d="M83.78,27a35,35,0,0,1-1.16-4.72c0-.08-.08-.69,0-.18s0-.1,0-.17c0-.37-.06-.74-.08-1.12,0-.81,0-1.6.07-2.41,0-.55,0,.28-.06.34a2.44,2.44,0,0,0,.07-.46c0-.3.12-.6.19-.9s.15-.6.24-.89.41-.88.35-1c.09.2-.34.72-.06.17.07-.13.13-.27.2-.41s.29-.53.45-.79.34-.51.5-.76c.27-.4-.17.27-.2.26s.36-.41.4-.46c.21-.22.42-.43.65-.63s.23-.2.35-.3c.35-.33-.25.22-.27.21s.65-.42.75-.48,1.11-.57.57-.3.44-.12.61-.17.71-.07.87-.2c0,0-.87.07-.39.06l.44,0c.34,0,.68,0,1,0s-.38,0-.41-.06.33.06.43.09c.29.07.56.17.84.25.45.11-.32-.11-.34-.15a1.88,1.88,0,0,0,.4.21l.38.22c.52.3-.08.06-.14-.14.07.2.61.56.76.7s.65.85.34.37.18.3.26.43c.18.3.34.61.5.92,0,.1.25.58,0,.05s0,.08.07.19c.12.33.22.67.31,1s.2.81.27,1.22l.09.56c-.06-.41,0-.41,0,0,.11,1.91.08,3.81,0,5.72a4.28,4.28,0,0,0,4.25,4.26,4.34,4.34,0,0,0,4.26-4.26c.18-4.06.17-8.18-1.44-12A12.89,12.89,0,0,0,91.7,3.52,13.54,13.54,0,0,0,80,6.26a16.22,16.22,0,0,0-5.46,9,26.67,26.67,0,0,0,1,14A4.26,4.26,0,0,0,83.78,27"/><path class="cls-1" d="M102.88,28.17c-.47-1.71-.93-3.43-1.26-5.18-.08-.4-.14-.8-.21-1.2.12.7,0-.25,0-.49a18.94,18.94,0,0,1-.07-2.82c0-.24.1-1.2,0-.48,0-.33.11-.67.18-1s.15-.59.24-.88.14-.39.2-.58c.22-.65,0,.14-.08.16a12,12,0,0,0,.89-1.62c.08-.13.18-.26.26-.39.24-.4-.17.26-.21.26a7.23,7.23,0,0,0,.81-.9c.13-.12.64-.45.67-.6,0,.05-.66.45-.27.22.13-.07.25-.16.37-.24s.73-.3.78-.43c0,0-.79.28-.34.15l.56-.19.57-.13c.45-.14-.35.06-.39,0,.11.09.79,0,1,0,.8,0-.68-.19.1,0,.35.08.7.16,1,.27a4.31,4.31,0,0,0,.44.17c-.08.05-.9-.47-.16,0,.27.16.55.3.81.47s.26.19.39.27c.43.27-.25-.17-.22-.18s.73.67.82.76.43.49.66.72-.17-.23-.16-.23a2.24,2.24,0,0,1,.37.53c.18.27.35.54.5.82s.53,1,.38.7.06.16.08.21c.09.24.17.48.25.72.16.49.3,1,.42,1.49s.19.87.27,1.32l.09.57c-.07-.42,0-.38,0,0,.21,1.94.26,3.89.31,5.84a4.26,4.26,0,1,0,8.51,0c-.09-4.22-.22-8.62-1.78-12.59-1.49-3.79-4.16-7.36-8-9.07a12.15,12.15,0,0,0-12.07.8A15.88,15.88,0,0,0,93.22,15c-1.07,5.19.08,10.37,1.45,15.4a4.26,4.26,0,0,0,8.21-2.27"/><path class="cls-1" d="M120.67,31.12c0-.94-.07-1.87,0-2.81,0-.5.05-1,.09-1.51l.06-.64c.07-.73-.09.56,0-.16a29.71,29.71,0,0,1,1.39-5.65c.16-.48.34-1,.53-1.42s0-.06,0,0l.27-.59c.43-.91.9-1.8,1.42-2.67a20.52,20.52,0,0,1,3-4.16,19.18,19.18,0,0,1,2-1.92c.38-.31.06,0,0,0l.71-.47a6,6,0,0,1,.55-.31c.07,0,.79-.35.44-.23s.81-.21,1.06-.25c-.7.1.28.06.52.07-.81,0,.26.13.54.21.47.14-.09,0-.15-.06.2.14.44.26.65.38s.59.5.06,0l.43.39c.28.27.54.56.8.86.43.52-.31-.47.06.09l.33.51a13.13,13.13,0,0,1,.68,1.22c.05.09.41.84.21.38s.08.24.1.27c.15.42.3.84.43,1.26a24.07,24.07,0,0,1,.71,3c-.11-.63,0,.09,0,.19,0,.29.05.59.07.88,0,.6.06,1.19.05,1.78s0,1-.07,1.55l-.06.66c.07-.65,0,.29-.06.41a22.44,22.44,0,0,1-.81,3.23l-.21.63c0,.07-.31.79-.2.52s-.2.43-.23.5q-.24.51-.51,1a4.26,4.26,0,1,0,7.36,4.3,27.35,27.35,0,0,0,3.21-15.23c-.48-5.09-2.13-10.6-6-14.17A11.7,11.7,0,0,0,125,2.39a30.34,30.34,0,0,0-9.44,11.87,35.82,35.82,0,0,0-3.39,16.86,4.34,4.34,0,0,0,4.26,4.26c2.21-.1,4.39-1.88,4.26-4.26"/><path class="cls-1" d="M140.72,34.32a41.66,41.66,0,0,1,5.6-7.49,19.71,19.71,0,0,1,1.93-1.73c-.43.33.2-.11.36-.22.34-.23.69-.44,1.06-.64s.61-.33.92-.48c-.68.33.38-.14.53-.19a13.35,13.35,0,0,1,2.42-.59c-.76.1.3,0,.5,0s.68.05,1,0,.27,0-.14,0a5.6,5.6,0,0,1,.59.12c.33.07.65.17,1,.26.86.23-.25-.23.46.2.34.21.7.4,1,.65-.64-.49.3.36.33.39.6.55-.12-.36.33.39.18.28.35.57.51.86s.12.24,0-.1c.07.18.13.37.19.56a8.58,8.58,0,0,1,.24,1c-.15-.84,0,.34,0,.53,0,1.09.2-.52,0,.54a9.56,9.56,0,0,1-.36,1.22c.25-.65-.25.4-.3.5-.37.7.21-.16-.36.48a4.34,4.34,0,0,0,0,6c1.62,1.49,4.44,1.78,6,0a13.17,13.17,0,0,0,2.09-14.84,13.66,13.66,0,0,0-11.72-7.24c-10.09-.48-16.58,8-21.48,15.55a4.28,4.28,0,0,0,1.53,5.82,4.35,4.35,0,0,0,5.82-1.53"/><path class="cls-1" d="M164.61,36.21c0-.51,0-.52-.1,0,0-.12.05-.24.08-.36.16-.47.16-.48,0,0,.07-.11.14-.21.2-.32-.25.3-.27.34-.07.12a5.25,5.25,0,0,1,.42-.4c-.6.51.32-.14.44-.2-.71.36.31,0,.45-.08-.81.19.19,0,.42.06-.85-.08.31.15.43.19-.68-.22.24.17.42.26.69.36-.16-.29.42.32.28.29.58.57.84.89-.44-.55.21.37.27.48s.52,1,.33.59c-.11-.28-.07-.17.11.33.08.24.15.47.21.71s.27,1.13.27,1.1a20.77,20.77,0,0,1,.1,2.62c-.1,4.19-1.27,8.23-1.12,12.5a24.69,24.69,0,0,0,3.72,12.15,4.26,4.26,0,0,0,7.36-4.29c-2.52-4-2.89-7.87-2.27-12.79s1.57-10.09-.3-14.91c-1.8-4.66-5.94-8.62-11.18-8.68s-10.21,4.38-10,9.74a4.26,4.26,0,0,0,8.52,0"/><path class="cls-1" d="M83.29,53.42q.21-7.06.4-14.12a4.26,4.26,0,1,0-8.51,0q-.21,7.06-.4,14.12A4.28,4.28,0,0,0,79,57.67a4.33,4.33,0,0,0,4.25-4.25"/><path class="cls-1" d="M101.16,46.37l1.11-5.57a3.18,3.18,0,0,0,.08-1.7,3.13,3.13,0,0,0-.5-1.58,4.74,4.74,0,0,0-2.55-2A4.32,4.32,0,0,0,96,36a4.25,4.25,0,0,0-2,2.55L93,44.11a3.27,3.27,0,0,0-.08,1.7,3.81,3.81,0,0,0,1.61,2.77,3.14,3.14,0,0,0,1.44.76,4.31,4.31,0,0,0,3.28-.42,4.24,4.24,0,0,0,2-2.55"/><path class="cls-1" d="M118.66,44.15q.84-7.41,1.69-14.83a4.26,4.26,0,0,0-7.27-3,4.88,4.88,0,0,0-1.25,3q-.84,7.41-1.69,14.83a4.25,4.25,0,0,0,1.25,3,4.25,4.25,0,0,0,6,0,4.94,4.94,0,0,0,1.25-3"/><path class="cls-1" d="M137.37,44.12c0-.72-.05-1.43,0-2.15s.22-1.46.17-2.15c-.09.69-.11.8,0,.33,0-.17.06-.35.1-.53s.1-.53.16-.79a21.21,21.21,0,0,1,.55-2.08c.11-.35.22-.69.34-1a4,4,0,0,0,.39-1c-.24.56-.29.69-.16.4.05-.12.11-.25.17-.37.15-.32.31-.65.48-1,.33-.64.69-1.26,1.08-1.87.19-.3.39-.59.6-.89l.32-.43c-.39.5-.45.57-.17.22a4.63,4.63,0,0,0,1.25-3,4.34,4.34,0,0,0-1.25-3c-1.54-1.42-4.54-1.86-6,0a28.67,28.67,0,0,0-6.46,19.32,4.26,4.26,0,1,0,8.52,0"/><path class="cls-1" d="M72.57,95.83A14.43,14.43,0,0,0,70.9,102a14.7,14.7,0,0,0,.26,3.17,9,9,0,0,0,.63,2.15,3.12,3.12,0,0,0,.76,1.45,3.23,3.23,0,0,0,1.19,1.1,4.26,4.26,0,0,0,5.83-1.53A4.12,4.12,0,0,0,80,105a9.63,9.63,0,0,1-.66-2.36l.15,1.13a10.13,10.13,0,0,1,0-2.58l-.15,1.13A9.37,9.37,0,0,1,80,99.85c-.15.34-.29.68-.43,1,.11-.25.23-.5.35-.74a4.47,4.47,0,0,0,.43-3.28,4.26,4.26,0,0,0-7.78-1"/><path class="cls-1" d="M110.39,90.21a15.71,15.71,0,0,0-.63,16.59,4.26,4.26,0,0,0,7.35-4.3c-.21-.38-.41-.77-.58-1.16.14.34.28.68.43,1a11.61,11.61,0,0,1-.8-2.85c0,.38.1.76.16,1.13a12.3,12.3,0,0,1,0-3.15l-.15,1.13a12.25,12.25,0,0,1,.82-3l-.42,1a11.46,11.46,0,0,1,1.19-2.1,4.27,4.27,0,0,0,.43-3.28,4.34,4.34,0,0,0-2-2.54,4.28,4.28,0,0,0-3.28-.43,4.84,4.84,0,0,0-2.54,2"/><path class="cls-1" d="M70.2,183.46l2.61,9.65a4.43,4.43,0,0,0,2,2.55A4.26,4.26,0,0,0,81,190.85l-2.61-9.66a4.26,4.26,0,0,0-8.21,2.27"/><path class="cls-1" d="M75.91,190.65l-8.11,2.07a4.25,4.25,0,0,0-1,7.78,4.46,4.46,0,0,0,3.28.43l8.12-2.07a4.37,4.37,0,0,0,2.54-2,4.25,4.25,0,0,0-1.52-5.82,4.54,4.54,0,0,0-3.29-.43"/><path class="cls-1" d="M118.23,189.37,120,201.65a4.23,4.23,0,0,0,2,2.54,4.32,4.32,0,0,0,3.28.43,4.27,4.27,0,0,0,2.54-2c.14-.33.29-.67.43-1a4.37,4.37,0,0,0,0-2.27l-1.74-12.27a4.27,4.27,0,0,0-2-2.55,4.33,4.33,0,0,0-3.28-.42,4.28,4.28,0,0,0-2.55,2c-.14.34-.28.68-.43,1a4.33,4.33,0,0,0,0,2.26"/><path class="cls-1" d="M122.69,197.22l-7.4,2.31a4.45,4.45,0,0,0-2.55,1.95,4.4,4.4,0,0,0-.43,3.29,4.27,4.27,0,0,0,5.24,3l7.41-2.3a4.52,4.52,0,0,0,2.54-2,4.26,4.26,0,0,0-4.81-6.26"/><path class="cls-1" d="M86.76,105.52c-4.58,3.17-9.2,6.47-12.23,11.26-2.85,4.51-4,10.3-2,15.36a19.42,19.42,0,0,0,10.15,10.4c5.34,2.36,11.2,2.69,17,2.12,3.25-.32,6.68-.7,9.49-2.52a10.13,10.13,0,0,0,4.82-8.5,4.26,4.26,0,0,0-8.52,0s0,.71,0,.24,0,.17-.08.23c.27-.6-.17.28-.3.45.36-.48-.3.26-.45.38.53-.44-.65.35-.5.27a14.69,14.69,0,0,1-5.26,1c-4.34.37-8.13.29-12.1-1.14-.55-.2-.09,0,0,0l-.56-.26c-.37-.18-.73-.37-1.09-.58s-.7-.43-1-.66a5.74,5.74,0,0,1-.5-.36c.36.27.07.07-.11-.1a19.41,19.41,0,0,1-1.85-1.89c-.31-.38,0,0,0,.05-.12-.16-.23-.33-.34-.5-.26-.39-.47-.8-.7-1.22-.36-.66,0,.27-.19-.45-.12-.39-.22-.77-.33-1.16-.2-.75-.05.33-.09-.53a14.23,14.23,0,0,1,0-1.6c0-.49,0-.11,0,0,0-.23.09-.45.14-.68a12.4,12.4,0,0,1,.35-1.33c.07-.22.15-.44.23-.65,0,.09-.18.4,0-.05a16,16,0,0,1,2.44-3.82,30.29,30.29,0,0,1,2.49-2.45,62.73,62.73,0,0,1,5.36-4A4.38,4.38,0,0,0,92.59,107c-1.1-1.87-3.93-2.84-5.83-1.52"/><path class="cls-1" d="M14.83,121.59A49.69,49.69,0,0,0,.57,139.69,4.62,4.62,0,0,0,.14,143a4.36,4.36,0,0,0,2,2.55c1.88,1,4.83.63,5.82-1.53a49.36,49.36,0,0,1,2.53-4.77c.49-.81,1-1.6,1.55-2.38.24-.35.49-.7.74-1a2.67,2.67,0,0,1,.43-.57c-.32.22-.46.59-.06.08a47,47,0,0,1,7.74-7.7,4.25,4.25,0,0,0,1.25-3,4.36,4.36,0,0,0-1.25-3,4.27,4.27,0,0,0-3-1.25,4.92,4.92,0,0,0-3,1.25"/><path class="cls-1" d="M201,125.57l.86.33c1,.36-.85-.39.11,0q.83.38,1.65.78c1,.51,2,1.08,2.9,1.68.51.34,1,.68,1.5,1,.12.09.25.17.37.27l-.26-.2c.05.13.59.48.71.58a32,32,0,0,1,2.57,2.38c.38.41.76.82,1.13,1.24s.73,1.14,1.17,1.41c-.1-.13-.2-.25-.29-.38l.36.49.53.75c.31.46.61.93.91,1.4a32.76,32.76,0,0,1,1.66,3.09,4.48,4.48,0,0,0,.38.83c-.06-.15-.13-.3-.19-.46l.23.57c.22.57.42,1.14.61,1.72a4.26,4.26,0,1,0,8.21-2.26,37.66,37.66,0,0,0-22.86-23.52,4.28,4.28,0,0,0-5.23,3,4.36,4.36,0,0,0,3,5.23"/></svg>