<svg id="Layer_1" data-name="Layer 1" xmlns="http://www.w3.org/2000/svg" viewBox="0 0 252.12 268.34"><defs><style>.cls-1{fill:#fff;}</style></defs><path class="cls-1" d="M31,85.67C19.55,95.88,11.42,109.45,6.22,123.75.92,138.28-1.3,154.21.76,169.59a71.45,71.45,0,0,0,6.36,21.52,100.2,100.2,0,0,0,13.46,20.68,118.23,118.23,0,0,0,38.34,29.75,137.21,137.21,0,0,0,51.29,13.79,120.15,120.15,0,0,0,56.91-9.56,111.39,111.39,0,0,0,38.36-28.45A113,113,0,0,0,229,175a111,111,0,0,0,2.39-50.82,112.65,112.65,0,0,0-19.83-46.41,114.09,114.09,0,0,0-8.3-10.05,4.26,4.26,0,1,0-6,6,103.41,103.41,0,0,1,23.12,40.86,112.07,112.07,0,0,1,2.81,11.85q.29,1.53.51,3.06c.07.43.13.87.19,1.31s0,.06,0,0c0,.36.09.73.13,1.09.24,2,.42,4,.55,5.95a108.79,108.79,0,0,1,.08,12.38c-.1,2-.26,4-.47,6l-.18,1.54c-.09.76,0-.14-.08.62q-.21,1.55-.48,3.06a100.82,100.82,0,0,1-2.75,11.76q-.81,2.7-1.77,5.36c-.3.85-.62,1.7-1,2.54-.17.45-.36.91-.54,1.36-.08.19-.16.39-.23.58a3.2,3.2,0,0,1-.14.33A106.23,106.23,0,0,1,191,220q-2.09,1.91-4.26,3.71c-.75.62-1.51,1.23-2.28,1.84a5.07,5.07,0,0,1-.46.35c-.44.34-.89.67-1.34,1a107.26,107.26,0,0,1-9.6,6.31,103.41,103.41,0,0,1-10.22,5.22l-1,.45-.85.35c-1,.39-1.94.77-2.92,1.14q-3.17,1.17-6.41,2.14A109,109,0,0,1,124.39,247a127.25,127.25,0,0,1-51.21-8.45c-.87-.33-1.73-.67-2.59-1l-.79-.32c.09,0,.48.2,0,0l-1.57-.68c-1.76-.78-3.51-1.59-5.23-2.45q-5.26-2.61-10.26-5.72a107.2,107.2,0,0,1-26-22.44c-.59-.7-1.17-1.41-1.73-2.13-.11-.13-.73-.94-.37-.46l-1-1.35c-1.17-1.59-2.29-3.2-3.36-4.86A91.55,91.55,0,0,1,14.57,187c-.37-.76-.73-1.54-1.07-2.31s.15.4-.16-.36c-.18-.46-.37-.92-.54-1.39q-.95-2.46-1.66-5t-1.22-5c-.17-.81-.32-1.63-.46-2.44-.08-.44-.15-.89-.22-1.33,0-.19-.05-.38-.08-.57-.18-1.22.06.51,0-.2a83.42,83.42,0,0,1-.63-10.71,97,97,0,0,1,.74-10.91c.06-.51,0,.06,0,.14l.12-.8c.05-.4.12-.79.18-1.19.15-.93.3-1.86.48-2.78.35-1.85.75-3.7,1.2-5.53A101.48,101.48,0,0,1,14.43,126q.45-1.23.93-2.46l.53-1.31c.07-.19.15-.37.23-.56-.17.42-.08.18,0-.09.75-1.73,1.53-3.43,2.37-5.11A94.67,94.67,0,0,1,23.94,107q1.48-2.3,3.12-4.49l.7-.93-.07.09c.16-.2.31-.4.48-.6.56-.7,1.13-1.4,1.71-2.08A75.07,75.07,0,0,1,37,91.7a4.3,4.3,0,0,0,0-6,4.35,4.35,0,0,0-6,0"/><path class="cls-1" d="M122.28,56.57a43.57,43.57,0,0,1-4-10.66A43.75,43.75,0,0,1,117,34.62a46.84,46.84,0,0,1,5.45-21.91,4.26,4.26,0,1,0-7.35-4.3,56.41,56.41,0,0,0-.19,52.46,4.26,4.26,0,1,0,7.35-4.3"/><path class="cls-1" d="M122.38,5a28.69,28.69,0,0,0-31.95-.22,4.36,4.36,0,0,0-1.52,5.83c1.09,1.87,3.92,2.84,5.82,1.53a24.34,24.34,0,0,1,3-1.79c.07,0,.79-.36.44-.21s.38-.15.45-.17q.76-.3,1.56-.54a25.35,25.35,0,0,1,3.43-.77c-.72.11.68-.05.93-.07.62,0,1.25-.05,1.87-.05s1.1,0,1.66.07l.82.07c.71.07-.59-.1.1,0a25.11,25.11,0,0,1,3.43.8c.53.16,1,.35,1.57.54.24.09.53.24.12.05l.75.35a22.87,22.87,0,0,1,3.19,1.92c1.87,1.34,4.74.34,5.83-1.52A4.36,4.36,0,0,0,122.38,5"/><path class="cls-1" d="M86.8,9.94a205.38,205.38,0,0,0,14.84,49.57c.93,2.11,4,2.6,5.83,1.53,2.17-1.27,2.46-3.71,1.53-5.82A198,198,0,0,1,95,7.67c-.37-2.27-3.19-3.53-5.24-3-2.41.66-3.34,3-3,5.24"/><path class="cls-1" d="M108,54.78c-7.24-3.66-15.23-2.28-22.33,1-6.25,2.88-11.55,7.47-17.8,10.36a23.38,23.38,0,0,1-16.69,1,22.58,22.58,0,0,1-7.65-3.9c.6.46-.5-.43-.49-.42-.22-.18-.44-.37-.65-.57q-.95-.87-1.8-1.83l-.56-.64c-.89-1,.4.61-.38-.48-.5-.7-1-1.4-1.42-2.14s-.84-1.48-1.21-2.25c0,0-.57-1.28-.26-.54-.17-.4-.31-.8-.46-1.2a32.41,32.41,0,0,1-1.28-4.95c-.25-1.35,0,.8-.08-.57,0-.42-.08-.84-.1-1.27a24.3,24.3,0,0,1,0-2.56c0-.43,0-.85.07-1.27,0-.15.14-1.31,0-.57a26.52,26.52,0,0,1,.6-2.92,4.26,4.26,0,0,0-8.21-2.27c-3.56,13.87,2.76,29.4,15.59,36.1a33.23,33.23,0,0,0,20.93,3.3C71.3,75,77.52,70.55,83.75,66.63a37.06,37.06,0,0,1,10.18-4.89,15,15,0,0,1,5.35-.69,10.16,10.16,0,0,1,4.46,1.09,4.35,4.35,0,0,0,5.82-1.53A4.3,4.3,0,0,0,108,54.78"/><path class="cls-1" d="M25.6,35.78c-3,10.9-6.21,22.38-4.78,33.8,1.13,9,5,18.18,12.21,24A27.63,27.63,0,0,0,47.4,99.48a36.52,36.52,0,0,0,15.67-2c10.17-3.43,18.58-10.1,27.9-15.2a41.47,41.47,0,0,1,14.62-5.22c.75-.1,2.4-.2,3.53-.21.67,0,1.35,0,2,.07L112,77c.43,0-.3-.07.42.06a24.43,24.43,0,0,1,3.87,1l.63.23c.27.11.27.11,0,0l.4.19c.68.34,1.33.69,2,1.09a4.26,4.26,0,0,0,4.3-7.35C115,67,104.12,67.59,95,71.07c-9.67,3.68-17.8,10.12-26.85,15a43,43,0,0,1-13.24,4.77,30.08,30.08,0,0,1-6.77.23s-.74-.07-.38,0-.54-.09-.61-.1c-.55-.1-1.09-.22-1.63-.35s-1.24-.35-1.84-.56L43,89.75c-.52-.19.37.21-.33-.14a26.08,26.08,0,0,1-2.49-1.36c-.45-.29-.89-.59-1.32-.91.58.42-.54-.44-.7-.59A26.88,26.88,0,0,1,36,84.63l-.92-1.08c-.07-.09-.47-.65-.07-.11-.17-.22-.33-.43-.48-.66a29.21,29.21,0,0,1-1.63-2.61c-.23-.42-.46-.84-.67-1.27l-.36-.75c0-.08-.47-1-.29-.62.07.17-.3-.76-.4-1-.2-.52-.38-1-.55-1.57-.31-1-.58-2-.81-3-.14-.61-.26-1.22-.37-1.83,0-.2-.07-.41-.1-.61-.08-.48,0,.5,0-.3-.15-1.44-.25-2.88-.27-4.32a55,55,0,0,1,.53-8.54A146.74,146.74,0,0,1,33.81,38a4.26,4.26,0,0,0-8.21-2.26"/><path class="cls-1" d="M121.48,62.1a18.47,18.47,0,0,1,2.17-1.43c.38-.21.76-.4,1.15-.58,1.17-.57-.68.17.56-.23.68-.21,1.35-.44,2-.61.42-.11.84-.2,1.26-.28l.86-.14c-.42.06-.36.05.16,0a31.58,31.58,0,0,1,9.49.64c7.46,1.64,14.31,5.22,21.62,7.34a39.53,39.53,0,0,0,21.38.58A41.74,41.74,0,0,0,199.29,58a38.22,38.22,0,0,0,11.52-18.87,4.26,4.26,0,1,0-8.21-2.27A35.32,35.32,0,0,1,201.27,41c.32-.83-.17.37-.2.44-.17.36-.34.72-.52,1.07-.35.71-.73,1.4-1.14,2.08s-.77,1.24-1.18,1.84c-.18.27-.38.53-.57.81-.73,1.05.52-.61-.3.39a38.29,38.29,0,0,1-3.21,3.52,28.06,28.06,0,0,1-6.46,4.8c-.69.4-1.4.77-2.11,1.12l-1.08.51c-.12.06-.75.33-.08,0a35.67,35.67,0,0,1-4.51,1.52c-.7.18-1.41.35-2.12.49l-1,.18c-.11,0-1.4.18-.44.07a32.78,32.78,0,0,1-4.75.21,35.08,35.08,0,0,1-9.53-1.82c-7.24-2.23-14.08-5.76-21.54-7.23-7.86-1.56-16.72-1.33-23.38,3.68-1.84,1.38-2.79,3.68-1.53,5.82,1.06,1.81,4,2.92,5.83,1.53"/><path class="cls-1" d="M205,37.25a53.37,53.37,0,0,1-2.59,10c-.16.45-.34.9-.52,1.35-.07.19-.15.39-.23.58,0-.08.22-.52,0-.06-.36.82-.74,1.64-1.13,2.44-.77,1.55-1.6,3.07-2.51,4.55s-1.89,2.89-2.91,4.29a3,3,0,0,1-.35.45c-.26.33-.52.65-.79,1q-.86,1-1.77,2c-1.21,1.32-2.49,2.6-3.83,3.8-.61.56-1.24,1.1-1.88,1.63l-1,.78c-.38.3,0,0,0,0l-.66.5a54,54,0,0,1-8.9,5.29l-1.32.6c-.46.19,0,0,.06,0l-.59.24c-.88.34-1.77.67-2.66,1q-2.59.9-5.25,1.58t-5.39,1.14c-.43.08-.87.14-1.31.21a4.25,4.25,0,0,1-.61.08c-.95.11-1.9.21-2.85.28a59.44,59.44,0,0,1-11.16-.19l-.65-.08c-.72-.09.57.09-.16,0-.5-.08-1-.15-1.49-.24-1-.18-2-.39-3-.62A48.42,48.42,0,0,1,133.88,78l-.6-.23c-.19-.08-.9-.37-.37-.14-.46-.2-.91-.4-1.37-.62-.9-.42-1.79-.88-2.67-1.37a41.27,41.27,0,0,1-5.22-3.44c-1.83-1.39-4.77-.28-5.83,1.53-1.28,2.19-.31,4.43,1.53,5.83,13,9.92,30.49,11.8,46.14,8.56A61,61,0,0,0,203.66,63a57.28,57.28,0,0,0,9.51-23.53c.35-2.19-.56-4.68-3-5.23-2-.47-4.87.62-5.24,3"/><path class="cls-1" d="M106.69,53.51c-.8-9.94-8.11-19-18-21.23-5.85-1.34-11.69.3-17.22.69a15.08,15.08,0,0,1-7.06-.88c.64.25-.79-.39-.92-.46a14.36,14.36,0,0,1-1.45-.88c-.24-.15-.48-.32-.7-.49.17.13.44.41-.13-.14s-.94-.86-1.37-1.34c-.19-.21-.38-.42-.56-.64s-.18-.22,0,0c-.08-.11-.16-.23-.25-.34-.38-.62-.75-1.23-1.09-1.88a5.82,5.82,0,0,1-.51-1.35,15.79,15.79,0,0,1-.49-2c0-.07-.09-.82,0-.25,0-.39-.06-.77-.07-1.16A18.17,18.17,0,0,1,57,19.05c-.06.57,0-.18,0-.25.08-.46.18-.91.3-1.36s.17-.59.27-.89c0-.11.49-1.22.26-.71.94-2.09.6-4.58-1.53-5.82-1.82-1.07-4.88-.58-5.83,1.53a21.57,21.57,0,0,0-.22,17.84A21.05,21.05,0,0,0,62.17,40.3c5.67,2.17,11.87.8,17.35.16a31.89,31.89,0,0,1,4.15-.26,18.21,18.21,0,0,1,2,.11c-.85-.09.8.17,1,.23a17.34,17.34,0,0,1,1.7.5l.74.28c-.18-.07-.65-.33.07,0a24.84,24.84,0,0,1,2.91,1.7c.08.06.73.57.36.27s.42.36.48.43a18.76,18.76,0,0,1,1.43,1.39c.18.19.35.39.53.59,0,0,.79,1,.32.39.35.48.68,1,1,1.48s.56,1.05.84,1.57c.38.72.13.25.06.07.15.37.28.74.41,1.12a17.74,17.74,0,0,1,.51,1.9c.06.26.1.52.15.78-.14-.75,0,.2,0,.45.18,2.21,1.83,4.37,4.26,4.26,2.15-.1,4.45-1.88,4.26-4.26"/><path class="cls-1" d="M48.72,9.94c-6.43,11.63-10.23,26.06-5,38.88A31.39,31.39,0,0,0,55,63.35c4.43,3,9.71,3.8,15,3.9s11.43-.32,16.48-2.4c2.13-.88,3.64-2.83,3-5.24-.56-2-3.1-3.86-5.24-3a26.43,26.43,0,0,1-5.59,1.52c-.25,0-1.82.28-.87.15-.5.07-1,.12-1.51.17-1.3.14-2.6.22-3.9.25a44.64,44.64,0,0,1-6.84-.3c1,.14-.5-.1-.76-.15-.48-.09-.95-.2-1.42-.32s-.78-.22-1.17-.35c-.08,0-1-.38-.28-.09s-.28-.16-.41-.22A16.67,16.67,0,0,1,56,53a12.21,12.21,0,0,1-1.76-2.25,29.54,29.54,0,0,1-2-3.46l-.36-.77c.27.6,0,0-.06-.15-.25-.65-.49-1.31-.71-2a29.59,29.59,0,0,1-.93-3.68c-.07-.35-.13-.69-.18-1-.12-.79.07,1,0-.33-.05-.61-.11-1.22-.14-1.83a35.84,35.84,0,0,1,.08-4.75c.5-6.25,3-12.81,6.17-18.51a4.26,4.26,0,0,0-7.35-4.3"/><path class="cls-1" d="M121.14,54a33.7,33.7,0,0,1-.26-4.6c0-.77.05-1.54.12-2.3,0-.3,0-.61.09-.92.06-.53.07-.61,0-.23,0-.23.07-.46.11-.69a30.54,30.54,0,0,1,2.67-8.35,27.07,27.07,0,0,1,4.84-7,25.9,25.9,0,0,1,6.49-5.09A29.1,29.1,0,0,1,152.05,21c7,.37,14,2.07,21,.36,6.51-1.59,13-6.19,14.33-13.1.43-2.18-.62-4.7-3-5.24-2.11-.48-4.77.64-5.24,3a11.81,11.81,0,0,1-.5,1.83c.31-.82-.44.7-.58,1-.54,1,.33-.34-.1.18-.2.24-.41.47-.62.69s-.45.45-.68.66l-.43.37c.37-.27.35-.26,0,0a17.36,17.36,0,0,1-1.64,1c-.23.13-.46.25-.7.36,0,0-1.12.5-.57.27s-.66.24-.6.22c-.32.11-.63.21-.95.3a19.8,19.8,0,0,1-2.12.51c-.12,0-1.39.18-.42.08l-.78.07c-.9.07-1.82.09-2.73.08-2,0-4-.2-6-.41a81.63,81.63,0,0,0-10.93-.78A37.35,37.35,0,0,0,112.63,54c.27,2.2,1.76,4.37,4.26,4.25,2.07-.09,4.54-1.89,4.25-4.25"/><path class="cls-1" d="M179.2,7.42a36.1,36.1,0,0,1,.31,6.06c0,1-.11,2-.23,3,.09-.72-.09.61-.12.8-.1.57-.21,1.14-.34,1.7a38.16,38.16,0,0,1-1.77,5.81l-.2.49-.13.29c-.22.45-.43.91-.66,1.37-.49,1-1,1.91-1.58,2.84a25.61,25.61,0,0,1-3.22,4.34,32.59,32.59,0,0,1-4.44,4.19c-.3.23-1.56,1.1-2.25,1.54-1,.65-2,1.24-3.07,1.81s-2,1-3,1.48l-1,.45-1.49.6a144.4,144.4,0,0,1-15,4.61A4.26,4.26,0,1,0,143.3,57c9.52-2.56,19.46-5.27,27.53-11.16A41.71,41.71,0,0,0,186.62,23a39.9,39.9,0,0,0,1.1-15.53c-.3-2.2-1.75-4.37-4.26-4.26-2.05.09-4.58,1.89-4.26,4.26"/><path class="cls-1" d="M226,152.19A75.67,75.67,0,0,1,236.39,162q1.14,1.31,2.22,2.67c.1.14.63.82.12.15.18.25.37.49.55.73.33.44.65.89,1,1.34,1.42,2,2.73,4,3.95,6.16a4.26,4.26,0,0,0,7.36-4.29,78.88,78.88,0,0,0-19.5-22.6,4.63,4.63,0,0,0-3-1.25,4.31,4.31,0,0,0-3,1.25c-1.41,1.53-1.87,4.55,0,6"/><path class="cls-1" d="M151.65,124.46a58.23,58.23,0,0,1,7.26,15.22,56.5,56.5,0,0,1,2.64,16.61,4.26,4.26,0,0,0,8.52,0A67.69,67.69,0,0,0,159,120.16a4.36,4.36,0,0,0-5.82-1.53,4.3,4.3,0,0,0-1.53,5.83"/><path class="cls-1" d="M188.81,113.65a47.16,47.16,0,0,1,5.08,14.7,134.91,134.91,0,0,1,1.34,14.25,4.32,4.32,0,0,0,4.25,4.26c2.19-.1,4.41-1.88,4.26-4.26a145.11,145.11,0,0,0-1.64-16.51,54.88,54.88,0,0,0-5.94-16.74,4.26,4.26,0,0,0-7.35,4.3"/><path class="cls-1" d="M144.51,256.46l44,11.43a4.26,4.26,0,0,0,2.27-8.21l-44-11.43a4.26,4.26,0,0,0-2.26,8.21"/><path class="cls-1" d="M194.64,265.25l3.9-16.59a4.26,4.26,0,1,0-8.21-2.27l-3.9,16.6a4.26,4.26,0,0,0,8.21,2.26"/><path class="cls-1" d="M197.37,226.05l36.1,11.1a4.29,4.29,0,0,0,5.23-3,4.35,4.35,0,0,0-3-5.24l-36.09-11.09a4.26,4.26,0,1,0-2.27,8.21"/><path class="cls-1" d="M240.87,233.66l4-11a4.26,4.26,0,0,0-6.26-4.81,4.74,4.74,0,0,0-2,2.55q-2,5.5-4,11a4.26,4.26,0,0,0,6.25,4.81,4.85,4.85,0,0,0,2-2.55"/><path class="cls-1" d="M118.36,187.29a58.29,58.29,0,0,0-.46,39.49,4.37,4.37,0,0,0,5.24,3,4.3,4.3,0,0,0,3-5.24,50.22,50.22,0,0,1,.46-35c.8-2.09-.87-4.76-3-5.24a4.38,4.38,0,0,0-5.24,3"/><path class="cls-1" d="M188,167.33a26.35,26.35,0,0,1,2.26-1.39c.33-.18.67-.36,1-.52l.68-.32c-.38.17-.33.13,0,0a20.1,20.1,0,0,1,2.52-.72c.07,0,.68-.11.17,0s.24,0,.37,0a10.84,10.84,0,0,1,1.14,0,2.86,2.86,0,0,1,.64,0s-.84-.15-.34,0,.74.14,1.1.24c.2.05,1.22.35.7.19s0,0,.07,0l.7.37.4.25c.59.34-.15-.07-.1-.11a5.48,5.48,0,0,1,.69.63,5.15,5.15,0,0,1,.42.47c0,.05-.43-.68-.2-.23.07.13.17.25.25.38s.14.26.2.39.1.17,0-.12-.09-.27,0,0,.12.35.17.54.14.82.17.82c-.23,0,0-1-.06-.29,0,.14,0,.28,0,.43s0,.37,0,.56,0,.19,0,.29,0,.19,0-.14l0-.28c0,.14-.05.28-.07.42s-.07.29-.1.43c-.08.33-.18.66-.29,1-.33.94.26-.45-.08.21-.16.32-.32.63-.49.93s-.38.59-.57.89c-.3.46-.18-.05.13-.14-.08,0-.24.28-.29.34-.23.27-.47.53-.72.77s-.81.57-.9.8c0,0,.66-.46.27-.22l-.36.25c-.35.23-.71.45-1.08.65s-.74.38-1.11.55c-.07,0-.62.25-.15.07s-.38.13-.49.17a26.11,26.11,0,0,1-2.75.78l-1.42.28L190,177l-.33.05c.56-.08-.21,0-.34,0l-.73.08-1.45.13c-1,.08-2.05.14-3.08.2a4.34,4.34,0,0,0-4.26,4.26c.1,2.2,1.88,4.4,4.26,4.26,8.59-.5,18.16-1.72,23.1-9.74,2.07-3.38,3.07-7.9,1.72-11.73a13,13,0,0,0-10-8.43c-5.44-1-10.69.82-15.19,3.85a4.34,4.34,0,0,0-1.53,5.83c1.18,1.84,3.85,2.86,5.82,1.53"/></svg>