<svg id="Layer_1" data-name="Layer 1" xmlns="http://www.w3.org/2000/svg" viewBox="0 0 208.62 566.82"><defs><style>.cls-1{fill:#fff;}</style></defs><path class="cls-1" d="M38.55,98.27c-12,2.48-19.83,13.59-22.81,24.81-1.74,6.57-2.18,13.43-2.49,20.18q-.48,10.61-.69,21.22a846,846,0,0,0,2.6,85q2,24.27,5.34,48.41c.32,2.28,3.23,3.53,5.24,3,2.46-.68,3.29-2.95,3-5.24-3.72-27-6.1-54.34-7.16-81.63q-.8-20.55-.6-41.13.11-10.35.46-20.7c.23-6.6.36-13.25,1.17-19.82a54.3,54.3,0,0,1,2.18-9.72c.3-.9.62-1.8,1-2.67-.08.18-.3.63.07-.13.18-.38.36-.76.55-1.13a31.42,31.42,0,0,1,2.14-3.63l.61-.86c.18-.23.17-.23,0,0l.39-.49c.45-.54.91-1.06,1.39-1.57s1.08-1.08,1.65-1.59l.63-.54c1-.84-.61.39.45-.35a32.1,32.1,0,0,1,3.53-2.09c1.15-.58-.41.14.3-.14l1-.35a21.7,21.7,0,0,1,2.4-.63,4.26,4.26,0,1,0-2.27-8.21"/><path class="cls-1" d="M20.7,292.5c-1.24,15,1.21,30,4.41,44.64s6.64,28.89,9.58,43.43c5.93,29.33,10.87,58.84,17.1,88.11q1.37,6.42,2.82,12.81a73.47,73.47,0,0,0,2.71,10A35.78,35.78,0,0,0,68.56,506.7a4.37,4.37,0,0,0,6,0c1.51-1.5,1.79-4.56,0-6a40.19,40.19,0,0,1-6-5.89c.57.71-.44-.64-.59-.86-.32-.49-.63-1-.92-1.49s-.52-.93-.75-1.4l-.39-.8c-.12-.28-.41-1-.14-.32-2.43-6.2-3.51-13-4.92-19.44-3.15-14.5-6-29.07-8.71-43.66C49.46,412.42,46.82,398,44,383.63s-6.09-28.86-9.4-43.24c-3.64-15.83-6.69-31.57-5.35-47.89A4.27,4.27,0,0,0,25,288.24a4.35,4.35,0,0,0-4.25,4.26"/><path class="cls-1" d="M39.4,106.94c10.54-3.84,22-5.67,32.75-3.74a52,52,0,0,1,7.76,2l1.59.58.78.31c.66.27-.5-.22.16.07,1.16.5,2.31,1.06,3.43,1.65a39.23,39.23,0,0,1,10.75,8c.78.8,1.53,1.64,2.24,2.5l.53.65c-.4-.49,0,.06.1.14.41.56.82,1.13,1.2,1.71.62.93,1.2,1.88,1.74,2.86.27.49.53,1,.77,1.49.12.25.25.5.36.76,0,0,.54,1.22.25.52a45.29,45.29,0,0,1,3.25,16,141.71,141.71,0,0,1-.67,17.36q-.8,9.44-1.88,18.84-2.4,20.7-6.29,41.26c-.41,2.19.61,4.7,3,5.24,2.09.48,4.8-.63,5.24-3q3.69-19.73,6.12-39.65,1.18-9.68,2.06-19.39c.54-6.1,1.09-12.23,1-18.37a59.31,59.31,0,0,0-2.81-18.48A44.39,44.39,0,0,0,104.61,112,51.32,51.32,0,0,0,78.4,95.86C64.8,92.34,50.23,94,37.14,98.72a4.37,4.37,0,0,0-3,5.24c.57,2.08,3.06,3.77,5.23,3"/><path class="cls-1" d="M97.53,220.37Q96.36,264.7,93.24,309T85,397.25q-2.85,24.57-6.29,49c-.31,2.2.53,4.68,3,5.24,2,.46,4.91-.62,5.24-3q6.28-44.48,10.62-89.2,4.26-44.42,6.56-89,1.27-24.95,1.93-49.92a4.26,4.26,0,1,0-8.52,0"/><path class="cls-1" d="M78.46,450.29c-.24,4.7-.48,9.4-.86,14.09q-.25,3.25-.62,6.5c-.07.61-.15,1.23-.22,1.83,0,0-.19,1.39-.09.7-.17,1.15-.34,2.3-.53,3.45a134.92,134.92,0,0,1-2.94,13.45c-.31,1.13-.62,2.26-1,3.38-.25.8-.72,2.18-.9,2.63a11.25,11.25,0,0,1-3,4.35,4.26,4.26,0,0,0,6,6c3.74-3.32,5.41-8.16,6.72-12.84a139.43,139.43,0,0,0,3.22-14.27A254.23,254.23,0,0,0,87,450.29,4.28,4.28,0,0,0,82.72,446a4.34,4.34,0,0,0-4.26,4.25"/><path class="cls-1" d="M71.51,97.34c-.1-.56-.21-1.12-.3-1.68,0-.28-.08-.56-.13-.84,0-.11-.12-.83,0-.13-.15-1.12-.26-2.25-.34-3.39a66.85,66.85,0,0,1-.16-6.79c0-1.13.1-2.27.19-3.4.05-.56.1-1.13.16-1.69,0-.28.07-.56.1-.85s.07-.59,0-.13a67,67,0,0,1,1.33-6.89q.81-3.31,1.94-6.53c.36-1,.74-2,1.13-3,.32-.79.14-.34.06-.16l.34-.78c.26-.59.53-1.17.8-1.74a68.14,68.14,0,0,1,7-11.65l.31-.41c-.25.32.4-.5.46-.57.4-.5.8-1,1.22-1.47.83-1,1.69-1.92,2.57-2.83A64.83,64.83,0,0,1,94,37.11c1.79-1.45,1.51-4.52,0-6-1.77-1.77-4.23-1.46-6,0C72.5,43.62,63.22,63,62.11,82.81a69.13,69.13,0,0,0,1.19,16.8c.43,2.25,3.15,3.54,5.24,3a4.34,4.34,0,0,0,3-5.24"/><path class="cls-1" d="M79.19,94.9c-.08-.43-.16-.86-.23-1.29,0-.11-.13-.84,0-.17,0-.22,0-.43-.07-.65-.11-.94-.18-1.88-.21-2.83a41.24,41.24,0,0,1,.21-5.88c0-.22,0-.44.07-.65,0,.09-.08.55,0,0s.13-.87.21-1.3c.18-1,.4-2,.66-3a40.49,40.49,0,0,1,1.78-5.39c.18-.46,0-.08,0,0l.27-.6q.32-.7.66-1.38c.42-.85.87-1.68,1.35-2.5s1-1.61,1.52-2.39A23.2,23.2,0,0,1,86.79,65a37,37,0,0,1,3.91-4.1c.32-.29.66-.57,1-.85-.4.33.43-.31.55-.39A24.58,24.58,0,0,1,94.87,58a10.92,10.92,0,0,1,2.38-1c.47-.15,1-.29,1.44-.41.23-.06,1.68-.29.93-.21a12.06,12.06,0,0,1,2.88,0c-.75-.1.6.19.87.27l.59.2c.7.26-.85-.43.34.17a4.36,4.36,0,0,0,5.82-1.53,4.3,4.3,0,0,0-1.53-5.83C99.39,45,89.2,50,82.65,56.87A45.55,45.55,0,0,0,70.74,81,46.91,46.91,0,0,0,71,97.16c.43,2.26,3.14,3.55,5.24,3a4.35,4.35,0,0,0,3-5.23"/><path class="cls-1" d="M86.41,35.13l-.6-.39s.51.44.18.11c-.18-.18-.88-1.05-.37-.31a10.07,10.07,0,0,1-.56-.88c-.11-.21-.22-.42-.31-.63.16.37.14.44.06,0s-.18-.84-.31-1.21,0,.14,0,.23c0-.18,0-.36,0-.54,0-.43,0-.86,0-1.29,0-.18,0-.37,0-.55,0-.48-.17.63,0-.15.1-.35.16-.72.27-1.07s.15-.47.23-.7c0,.06-.29.61-.07.17a10.46,10.46,0,0,1,.64-1.19c.12-.2.93-1.31.62-.93a17.52,17.52,0,0,1,2-2.05,13.26,13.26,0,0,1,2.18-1.59A60.52,60.52,0,0,1,102,16.72a120.73,120.73,0,0,1,14-4.32,121.34,121.34,0,0,1,26.8-3.88,48.16,48.16,0,0,1,5.76.23l.81.09c-.08,0-.62-.09-.12,0s.92.16,1.38.26a24.66,24.66,0,0,1,2.69.69c.44.14.86.29,1.29.45s-.05,0-.12-.06l.52.24a22.49,22.49,0,0,1,2.48,1.43s.55.4.19.12.22.2.31.27c.29.25.57.51.84.79s.62.66.92,1c-.44-.52.27.38.4.6.39.6.67,1.27,1,1.88.24.4-.09-.23-.11-.27.08.2.16.4.23.6.15.41.27.82.39,1.23.18.68.28,1.37.43,2.05.1.49-.05-.29-.05-.32,0,.21,0,.44.06.65,0,.44.06.88.07,1.32a35,35,0,0,1-.23,4.58c-.12,1.1.07-.35-.06.44-.06.41-.13.82-.2,1.23-.14.82-.29,1.65-.46,2.47-1.36,6.76-3.5,13.58-3.34,20.54a23.84,23.84,0,0,0,2.43,10.26,22.18,22.18,0,0,0,8.19,8.57,67.85,67.85,0,0,0,10.89,5l1.15.46,1,.41.25.11.75.33q.74.33,1.47.69a30.45,30.45,0,0,1,4.4,2.6c.21.14,1.07.83.46.33l1,.82c.64.57,1.26,1.16,1.86,1.78s1.16,1.26,1.71,1.91l.34.43s-.39-.52-.1-.13.58.79.86,1.2a34.8,34.8,0,0,1,2.58,4.47c.19.38.37.78.54,1.17-.3-.67,0,.09.14.35.34.87.64,1.74.91,2.63.51,1.67.78,3.35,1.15,5,.11.49,0-.15,0-.21,0,.18.05.36.07.55,0,.43.09.85.12,1.28.06.86.1,1.73.1,2.59s0,1.72-.1,2.57c0,.43-.1.86-.12,1.29s0-.16,0-.23l-.12.73a31.56,31.56,0,0,1-1.25,5c-.14.41-.3.8-.45,1.21s.06-.11.08-.17c-.09.23-.2.45-.3.68-.36.78-.76,1.55-1.19,2.3a4.26,4.26,0,0,0,7.36,4.3c7.93-14,5.06-32.38-5.58-44.17a33.5,33.5,0,0,0-9.11-7.12c-2-1.06-4.1-1.93-6.2-2.79l-2.67-1.07-1.33-.53-.76-.31-.3-.13A42.3,42.3,0,0,1,173,62.61l-1.14-.75-.63-.45c.07,0,.48.37.11.06a19.7,19.7,0,0,1-2.21-2.17c-.32-.36,0,0,0,.09-.16-.21-.31-.43-.46-.65s-.43-.66-.63-1-.35-.69-.53-1c-.1-.18-.29-.74,0,.12-.08-.21-.16-.41-.23-.62a17,17,0,0,1-.62-2.19c-.09-.43-.16-.86-.23-1.29.15.95,0-.12,0-.52a30.92,30.92,0,0,1,.12-5.09c0-.18.16-1.37.09-.83s.11-.7.13-.84c.14-.89.3-1.77.48-2.66.69-3.53,1.59-7,2.28-10.55C171,25,171.7,17,167.58,10.47,162.71,2.75,153.69.22,145.05,0a91.24,91.24,0,0,0-13.41,1,163.49,163.49,0,0,0-16.14,2.8,123.43,123.43,0,0,0-14.82,4.38,80.34,80.34,0,0,0-13.81,6.21c-4.1,2.47-7.81,5.82-9.68,10.31a15.75,15.75,0,0,0,.36,13,12,12,0,0,0,4.57,4.83,4.26,4.26,0,1,0,4.29-7.35"/><path class="cls-1" d="M93.17,52.56c-7.14,7.69-3,19.81,5.43,24.56,9,5.08,21,3.69,30.6,1.21a68.41,68.41,0,0,0,17.11-7.06,4.26,4.26,0,1,0-4.3-7.36,59.29,59.29,0,0,1-24.66,7.85,47,47,0,0,1-6,.13A19,19,0,0,1,106,71c-.5-.15-1-.32-1.48-.49,0,0-.66-.27-.31-.12l-.3-.14a17,17,0,0,1-2.66-1.59c.38.29-.31-.29-.41-.38-.32-.31-.61-.63-.91-1s0,.05.08.11L99.65,67a13.21,13.21,0,0,1-.77-1.31c-.09-.17-.17-.35-.25-.52.18.38.1.31,0,0s-.32-1-.43-1.45c0-.18-.06-.39-.12-.56-.21-.54,0,.6,0,0s-.07-1-.06-1.48l0-.55c0-.48.1-.3,0,0,.14-.45.24-.93.38-1.39-.25.81.21-.34.34-.6,0-.05.36-.56.08-.17s.37-.41.37-.42a4.26,4.26,0,1,0-6-6"/><path class="cls-1" d="M118.76,77.1A10.81,10.81,0,0,0,123,85.38,30,30,0,0,0,126.6,88c.53.31,1.05.62,1.55,1l.68.46c1,.68-.44-.48.42.34.19.18.39.35.57.54,0,0,.74.94.42.46s.14.26.18.36l.09.17c-.17-.45-.19-.43,0,0,0,0,0,.9,0,.06,0,.84,0,.36,0,.14a6.36,6.36,0,0,1-.3,1c-.1.27-.1.27,0,0l-.3.6c-1.37,2.63-2.9,5.08-3.43,8.05a22.09,22.09,0,0,0,4.36,17.27,31,31,0,0,0,14.58,10c7.12,2.5,14.86,2.75,22.33,3a4.29,4.29,0,0,0,4.26-4.25,4.34,4.34,0,0,0-4.26-4.26c-6.07-.18-11.92-.33-17.71-1.93a24.87,24.87,0,0,1-6.65-2.73,18,18,0,0,1-5.35-4.34c-.19-.22-.39-.45-.57-.68.34.44-.09-.14-.12-.2-.33-.49-.65-1-.93-1.49a10.1,10.1,0,0,1-1.27-3,17.77,17.77,0,0,1-.43-1.92c-.13-.72,0,.56,0-.16,0-.29-.05-.58-.06-.87,0-.65,0-1.29,0-1.94,0-.12.12-.83,0-.15.06-.36.13-.71.22-1.06a8.25,8.25,0,0,1,1.14-2.81,36.15,36.15,0,0,0,2.12-4.16,10,10,0,0,0-.5-8.77c-1.5-2.61-4.09-4.4-6.62-5.91-.59-.36-1.17-.74-1.76-1.12s-.34-.22-.18-.09c-.33-.26-.65-.55-1-.84s-.39-.4-.57-.61c.45.52-.18-.3-.26-.45.1.18.39.58,0-.06l-.09-.38c.06.48.07.46,0-.06a4.26,4.26,0,1,0-8.51,0"/><path class="cls-1" d="M148.09,125.28c-6.67,6.52-7.5,17.45-2.86,25.37,4.74,8.09,14.57,12.47,23.76,12,9.81-.53,19.38-5.8,25.71-13.24,3.3-3.87,5.9-8.41,6.59-13.52a17.77,17.77,0,0,0-4.46-14.23c-3.28-3.81-7.81-6.23-11.94-9-.54-.36-1.07-.73-1.6-1.11l-.7-.52c.35.27,0,0-.17-.14a28.6,28.6,0,0,1-2.66-2.5c-.19-.21-.38-.42-.56-.64-.47-.56.49.77-.22-.29-.31-.46-.61-.92-.87-1.4-.13-.24-.25-.49-.37-.73.19.41.06.15,0-.12s-.17-.52-.24-.79-.25-1.32-.15-.5c-.28-2.2-1.76-4.37-4.26-4.26-2.07.09-4.56,1.89-4.26,4.26a19,19,0,0,0,6.13,11.71c3,2.83,6.56,4.9,10,7.15.79.51,1.56,1,2.32,1.59a15.5,15.5,0,0,1,1.8,1.48,20.14,20.14,0,0,1,2,2.1c-.4-.48.21.31.31.47.31.46.56.94.83,1.42.34.64,0-.17.22.53.16.5.31,1,.42,1.5,0,.21.09.43.12.65,0-.22,0-.66,0,.16,0,.51,0,1,0,1.52,0,.22,0,.44,0,.65.08-.66,0,.06,0,.17-.1.43-.18.86-.3,1.29s-.31,1-.48,1.48,0,.13,0,0c-.11.27-.25.55-.38.82a26.37,26.37,0,0,1-7.63,9.17c-.6.48-1,.8-1.92,1.39s-1.81,1.17-2.75,1.69a22.49,22.49,0,0,1-5.3,2.24,19.39,19.39,0,0,1-5.32,1,24.68,24.68,0,0,1-2.72,0c-.42,0-.84-.07-1.25-.12.7.09-.7-.14-.94-.19a26.14,26.14,0,0,1-2.63-.71c-.46-.16-.92-.32-1.37-.51.59.25-.51-.25-.7-.34a24.06,24.06,0,0,1-2.5-1.47l-.5-.36c.07.05.42.34,0,0s-.84-.71-1.24-1.09-.68-.68-1-1c-.19-.2-.37-.42-.54-.63.28.35,0,.07-.09-.13a20.08,20.08,0,0,1-1.49-2.58c-.29-.62.2.56,0-.08q-.15-.37-.27-.75c-.16-.5-.31-1-.43-1.53s-.19-.9-.26-1.36c.12.83,0-.59,0-.85,0-.52,0-1,0-1.58,0-.2,0-.39,0-.59s.1-.89,0-.41,0-.16,0-.22c.07-.32.13-.64.21-1s.23-.89.38-1.32c.08-.25.17-.49.26-.73-.15.4-.12.25,0-.06.24-.46.47-.92.75-1.36l.32-.49c0-.06.51-.68.24-.35s.22-.24.3-.32c.22-.24.45-.47.68-.7a4.26,4.26,0,0,0-6-6"/><path class="cls-1" d="M68.85,185.71l4.56-35.79c.28-2.22-2.16-4.35-4.26-4.26-2.55.12-4,1.88-4.26,4.26q-2.28,17.9-4.55,35.79c-.28,2.22,2.16,4.35,4.26,4.26,2.54-.11,4-1.88,4.25-4.26"/><path class="cls-1" d="M49,182a61.34,61.34,0,0,1,2.41-29.67,4.28,4.28,0,0,0-3-5.23,4.36,4.36,0,0,0-5.24,3,70.12,70.12,0,0,0-2.41,34.2c.39,2.27,3.17,3.54,5.23,3,2.4-.66,3.37-3,3-5.24"/><path class="cls-1" d="M53.49,200.29a11.48,11.48,0,0,0-5-1.18,12.09,12.09,0,0,0-5,1.18A10.58,10.58,0,0,0,37.85,207c-1.75,6,2.12,13.07,8.49,14a11.76,11.76,0,0,0,5.56-.34,11.13,11.13,0,0,0,4.63-2.9,4.26,4.26,0,0,0-6-6,6.45,6.45,0,0,1-.81.76l.86-.67a7,7,0,0,1-1.5.87l1-.42a8.27,8.27,0,0,1-1.83.5l1.13-.16a8.06,8.06,0,0,1-1.9,0l1.13.15a7.17,7.17,0,0,1-1.83-.49l1,.43a6.88,6.88,0,0,1-1.36-.79l.86.66a6.73,6.73,0,0,1-1.1-1.1l.67.86a7.62,7.62,0,0,1-.94-1.61c.15.34.29.68.43,1a8.82,8.82,0,0,1-.49-1.81L46,211a8,8,0,0,1,0-2c-.05.37-.1.75-.16,1.13a6.69,6.69,0,0,1,.47-1.64c-.15.33-.29.67-.43,1a6.46,6.46,0,0,1,.79-1.34L46,209a6.67,6.67,0,0,1,1.1-1.09l-.87.66a7.92,7.92,0,0,1,1.61-1l-1,.43a7.83,7.83,0,0,1,2-.53l-1.13.15a7.32,7.32,0,0,1,1.87,0l-1.13-.15a7.23,7.23,0,0,1,1.5.4l-1-.42.29.12a4.56,4.56,0,0,0,3.28.43,4.31,4.31,0,0,0,2.54-2,4.23,4.23,0,0,0,.43-3.28,4.13,4.13,0,0,0-1.95-2.54"/><path class="cls-1" d="M98.28,293.33c5,1.33,9.61,2.67,13.9,5.32a18.68,18.68,0,0,1,4.59,3.81c.12.14,1,1.22.72.82.31.4.59.83.86,1.25s.52.87.76,1.31c.13.26.26.52.38.78-.26-.57.1.26.15.37a15.09,15.09,0,0,1,.44,1.45c0,.14.35,1.74.25,1a15.92,15.92,0,0,1,0,3.45c.06-.72-.11.6-.15.79-.12.57-.27,1.13-.44,1.68a10,10,0,0,1-1.08,2.63,22.93,22.93,0,0,1-8.69,9c-4.85,3-9.66,4.63-15.12,6.46a4.37,4.37,0,0,0-3,5.24,4.31,4.31,0,0,0,5.24,3c10.88-3.65,22.47-8.13,28.48-18.61a23,23,0,0,0,2.79-16.48c-1.31-5.67-5.15-10.35-9.71-13.78-5.29-4-11.81-6-18.15-7.7a4.29,4.29,0,0,0-5.23,3,4.34,4.34,0,0,0,3,5.24"/><path class="cls-1" d="M92.42,340.28l9.1,13.67a4.33,4.33,0,0,0,5.82,1.53c1.85-1.19,2.85-3.84,1.53-5.83L99.77,336A4.34,4.34,0,0,0,94,334.45c-1.85,1.19-2.85,3.84-1.53,5.83"/><path class="cls-1" d="M23.71,285.51C15.62,282.27,5.6,287,2,294.68c-4.2,8.95-1.46,19.5,5.47,26.27a34,34,0,0,0,13.41,7.82,4.3,4.3,0,0,0,5.24-3,4.35,4.35,0,0,0-3-5.24,24.44,24.44,0,0,1-10.42-6.41,11.2,11.2,0,0,1-1.51-1.89,15.85,15.85,0,0,1-.93-1.52c-.09-.15-.75-1.49-.54-1a14.36,14.36,0,0,1-1.27-5.93c0-.6,0-1.2.08-1.8-.06.39,0,.33,0-.2.05-.29.11-.58.17-.87.11-.44.23-.87.37-1.29s.19-.56.3-.84q-.21.5.12-.21c.27-.49.56-1,.84-1.45s.29-.42,0-.07c.16-.2.33-.4.5-.59a10.7,10.7,0,0,1,.82-.83c.12-.12,1.33-1,.64-.56a12.61,12.61,0,0,1,1.31-.83c.14-.08,1.56-.74.73-.41a15.26,15.26,0,0,1,2.58-.75c.5-.08.5-.08,0,0l.76-.05c.51,0,1,0,1.52,0-1-.06.52.12.74.17a13,13,0,0,1,1.45.49c2.07.84,4.77-.9,5.24-3a4.39,4.39,0,0,0-3-5.24"/><path class="cls-1" d="M20.33,322q-5.52,4.89-11.06,9.76a4.31,4.31,0,0,0-1.25,3,4.36,4.36,0,0,0,1.25,3,4.3,4.3,0,0,0,3,1.24,4.7,4.7,0,0,0,3-1.24L26.36,328a4.27,4.27,0,0,0,0-6,4.27,4.27,0,0,0-3-1.24,4.74,4.74,0,0,0-3,1.24"/><path class="cls-1" d="M61.25,501.81a139,139,0,0,1-2.62,50.42,4.26,4.26,0,1,0,8.21,2.26,149.89,149.89,0,0,0,2.63-54.95c-.31-2.28-3.24-3.52-5.24-3-2.46.68-3.29,2.95-3,5.24"/><path class="cls-1" d="M61.31,551.62l-15.63,2.53a4.26,4.26,0,0,0-2.54,2,4.32,4.32,0,0,0-.43,3.28,4.37,4.37,0,0,0,5.24,3l15.63-2.53a4.23,4.23,0,0,0,2.54-2,4.26,4.26,0,0,0-4.81-6.25"/><path class="cls-1" d="M70.55,499.81a200.72,200.72,0,0,1,1.1,56.78c-.27,2.22,2.15,4.35,4.26,4.26,2.54-.11,4-1.88,4.26-4.26a207.51,207.51,0,0,0-1.41-59c-.37-2.27-3.18-3.54-5.24-3-2.4.66-3.35,3-3,5.23"/><path class="cls-1" d="M75.1,561.21l9.21,5a4.46,4.46,0,0,0,3.28.43,4.41,4.41,0,0,0,2.54-2,4.24,4.24,0,0,0,.43-3.28,4.34,4.34,0,0,0-2-2.55l-9.21-5a4.46,4.46,0,0,0-3.28-.43,4.38,4.38,0,0,0-2.54,2,4.24,4.24,0,0,0-.43,3.28,4.34,4.34,0,0,0,1.95,2.55"/><path class="cls-1" d="M102.37,51.07l-6.61,5.07a3.15,3.15,0,0,0-1.2,1.09,3.22,3.22,0,0,0-.76,1.45,4.27,4.27,0,0,0,3,5.24l1.14.15a4.28,4.28,0,0,0,2.15-.58l6.61-5.07a3.15,3.15,0,0,0,1.2-1.09,3.32,3.32,0,0,0,.76-1.45,4.27,4.27,0,0,0-3-5.24l-1.14-.15a4.28,4.28,0,0,0-2.15.58"/></svg>