<svg id="Layer_1" data-name="Layer 1" xmlns="http://www.w3.org/2000/svg" viewBox="0 0 306.04 229.03"><defs><style>.cls-1{fill:#fff;}</style></defs><path class="cls-1" d="M44.23,97.82A702.5,702.5,0,0,1,223,81.18a226.8,226.8,0,0,1,23.13,1.64A82,82,0,0,1,268,88.76a4.39,4.39,0,0,0,5.83-1.52c1.07-1.83.57-4.87-1.53-5.83C259,75.31,244.38,73.64,229.84,73c-15.16-.73-30.36-.88-45.54-.58a717.28,717.28,0,0,0-91.86,7.8Q67,84,42,89.61a4.26,4.26,0,0,0,2.26,8.21"/><path class="cls-1" d="M270.51,89.48a12.67,12.67,0,0,0,2.3-.27,7.35,7.35,0,0,0,1.13-.34,13.29,13.29,0,0,0,2-.94,13.59,13.59,0,0,0,1.78-1.34,7.24,7.24,0,0,0,.82-.84,13.2,13.2,0,0,0,1.34-1.83,9.4,9.4,0,0,0,1.19-3.23,3.28,3.28,0,0,0,.07-1.7,3.14,3.14,0,0,0-.5-1.59,4.34,4.34,0,0,0-2.55-2,4.27,4.27,0,0,0-3.28.43l-.86.66a4.32,4.32,0,0,0-1.1,1.88,6.09,6.09,0,0,1-.43,1.57c.14-.34.28-.68.43-1a7.63,7.63,0,0,1-.82,1.41l.66-.87a6.8,6.8,0,0,1-1.28,1.29l.86-.66a7.15,7.15,0,0,1-1.56.91l1-.42a7.17,7.17,0,0,1-1.57.43l1.13-.15a7.34,7.34,0,0,1-.81,0,4.4,4.4,0,0,0-3,1.25,4.25,4.25,0,0,0,0,6,4.4,4.4,0,0,0,3,1.25"/><path class="cls-1" d="M43,88.9h-.09L44,88.76a5,5,0,0,1-1.28,0l1.13.15a5.85,5.85,0,0,1-1.3-.37l1,.43a6.65,6.65,0,0,1-1.34-.79l.86.66A6.79,6.79,0,0,1,42,87.73l.66.86a6.65,6.65,0,0,1-.79-1.34l.43,1a5.72,5.72,0,0,1-.39-1.4L42.06,88a5.39,5.39,0,0,1,0-1.27l-.15,1.14c0-.16.05-.31.08-.46a4.51,4.51,0,0,0-.43-3.28,4.26,4.26,0,0,0-5.83-1.53,4.3,4.3,0,0,0-1.95,2.55A9.25,9.25,0,0,0,33.9,90a10.81,10.81,0,0,0,2.43,4.15,10.61,10.61,0,0,0,4.05,2.62,9.26,9.26,0,0,0,2.35.48,8.78,8.78,0,0,0,2.5-.16,3.12,3.12,0,0,0,1.45-.76,3.31,3.31,0,0,0,1.1-1.19,4.4,4.4,0,0,0,.43-3.29,4.35,4.35,0,0,0-2-2.54l-1-.43a4.33,4.33,0,0,0-2.26,0"/><path class="cls-1" d="M42.14,86.28a47.63,47.63,0,0,1,2.29-13.53,61.54,61.54,0,0,1,2.29-6.19,72.06,72.06,0,0,1,3.3-6.5A84.7,84.7,0,0,1,68.18,38a89.21,89.21,0,0,1,11.25-8.4,123,123,0,0,1,12.86-7.14,143.64,143.64,0,0,1,28.66-10A149.88,149.88,0,0,1,182.82,11,147.55,147.55,0,0,1,235.7,32.17a142.46,142.46,0,0,1,21.89,17.19,115.66,115.66,0,0,1,10,10.61c2.65,3.24,5.6,7.87,5.78,12.1a16.26,16.26,0,0,1-1.51,7.24c-.85,2.06.93,4.77,3,5.24,2.48.57,4.32-.77,5.24-3a22.59,22.59,0,0,0-.36-18.21c-2.19-4.91-5.69-9.15-9.3-13.07a158.31,158.31,0,0,0-77.2-45.7,158.51,158.51,0,0,0-66.54-2C105.94,6.37,85,14.28,68.14,27.14c-16.21,12.35-30.43,30.45-33.73,51a64.57,64.57,0,0,0-.79,8.1,4.26,4.26,0,1,0,8.52,0"/><path class="cls-1" d="M40,87.22a7.89,7.89,0,0,0-6.49.77,14.15,14.15,0,0,0-1.88,1.28c-.52.39-1,.8-1.54,1.2l-.41.32c-.63.51.31-.21-.1.08s-.64.46-1,.67c-.15.1-1.17.65-.62.39s-.44.1-.64.16c.48-.15.64,0,.13-.09-1-.1-2.09-.18-3.13-.31l-.79-.1c1.32.22,0,0-.27,0l-3.08-.42c-1.52-.2-3-.39-4.56-.54a27,27,0,0,0-8.75.15c-3.45.79-5.82,3.83-4.95,7.42.68,2.77,3.33,4.74,5.59,6.2,5.06,3.28,11,5.51,16.64,7.47a26.78,26.78,0,0,0,13.27,1c6-.94,11.86-2.51,17.75-3.81A4.26,4.26,0,1,0,53,100.8c-4.7,1-9.39,2.08-14.09,3.1-3.72.8-7.16,1.39-10.71.27-2.11-.66-4.19-1.43-6.25-2.24l-1.72-.7c-.7-.28.63.28-.3-.13-.34-.14-.69-.29-1-.45-1.31-.57-2.6-1.19-3.87-1.84a36.24,36.24,0,0,1-3.36-2L11,96.43c-.71-.49-.1.12.1.08-.22,0-.92-.83-1.09-1-.6-.58.24.32.17.23a1.69,1.69,0,0,1-.24-.41c-.13-.27.42,1.14.23.49a3,3,0,0,1,0,1.5,3.14,3.14,0,0,1-.5,1c-.42.55-.3.38-.16.24s-1,.71-.52.42-1,.27-.43.17c.2,0,.42-.12.62-.17.76-.21.28.08-.2,0a3.28,3.28,0,0,0,.69-.06c.6,0,1.21,0,1.81,0,1.35,0,2.69.12,4,.25s2.74.3,4.1.47c1,.14-.51-.07.25,0l.9.12,2.82.38c3,.39,5.55.69,8.36-.66A12.76,12.76,0,0,0,34,98.12c.57-.42,1.13-.86,1.68-1.3.16-.13,1-.8.66-.53s0,0,.11-.07c.22-.16.44-.32.67-.47s.64-.34.94-.54c0,0-.79.31-.35.16s.88-.08-.2,0c.15,0,.59,0,0,0s.11.09.24.14c2.08.81,4.76-.89,5.23-3a4.37,4.37,0,0,0-3-5.24"/><path class="cls-1" d="M51.64,108.18c5.44,5.29,11.43,10.95,19,12.76,7.38,1.75,15.45,0,20.1-6.34,1.86-2.5,2.9-5.49,4.07-8.36,0-.11.54-1.25.14-.36.15-.34.3-.67.46-1q.39-.81.84-1.59c.18-.31.38-.6.57-.89.58-.92-.58.52.2-.24l.72-.73c.37-.31.36-.31,0,0l.45-.29a8.84,8.84,0,0,1,.86-.46c-.73.29.59-.11.6-.11,1-.28-.53-.12.55,0,.43,0,.85,0,1.28,0-.72-.09.2.06.37.1.36.09.71.19,1.06.3a8.63,8.63,0,0,1,2.25,1.07c2.54,1.51,4.94,4.28,7.43,6.71,3,3,6.47,5.64,10.66,6.68a13.59,13.59,0,0,0,12.67-2.8,4.26,4.26,0,1,0-6-6c-.83.74.59-.19-.39.28-.13.06-1.22.48-.38.22-.23.07-.5.13-.73.22-1,.36.69,0-.41.08a12.15,12.15,0,0,1-2,0c.93.12-.39-.12-.47-.14a14.44,14.44,0,0,1-1.58-.49c.17.06.64.32-.12-.06-.37-.18-.73-.37-1.09-.57s-.59-.37-.88-.56c-.09-.07-.87-.63-.45-.31a38.19,38.19,0,0,1-4.11-3.83c-5.21-5.27-11.5-10.63-19.49-9.13a13.25,13.25,0,0,0-8.29,5.82,19.83,19.83,0,0,0-1.87,3.49c-.35.79-.68,1.6-1,2.4l-.42,1c0,.12-.54,1.31-.36.89.24-.57-.24.56-.23.53q-.22.51-.48,1a18.48,18.48,0,0,1-.89,1.63c-.19.31-.39.61-.6.91.44-.64.11-.13,0,0-.28.29-.54.59-.84.87s-.39.35-.59.52q.51-.41-.09,0a19.38,19.38,0,0,1-1.73.95c.82-.36-.38.1-.46.13l-.77.22c-.39.1-.78.18-1.17.26-1.23.25.78,0-.48.05-.82,0-1.63.06-2.45,0,.07,0-1.27-.11-.66,0,.39,0-.89-.16-1-.19a18,18,0,0,1-2.36-.67,13.51,13.51,0,0,1-2.16-1,30.62,30.62,0,0,1-2.63-1.59,33.87,33.87,0,0,1-4-3.15c-1.56-1.38-3.05-2.83-4.54-4.27a4.26,4.26,0,0,0-6,6"/><path class="cls-1" d="M136.85,110.64c.07-.3.17-.58.25-.88-.24,1-.11.22.06-.08s.32-.51.48-.77c-.58.9-.07.12.11-.07s.45-.42.68-.64c.74-.7-.75.43.15-.1.66-.4,1.31-.78,2-1.12-.95.45.07,0,.24-.08s.55-.19.83-.27c.62-.19,1.24-.34,1.87-.47.17,0,1.34-.21.27-.07.34,0,.69-.08,1.05-.1a19.68,19.68,0,0,1,2.43,0l1,.08c1.1.08-.89-.22.17,0,.72.17,1.44.33,2.15.56a25.09,25.09,0,0,1,4.67,2c3.4,1.81,6.61,4,10.1,5.62a38.18,38.18,0,0,0,24.94,2.78,39,39,0,0,0,11.26-4.68c3.34-2,6.48-4.35,9.92-6.19a17.26,17.26,0,0,1,5-2c.37-.09.74-.16,1.11-.23h0c.25,0,.5-.05.75-.06a17,17,0,0,1,2.26,0c.15,0,1.37.17.35,0a13.93,13.93,0,0,1,1.43.29c.35.09.69.22,1,.31s.45.16,0,0c.21.1.43.2.63.31s.6.37.91.53.39.26,0,0a4.6,4.6,0,0,1,.53.46,10.29,10.29,0,0,1,.72.76c-.63-.73.24.43.35.62a4.26,4.26,0,0,0,7.35-4.3c-4-6.93-12.75-8.56-20-6.74-4.05,1-7.77,3.24-11.24,5.49-3.31,2.15-7.09,4.77-10.4,6a28.31,28.31,0,0,1-11.66,1.92,23.57,23.57,0,0,1-5.55-.76,30.64,30.64,0,0,1-3-.89,18.11,18.11,0,0,1-2.33-.95c-7.35-3.5-13.92-9.09-22.39-9.5-7.33-.34-16.8,3-18.65,10.95a4.26,4.26,0,1,0,8.21,2.26"/><path class="cls-1" d="M227.42,108.61c8.61,7.6,20.38,1.59,29.16-2.36a28.23,28.23,0,0,1,7-2.21c-.5.07.29,0,.32,0,.32,0,.64,0,1,0s.65,0,1,0c.78,0,.57,0,.33,0a16.78,16.78,0,0,1,4.1,1.2,31.61,31.61,0,0,0,7.84,2.34,18.92,18.92,0,0,0,4.12,0,50.13,50.13,0,0,0,11-2.36,27,27,0,0,0,9.75-5.2,8.36,8.36,0,0,0,2.17-10.06c-1.46-3-4.51-5.05-7.33-6.56A45.39,45.39,0,0,0,285.75,79c-3.47-.71-7.71-1.41-11.15-.15a4.38,4.38,0,0,0-3,5.24c.58,2.08,3.07,3.77,5.24,3,.29-.1,1.13-.16,1.31-.34-.28.28-1,.09-.48.07l.46,0c.33,0,.66,0,1,0,.62,0,1.26,0,1.88.09l.59.06c-.65-.08,0,0,.18,0l.76.12a42.55,42.55,0,0,1,4.59,1.1c.81.24,1.6.5,2.39.78l1.09.41.47.18c1,.39-.51-.25,0,0a38.89,38.89,0,0,1,4.1,2.14l.83.54c.14.11.28.22.43.32s-.65-.57-.34-.26.88.84,1.31,1.25-.5-.86,0,0a6,6,0,0,0,.34.61c.07.08-.33-1-.14-.24.13.56.05-1.15-.06-.22-.06.56.26-1.18,0-.22-.16.59.52-.8.13-.31a1.71,1.71,0,0,0-.21.35c-.26.56,0-.63.29-.36a8.84,8.84,0,0,1-.61.67c-.21.19-.44.36-.64.55-.38.37.73-.45.25-.2-.11.06-.22.16-.33.23-.64.4-1.28.79-1.95,1.14l-.95.47c-.35.16-1.07.45-.27.13-.81.33-1.62.63-2.45.91a45.76,45.76,0,0,1-4.62,1.28q-1.16.27-2.34.48l-.9.14-.59.09c.43-.06.77-.09.14,0a22.13,22.13,0,0,1-3.64.15c-.66,0,.46.14-.55-.08-.54-.12-1.06-.26-1.58-.43-1.13-.35-2.23-.81-3.32-1.25A22.05,22.05,0,0,0,258,96.64a71.93,71.93,0,0,0-8.27,3.42l-2.07.94-.64.28c-.66.29.93-.36-.27.11-1,.42-2.06.81-3.12,1.15a31.63,31.63,0,0,1-3.47.92l-.82.15c-.7.13.6,0-.1,0s-1.2.1-1.81.11a13.58,13.58,0,0,1-1.56-.08c.87.1-.46-.12-.73-.2l-.71-.22c.57.19.15.07-.17-.11-.16-.1-.32-.2-.48-.28-.94-.5.47.46-.35-.26a4.36,4.36,0,0,0-6,0,4.3,4.3,0,0,0,0,6"/><path class="cls-1" d="M47.59,104a19.75,19.75,0,0,1-4,1.1,38.11,38.11,0,0,1-4.37.4,79.36,79.36,0,0,0-10,.86c-6.29,1.13-11.95,4.83-14,11.12a11.81,11.81,0,0,0,.77,9.12,12.83,12.83,0,0,0,7.26,5.74,27.16,27.16,0,0,0,8.5,1.22c3.53.07,7.06-.06,10.58-.29,7.17-.47,14.29-1.39,21.42-2.17s14.4-1.54,21.61-2.22q21.61-2.06,43.3-3.42,43.1-2.72,86.33-2.75a172.66,172.66,0,0,1,20.09.92,75,75,0,0,1,9.08,1.68c2.44.61,4.79,1.54,7.23,2.17A82.93,82.93,0,0,0,275.58,129c3.71-.43,8.44-1.11,10.52-4.66,2.36-4-1-8.57-3.38-11.65s-5.15-5.85-7.74-8.76c-.23-.25-.45-.51-.67-.77s-1.05-1.27,0,0a9.92,9.92,0,0,0-3.15-2.93c-2.35-1.26-5.07-1.45-7.69-1.56-1.08,0-2.17-.06-3.25-.15,0,0-1.16-.15-.46,0s-.37-.08-.41-.09c-.35-.07-1.79-.68-.72-.16a4.37,4.37,0,0,0-5.83,1.52c-1.09,1.86-.55,4.83,1.53,5.83a18.69,18.69,0,0,0,7.5,1.55c1,0,2.06.06,3.08.13.29,0,.59.08.87.08.61,0-.68-.22-.12,0s1.13.25,1.68.45c-.12,0-.86-.41-.22,0s-.08-.06-.17-.17c.92,1-.61-.88.44.47.48.63,1,1.25,1.52,1.84,1.13,1.28,2.3,2.52,3.46,3.77,1.34,1.46,2.63,3,3.89,4.48.16.19.6.8,0,0,.12.16.24.31.35.47q.35.47.66.93a15.67,15.67,0,0,0,1.23,2.17c-.07-.07-.31-1-.2-.43,0,.11.08.26.11.37.33.94,0-1,0-.2,0,.51.27-1.23.08-.61,0,.05.55-1.08.26-.62,0,0,.79-.92.39-.52s.94-.53.36-.27a6.61,6.61,0,0,0-.62.36c-.86.51.95-.28-.1,0-.69.2-1.38.4-2.08.54-.4.07-.8.12-1.2.2-.61.12,1.12-.12.15,0l-.59.06c-1,.1-2,.16-2.95.2-2.06.08-4.14,0-6.21,0s-4-.24-6-.45l-1.24-.14c-.08,0-1.07-.15-.33-.05s-.21,0-.3,0c-.79-.12-1.58-.25-2.36-.4a34.31,34.31,0,0,1-4.36-1.21,69.08,69.08,0,0,0-9.29-2.36,124.59,124.59,0,0,0-19.28-1.83c-13.45-.35-26.95,0-40.39.33q-20.58.5-41.15,1.61-41.1,2.23-82,6.89c-6.75.77-13.5,1.56-20.28,1.84a77,77,0,0,1-9.49,0l-.8-.08c.77.08.1,0-.06,0-.58-.1-1.17-.21-1.74-.36-.26-.07-1.73-.61-1-.27a9,9,0,0,1-1.63-.93c.82.6-.68-.86-.39-.45s-.14-.27-.2-.36c-.34-.56.18.87-.1-.19-.06-.24-.11-.5-.18-.72.22.68,0,.32,0,0s0-.5,0-.75c0-.91-.21.46.06-.36.09-.3.17-.61.26-.92.19-.63-.28.54,0-.06A12.77,12.77,0,0,1,24.5,118c.46-.7.17-.21.05-.08.22-.24.44-.48.68-.71a7.17,7.17,0,0,1,.58-.52l-.09.08c.19-.14.38-.26.58-.38a8.76,8.76,0,0,1,3-1.28q1-.28,2-.48a14.19,14.19,0,0,1,1.89-.26c2.93-.27,5.88-.24,8.81-.52a29.7,29.7,0,0,0,9.85-2.48c2.09-1,2.61-4,1.53-5.82-1.26-2.15-3.73-2.49-5.83-1.53"/><path class="cls-1" d="M34.21,127.41c-3.93,1.87-6,6.32-5.79,10.54a14.69,14.69,0,0,0,6.06,11.42c4.07,3,9.31,3.77,14.23,3.95,5.48.21,11,0,16.48,0,23.27-.16,46.54-.21,69.79-1s46.4-2,69.59-3.08l35.06-1.64q8.64-.41,17.29-.81c5.39-.25,11.26,0,16.45-1.62,8.94-2.83,13.76-11.91,13.12-21-.7-10.06-7.34-17.76-15.07-23.6-1.88-1.41-3.84-2.72-5.84-4a4.26,4.26,0,0,0-4.3,7.35c1.87,1.17,3.71,2.38,5.47,3.69.59.44.33.24.77.59s.83.67,1.23,1c.86.73,1.7,1.49,2.5,2.29A24.71,24.71,0,0,1,275,116a25,25,0,0,1,1.54,2.72c.1.2.19.4.28.61-.21-.48,0,.07.07.15.18.45.34.92.48,1.39a23.8,23.8,0,0,1,.58,2.53c-.16-.85,0,.23,0,.53,0,.5.06,1,.07,1.49s0,.87,0,1.3c0,.24-.12,1.34-.07.91a6.73,6.73,0,0,0-.16.89c-.1.48-.22.95-.36,1.42s-.26.81-.39,1.21c-.06.17-.13.34-.2.51.32-.78.07-.19,0,0a24.19,24.19,0,0,1-1.36,2.29c-.28.39.09-.12.13-.16-.15.18-.3.36-.46.53s-.58.58-.88.87a4.36,4.36,0,0,1-.4.35c.6-.52.18-.12,0,0-.41.26-.8.53-1.23.76a17.29,17.29,0,0,1-5.37,1.41c-2.51.24-5,.3-7.55.42l-16.18.75-32.72,1.54c-21.82,1-43.63,2.13-65.45,3s-43.43,1.1-65.16,1.25l-16.42.11c-5.09,0-10.21.23-15.3,0-.81,0-2.39-.15-2.78-.2l-.54-.08-.65-.12c-.57-.11-1.14-.24-1.7-.4a9.29,9.29,0,0,1-4.13-2.12c-.27-.27-.77-.92-.3-.25-.22-.32-.43-.63-.62-1s-.51-1.1-.22-.32c-.15-.42-.3-.84-.41-1.26-.06-.21-.26-1.29-.18-.73s0-.54,0-.72,0-1.31,0-.71,0,.09,0,0l.18-.74c.24-1-.28.33.09-.24.11-.19.69-1,.32-.56s.35-.29.5-.42c-.71.6.13,0,.47-.15,2.07-1,2.62-4,1.53-5.83a4.35,4.35,0,0,0-5.83-1.52"/><path class="cls-1" d="M32.93,146A20.66,20.66,0,0,0,35,158.53a32.81,32.81,0,0,0,7.91,9.71c7,6.06,15.43,10.13,24,13.37,17.61,6.65,36.63,9.09,55.31,10.37,9.68.67,19.37,1,29.07,1.18,10.58.23,21.17.29,31.75-.24,20.06-1,40.26-4.09,58.8-12.1,14.48-6.26,29.26-16.19,33.33-32.35a51.83,51.83,0,0,0,1.05-5.93c.29-2.22-2.17-4.35-4.26-4.26-2.56.12-3.94,1.88-4.26,4.26.11-.81-.05.32-.1.58s-.13.74-.2,1.11c-.16.84-.36,1.68-.58,2.5s-.42,1.5-.67,2.23c-.14.39-.28.78-.43,1.16a4.14,4.14,0,0,1-.19.49c.22-.55.13-.27-.05.11a32.78,32.78,0,0,1-2.23,4.12c-.41.64-.85,1.26-1.3,1.88l.12-.16-.44.56-.82,1a43.19,43.19,0,0,1-3.59,3.57c-.7.62-1.41,1.21-2.13,1.79a4,4,0,0,1-.45.33l-1.36,1a84.46,84.46,0,0,1-10.72,6.36c-16,8-34.8,11.48-52.6,12.84-19.57,1.5-39.37,1-59,0-18-.87-35.32-2.47-52.69-7.53a119.45,119.45,0,0,1-11.94-4.14l-.64-.26c.48.2-.22-.1-.26-.12l-1.26-.55c-1-.44-2-.9-2.91-1.36-2-.95-3.87-2-5.73-3.08a40.87,40.87,0,0,1-9.23-7.14c-.64-.66-1.24-1.35-1.83-2.06-.44-.55.32.44-.09-.12l-.36-.5c-.31-.44-.61-.88-.88-1.34A20.85,20.85,0,0,1,42,153.53c-.21-.45,0,.08.06.14-.07-.17-.14-.35-.2-.53-.15-.47-.31-.94-.43-1.43s-.13-.73-.24-1.08c-.18-.61,0,.67,0,0,0-.19,0-.37,0-.55q0-.56,0-1.11c0-.21.15-1.69,0-.74.31-2.19-.54-4.68-3-5.23-2-.46-4.9.61-5.24,3"/><path class="cls-1" d="M136.78,177.29a32.27,32.27,0,0,0-8,45.37,4.37,4.37,0,0,0,5.82,1.53c1.84-1.07,2.88-3.95,1.53-5.82a23.67,23.67,0,0,1-4.21-9.05,18.54,18.54,0,0,1-.63-4.85q0-1.28.06-2.55c0-.22.1-1.23.08-1s.14-.81.17-1a22.4,22.4,0,0,1,3.41-8.7,17.28,17.28,0,0,1,2.66-3.46c.6-.64,1.22-1.25,1.88-1.83l.83-.71c.23-.18.23-.19,0,0,.23-.18.47-.35.71-.52a4.37,4.37,0,0,0,1.52-5.82c-1.08-1.85-3.94-2.87-5.82-1.53"/><path class="cls-1" d="M131.94,216.64l-15.9,4a4.26,4.26,0,1,0,2.26,8.21l15.91-4a4.26,4.26,0,0,0-2.27-8.21"/><path class="cls-1" d="M175.91,190.88a26.7,26.7,0,0,1,1.91,3,11.28,11.28,0,0,1,1.12,2.57,28.35,28.35,0,0,1,.85,3.29c.08.51.09.55,0,.11l.09.84c0,.48.06,1,.07,1.46a20.72,20.72,0,0,1-.16,3.15c.11-.82-.16.8-.19.95-.12.55-.27,1.1-.43,1.65a19.14,19.14,0,0,1-2.77,5.72,4.29,4.29,0,0,0,1.52,5.83,4.36,4.36,0,0,0,5.83-1.53,27.6,27.6,0,0,0-.53-31.37c-1.29-1.81-3.76-2.86-5.82-1.53-1.79,1.15-2.92,3.89-1.53,5.82"/><path class="cls-1" d="M178.28,221.23l11.08,4.84a4.62,4.62,0,0,0,3.28.43,4.26,4.26,0,0,0,3-5.24,4.12,4.12,0,0,0-2-2.54l-11.08-4.84a4.62,4.62,0,0,0-3.28-.43,4.26,4.26,0,0,0-3,5.24,4.12,4.12,0,0,0,2,2.54"/><path class="cls-1" d="M44.9,59.21c-7.19-3.71-15.08-6.59-23.28-6.53a29.84,29.84,0,0,0-20.4,7.79,4.33,4.33,0,0,0,0,6,4.34,4.34,0,0,0,6,0c3.86-3.67,9.33-5.33,14.82-5.29,6.4,0,12.77,2.39,18.54,5.36A4.35,4.35,0,0,0,46.43,65a4.3,4.3,0,0,0-1.53-5.83"/><path class="cls-1" d="M149.8,41.07a34.48,34.48,0,0,0-8.27-14.23,4.26,4.26,0,1,0-6,6,32.11,32.11,0,0,1,2.16,2.49l-.67-.86a30.39,30.39,0,0,1,3.84,6.56c-.14-.34-.29-.67-.43-1a30.76,30.76,0,0,1,1.18,3.3,4.26,4.26,0,0,0,8.21-2.27"/><path class="cls-1" d="M198.25,38.69a21.05,21.05,0,0,0-11.58-17.86,4.56,4.56,0,0,0-3.28-.43,4.31,4.31,0,0,0-2.54,2c-1,1.89-.63,4.81,1.52,5.82a17,17,0,0,1,2.51,1.47c.89.64-.58-.5,0,0l.47.4c.39.35.76.71,1.12,1.09.17.18.33.36.49.55s.69.86.19.21.07.11.16.24l.41.6a17.42,17.42,0,0,1,1.4,2.67c-.14-.33-.29-.67-.43-1a16.36,16.36,0,0,1,1.09,4l-.15-1.13c.06.48.11,1,.13,1.45a4.26,4.26,0,0,0,8.52,0"/><path class="cls-1" d="M172.58,46.28a1.71,1.71,0,0,1,.11-.14L172,47a6.79,6.79,0,0,1,1.11-1.1l-.86.66a7.31,7.31,0,0,1,1.51-.87l-1,.43a7.7,7.7,0,0,1,1.69-.46l-1.13.15a7.23,7.23,0,0,1,1.74,0l-1.13-.15a7.16,7.16,0,0,1,1.51.4l-1-.43a7.28,7.28,0,0,1,1.5.88l-.86-.67a7.59,7.59,0,0,1,1.23,1.24l-.66-.86a7.84,7.84,0,0,1,.88,1.51c-.15-.34-.29-.68-.43-1a7.2,7.2,0,0,1,.42,1.51l-.15-1.13a6.34,6.34,0,0,1,0,1.74c.06-.38.11-.75.16-1.13a7.64,7.64,0,0,1-.47,1.68l.43-1a7.84,7.84,0,0,1-.88,1.51l.66-.86A7.16,7.16,0,0,1,175,50.22l.86-.66a7.83,7.83,0,0,1-1,.64A4.27,4.27,0,0,0,173.34,56a4.36,4.36,0,0,0,5.82,1.53,10.88,10.88,0,0,0,5.33-12.63,11.52,11.52,0,0,0-4.67-6.09,10.68,10.68,0,0,0-7.63-1.39,10.36,10.36,0,0,0-3.48,1.28A11.77,11.77,0,0,0,165.23,42,4.26,4.26,0,0,0,170,48.23l1-.43a4.26,4.26,0,0,0,1.52-1.52"/><path class="cls-1" d="M255.16,43.63a19,19,0,0,0,9.66-15.37c.42-6.56-3.12-12.79-8.42-16.44a4.29,4.29,0,0,0-5.83,1.53,4.36,4.36,0,0,0,1.53,5.83c.09.06.86.67.46.32s.2.2.27.26c.4.37.77.77,1.15,1.18.53.57-.13-.25.13.14.14.21.29.4.42.61a13.54,13.54,0,0,1,.82,1.43s.44,1,.24.5.09.27.12.35a14.38,14.38,0,0,1,.44,1.59s.21,1.11.12.52,0,.52,0,.53a13,13,0,0,1,0,1.65c0,.09-.08.87,0,.32s-.09.48-.1.5a14.21,14.21,0,0,1-.42,1.55c-.08.23-.17.45-.25.67-.16.47.31-.57-.07.14-.26.47-.5.94-.79,1.4-.13.2-.28.39-.4.6-.25.41.42-.46-.1.13-.36.4-.72.8-1.11,1.17-.17.17-.35.33-.53.49s-.61.43-.12.1c-.5.34-1,.66-1.53,1a4.29,4.29,0,0,0-1.52,5.82,4.34,4.34,0,0,0,5.82,1.53"/><path class="cls-1" d="M254.65,84.33c1.4.81,2.71,1.75,4.08,2.6a36.16,36.16,0,0,0,6.45,3.19,17.23,17.23,0,0,0,7.2,1.13,16.08,16.08,0,0,0,8.88-3.65c1.76-1.38,1.55-4.59,0-6-1.87-1.72-4.14-1.47-6,0,.78-.61-.11,0-.24.12s-.45.28-.69.41a3.51,3.51,0,0,0-.7.34c.12-.23.79-.3,0,0a14.62,14.62,0,0,0-1.55.38c.33-.16.85-.07.14,0-.24,0-.47,0-.71,0a10.07,10.07,0,0,0-1.4-.07c.62.08.77.1.44,0l-.42-.07-.69-.15q-.68-.16-1.35-.39l-.66-.23-.4-.15.37.16c-.3,0-1-.45-1.26-.58L265,80.7c-.8-.43-1.57-.9-2.34-1.38-1.23-.78-2.41-1.62-3.66-2.34a4.26,4.26,0,1,0-4.3,7.35"/><path class="cls-1" d="M151.36,74.19c-2.83,0-5.68,1.2-8.24,2.26-1.88.77-3.75,1.58-5.61,2.4L135,80l-1.24.53-.6.26c.49-.21.43-.18,0,0-1.41.58-2.83,1.16-4.29,1.61-.54.16-1.08.29-1.62.42a1.61,1.61,0,0,0-.37.07c.09,0,1.09,0,.61-.09a7.73,7.73,0,0,0-1,0c-.41,0-.82-.07-1.23-.1-.82-.07-.13,0,0,0l-.75-.11c-1.13-.18-2.25-.39-3.36-.62-2.24-.46-4.47-1-6.71-1.44-5.12-1-10.57-2-15.73-.71A4.26,4.26,0,0,0,101,88c.44-.11.88-.2,1.33-.28-1,.17.36,0,.66,0a26,26,0,0,1,3.06,0c.54,0,1.08.1,1.62.16.13,0,.83.12.1,0l.62.1c1.2.19,2.4.41,3.59.65a136.69,136.69,0,0,0,13.45,2.53,17.67,17.67,0,0,0,8.37-1.57c3.53-1.38,7-3,10.47-4.48l.61-.27c.75-.32-.45.19,0,0l1.31-.54c.8-.32,1.61-.63,2.43-.91.64-.22,1.3-.43,2-.59a5.08,5.08,0,0,0,.88-.18c-.94.4-.85.07-.16.08a4.26,4.26,0,1,0,0-8.51"/><path class="cls-1" d="M170.21,81.28A19.72,19.72,0,0,0,197,82.75c1.73-1.43,1.58-4.57,0-6a4.38,4.38,0,0,0-6,0c-.6.5.53-.35.09-.06-.2.13-.38.27-.58.39a11.68,11.68,0,0,1-1.08.63c-.2.11-.41.21-.62.31-.52.25.05-.09.25-.11a8.12,8.12,0,0,0-1.31.45c-.4.11-.81.21-1.22.29-.08,0-.64,0-.68.12.07-.12,1.06-.11.16,0a16.75,16.75,0,0,1-2.65,0l-.56,0c-.95-.08.7.14.16,0s-.82-.15-1.23-.25-.9-.25-1.34-.4l-.52-.19c-.88-.31.61.3.12.06a26,26,0,0,1-2.29-1.31c-.64-.43.48.42.09.08l-.53-.45c-.34-.31-.67-.65-1-1a4.28,4.28,0,0,0-6,0,4.35,4.35,0,0,0,0,6"/><path class="cls-1" d="M255.37,108.08a13.85,13.85,0,0,1,1.57-.07c.18,0,1.49-.07,1.6.09l-.4,0,.44.07.73.15c.55.12,1.08.26,1.61.43s1.07.37,1.61.57-.75-.35,0,0l.85.41a25.31,25.31,0,0,1,3,1.78l.65.47c.41.3.49.27,0,0a9,9,0,0,1,1.45,1.25,28.37,28.37,0,0,1,2.37,2.53c.52.6-.3-.44,0,0l.45.62c.31.46.6.93.88,1.41s.5,1,.73,1.44c.43.9-.29-.88,0,.06l.28.81a4.26,4.26,0,0,0,8.21-2.27c-1.78-5.61-5.74-10.14-10.49-13.49-4.41-3.1-10.11-5.23-15.57-4.73-2.21.21-4.36,1.82-4.25,4.26.09,2.13,1.88,4.48,4.25,4.26"/><path class="cls-1" d="M249.16,147.82a50.85,50.85,0,0,1,5.38.12l.71.08c-.55-.07-.57-.07-.08,0s.94.18,1.4.3l.83.25.54.2c-.57-.25-.64-.28-.22-.09a16.73,16.73,0,0,1,1.75,1q.55.4-.18-.15c.15.12.29.25.43.38s.81.68.78.82q-.56-.73-.15-.18l.15.24c.35.56.33,1.12,0-.19.09.37.23.72.31,1.1a6,6,0,0,0,.11.61c-.41-1.27-.08-.66,0-.17s.08,1,.09,1.48a27.14,27.14,0,0,1-.14,3.37c-.13,1.16.14-.77,0,0,0,.21-.07.42-.1.63a15.27,15.27,0,0,1-.39,1.55c-.05.18-.12.35-.17.52-.2.65.58-1.07.09-.27-.1.16-.22.33-.31.49.47-1,.66-.75.24-.4a4.29,4.29,0,0,0,0,6,4.38,4.38,0,0,0,6,0c1.55-1.33,2.31-3.59,2.7-5.54a28.89,28.89,0,0,0,.54-6.88,13.9,13.9,0,0,0-1.47-6.35,14.71,14.71,0,0,0-7.66-6.11c-3.51-1.38-7.47-1.36-11.18-1.31a4.26,4.26,0,1,0,0,8.51"/></svg>