<svg id="Layer_1" data-name="Layer 1" xmlns="http://www.w3.org/2000/svg" viewBox="0 0 258.73 340.44"><path d="M57.83,130.4A40.59,40.59,0,0,1,47.6,117.92c-.65-1.19-1.25-2.41-1.8-3.65-.06-.12-.43-1-.2-.43l-.34-.84c-.27-.71-.53-1.41-.77-2.12A54.47,54.47,0,0,1,42.25,102c-2-11.6-.07-23.94,3.84-35.18A71.29,71.29,0,0,1,48.82,60q1.63-3.57,3.56-7c1.29-2.28,2.68-4.51,4.15-6.67,1.65-2.42,2.81-4,4.43-5.93A93.76,93.76,0,0,1,71.91,29.14a68.22,68.22,0,0,1,5.79-4.59q3.19-2.3,6.57-4.29c19.35-11.46,43-14.52,64.64-9.28A86,86,0,0,1,200,46.83a95.29,95.29,0,0,1,7.75,14.07l.41,1c.28.65.54,1.32.8,2,.5,1.27,1,2.55,1.39,3.83.85,2.51,1.59,5,2.21,7.61a66.12,66.12,0,0,1,2.11,15.42,38.8,38.8,0,0,1-2.51,15.86c0,.13-.42,1-.16.41-.12.27-.24.53-.37.8-.28.6-.59,1.19-.91,1.77s-.66,1.15-1,1.7c-.16.25-.33.5-.5.74,0,0-.83,1.14-.39.58-1.41,1.81-1.77,4.25,0,6,1.47,1.47,4.6,1.82,6,0,7.77-10,9.36-22.82,7.81-35.11a96,96,0,0,0-62.51-78A97,97,0,0,0,87.09,9.12,96.41,96.41,0,0,0,40.94,56.83c-10.31,23.41-12.12,52.71,4.86,73.53a43.57,43.57,0,0,0,6,6.06,4.37,4.37,0,0,0,6,0c1.51-1.51,1.78-4.55,0-6"/><path d="M48.73,130.9c-6.17,2.84-12.36,6.21-16.34,11.9a17.54,17.54,0,0,0,8.29,26.26c4,1.48,8.24,1.27,12.3.46s7.63-2.27,11.44-3.4A51.91,51.91,0,0,1,76,164c9.24-.63,18.48.51,27.64,1.66,2.22.28,4.35-2.16,4.26-4.26-.12-2.55-1.88-4-4.26-4.26a173.66,173.66,0,0,0-22.88-1.83,72.18,72.18,0,0,0-22.2,3.72c-1.62.53-3.24,1.07-4.88,1.53-.89.25-1.79.47-2.69.66a13.53,13.53,0,0,1-2,.33,13.78,13.78,0,0,1-4.36-.22c-.39-.1-.78-.23-1.17-.34-1.35-.41.49.36-.5-.21-.22-.13-.45-.24-.68-.37s-1.37-1-.7-.44a12.4,12.4,0,0,1-1.39-1.32c-.17-.19-.34-.39-.5-.59.56.7-.19-.31-.24-.39a15.33,15.33,0,0,1-.92-1.69c.31.68,0,.1,0,0-.16-.49-.32-1-.44-1.48-.06-.24-.11-.5-.16-.75-.25-1.15,0,.79,0-.39,0-.64,0-1.27,0-1.91-.07.86,0,0,.06-.2a8.08,8.08,0,0,1,.24-1c.11-.38.24-.75.38-1.12-.27.69.11-.2.21-.39a15.75,15.75,0,0,1,1.23-2c-.45.62.06-.06.19-.2.3-.35.61-.69.93-1,.56-.57,1.16-1.09,1.77-1.61s.24-.19.09-.08c.44-.33.89-.64,1.34-.95A62.12,62.12,0,0,1,53,138.26c2.09-1,2.6-4,1.52-5.83-1.25-2.14-3.72-2.49-5.82-1.53"/><path d="M90.23,156a45.35,45.35,0,0,0,39.12,11c14.34-2.64,26.56-11.12,39.78-16.69,7.07-3,14.61-5.09,22.31-4.71a4.28,4.28,0,0,0,4.26-4.26,4.35,4.35,0,0,0-4.26-4.25c-14.64-.74-28,6.25-40.64,12.64-6.22,3.14-12.1,6-18.79,7.9a36.47,36.47,0,0,1-23.16-.18,26.79,26.79,0,0,1-4.33-1.79,35.57,35.57,0,0,1-8.27-5.65,4.26,4.26,0,1,0-6,6"/><path d="M163,153.34c15.57,3.16,32.36,3.52,47.86-.35,7.1-1.77,13.91-5.19,18.1-11.4,3.89-5.74,4.79-13.67.86-19.64-4.06-6.16-11.24-9-18.09-10.85a4.26,4.26,0,1,0-2.27,8.21q1.94.51,3.84,1.14l1.53.55s1.29.52.48.18c.37.15.74.32,1.1.5a24.12,24.12,0,0,1,3.1,1.74l.8.56c.58.43-.7-.65.19.17.46.43.93.85,1.36,1.32.07.09.81,1.06.28.31.15.21.29.41.42.63a8.37,8.37,0,0,1,.48.82c.1.17.46.93.15.2a11,11,0,0,1,.55,1.77c0,.2.16,1.08.08.31,0,.41.06.82.06,1.24s0,.55,0,.82c0,1.24.2-.69-.06.52-.12.55-.24,1.09-.4,1.63s-.26.81-.42,1.2c.08-.19.3-.59-.08.15a23.05,23.05,0,0,1-1.17,2.05c-.2.29-.4.59-.62.88.37-.48-.08.08-.14.14-.49.52-1,1.05-1.49,1.53a15.55,15.55,0,0,1-3.22,2.24,28.89,28.89,0,0,1-7.9,2.93,90.4,90.4,0,0,1-19.91,2.36,105,105,0,0,1-23.19-2.07c-2.18-.44-4.7.63-5.24,3-.48,2.12.64,4.76,3,5.23"/><path d="M123.17,122.1a36.15,36.15,0,0,1-28.19.35c-2.11-.91-4.57-.63-5.83,1.53-1.05,1.79-.6,4.91,1.53,5.82a45.1,45.1,0,0,0,36.79-.35c2.09-.95,2.6-4,1.52-5.82-1.26-2.15-3.72-2.48-5.82-1.53"/><path d="M134.26,66.46a48.52,48.52,0,0,0-6.15-21.34,4.26,4.26,0,1,0-7.35,4.3,36.28,36.28,0,0,1,2.13,4.28c-.41-1,.14.39.21.57s.24.64.35,1c.29.8.55,1.62.79,2.44a43.67,43.67,0,0,1,1.07,4.66,9.66,9.66,0,0,1,.19,1.18c-.06-1.11,0,.16,0,.4.1.84.16,1.7.2,2.55A4.34,4.34,0,0,0,130,70.72c2.21-.1,4.39-1.88,4.26-4.26"/><path d="M168.36,58.53a48.79,48.79,0,0,0-6.15-21.34,4.31,4.31,0,0,0-5.83-1.53,4.36,4.36,0,0,0-1.53,5.83A36.28,36.28,0,0,1,157,45.77c-.4-1,.14.39.21.57s.24.64.35,1c.29.81.55,1.62.79,2.44a41.4,41.4,0,0,1,1.08,4.66c.06.39.17.79.19,1.18-.06-1.11,0,.16,0,.4.09.84.16,1.7.2,2.55a4.26,4.26,0,0,0,8.52,0"/><path d="M73.28,198.45q3.48,21.86,7,43.72l3.39,21.3q.89,5.61,1.78,11.21c.21,1.27.4,2.54.59,3.81.12.83,0,.15,0,0l.15,1.14c.08.65.16,1.31.25,2,1.32,10.43,2.38,23.58,11.39,30.54,4.64,3.59,10.39,4.72,16.11,5.32a110.32,110.32,0,0,0,18.34.85,101.12,101.12,0,0,0,23.23-4.48c7.55-2.33,14.56-7.16,15.24-15.66a4.27,4.27,0,0,0-4.25-4.26,4.36,4.36,0,0,0-4.26,4.26c-.11,1.33.13-.4-.06.35-.07.28-.15.56-.24.83-.22.71.47-.77-.14.37-.14.25-.27.5-.42.75s-.31.49-.48.73c.37-.51-.2.21-.3.32s-.4.43-.61.63-.89.79-.74.67a19.28,19.28,0,0,1-3.29,1.85,40.16,40.16,0,0,1-4.14,1.37,97.79,97.79,0,0,1-18.46,3.67c-5.91.48-11.85-.11-17.74-.61l-1.68-.16c-.35,0-.7-.07-1-.12s-1.09-.15-.32,0c-1.21-.18-2.42-.39-3.61-.69a22.35,22.35,0,0,1-3.39-1.1c.7.3-.51-.27-.74-.4a17.1,17.1,0,0,1-1.82-1.12c-.54-.38.45.39-.06-.05-.25-.22-.5-.43-.74-.66s-.75-.78-1.11-1.18c-.88-1,.28.42-.12-.15l-.4-.59a18.36,18.36,0,0,1-1-1.71c-.23-.44-.44-.89-.66-1.34-.35-.73-.09-.2,0,0-.12-.3-.24-.6-.35-.91a37.21,37.21,0,0,1-1.16-3.62,70.7,70.7,0,0,1-1.54-7.36c-.21-1.25-.39-2.49-.56-3.74.1.73,0,0,0-.1,0-.34-.09-.68-.14-1-.08-.67-.17-1.34-.25-2-1.64-12.9-3.95-25.73-6-38.56q-3.69-23.13-7.37-46.24c-.36-2.28-3.2-3.54-5.24-3-2.42.67-3.33,3-3,5.24"/><path d="M175.5,188.8c-.41,28.74-5.28,56.83-9.9,85.11-1.29,7.9-2.57,15.8-3.73,23.72-.32,2.19.54,4.68,3,5.24,2,.46,4.89-.62,5.24-3,4.24-28.87,9.95-57.55,12.6-86.64.74-8.13,1.22-16.28,1.34-24.45a4.26,4.26,0,1,0-8.52,0"/><path d="M162.65,76.6c.21-.23.43-.46.66-.67s.62-.5,0,0-.1.08,0,0A9.42,9.42,0,0,1,165,75l-1,.43a10.37,10.37,0,0,1,2.74-.73l-1.14.15a10.68,10.68,0,0,1,2.65,0l-1.13-.15a10.65,10.65,0,0,1,2.55.67l-1-.43a9.47,9.47,0,0,1,1.41.74c.11.07.21.15.32.21.4.23-.76-.63-.42-.32s.44.37.64.57.34.37.51.56c.4.43-.33-.42-.32-.42s.19.27.22.31a9.33,9.33,0,0,1,.81,1.49c-.15-.34-.29-.68-.43-1a10.83,10.83,0,0,1,.74,2.73L172,78.65a11.25,11.25,0,0,1,0,2.84c.05-.38.11-.76.16-1.13a11.29,11.29,0,0,1-.71,2.54l.42-1a9.88,9.88,0,0,1-.65,1.25l-.38.54c.73-1.15.33-.43.06-.13a4.26,4.26,0,0,0,6,6A14.48,14.48,0,0,0,179,73.43a12.32,12.32,0,0,0-5.64-5.66,15.19,15.19,0,0,0-8.91-1.3,13.22,13.22,0,0,0-7.81,4.11,4.26,4.26,0,1,0,6,6"/><path d="M25.56,53.74A25.12,25.12,0,0,0,8.47,60.1,25,25,0,0,0,0,76.25c-.26,2.22,2.14,4.35,4.26,4.25,2.53-.11,4-1.88,4.26-4.25.11-1-.18.81,0-.06.07-.29.11-.58.18-.87a17.59,17.59,0,0,1,.48-1.72c.09-.28.2-.56.3-.84.3-.88-.35.7,0-.07.26-.54.52-1.07.81-1.59s.61-1,.94-1.52a3.13,3.13,0,0,1,.52-.73c-.37.47-.41.52-.12.16l.19-.23a22.7,22.7,0,0,1,2.62-2.66c.1-.08.88-.75.38-.33s.3-.21.41-.29c.49-.34,1-.67,1.5-1s1-.59,1.58-.85l.44-.21c-.61.29.33-.13.46-.17a19.32,19.32,0,0,1,3.43-.93l.44-.08c-.6.08-.73.1-.4.06s.59-.06.89-.07a15.7,15.7,0,0,1,1.94,0A4.3,4.3,0,0,0,29.82,58a4.35,4.35,0,0,0-4.26-4.26"/><path d="M13.25,88.14a16,16,0,0,0-10.4,18.43,4.29,4.29,0,0,0,5.24,3,4.37,4.37,0,0,0,3-5.24c-.05-.24-.09-.47-.13-.71.06.37.11.75.16,1.13a11.11,11.11,0,0,1,0-2.88L10.93,103a12.65,12.65,0,0,1,.86-3.13c-.15.34-.29.68-.43,1a13.11,13.11,0,0,1,1.55-2.66l-.67.86a12.62,12.62,0,0,1,2.15-2.17l-.86.66a11.39,11.39,0,0,1,2.33-1.37l-1,.43c.22-.1.45-.18.68-.27a4.51,4.51,0,0,0,2.54-1.95,4.37,4.37,0,0,0,.43-3.28c-.67-2.07-3-3.78-5.24-3"/><path d="M39.84,7.92,30.08,8a4.42,4.42,0,0,0-3,1.25,4.26,4.26,0,0,0,3,7.27l9.76-.08a4.42,4.42,0,0,0,3-1.24,4.26,4.26,0,0,0-3-7.27"/><path d="M238,46.61c.13-.11.27-.21.4-.33a3,3,0,1,0-.25.2c.29-.19.57-.39.86-.57.59-.35,1.26-.59,1.82-1-.14.1-.84.34-.3.13l.48-.18,1-.32c.71-.2,1.42-.33,2.14-.46.55-.11-.92.08-.36.05l.51-.05c.35,0,.69,0,1,0,.69,0,1.37,0,2.06.1s-.91-.16-.36-.05c.16,0,.34.05.5.09.34.06.68.14,1,.22l1,.29c.3.1,1.5.59.3.08a4.68,4.68,0,0,0,3.28.43,4.32,4.32,0,0,0,2.55-2c1-1.83.66-4.88-1.53-5.82a20.54,20.54,0,0,0-12-1.58A20.46,20.46,0,0,0,232,40.59a4.27,4.27,0,0,0,0,6,4.38,4.38,0,0,0,6,0"/><path d="M243.74,66.45a11.29,11.29,0,0,1,2.65.76l-1-.43A12.3,12.3,0,0,1,248,68.31l-.86-.67a12.89,12.89,0,0,1,2.25,2.24l-.66-.86a11.79,11.79,0,0,1,1.54,2.61l-.42-1a12.07,12.07,0,0,1,.53,1.57,4.38,4.38,0,0,0,2,2.54,4.25,4.25,0,0,0,6.25-4.8A16.31,16.31,0,0,0,246,58.24a4.67,4.67,0,0,0-3.28.42,4.26,4.26,0,0,0-1.53,5.83,4.15,4.15,0,0,0,2.55,2"/><path d="M241.81,92.91a11.85,11.85,0,0,1,1.54,1.63l-.66-.86a13.57,13.57,0,0,1,1.53,2.63c-.14-.33-.29-.67-.43-1a12.64,12.64,0,0,1,.85,3.09c0-.38-.1-.76-.16-1.13a11.9,11.9,0,0,1,0,3,4.23,4.23,0,0,0,1.25,3,4.25,4.25,0,0,0,6,0l.66-.86a4.16,4.16,0,0,0,.58-2.15,15.86,15.86,0,0,0-5.17-13.41,4.5,4.5,0,0,0-3-1.25,4.25,4.25,0,0,0-4.25,4.26,4.24,4.24,0,0,0,1.24,3"/><path d="M84.05,218.7a63,63,0,0,0-20.6,44A4.29,4.29,0,0,0,67.71,267,4.36,4.36,0,0,0,72,262.71a55.21,55.21,0,0,1,5-20.51,53.3,53.3,0,0,1,13-17.48,4.26,4.26,0,1,0-6-6"/><path d="M180.31,214.59a12.78,12.78,0,0,1,2.13.89c.76.37,1.52.78,2.25,1.22a19.64,19.64,0,0,1,3.76,2.75,27.33,27.33,0,0,1,3.65,3.88c-.4-.53.4.56.48.68.24.35.47.71.7,1.07.49.78.95,1.59,1.36,2.41a26.19,26.19,0,0,1,.53,21.31c-.92,2.11-.62,4.57,1.53,5.83,1.81,1.06,4.89.59,5.82-1.53a34.12,34.12,0,0,0-20-46.72,4.29,4.29,0,0,0-5.24,3,4.36,4.36,0,0,0,3,5.23"/><path d="M141.36,312.37c-3.52,4.4-5.1,10.5-3,15.92a16.51,16.51,0,0,0,11.5,10.25,4.26,4.26,0,0,0,2.27-8.21c-.45-.11-.89-.23-1.32-.37a4.65,4.65,0,0,0-.52-.2c.95.24.46.19.15,0a12.71,12.71,0,0,1-1.19-.69,5.23,5.23,0,0,0-.57-.39c.19.08.64.53.22.16s-.68-.61-1-.95c-.16-.16-.3-.35-.46-.51-.36-.37.59.86.08.11-.23-.34-.46-.68-.67-1l-.32-.61c-.38-.66.22.63,0,.14s-.29-.81-.4-1.23c-.06-.24-.11-.48-.16-.72a2.74,2.74,0,0,1-.05-.28c-.06-.33,0-.2.05.4a6.69,6.69,0,0,0-.06-1.33c0-.24,0-.48,0-.73s.08-1,0-.31,0-.23.07-.31.09-.38.14-.57a4,4,0,0,1,.46-1.4c-.26.26-.31.68,0,.08.11-.22.22-.43.35-.65s1.05-1.48.34-.58a4.63,4.63,0,0,0,1.25-3,4.32,4.32,0,0,0-1.25-3c-1.54-1.42-4.54-1.86-6,0"/><path d="M118.83,317c0,.55,0,1.1,0,1.64,0,.23,0,.46,0,.69s-.19,1.1,0,.38,0,.08,0,.24-.1.53-.16.8c-.11.49-.24,1-.39,1.45a13.18,13.18,0,0,0-.51,1.41l.17-.39c-.06.13-.11.25-.17.37s-.24.5-.37.74a23.11,23.11,0,0,1-1.59,2.55c-.45.63.42-.5.07-.1l-.53.63c-.33.37-.68.74-1,1.08s-.73.69-1.11,1l-.32.26.32-.25c-.19.13-.37.27-.56.39a23,23,0,0,1-2.6,1.49c-.8.4.8-.3,0,0l-.78.28c-.52.17-1,.31-1.58.44a4.3,4.3,0,0,0-3,5.24,4.35,4.35,0,0,0,5.24,3c10.27-2.4,18.07-12.75,17.46-23.31a4.33,4.33,0,0,0-4.26-4.25c-2.2.09-4.4,1.87-4.26,4.25"/><path d="M188.56,153c.48,4.14,1.09,8.26,1.71,12.38.29,1.92.58,3.83.85,5.74.07.46.13.92.2,1.38,0,0,.19,1.39.09.71.15,1.07.28,2.13.4,3.21.26,2.2,1.78,4.37,4.26,4.26,2.09-.1,4.54-1.89,4.26-4.26-.48-4.14-1.09-8.26-1.71-12.38-.29-1.91-.58-3.83-.85-5.74-.07-.46-.13-.92-.2-1.38,0,0-.19-1.39-.09-.7-.15-1.07-.28-2.15-.4-3.22-.26-2.2-1.78-4.37-4.26-4.25-2.09.09-4.54,1.88-4.26,4.25"/><path d="M193.74,173.38a200.61,200.61,0,0,1-52.72,18,192.4,192.4,0,0,1-27.52,3.32,149,149,0,0,1-25.34-.57l-.87-.11-.18,0c-.58-.08-1.17-.17-1.75-.27-1.09-.18-2.17-.38-3.25-.62a59.2,59.2,0,0,1-6.52-1.76c-.81-.27-2.3-.83-2.68-1s-1.79-.82-2.54-1.21c-1-.51-1.93-1.06-2.86-1.66-.4-.26-.79-.53-1.18-.8-.08-.06-.76-.56-.39-.28s-.54-.44-.52-.43a4.38,4.38,0,0,0-6,0c-1.51,1.51-1.79,4.56,0,6,6.65,5.48,14.85,8.39,23.26,9.85a132.87,132.87,0,0,0,26.21,1.53A208.79,208.79,0,0,0,167,193.51a210.68,210.68,0,0,0,31-12.78,4.26,4.26,0,1,0-4.29-7.35"/><path d="M66.4,187.69l-3.72-22.81c-.36-2.2-3.22-3.63-5.24-3a4.39,4.39,0,0,0-3,5.24q1.86,11.4,3.73,22.8c.36,2.21,3.21,3.63,5.24,3a4.39,4.39,0,0,0,3-5.24"/><path d="M72.49,49.86q-2.51,9.27-5,18.54C66,74,63.92,79.85,64.91,85.75c1,6.09,6.09,10.06,12,10.63s11-2.74,14.36-7.29C95.4,83.53,96,76.32,96,69.65a4.26,4.26,0,0,0-8.52,0,46.76,46.76,0,0,1-.37,7.25,26.76,26.76,0,0,1-.86,3.56l-.24.7c0,.09-.36.89-.18.47s-.12.25-.13.26c-.16.32-.31.63-.48.94s-.5.86-.77,1.27c-.16.23-.32.47-.49.69.06-.08.32-.41,0,0a14.38,14.38,0,0,1-1,1.06c-.2.2-.41.38-.62.57s-.49.34-.13.09a14.17,14.17,0,0,1-1.24.76c-.09,0-.87.42-.42.23s-.21.07-.24.08a13.67,13.67,0,0,1-1.53.38c.8-.15-.61,0-.85,0l-.59,0c-.68,0,.62.14,0,0-.45-.09-.88-.22-1.33-.34,0,0-.64-.24-.21-.07s-.27-.14-.37-.2-.33-.2-.5-.3c-1-.56.24.27-.2-.16-.15-.14-.87-1-.51-.49-.17-.23-.3-.48-.45-.72,0,0-.3-.63-.14-.25.08.18-.25-.8-.31-1.07s-.12-.55-.16-.82c.07.47,0,.15,0-.13a19.53,19.53,0,0,1,.12-3.06c-.08.64,0-.1,0-.19,0-.3.1-.59.16-.89.12-.58.25-1.16.39-1.75.6-2.46,1.31-4.9,2-7.34q2.43-9,4.87-18a4.26,4.26,0,1,0-8.21-2.26"/><path d="M75.37,156.29a12.43,12.43,0,0,0-5.18,1.3,22,22,0,0,0-3.93,2.22,31.66,31.66,0,0,0-8.14,7.81,10.76,10.76,0,0,0-2,5.48,4.27,4.27,0,0,0,4.26,4.25,4.35,4.35,0,0,0,4.25-4.25,2.91,2.91,0,0,1,0-.31c-.06.38-.11.75-.16,1.13a6.56,6.56,0,0,1,.23-.87c.24-.76-.4.86-.22.5.07-.14.13-.27.21-.41a9.7,9.7,0,0,1,.58-1c.23-.35,1.11-1.38.07-.14A30.2,30.2,0,0,1,69,168.33c.31-.26,1.67-1.26.37-.31l1-.76c.72-.5,1.46-1,2.22-1.4.34-.19.67-.37,1-.54l.56-.26c.61-.28-1.2.46-.33.15a8.63,8.63,0,0,1,1.87-.51l-1.14.15a4.84,4.84,0,0,1,.76,0,4.29,4.29,0,0,0,4.25-4.26,4.35,4.35,0,0,0-4.25-4.26"/></svg>