<svg id="Layer_1" data-name="Layer 1" xmlns="http://www.w3.org/2000/svg" viewBox="0 0 240.61 298.82"><path d="M33.6,85.67C22.19,95.88,14.06,109.45,8.85,123.75c-5.29,14.53-7.51,30.46-5.45,45.84a71.45,71.45,0,0,0,6.36,21.52,100.2,100.2,0,0,0,13.46,20.68,118.23,118.23,0,0,0,38.34,29.75,137.16,137.16,0,0,0,51.29,13.79,120.15,120.15,0,0,0,56.91-9.56,111.48,111.48,0,0,0,38.36-28.45A113,113,0,0,0,231.64,175,110.83,110.83,0,0,0,234,124.17,111.82,111.82,0,0,0,205.9,67.71a4.26,4.26,0,1,0-6,6A103.41,103.41,0,0,1,223,114.59a112.07,112.07,0,0,1,2.81,11.85q.27,1.53.51,3.06c.06.43.13.87.19,1.31s0,.06,0,0c0,.36.09.73.13,1.09.24,2,.42,4,.55,5.95a108.79,108.79,0,0,1,.08,12.38c-.1,2-.26,4-.47,6l-.18,1.54c-.09.76,0-.14-.08.62-.15,1-.3,2.05-.48,3.06a100.82,100.82,0,0,1-2.75,11.76q-.81,2.7-1.77,5.36c-.3.85-.62,1.7-.95,2.54l-.54,1.36-.24.58c-.28.69,0-.08-.13.33A106.08,106.08,0,0,1,193.62,220q-2.07,1.91-4.25,3.71c-.75.62-1.51,1.23-2.28,1.84a5.07,5.07,0,0,1-.46.35l-1.34,1a107.26,107.26,0,0,1-9.6,6.31,102.48,102.48,0,0,1-10.23,5.22l-1,.45-.85.35c-1,.39-1.94.77-2.92,1.14q-3.16,1.17-6.41,2.14A109.07,109.07,0,0,1,127,247a127.32,127.32,0,0,1-51.22-8.45c-.86-.33-1.72-.67-2.58-1l-.79-.32c.08,0,.48.2,0,0l-1.57-.68c-1.76-.78-3.51-1.59-5.23-2.45-3.51-1.74-6.94-3.65-10.26-5.72a107.2,107.2,0,0,1-26-22.44c-.59-.7-1.17-1.41-1.73-2.13-.11-.13-.73-.94-.37-.46l-1-1.35c-1.17-1.59-2.29-3.2-3.36-4.86A93.27,93.27,0,0,1,17.2,187c-.37-.77-.72-1.54-1.07-2.31s.15.4-.15-.36c-.18-.46-.37-.92-.55-1.39-.62-1.63-1.17-3.3-1.65-5s-.88-3.3-1.22-5c-.17-.81-.33-1.63-.47-2.44l-.21-1.33-.08-.57c-.19-1.22,0,.51,0-.2a83.42,83.42,0,0,1-.63-10.71,97,97,0,0,1,.73-10.91c.07-.51,0,.06,0,.14l.12-.8c0-.4.11-.79.18-1.19.14-.93.3-1.86.48-2.78.34-1.85.74-3.7,1.2-5.53A101.48,101.48,0,0,1,17.07,126q.45-1.23.93-2.46c.17-.43.34-.87.52-1.31l.24-.56c-.18.42-.08.18,0-.09q1.11-2.59,2.36-5.11A96.76,96.76,0,0,1,26.58,107q1.49-2.3,3.12-4.49l.7-.93-.07.09.47-.6c.56-.7,1.13-1.4,1.72-2.08a75.07,75.07,0,0,1,7.1-7.28,4.3,4.3,0,0,0,0-6,4.35,4.35,0,0,0-6,0"/><path d="M124.92,56.57a43.57,43.57,0,0,1-4-10.66,43.75,43.75,0,0,1-1.28-11.29,46.84,46.84,0,0,1,5.45-21.91,4.26,4.26,0,1,0-7.35-4.3,56.44,56.44,0,0,0-.2,52.46,4.26,4.26,0,1,0,7.36-4.3"/><path d="M125,5a28.69,28.69,0,0,0-31.95-.22,4.36,4.36,0,0,0-1.52,5.83c1.09,1.87,3.92,2.84,5.82,1.53a24.34,24.34,0,0,1,3-1.79c.07,0,.79-.36.43-.21s.38-.15.45-.17c.52-.2,1-.38,1.57-.54a25,25,0,0,1,3.43-.77c-.72.11.68-.05.93-.07.62,0,1.25-.05,1.87-.05s1.1,0,1.66.07l.82.07c.71.07-.6-.1.1,0a23.68,23.68,0,0,1,3.43.79c.53.16,1,.35,1.56.54.25.09.54.24.13.05l.75.35a24.09,24.09,0,0,1,3.19,1.92c1.87,1.34,4.74.34,5.82-1.52A4.36,4.36,0,0,0,125,5"/><path d="M89.44,9.94a204.93,204.93,0,0,0,14.84,49.57c.93,2.11,4,2.6,5.83,1.53,2.17-1.27,2.46-3.71,1.53-5.82a198,198,0,0,1-14-47.55c-.37-2.27-3.19-3.53-5.24-3-2.41.66-3.35,3-3,5.24"/><path d="M110.67,54.78c-7.23-3.66-15.22-2.28-22.32,1-6.25,2.88-11.55,7.47-17.8,10.36a23.38,23.38,0,0,1-16.69,1,22.58,22.58,0,0,1-7.65-3.9c.6.46-.5-.43-.49-.42-.22-.19-.44-.37-.65-.57q-.95-.87-1.8-1.83l-.56-.64c-.89-1,.4.61-.39-.48-.5-.7-1-1.4-1.41-2.14S40.07,55.73,39.7,55c0,0-.57-1.28-.26-.54-.17-.4-.32-.8-.46-1.2a30.25,30.25,0,0,1-1.28-4.95c-.25-1.35,0,.8-.08-.57,0-.42-.08-.84-.1-1.27a24.3,24.3,0,0,1,0-2.56c0-.42,0-.85.07-1.27,0-.15.14-1.31,0-.57a24.39,24.39,0,0,1,.6-2.92A4.26,4.26,0,0,0,30,36.84c-3.57,13.87,2.76,29.4,15.59,36.1a33.21,33.21,0,0,0,20.93,3.3c7.44-1.22,13.66-5.69,19.89-9.61a36.93,36.93,0,0,1,10.18-4.89,15,15,0,0,1,5.35-.69,10.16,10.16,0,0,1,4.46,1.09,4.35,4.35,0,0,0,5.82-1.53,4.31,4.31,0,0,0-1.53-5.83"/><path d="M28.24,35.78c-3,10.9-6.22,22.38-4.78,33.8,1.13,9,5,18.18,12.21,24A27.6,27.6,0,0,0,50,99.48a36.52,36.52,0,0,0,15.67-2c10.17-3.43,18.58-10.1,27.9-15.2a41.4,41.4,0,0,1,14.62-5.22c.75-.1,2.4-.2,3.52-.21.68,0,1.36,0,2,.07l.9.08c.43,0-.3-.07.42.06a24.72,24.72,0,0,1,3.87,1l.63.23c.27.11.27.11,0,0l.4.19c.67.34,1.33.69,2,1.09a4.26,4.26,0,1,0,4.3-7.35c-8.61-5.27-19.52-4.64-28.67-1.16-9.67,3.68-17.8,10.12-26.85,15a43.1,43.1,0,0,1-13.25,4.77,30,30,0,0,1-6.76.23S50,91,50.37,91s-.54-.09-.61-.1c-.55-.1-1.1-.22-1.64-.35s-1.23-.35-1.83-.56l-.68-.25c-.52-.19.37.21-.34-.14a27.19,27.19,0,0,1-2.48-1.36c-.45-.29-.89-.59-1.32-.91.57.42-.54-.44-.7-.59a25.31,25.31,0,0,1-2.15-2.12c-.32-.36-.62-.72-.92-1.08l-.08-.11c-.16-.22-.32-.43-.47-.66a29.21,29.21,0,0,1-1.63-2.61c-.23-.42-.46-.84-.67-1.27q-.2-.37-.36-.75c0-.08-.48-1-.29-.62l-.41-1c-.19-.52-.37-1-.54-1.57-.31-1-.58-2-.82-3-.13-.61-.26-1.22-.36-1.83,0-.2-.07-.41-.1-.61-.08-.48,0,.5,0-.3-.15-1.44-.25-2.88-.28-4.32a55,55,0,0,1,.54-8.54A146.74,146.74,0,0,1,36.45,38a4.26,4.26,0,0,0-8.21-2.26"/><path d="M124.11,62.1a19.47,19.47,0,0,1,2.18-1.43c.37-.21.76-.4,1.14-.58,1.18-.57-.67.17.57-.23.68-.21,1.35-.44,2.05-.61.42-.11.84-.2,1.26-.28l.86-.14c-.42.06-.36.05.16,0a31.58,31.58,0,0,1,9.49.64c7.45,1.64,14.31,5.22,21.62,7.34a39.49,39.49,0,0,0,21.37.58A41.72,41.72,0,0,0,201.93,58a38.22,38.22,0,0,0,11.52-18.87,4.26,4.26,0,1,0-8.21-2.27A35.37,35.37,0,0,1,203.9,41c.33-.83-.16.37-.19.44-.17.36-.34.72-.52,1.07-.35.71-.74,1.4-1.14,2.08s-.77,1.24-1.18,1.84c-.19.27-.38.53-.57.81-.73,1.05.51-.61-.3.39a37,37,0,0,1-3.22,3.52,27.79,27.79,0,0,1-6.45,4.8c-.7.4-1.4.77-2.11,1.12-.36.18-.72.34-1.08.51-.12.06-.75.33-.08,0a35.67,35.67,0,0,1-4.51,1.52c-.7.18-1.41.35-2.12.49l-1,.18c-.1,0-1.39.18-.43.07a32.78,32.78,0,0,1-4.75.21,35.22,35.22,0,0,1-9.54-1.82c-7.23-2.23-14.07-5.76-21.53-7.23-7.86-1.56-16.72-1.33-23.39,3.68-1.83,1.38-2.78,3.68-1.52,5.82,1.06,1.81,4,2.92,5.82,1.53"/><path d="M207.6,37.25a53.56,53.56,0,0,1-2.59,10c-.17.45-.34.9-.52,1.35-.07.19-.15.39-.23.58,0-.08.22-.52,0-.06-.36.82-.74,1.64-1.14,2.44-.76,1.56-1.6,3.07-2.5,4.54s-1.89,2.9-2.91,4.3a5.37,5.37,0,0,1-.35.45c-.26.33-.52.65-.79,1-.57.69-1.17,1.37-1.77,2-1.22,1.32-2.49,2.6-3.83,3.8-.61.56-1.24,1.1-1.88,1.63l-1,.78c-.38.3,0,0,0,0l-.66.5a54,54,0,0,1-8.9,5.29l-1.33.6c-.45.19,0,0,.06,0l-.58.24c-.88.34-1.77.67-2.66,1q-2.6.9-5.25,1.58t-5.39,1.14c-.43.08-.87.14-1.31.21a4.25,4.25,0,0,1-.61.08c-.95.11-1.9.21-2.85.28a59.44,59.44,0,0,1-11.16-.19l-.65-.08c-.73-.09.57.09-.16,0l-1.5-.24c-1-.18-2-.39-3-.62A48.42,48.42,0,0,1,136.52,78l-.6-.23c-.19-.08-.9-.37-.37-.14-.46-.2-.92-.4-1.37-.62-.91-.42-1.8-.88-2.67-1.37a42.11,42.11,0,0,1-5.23-3.44c-1.83-1.39-4.76-.28-5.82,1.53-1.28,2.19-.31,4.43,1.52,5.83,13,9.92,30.49,11.8,46.15,8.56A61.05,61.05,0,0,0,206.3,63a57.28,57.28,0,0,0,9.51-23.53c.35-2.19-.56-4.68-3-5.24-2-.46-4.87.62-5.24,3"/><path d="M109.33,53.51c-.81-9.94-8.12-19-18-21.23-5.84-1.34-11.68.3-17.22.69a15.05,15.05,0,0,1-7.05-.88c.64.25-.79-.39-.92-.46a15.71,15.71,0,0,1-1.46-.88c-.23-.15-.47-.32-.69-.49.17.13.44.41-.13-.14s-.94-.86-1.37-1.34c-.19-.21-.38-.42-.56-.64s-.18-.22,0,0c-.08-.11-.16-.23-.25-.34-.38-.62-.75-1.23-1.09-1.88a5.39,5.39,0,0,1-.51-1.35,17.68,17.68,0,0,1-.5-2c0-.07-.09-.82,0-.25,0-.39-.06-.77-.07-1.16a16.16,16.16,0,0,1,.07-2.09c-.06.57,0-.18.05-.25.08-.46.18-.91.3-1.36s.17-.59.27-.89c0-.11.49-1.22.26-.71.94-2.09.6-4.58-1.53-5.82C57.11,9,54.05,9.44,53.1,11.55a21.57,21.57,0,0,0-.22,17.84A21.05,21.05,0,0,0,64.81,40.3c5.67,2.17,11.87.8,17.35.16a31.89,31.89,0,0,1,4.15-.26,18.21,18.21,0,0,1,2,.11c-.85-.09.8.17,1,.23A16.75,16.75,0,0,1,91,41l.74.28c-.18-.07-.65-.33.07,0a24.71,24.71,0,0,1,2.9,1.7c.09.06.74.57.37.27s.41.36.48.43c.5.44,1,.9,1.43,1.39l.52.59s.8,1,.33.39c.34.48.68,1,1,1.48s.57,1.05.85,1.57c.38.72.13.25,0,.07a11.57,11.57,0,0,1,.41,1.12,17.78,17.78,0,0,1,.52,1.9c.06.26.1.52.15.78-.14-.75,0,.2,0,.45.18,2.21,1.83,4.37,4.26,4.26,2.15-.1,4.45-1.88,4.26-4.26"/><path d="M51.36,9.94c-6.43,11.63-10.23,26.06-5,38.88A31.39,31.39,0,0,0,57.64,63.35c4.43,3,9.71,3.8,15,3.9s11.43-.32,16.48-2.4c2.13-.88,3.64-2.83,3-5.24-.56-2-3.1-3.86-5.24-3a26.43,26.43,0,0,1-5.59,1.52c-.25,0-1.82.28-.87.15-.5.07-1,.12-1.51.18q-2,.2-3.9.24a44.83,44.83,0,0,1-6.85-.3c1,.14-.5-.1-.75-.15-.48-.09-1-.2-1.43-.32s-.78-.22-1.16-.35c-.08,0-1-.38-.28-.09s-.28-.16-.41-.22A16.46,16.46,0,0,1,58.6,53a12.21,12.21,0,0,1-1.76-2.25,29.54,29.54,0,0,1-2-3.46c-.13-.26-.24-.51-.36-.77.27.6,0,0-.06-.15-.26-.65-.5-1.31-.71-2a31.51,31.51,0,0,1-.94-3.68c-.06-.35-.12-.69-.17-1-.13-.79.07,1,0-.33-.06-.61-.11-1.22-.14-1.83a35.84,35.84,0,0,1,.08-4.75c.5-6.25,3-12.81,6.17-18.51a4.26,4.26,0,0,0-7.35-4.3"/><path d="M123.78,54a33.7,33.7,0,0,1-.26-4.6c0-.77,0-1.54.11-2.3l.09-.92c.06-.53.08-.61,0-.23l.12-.69a30.54,30.54,0,0,1,2.67-8.35,27.07,27.07,0,0,1,4.84-7,26,26,0,0,1,6.48-5.09A29.15,29.15,0,0,1,154.69,21c7,.37,14,2.07,21,.36,6.51-1.59,13-6.19,14.34-13.1.43-2.18-.62-4.7-3-5.24-2.11-.48-4.78.64-5.24,3a11.51,11.51,0,0,1-.5,1.83c.3-.82-.44.7-.58,1-.54,1,.32-.34-.1.18-.2.24-.41.47-.62.7l-.68.65-.43.37c.37-.27.35-.26-.05,0a18.74,18.74,0,0,1-1.64,1c-.23.13-.47.25-.7.36.05,0-1.12.5-.57.27s-.66.24-.6.22c-.32.1-.63.21-1,.3a19.8,19.8,0,0,1-2.12.51c-.12,0-1.4.18-.43.08l-.77.07c-.91.07-1.82.09-2.73.08-2,0-4-.2-6-.41a81.63,81.63,0,0,0-10.93-.78A37.35,37.35,0,0,0,115.26,54c.27,2.2,1.77,4.37,4.26,4.25,2.08-.09,4.55-1.89,4.26-4.25"/><path d="M181.84,7.42a36.1,36.1,0,0,1,.31,6.06c0,1-.11,2-.23,3,.08-.72-.09.61-.13.8-.09.57-.2,1.14-.33,1.7a38.16,38.16,0,0,1-1.77,5.81c0,.07-.38.9-.2.49l-.13.29c-.22.45-.43.91-.66,1.37-.49,1-1,1.91-1.58,2.84a25.61,25.61,0,0,1-3.22,4.34,32.66,32.66,0,0,1-4.45,4.19c-.29.23-1.55,1.1-2.24,1.54-1,.65-2,1.24-3.07,1.81s-2,1-3,1.48l-1,.45-1.48.6a143.83,143.83,0,0,1-15,4.61A4.26,4.26,0,0,0,145.94,57c9.52-2.56,19.45-5.27,27.53-11.16A41.76,41.76,0,0,0,189.26,23a39.7,39.7,0,0,0,1.09-15.53c-.29-2.2-1.74-4.37-4.25-4.26-2.06.09-4.58,1.89-4.26,4.26"/><path d="M75.78,244a44.42,44.42,0,0,0-1.41,40c1,2.09,4,2.6,5.83,1.52,2.14-1.25,2.48-3.72,1.52-5.82a35.26,35.26,0,0,1-3-15.89,35.66,35.66,0,0,1,4.38-15.55,4.26,4.26,0,0,0-7.36-4.3"/><path d="M75.91,278.56c-.13.06-1.59.68-.79.35l-1.1.44c-.86.34-1.73.65-2.6.94q-2.44.81-5,1.39c-.83.19-1.67.37-2.51.52-.45.09-.91.17-1.36.24-.08,0-1.37.2-.43.07a50.91,50.91,0,0,1-5.52.45,4.26,4.26,0,0,0,0,8.51,62.07,62.07,0,0,0,23.56-5.56c2-.92,2.69-4,1.53-5.83a4.38,4.38,0,0,0-5.83-1.52"/><path d="M140.7,250.25a172.33,172.33,0,0,0-3,36.62,4.26,4.26,0,0,0,8.52,0,161,161,0,0,1,2.73-34.36c.42-2.18-.6-4.69-3-5.23-2.1-.48-4.79.63-5.24,3"/><path d="M139.67,283.77,124.36,291a4.28,4.28,0,0,0-1.52,5.83,4.36,4.36,0,0,0,5.82,1.52l15.3-7.17a4.28,4.28,0,0,0,1.53-5.83,4.38,4.38,0,0,0-5.82-1.53"/><path d="M5.44,182.08Q2.77,193.79.11,205.49a4.34,4.34,0,0,0,3,5.24,4.32,4.32,0,0,0,5.24-3q2.65-11.7,5.32-23.41a4.33,4.33,0,0,0-3-5.24,4.33,4.33,0,0,0-5.24,3"/><path d="M223.23,183.5a72.15,72.15,0,0,1,9.1,26.12c.32,2.21,3.23,3.62,5.23,3,2.42-.78,3.33-2.87,3-5.23a79,79,0,0,0-10-28.15,4.26,4.26,0,1,0-7.35,4.29"/><path d="M121.1,155.6a37.94,37.94,0,0,1-3.44-15.06,37.55,37.55,0,0,1,3.12-15.75c.87-2.06-.93-4.77-3-5.24-2.5-.57-4.31.77-5.24,3a46.1,46.1,0,0,0,1.17,37.36c1,2.08,4,2.62,5.83,1.53a4.34,4.34,0,0,0,1.53-5.82"/><path d="M76.43,155.47a26.63,26.63,0,0,1-2.19-3.37c-.3-.56-.58-1.13-.85-1.71.25.53-.06-.14-.14-.35s-.19-.53-.29-.79a29,29,0,0,1-1-3.89l-.18-1c-.11-.72.06.58,0-.14s-.13-1.41-.16-2.11a27,27,0,0,1,.12-3.82c0-.26.12-1,0-.34,0-.28.09-.56.14-.84.13-.69.28-1.38.46-2.07s.35-1.22.55-1.82c.11-.34.24-.67.36-1s.24-.57.05-.15a25.73,25.73,0,0,1,2-3.72,4.26,4.26,0,1,0-7.35-4.3c-6.89,10.61-6.54,25.63,1.14,35.76,1.38,1.83,3.67,2.79,5.82,1.53,1.81-1.06,2.93-4,1.53-5.83"/><path d="M90.59,165.18c-4.85-.57-10-1-14.69.58a16,16,0,0,0-10,9.46,11.51,11.51,0,0,0,2.88,12.59c3.56,3.19,8.31,4.14,13,4.39A43.78,43.78,0,0,0,99,189.6a4.38,4.38,0,0,0,3-5.24c-.57-2.08-3.07-3.77-5.24-3a35.9,35.9,0,0,1-15,2.31c-.65,0-1.29-.09-1.93-.15s-.53-.07-.05,0l-.8-.14a19.31,19.31,0,0,1-2.7-.76c.78.29-.61-.31-.76-.4s-.44-.26-.65-.41c.34.3.33.29,0,0-.15-.15-1-1.26-.59-.56-.1-.16-.63-1.26-.48-.84.22.65-.23-1.47-.07-.12a7.59,7.59,0,0,1,0-1.43c-.07,1,.16-.43.21-.66.17-.46.16-.46,0,0,.1-.23.21-.46.33-.68a10.74,10.74,0,0,1,.81-1.29c-.43.58.18-.17.33-.33a11.14,11.14,0,0,1,1.13-1c-.68.53.59-.32.73-.4a12.64,12.64,0,0,1,5.58-1.24,54.42,54.42,0,0,1,7.86.51c2.22.26,4.35-2.14,4.25-4.26-.11-2.52-1.87-4-4.25-4.25"/></svg>