<svg id="Layer_1" data-name="Layer 1" xmlns="http://www.w3.org/2000/svg" viewBox="0 0 194.69 266.41"><path d="M35.79,37.19Q36.36,27.1,36.92,17a4.29,4.29,0,0,0-4.26-4.25A4.35,4.35,0,0,0,28.4,17q-.55,10.11-1.13,20.2a4.29,4.29,0,0,0,4.26,4.26,4.35,4.35,0,0,0,4.26-4.26"/><path d="M33.52,20A183.46,183.46,0,0,1,58,12.8,175,175,0,0,1,82.41,9.13a183.47,183.47,0,0,1,77.81,10.28,4.28,4.28,0,0,0,5.24-3,4.37,4.37,0,0,0-3-5.24,191.45,191.45,0,0,0-51-10.7A194.16,194.16,0,0,0,59.23,3.85a185.84,185.84,0,0,0-28,8,4.37,4.37,0,0,0-3,5.24c.57,2.07,3.07,3.78,5.23,3"/><path d="M157.94,18.12q1.63,8.13,3.26,16.27a4.27,4.27,0,0,0,5.23,3,4.36,4.36,0,0,0,3-5.24q-1.64-8.13-3.26-16.27a4.28,4.28,0,0,0-5.23-3,4.36,4.36,0,0,0-3,5.24"/><path d="M174,41.9c.15.21.36.83.56,1-.4-.27-.34-1-.13-.25.06.22.14.43.2.65.12.43.21.87.29,1.31,0,.15.14,1.1.07.34s0,.1,0,.26a45.49,45.49,0,0,1,.08,7.29c-.07,1.24-.18,2.49-.32,3.73,0,.31-.07.63-.11,1s-.07,1.25,0,.1c0,.54-.16,1.09-.25,1.63a39,39,0,0,1-1.2,5.45,4.29,4.29,0,0,0,3,5.24,4.35,4.35,0,0,0,5.24-3,58.77,58.77,0,0,0,2.2-14.45,42.82,42.82,0,0,0-.16-7.51c-.28-2.39-.67-5-2.1-7-1.29-1.81-3.78-2.85-5.83-1.52-1.8,1.15-2.91,3.88-1.53,5.82"/><path d="M25.51,45.88a77.67,77.67,0,0,1,12-6.9l1.62-.74.66-.28c1.09-.49-.81.32.3-.13s2.24-.9,3.37-1.32c2.3-.86,4.64-1.63,7-2.32a128.36,128.36,0,0,1,14.74-3.38c1.23-.21,2.46-.4,3.69-.59l1-.14.25,0,2.17-.27q3.9-.45,7.83-.73a213.9,213.9,0,0,1,33.1.34q4.17.34,8.31.84l1.86.23c.23,0,1.92.25,1.14.14,1.51.21,3,.43,4.51.66q8,1.23,15.86,3A212.78,212.78,0,0,1,177.26,44c2.07.82,4.76-.9,5.24-3a4.39,4.39,0,0,0-3-5.24c-20-7.91-41.27-12.43-62.59-14.57C95.19,19,72.64,19.48,51.42,25.07c-10.67,2.81-21.17,7.06-30.21,13.46a4.37,4.37,0,0,0-1.53,5.82c1.09,1.86,3.94,2.87,5.83,1.53"/><path d="M19.38,41.07q-3.09,11-6.17,22a4.26,4.26,0,0,0,8.21,2.27q3.09-11,6.17-22a4.26,4.26,0,1,0-8.21-2.26"/><path d="M20.17,71.93a587.88,587.88,0,0,1,60.16-9.39,599.75,599.75,0,0,1,61.41-3.15q17.37,0,34.73,1a4.28,4.28,0,0,0,4.26-4.26,4.36,4.36,0,0,0-4.26-4.26,599.75,599.75,0,0,0-62-.38,608.75,608.75,0,0,0-62.06,6Q35.05,60.13,17.9,63.71a4.26,4.26,0,0,0,2.27,8.22"/><path d="M14.81,69.44A14.31,14.31,0,0,0,28.62,77a3.21,3.21,0,0,0,1.64-.37,3.14,3.14,0,0,0,1.37-.88,4.36,4.36,0,0,0,1.25-3,4.3,4.3,0,0,0-1.25-3,4.11,4.11,0,0,0-3-1.25,10.29,10.29,0,0,1-2.48,0l1.14.15a11.16,11.16,0,0,1-2.53-.69l1,.43A11.43,11.43,0,0,1,23.38,67l.86.66a10.67,10.67,0,0,1-1.75-1.74c.23.28.45.57.67.86a9.59,9.59,0,0,1-1-1.61,4.34,4.34,0,0,0-2.54-2,4.4,4.4,0,0,0-3.29.43,4.27,4.27,0,0,0-1.95,2.55,4.68,4.68,0,0,0,.43,3.28"/><path d="M26.71,69.08a493.58,493.58,0,0,0,5.44,58.2,483.34,483.34,0,0,0,12.17,56.56q4.41,15.82,9.9,31.31a4.37,4.37,0,0,0,5.24,3,4.3,4.3,0,0,0,3-5.24A480.93,480.93,0,0,1,46.5,157.55a473.12,473.12,0,0,1-9.11-56q-1.64-16.22-2.16-32.5a4.26,4.26,0,1,0-8.52,0"/><path d="M58,217.8A149.55,149.55,0,0,0,131.2,220,143.09,143.09,0,0,0,151,214.15a4.38,4.38,0,0,0,3-5.24c-.56-2.06-3.07-3.79-5.24-3a142.5,142.5,0,0,1-34,8.24A144.91,144.91,0,0,1,80,213.79a142.08,142.08,0,0,1-19.68-4.2A4.26,4.26,0,0,0,58,217.8"/><path d="M165.49,57.94c-1.11,21.1-2.33,42.19-4.22,63.23-1.84,20.47-4.1,40.13-8.12,60.28a203.86,203.86,0,0,1-7.41,27.46,4.29,4.29,0,0,0,3,5.24,4.36,4.36,0,0,0,5.23-3c6.08-17.35,9.17-35.47,11.72-53.63,3-21.32,4.84-42.79,6.27-64.27.79-11.77,1.45-23.54,2.07-35.33a4.29,4.29,0,0,0-4.26-4.25,4.34,4.34,0,0,0-4.26,4.25"/><path d="M171.56,61.77a6.31,6.31,0,0,1,1.28.75l-.87-.66A6.64,6.64,0,0,1,173.12,63l-.66-.86a7.75,7.75,0,0,1,.83,1.42c-.15-.34-.29-.68-.43-1a7.62,7.62,0,0,1,.48,1.74l-.15-1.13a6.92,6.92,0,0,1,0,1.64c0-.38.1-.76.16-1.13a6.49,6.49,0,0,1-.41,1.43c.14-.34.29-.68.43-1a7.28,7.28,0,0,1-.76,1.29l.66-.87a7,7,0,0,1-1.18,1.19l.86-.67a8.06,8.06,0,0,1-1.44.86l1-.43a7.18,7.18,0,0,1-1.6.46l1.13-.15a6.84,6.84,0,0,1-1.5,0,4.27,4.27,0,0,0-3,1.25,4.36,4.36,0,0,0-1.25,3,4.3,4.3,0,0,0,1.25,3,4.85,4.85,0,0,0,3,1.25A10,10,0,0,0,177,72.59a10.73,10.73,0,0,0,4.47-6.09c1.14-4.59-1.13-10.11-5.58-12.08a4.62,4.62,0,0,0-3.28-.43A4.31,4.31,0,0,0,170,56a4.23,4.23,0,0,0-.43,3.28,4.13,4.13,0,0,0,1.95,2.54"/><path d="M130,214.82a131.81,131.81,0,0,1-4.53,34.68,4.26,4.26,0,0,0,8.22,2.26,142.22,142.22,0,0,0,4.83-36.94,4.26,4.26,0,1,0-8.52,0"/><path d="M125.94,254.46a20.19,20.19,0,0,0,14,6.82,4.26,4.26,0,0,0,3-7.27,4.74,4.74,0,0,0-3-1.25c-.35,0-.69-.06-1-.1l1.14.15a15.83,15.83,0,0,1-4-1.1l1,.43a16,16,0,0,1-3.58-2.09l.86.67a16.48,16.48,0,0,1-2.37-2.28,4.3,4.3,0,0,0-3-1.25,4.36,4.36,0,0,0-3,1.25,4.26,4.26,0,0,0-1.24,3,4.77,4.77,0,0,0,1.24,3"/><path d="M87.39,219.23A107,107,0,0,0,85,252.88c.2,2.21,1.82,4.37,4.26,4.26,2.14-.1,4.47-1.89,4.26-4.26a99,99,0,0,1,2.12-31.39,4.26,4.26,0,1,0-8.21-2.26"/><path d="M85.33,251,79,260a4.25,4.25,0,0,0,1.53,5.82,4.24,4.24,0,0,0,3.28.43,4.76,4.76,0,0,0,2.55-1.95q3.13-4.53,6.28-9A4.26,4.26,0,0,0,87.87,249a4.8,4.8,0,0,0-2.54,2"/><path d="M98.39,106.32l-.06-.37c.06.37.11.75.16,1.13-.56-4.22-.37-8.54-1.12-12.75a4.26,4.26,0,0,0-2-2.54,4.36,4.36,0,0,0-3.28-.43,4.27,4.27,0,0,0-2.54,2,4.83,4.83,0,0,0-.43,3.28l.06.37-.15-1.13c.55,4.23.36,8.55,1.11,12.75a4.26,4.26,0,0,0,7.78,1,4.8,4.8,0,0,0,.43-3.29"/><path d="M144.92,105.62c-.23-4.23-.08-8.48-.31-12.71a4.34,4.34,0,0,0-4.26-4.26c-2.2.1-4.39,1.88-4.26,4.26.23,4.23.08,8.48.32,12.71a4.32,4.32,0,0,0,4.26,4.25c2.2-.1,4.38-1.87,4.25-4.25"/><path d="M87.52,115.53c4.45-.17,8.9-.13,13.36-.31a4.26,4.26,0,0,0,0-8.51c-4.46.17-8.91.13-13.36.31a4.26,4.26,0,1,0,0,8.51"/><path d="M136.61,114l8.42-1.22a4.24,4.24,0,0,0,2.55-2,4.36,4.36,0,0,0,.43-3.28,4.31,4.31,0,0,0-2-2.54l-1-.43a4.33,4.33,0,0,0-2.26,0l-8.42,1.22a4.28,4.28,0,0,0-2.55,2,4.37,4.37,0,0,0-.43,3.28,4.27,4.27,0,0,0,2,2.54l1,.43a4.13,4.13,0,0,0,2.26,0"/><path d="M115.52,132.77l5.91-.08a27.44,27.44,0,0,0,5.8-.31A6.65,6.65,0,0,0,132,128a9.81,9.81,0,0,0-.21-5.55c-2-7.41-4.26-14.78-6.39-22.17a4.26,4.26,0,1,0-8.22,2.26q2.69,9.28,5.36,18.57c.39,1.38.84,2.76,1.18,4.15,0,.19.09.37.13.56l-.06-.37c.27.33-.22.43.09,0a3.76,3.76,0,0,1,1.11-1.17c.17-.11.71,0,.25-.08a42.53,42.53,0,0,0-4.65.08l-5.1.06a4.26,4.26,0,1,0,0,8.52"/><path d="M34.35,122.86l-28,4.27c-2.28.35-3.53,3.21-3,5.24.67,2.43,3,3.32,5.24,3l28-4.27c2.27-.34,3.53-3.2,3-5.23-.67-2.44-2.95-3.33-5.23-3"/><path d="M2.57,131.19Q1.3,144.7,0,158.2c-.21,2.23,2.11,4.36,4.26,4.26a4.37,4.37,0,0,0,4.26-4.26q1.28-13.5,2.56-27c.21-2.22-2.11-4.35-4.26-4.26a4.38,4.38,0,0,0-4.26,4.26"/><path d="M164.52,125.06l22.09,4.09c2.19.4,4.7-.6,5.24-3,.48-2.09-.63-4.81-3-5.24l-22.09-4.09c-2.19-.4-4.7.6-5.24,3-.48,2.09.63,4.8,3,5.23"/><path d="M183.48,125.69q1.34,15.78,2.68,31.56c.19,2.21,1.82,4.36,4.26,4.25,2.14-.09,4.46-1.88,4.25-4.25L192,125.69c-.19-2.21-1.83-4.37-4.26-4.26-2.15.1-4.46,1.88-4.26,4.26"/></svg>